<svg width="33" height="33" viewBox="0 0 33 33" fill="none" xmlns="http://www.w3.org/2000/svg">
<path d="M23.375 18.4387L17.4763 12.6087C17.3484 12.4799 17.1964 12.3776 17.0288 12.3078C16.8612 12.238 16.6815 12.202 16.5 12.202C16.3185 12.202 16.1388 12.238 15.9712 12.3078C15.8037 12.3776 15.6516 12.4799 15.5238 12.6087L9.69376 18.4387C9.56488 18.5666 9.46259 18.7186 9.39278 18.8862C9.32297 19.0538 9.28703 19.2335 9.28703 19.415C9.28703 19.5965 9.32297 19.7762 9.39278 19.9438C9.46259 20.1113 9.56488 20.2634 9.69376 20.3912C9.95138 20.6473 10.2999 20.7911 10.6631 20.7911C11.0264 20.7911 11.3749 20.6473 11.6325 20.3912L16.5 15.5237L21.3675 20.3912C21.6236 20.6453 21.9693 20.7885 22.33 20.79C22.511 20.791 22.6904 20.7564 22.8579 20.6879C23.0254 20.6195 23.1778 20.5187 23.3063 20.3912C23.4397 20.268 23.5475 20.1196 23.6232 19.9545C23.699 19.7894 23.7413 19.6109 23.7477 19.4293C23.7541 19.2478 23.7245 19.0668 23.6605 18.8967C23.5965 18.7267 23.4995 18.5711 23.375 18.4387Z" fill="#242424"/>
</svg>
