<svg width="12" height="10" viewBox="0 0 12 10" fill="none" xmlns="http://www.w3.org/2000/svg">
<path d="M6.41426 8.96083C6.35755 8.90931 6.29245 8.86787 6.22176 8.83833C6.11552 8.79366 5.99844 8.78146 5.88528 8.80326C5.77212 8.82506 5.66795 8.87989 5.58592 8.96083C5.47933 9.07262 5.4189 9.22055 5.41676 9.375C5.41631 9.45177 5.43103 9.52787 5.46006 9.59894C5.48908 9.67002 5.53186 9.73466 5.58592 9.78916C5.64262 9.84069 5.70773 9.88212 5.77842 9.91166C5.88443 9.9541 6.00056 9.96449 6.11242 9.94154C6.22427 9.91859 6.32693 9.86333 6.40767 9.78258C6.48842 9.70184 6.54368 9.59918 6.56663 9.48732C6.58957 9.37547 6.57919 9.25934 6.53676 9.15333C6.50899 9.08173 6.46736 9.01631 6.41426 8.96083ZM6.00009 5.29167C5.84538 5.29167 5.69701 5.35312 5.58761 5.46252C5.47821 5.57192 5.41676 5.72029 5.41676 5.875V7.625C5.41676 7.77971 5.47821 7.92808 5.58761 8.03748C5.69701 8.14687 5.84538 8.20833 6.00009 8.20833C6.1548 8.20833 6.30317 8.14687 6.41257 8.03748C6.52196 7.92808 6.58342 7.77971 6.58342 7.625V5.875C6.58342 5.72029 6.52196 5.57192 6.41257 5.46252C6.30317 5.35312 6.1548 5.29167 6.00009 5.29167ZM9.74509 2.4975C9.38827 1.67839 8.77264 0.998915 7.9926 0.563258C7.21256 0.1276 6.31116 -0.0401928 5.4266 0.0856047C4.54205 0.211402 3.72316 0.623846 3.09551 1.2597C2.46785 1.89555 2.06607 2.71972 1.95176 3.60583C1.3956 3.73902 0.907718 4.07182 0.580769 4.54103C0.25382 5.01023 0.110571 5.58317 0.178226 6.15104C0.24588 6.71891 0.519727 7.24216 0.947761 7.62142C1.37579 8.00068 1.92821 8.20954 2.50009 8.20833H3.66676C3.82146 8.20833 3.96984 8.14687 4.07923 8.03748C4.18863 7.92808 4.25009 7.77971 4.25009 7.625C4.25009 7.47029 4.18863 7.32192 4.07923 7.21252C3.96984 7.10312 3.82146 7.04167 3.66676 7.04167H2.50009C2.19067 7.04167 1.89392 6.91875 1.67513 6.69996C1.45634 6.48116 1.33342 6.18442 1.33342 5.875C1.33342 5.56558 1.45634 5.26883 1.67513 5.05004C1.89392 4.83125 2.19067 4.70833 2.50009 4.70833C2.6548 4.70833 2.80317 4.64687 2.91257 4.53748C3.02196 4.42808 3.08342 4.27971 3.08342 4.125C3.08491 3.43508 3.33092 2.76802 3.77775 2.24234C4.22457 1.71666 4.84327 1.36639 5.52394 1.25376C6.20461 1.14113 6.90316 1.27344 7.4955 1.62717C8.08784 1.98091 8.53561 2.53316 8.75925 3.18583C8.79348 3.28499 8.8538 3.37308 8.93387 3.44083C9.01394 3.50859 9.11081 3.5535 9.21426 3.57083C9.64184 3.64973 10.0247 3.88497 10.2884 4.23074C10.552 4.5765 10.6774 5.00802 10.6403 5.44123C10.6032 5.87444 10.4061 6.27832 10.0875 6.57417C9.76887 6.87003 9.35153 7.03668 8.91675 7.04167H8.33342C8.17871 7.04167 8.03034 7.10312 7.92094 7.21252C7.81155 7.32192 7.75009 7.47029 7.75009 7.625C7.75009 7.77971 7.81155 7.92808 7.92094 8.03748C8.03034 8.14687 8.17871 8.20833 8.33342 8.20833H8.91675C9.61638 8.2064 10.292 7.95306 10.8204 7.4945C11.3488 7.03594 11.6948 6.40273 11.7952 5.71035C11.8956 5.01796 11.7438 4.31255 11.3675 3.72277C10.9911 3.13298 10.4153 2.69812 9.74509 2.4975Z" fill="white"/>
</svg>
