<svg width="58" height="58" viewBox="0 0 58 58" fill="none" xmlns="http://www.w3.org/2000/svg">
<path d="M58 29C58 45.0163 45.0163 58 29 58C12.9837 58 0 45.0163 0 29C0 12.9837 12.9837 0 29 0C45.0163 0 58 12.9837 58 29ZM4.80803 29C4.80803 42.3609 15.6391 53.192 29 53.192C42.3609 53.192 53.192 42.3609 53.192 29C53.192 15.6391 42.3609 4.80803 29 4.80803C15.6391 4.80803 4.80803 15.6391 4.80803 29Z" fill="white"/>
<path d="M51.9506 15.5607C53.0964 14.8898 53.4893 13.4103 52.7258 12.3241C50.5609 9.24395 47.8123 6.60829 44.628 4.5712C40.7672 2.10131 36.3759 0.581671 31.8143 0.136884C27.2527 -0.307903 22.6507 0.334829 18.3855 2.01238C14.1203 3.68993 10.3134 6.35452 7.27705 9.78768C4.24068 13.2208 2.06127 17.3248 0.917514 21.763C-0.226239 26.2012 -0.301763 30.8474 0.697136 35.3204C1.69604 39.7935 3.74091 43.9661 6.66409 47.4961C9.07505 50.4076 12.0268 52.8136 15.3484 54.5858C16.5198 55.2108 17.9402 54.6401 18.4661 53.421C18.992 52.2018 18.4226 50.7976 17.2617 50.1533C14.6333 48.6948 12.2934 46.7556 10.3673 44.4296C7.92872 41.4848 6.22288 38.004 5.38959 34.2725C4.5563 30.5411 4.6193 26.6653 5.57343 22.9629C6.52756 19.2605 8.34563 15.8369 10.8786 12.973C13.4115 10.109 16.5872 7.8862 20.1453 6.48677C23.7033 5.08735 27.5424 4.55118 31.3477 4.92222C35.1531 5.29327 38.8162 6.56096 42.0369 8.62135C44.5809 10.2488 46.7915 12.3342 48.5603 14.7647C49.3416 15.8382 50.8049 16.2316 51.9506 15.5607Z" fill="#FF9900"/>
</svg>
