<svg width="17" height="17" viewBox="0 0 17 17" fill="none" xmlns="http://www.w3.org/2000/svg">
<path d="M9.29165 7.70831H4.54165C4.33168 7.70831 4.13032 7.79172 3.98185 7.94019C3.83339 8.08865 3.74998 8.29002 3.74998 8.49998C3.74998 8.70994 3.83339 8.91131 3.98185 9.05977C4.13032 9.20824 4.33168 9.29165 4.54165 9.29165H9.29165C9.50161 9.29165 9.70297 9.20824 9.85144 9.05977C9.99991 8.91131 10.0833 8.70994 10.0833 8.49998C10.0833 8.29002 9.99991 8.08865 9.85144 7.94019C9.70297 7.79172 9.50161 7.70831 9.29165 7.70831ZM12.4583 4.54165H4.54165C4.33168 4.54165 4.13032 4.62505 3.98185 4.77352C3.83339 4.92199 3.74998 5.12335 3.74998 5.33331C3.74998 5.54328 3.83339 5.74464 3.98185 5.89311C4.13032 6.04157 4.33168 6.12498 4.54165 6.12498H12.4583C12.6683 6.12498 12.8696 6.04157 13.0181 5.89311C13.1666 5.74464 13.25 5.54328 13.25 5.33331C13.25 5.12335 13.1666 4.92199 13.0181 4.77352C12.8696 4.62505 12.6683 4.54165 12.4583 4.54165ZM14.0416 0.583313H2.95831C2.32842 0.583313 1.72433 0.833536 1.27893 1.27893C0.833536 1.72433 0.583313 2.32842 0.583313 2.95831V10.875C0.583313 11.5049 0.833536 12.109 1.27893 12.5544C1.72433 12.9998 2.32842 13.25 2.95831 13.25H12.1337L15.0629 16.1871C15.1369 16.2604 15.2246 16.3185 15.3211 16.3579C15.4175 16.3973 15.5208 16.4172 15.625 16.4166C15.7288 16.4193 15.8319 16.3976 15.9258 16.3533C16.0704 16.2939 16.1941 16.1931 16.2815 16.0635C16.3688 15.9338 16.4159 15.7813 16.4166 15.625V2.95831C16.4166 2.32842 16.1664 1.72433 15.721 1.27893C15.2756 0.833536 14.6715 0.583313 14.0416 0.583313ZM14.8333 13.7171L13.0204 11.8962C12.9464 11.8229 12.8587 11.7648 12.7622 11.7254C12.6658 11.686 12.5625 11.666 12.4583 11.6666H2.95831C2.74835 11.6666 2.54699 11.5832 2.39852 11.4348C2.25005 11.2863 2.16665 11.0849 2.16665 10.875V2.95831C2.16665 2.74835 2.25005 2.54699 2.39852 2.39852C2.54699 2.25005 2.74835 2.16665 2.95831 2.16665H14.0416C14.2516 2.16665 14.453 2.25005 14.6014 2.39852C14.7499 2.54699 14.8333 2.74835 14.8333 2.95831V13.7171Z" fill="#242424"/>
</svg>
