<svg width="20" height="20" viewBox="0 0 20 20" fill="none" xmlns="http://www.w3.org/2000/svg">
<path d="M17.3969 15.8263C15.9636 14.8383 15.6666 13.4457 15.6666 10.6663V7.99967C15.6666 5.24101 13.6939 2.94501 11.0829 2.43901C11.2393 2.22067 11.3333 1.95534 11.3333 1.66634C11.3333 0.930008 10.7363 0.333008 9.99992 0.333008C9.26358 0.333008 8.66658 0.930008 8.66658 1.66634C8.66658 1.95534 8.76059 2.22067 8.91725 2.43901C6.30592 2.94501 4.33325 5.24101 4.33325 7.99967V10.6663C4.33325 13.4457 4.03625 14.8383 2.60292 15.8263C2.43159 15.9447 2.33325 16.1437 2.33325 16.3517C2.33325 16.7093 2.62359 16.9997 2.98159 16.9997H17.0179C17.3763 16.9997 17.6666 16.7093 17.6666 16.3517C17.6666 16.1437 17.5683 15.9447 17.3969 15.8263ZM8.38792 5.54001C7.58992 6.07967 6.99992 6.96567 6.99992 7.99967C6.99992 8.36767 6.70125 8.66634 6.33325 8.66634C5.96525 8.66634 5.66658 8.36767 5.66658 7.99967C5.66658 6.51101 6.47925 5.22834 7.62625 4.44767C7.73292 4.37534 7.86125 4.33301 7.99992 4.33301C8.36792 4.33301 8.66658 4.63167 8.66658 4.99967C8.66658 5.22267 8.55592 5.41901 8.38792 5.54001Z" fill="white"/>
<path d="M11.3334 18.3331C11.3334 19.0695 10.7364 19.6665 10.0001 19.6665C9.26375 19.6665 8.66675 19.0695 8.66675 18.3331V17.9998H11.3334V18.3331Z" fill="white"/>
</svg>
