<svg width="16" height="16" viewBox="0 0 16 16" fill="none" xmlns="http://www.w3.org/2000/svg">
<path d="M8.91382 8.91382L14.4817 8.9203C14.7258 8.9203 14.9599 8.82333 15.1325 8.65072C15.3051 8.4781 15.4021 8.24399 15.4021 7.99988C15.4021 7.75577 15.3051 7.52166 15.1325 7.34905C14.9599 7.17644 14.7258 7.07947 14.4817 7.07947L8.91382 7.08595L8.9203 1.51807C8.9203 1.27396 8.82333 1.03985 8.65072 0.867237C8.47811 0.694626 8.244 0.597653 7.99989 0.597653C7.75578 0.597653 7.52166 0.694626 7.34905 0.867237C7.17644 1.03985 7.07947 1.27396 7.07947 1.51807L7.08595 7.08595L1.51807 7.07947C1.39706 7.07897 1.27715 7.10244 1.16526 7.14852C1.05336 7.1946 0.951701 7.26238 0.866133 7.34794C0.780566 7.43351 0.712788 7.53517 0.666708 7.64707C0.620629 7.75896 0.59716 7.87887 0.597656 7.99988C0.59716 8.12089 0.620628 8.2408 0.666707 8.3527C0.712787 8.46459 0.780566 8.56626 0.866133 8.65182C0.951701 8.73739 1.05336 8.80517 1.16526 8.85125C1.27715 8.89733 1.39706 8.9208 1.51807 8.9203L7.08595 8.91382L7.07947 14.4817C7.07897 14.6027 7.10244 14.7226 7.14852 14.8345C7.1946 14.9464 7.26238 15.0481 7.34795 15.1336C7.43351 15.2192 7.53518 15.287 7.64707 15.3331C7.75897 15.3791 7.87888 15.4026 7.99989 15.4021C8.1209 15.4026 8.24081 15.3791 8.3527 15.3331C8.4646 15.287 8.56626 15.2192 8.65183 15.1336C8.73739 15.0481 8.80517 14.9464 8.85125 14.8345C8.89733 14.7226 8.9208 14.6027 8.9203 14.4817L8.91382 8.91382Z" fill="white"/>
</svg>
