<svg width="18" height="18" viewBox="0 0 18 18" fill="none" xmlns="http://www.w3.org/2000/svg">
<circle cx="9" cy="9" r="9" fill="#FF267B"/>
<path d="M10.9483 13L9.17231 9.94H7.54031V13H6.16031V4.6H9.52031C10.2723 4.6 10.9083 4.864 11.4283 5.392C11.9563 5.912 12.2203 6.548 12.2203 7.3C12.2203 7.836 12.0643 8.328 11.7523 8.776C11.4483 9.216 11.0483 9.536 10.5523 9.736L12.4603 13H10.9483ZM7.54031 5.896V8.704H9.52031C9.88831 8.704 10.2003 8.568 10.4563 8.296C10.7123 8.024 10.8403 7.692 10.8403 7.3C10.8403 6.908 10.7123 6.576 10.4563 6.304C10.2003 6.032 9.88831 5.896 9.52031 5.896H7.54031Z" fill="white"/>
</svg>
