<svg width="18" height="18" viewBox="0 0 18 18" fill="none" xmlns="http://www.w3.org/2000/svg">
<path d="M11.5 14.8333C11.5 15.7538 12.2462 16.5 13.1667 16.5C14.0871 16.5 14.8333 15.7538 14.8333 14.8333C14.8333 13.9129 14.0871 13.1667 13.1667 13.1667H5.1394C4.72469 13.1667 4.37309 12.8617 4.31445 12.4512M14 10.6667H4.05951L2.74999 1.5H0.666656M6.49999 3.16667H16.5L14.8333 8.16667M8.16666 14.8333C8.16666 15.7538 7.42046 16.5 6.49999 16.5C5.57952 16.5 4.83332 15.7538 4.83332 14.8333C4.83332 13.9129 5.57952 13.1667 6.49999 13.1667C7.42046 13.1667 8.16666 13.9129 8.16666 14.8333Z" stroke="white" stroke-width="1.25" stroke-linecap="round" stroke-linejoin="round"/>
</svg>
