<svg width="18" height="19" viewBox="0 0 18 19" fill="none" xmlns="http://www.w3.org/2000/svg">
<path d="M16.119 12.659H12.042C11.8033 12.659 11.5744 12.7538 11.4056 12.9226C11.2368 13.0914 11.142 13.3203 11.142 13.559C11.142 13.7977 11.2368 14.0266 11.4056 14.1954C11.5744 14.3642 11.8033 14.459 12.042 14.459H14.202C13.2092 15.4965 11.929 16.2134 10.5256 16.5177C9.12233 16.8219 7.66009 16.6996 6.3268 16.1665C4.99351 15.6334 3.85008 14.7138 3.04343 13.5259C2.23678 12.3379 1.80376 10.9359 1.8 9.5C1.8 9.2613 1.70518 9.03239 1.5364 8.8636C1.36761 8.69482 1.13869 8.6 0.9 8.6C0.661305 8.6 0.432387 8.69482 0.263604 8.8636C0.0948211 9.03239 0 9.2613 0 9.5C0.00475799 11.2575 0.523999 12.9752 1.49364 14.441C2.46329 15.9069 3.8409 17.0567 5.45647 17.7487C7.07204 18.4407 8.85486 18.6445 10.5849 18.335C12.315 18.0255 13.9166 17.2162 15.192 16.007V17.6C15.192 17.8387 15.2868 18.0676 15.4556 18.2364C15.6244 18.4052 15.8533 18.5 16.092 18.5C16.3307 18.5 16.5596 18.4052 16.7284 18.2364C16.8972 18.0676 16.992 17.8387 16.992 17.6V13.55C16.9898 13.3175 16.8976 13.0948 16.7349 12.9287C16.5722 12.7626 16.3514 12.666 16.119 12.659ZM9 0.5C6.69275 0.506581 4.47614 1.39902 2.808 2.993V1.4C2.808 1.16131 2.71318 0.932387 2.5444 0.763604C2.37561 0.594821 2.14669 0.5 1.908 0.5C1.6693 0.5 1.44039 0.594821 1.2716 0.763604C1.10282 0.932387 1.008 1.16131 1.008 1.4V5.45C1.008 5.68869 1.10282 5.91761 1.2716 6.0864C1.44039 6.25518 1.6693 6.35 1.908 6.35H5.958C6.19669 6.35 6.42561 6.25518 6.5944 6.0864C6.76318 5.91761 6.858 5.68869 6.858 5.45C6.858 5.21131 6.76318 4.98239 6.5944 4.8136C6.42561 4.64482 6.19669 4.55 5.958 4.55H3.798C4.79022 3.51308 6.06968 2.79635 7.47216 2.4918C8.87464 2.18724 10.3361 2.30877 11.669 2.84078C13.002 3.37278 14.1455 4.29099 14.9528 5.47754C15.7601 6.6641 16.1945 8.06485 16.2 9.5C16.2 9.73869 16.2948 9.96761 16.4636 10.1364C16.6324 10.3052 16.8613 10.4 17.1 10.4C17.3387 10.4 17.5676 10.3052 17.7364 10.1364C17.9052 9.96761 18 9.73869 18 9.5C18 8.3181 17.7672 7.14778 17.3149 6.05585C16.8626 4.96392 16.1997 3.97177 15.364 3.13604C14.5282 2.30031 13.5361 1.63738 12.4442 1.18508C11.3522 0.732792 10.1819 0.5 9 0.5Z" fill="white"/>
</svg>
