<svg width="154" height="116" viewBox="0 0 154 116" fill="none" xmlns="http://www.w3.org/2000/svg">
<path d="M47.1108 80.748L45.7146 81.6769L40.7442 79.8623L43.1062 83.4124L41.8615 84.2405L39.4995 80.6904L39.2531 85.976L37.846 86.9121L38.1038 81.1507L32.9135 79.2637L34.3206 78.3276L39.1107 80.106L36.8207 76.6642L38.0654 75.836L40.3554 79.2779L40.5656 74.1726L41.9618 73.2437L41.7079 78.7527L47.1108 80.748ZM50.2389 67.7367L55.2796 75.313L54.035 76.1412L50.4416 70.7403L50.671 76.084L50.5195 76.1848L45.6722 73.898L49.2727 79.3096L48.028 80.1377L42.9873 72.5614L44.3293 71.6685L49.1334 73.9372L48.9076 68.6224L50.2389 67.7367ZM61.3361 71.2835L57.9156 66.1424L57.7644 73.6599L56.7903 74.308L51.7495 66.7316L52.9942 65.9035L56.4147 71.0446L56.5659 63.5272L57.54 62.8791L62.5807 70.4554L61.3361 71.2835ZM66.2507 57.0836L67.4954 56.2555L72.5361 63.8318L71.2914 64.66L69.1095 61.3805L65.8625 63.5408L68.0444 66.8203L66.7997 67.6484L61.759 60.0721L63.0037 59.2439L65.0704 62.3502L68.3174 60.1899L66.2507 57.0836ZM78.986 59.5406L77.4403 58.3673L74.2149 60.5132L74.6999 62.3922L73.347 63.2923L71.0554 53.8869L72.549 52.8932L80.3281 58.6476L78.986 59.5406ZM73.8485 59.0707L76.2513 57.472L72.7743 54.8512L73.8485 59.0707ZM87.5247 54.0625C86.3847 54.821 85.1898 55.0747 83.9401 54.8235C82.6856 54.5652 81.6887 53.8804 80.9494 52.7692C80.2101 51.658 79.966 50.4775 80.2172 49.2279C80.4635 47.9709 81.1567 46.9632 82.2968 46.2047C82.9822 45.7487 83.7216 45.4909 84.5149 45.4316C85.3154 45.3674 86.0628 45.5051 86.7572 45.8447L86.0925 47.1926C85.6408 46.9518 85.1482 46.8528 84.6145 46.8955C84.0833 46.9263 83.5795 47.1001 83.1033 47.4169C82.2951 47.9546 81.809 48.6476 81.6447 49.496C81.4877 50.3395 81.6708 51.1546 82.1941 51.9411C82.7174 52.7276 83.3984 53.2113 84.2371 53.3924C85.083 53.5686 85.9101 53.3879 86.7182 52.8503C87.1945 52.5334 87.5554 52.1371 87.801 51.6614C88.0418 51.1785 88.1348 50.6846 88.08 50.1798L89.5728 50.0766C89.625 50.8435 89.4692 51.5873 89.1056 52.308C88.7444 53.0168 88.2174 53.6016 87.5247 54.0625ZM91.1739 40.5015L92.4186 39.6734L97.4594 47.2497L96.2147 48.0778L94.0328 44.7984L90.7858 46.9587L92.9677 50.2381L91.723 51.0663L86.6823 43.4899L87.9269 42.6618L89.9937 45.7681L93.2407 43.6078L91.1739 40.5015ZM99.4264 44.2234L102.782 41.9911L103.574 43.1817L98.9738 46.2421L93.9331 38.6658L98.4789 35.6413L99.271 36.8319L95.9699 39.0282L97.2804 40.9981L100.311 38.9818L101.096 40.1615L98.0654 42.1778L99.4264 44.2234ZM103.948 32.0028L104.74 33.1934L101.709 35.2097L105.958 41.5955L104.713 42.4236L99.6724 34.8472L103.948 32.0028ZM108.492 36.4745L106.237 33.6024L104.797 31.4378L106.204 30.5016L107.644 32.6663L109.412 35.8625L108.492 36.4745ZM111.043 38.0561C110.99 38.3205 110.851 38.5271 110.628 38.6759C110.404 38.8247 110.16 38.8726 109.896 38.8195C109.631 38.7663 109.425 38.6279 109.276 38.4042C109.127 38.1806 109.075 37.9389 109.121 37.6794C109.175 37.415 109.317 37.206 109.547 37.0524C109.771 36.9036 110.015 36.8557 110.279 36.9089C110.544 36.962 110.75 37.1004 110.899 37.3241C111.048 37.5478 111.096 37.7918 111.043 38.0561Z" fill="black"/>
<path d="M14.8542 98.181C15.4373 98.7695 16.387 98.7739 16.9755 98.1908L26.5651 88.6887C27.1535 88.1056 27.1579 87.1558 26.5748 86.5674C25.9917 85.9789 25.042 85.9746 24.4535 86.5577L15.9294 95.0039L7.48312 86.4799C6.90002 85.8914 5.95028 85.887 5.36182 86.4701C4.77335 87.0532 4.769 88.003 5.35209 88.5914L14.8542 98.181ZM137.893 18.1536C117.489 17.4035 86.8379 20.3958 61.1857 31.8789C35.4859 43.3833 14.5736 63.5488 14.4197 97.1184L17.4197 97.1321C17.5663 65.1488 37.3559 45.8331 62.4114 34.6171C87.5146 23.3797 117.672 20.4122 137.783 21.1516L137.893 18.1536Z" fill="#242424"/>
</svg>
