<svg width="183" height="96" viewBox="0 0 183 96" fill="none" xmlns="http://www.w3.org/2000/svg">
<path d="M33.309 68.1234L31.6666 67.7849L29.4587 62.9763L28.598 67.1525L27.1338 66.8507L27.9945 62.6745L24.0653 66.2183L22.4101 65.8772L26.6854 62.0065L24.3742 56.9908L26.0294 57.3319L28.1362 61.9869L28.9706 57.938L30.4348 58.2398L29.6004 62.2887L33.376 58.8459L35.0185 59.1844L30.9253 62.8803L33.309 68.1234ZM44.7555 61.1911L42.9187 70.1038L41.4545 69.8021L42.7639 63.4486L39.1282 67.3715L38.95 67.3347L37.1642 62.2813L35.8522 68.6475L34.388 68.3457L36.2248 59.433L37.8036 59.7584L39.5718 64.7684L43.1894 60.8684L44.7555 61.1911ZM50.0434 71.5721L51.2898 65.5242L45.8417 70.7062L44.6958 70.47L46.5326 61.5574L47.9968 61.8591L46.7504 67.907L52.1985 62.725L53.3445 62.9612L51.5076 71.8739L50.0434 71.5721ZM63.5916 65.073L65.0558 65.3748L63.219 74.2875L61.7548 73.9857L62.5498 70.1278L58.7301 69.3406L57.935 73.1985L56.4708 72.8967L58.3076 63.984L59.7718 64.2858L59.0187 67.94L62.8385 68.7272L63.5916 65.073ZM70.8065 75.8512L70.5526 73.9273L66.7584 73.1454L65.7645 74.8121L64.1729 74.4841L69.2438 66.2379L71.0008 66.6L72.3853 76.1765L70.8065 75.8512ZM67.5256 71.87L70.3522 72.4525L69.7681 68.1378L67.5256 71.87ZM80.7072 78.0641C79.366 77.7877 78.345 77.1172 77.6442 76.0525C76.9451 74.9793 76.7302 73.7891 76.9996 72.4819C77.269 71.1747 77.9361 70.1706 79.0008 69.4698C80.0673 68.7605 81.2711 68.544 82.6122 68.8204C83.4186 68.9866 84.122 69.3306 84.7223 69.8525C85.3311 70.3762 85.7592 71.0042 86.0065 71.7365L84.581 72.2126C84.4343 71.7222 84.158 71.3025 83.7521 70.9534C83.3565 70.5975 82.8785 70.3619 82.3183 70.2464C81.3676 70.0505 80.5331 70.1926 79.8147 70.6728C79.1048 71.1548 78.6545 71.8584 78.4639 72.7836C78.2732 73.7088 78.4086 74.5331 78.8701 75.2565C79.3401 75.9816 80.0504 76.4422 81.0011 76.6381C81.5613 76.7535 82.0968 76.7312 82.6077 76.571C83.1203 76.4023 83.5367 76.1209 83.8568 75.7267L84.9805 76.7149C84.4723 77.2915 83.8342 77.7042 83.0662 77.953C82.3084 78.195 81.5221 78.2321 80.7072 78.0641ZM92.911 71.1154L94.3752 71.4171L92.5384 80.3298L91.0742 80.0281L91.8692 76.1702L88.0495 75.383L87.2544 79.2409L85.7902 78.9391L87.627 70.0264L89.0912 70.3282L88.3381 73.9824L92.1579 74.7696L92.911 71.1154ZM96.0728 79.5982L100.02 80.4116L99.7312 81.8122L94.3199 80.697L96.1567 71.7843L101.504 72.8864L101.216 74.2869L97.3323 73.4866L96.8548 75.8039L100.42 76.5386L100.134 77.9265L96.5687 77.1918L96.0728 79.5982ZM107.938 74.2122L107.649 75.6128L104.084 74.8781L102.536 82.3902L101.072 82.0884L102.908 73.1757L107.938 74.2122ZM107.957 80.5874L108.412 76.9646L108.937 74.4181L110.592 74.7592L110.067 77.3057L109.04 80.8104L107.957 80.5874ZM108.629 83.5131C108.403 83.6614 108.159 83.7084 107.896 83.6542C107.633 83.5999 107.427 83.4602 107.279 83.235C107.131 83.0098 107.084 82.7656 107.138 82.5024C107.192 82.2393 107.328 82.0327 107.544 81.8827C107.77 81.7345 108.018 81.6883 108.29 81.7443C108.553 81.7985 108.759 81.9383 108.907 82.1635C109.055 82.3887 109.102 82.6329 109.048 82.896C108.994 83.1592 108.854 83.3649 108.629 83.5131Z" fill="black"/>
<path d="M136.539 94.7067C136.116 95.4186 135.195 95.6521 134.483 95.2283L122.883 88.3225C122.171 87.8987 121.938 86.9781 122.362 86.2663C122.785 85.5545 123.706 85.321 124.418 85.7447L134.729 91.8832L140.867 81.5721C141.291 80.8603 142.212 80.6268 142.924 81.0505C143.636 81.4743 143.869 82.3949 143.445 83.1067L136.539 94.7067ZM-2.18033 46.7516C17.4384 41.0977 47.9056 36.6013 75.5713 41.5516C103.288 46.5111 128.451 61.0312 136.705 93.5706L133.797 94.3082C125.933 63.3064 102.065 49.3399 75.0429 44.5047C47.9693 39.6604 17.9877 44.0614 -1.34959 49.6342L-2.18033 46.7516Z" fill="#242424"/>
</svg>
