<svg width="595" height="75" viewBox="0 0 595 75" fill="none" xmlns="http://www.w3.org/2000/svg">
<g opacity="0.7">
<path d="M9.09018 2.60863C9.78291 1.44462 11.7838 1.26149 12.4639 2.49992C12.5355 2.6304 12.756 2.70022 12.6568 2.91073C12.3881 3.6311 11.8535 4.1723 11.1589 4.56158C10.5908 4.87992 9.74798 4.56842 9.46151 3.97514C9.25499 3.54743 9.17429 3.07641 9.09018 2.60863Z" fill="#534963"/>
<path d="M9.09004 2.60873C9.37905 2.82998 9.32651 3.1856 9.40693 3.4842C9.54114 3.98254 9.78008 4.36401 10.3484 4.52431C10.7262 4.63088 11.0482 4.56872 11.3596 4.32283C11.718 4.03993 12.0472 3.73455 12.2974 3.36232C12.4033 3.20475 12.5361 3.06094 12.6566 2.91084C13.0466 3.83977 12.6601 4.97253 11.6793 5.52272C10.8142 6.00798 9.67533 5.91297 9.10396 5.10649C8.56018 4.33894 8.58785 3.48676 9.09004 2.60873Z" fill="#4C415D"/>
</g>
<g opacity="0.7">
<path d="M60.4462 54.6086C59.7535 53.4446 57.7526 53.2615 57.0725 54.4999C57.0008 54.6304 56.7803 54.7002 56.8795 54.9107C57.1482 55.6311 57.6829 56.1723 58.3775 56.5616C58.9456 56.8799 59.7884 56.5684 60.0749 55.9751C60.2814 55.5474 60.3621 55.0764 60.4462 54.6086Z" fill="#534963"/>
<path d="M60.4463 54.6087C60.1573 54.83 60.2099 55.1856 60.1295 55.4842C59.9952 55.9825 59.7563 56.364 59.188 56.5243C58.8102 56.6309 58.4882 56.5687 58.1768 56.3228C57.8184 56.0399 57.4891 55.7346 57.239 55.3623C57.1331 55.2048 57.0003 55.0609 56.8797 54.9108C56.4898 55.8398 56.8763 56.9725 57.8571 57.5227C58.7222 58.008 59.8611 57.913 60.4324 57.1065C60.9762 56.3389 60.9485 55.4868 60.4463 54.6087Z" fill="#4C415D"/>
</g>
<g opacity="0.7">
<path d="M34.0902 8.60863C34.7829 7.44462 36.7838 7.26149 37.4639 8.49992C37.5355 8.6304 37.756 8.70022 37.6568 8.91073C37.3881 9.6311 36.8535 10.1723 36.1589 10.5616C35.5908 10.8799 34.748 10.5684 34.4615 9.97514C34.255 9.54743 34.1743 9.07641 34.0902 8.60863Z" fill="#534963"/>
<path d="M34.09 8.60873C34.3791 8.82998 34.3265 9.1856 34.4069 9.4842C34.5411 9.98254 34.7801 10.364 35.3484 10.5243C35.7262 10.6309 36.0482 10.5687 36.3596 10.3228C36.718 10.0399 37.0472 9.73455 37.2974 9.36232C37.4033 9.20475 37.5361 9.06094 37.6566 8.91084C38.0466 9.83977 37.6601 10.9725 36.6793 11.5227C35.8142 12.008 34.6753 11.913 34.104 11.1065C33.5602 10.3389 33.5879 9.48676 34.09 8.60873Z" fill="#4C415D"/>
</g>
<g opacity="0.7">
<path d="M12.6552 30.4606C13.6396 28.5977 16.6781 28.4208 17.7907 30.4898C17.9079 30.7077 18.2483 30.8356 18.11 31.1741C17.7447 32.3368 16.963 33.1899 15.9282 33.7844C15.0819 34.2707 13.7782 33.709 13.3051 32.7203C12.9641 32.0074 12.8122 31.2315 12.6552 30.4606Z" fill="#534963"/>
<path d="M12.6552 30.4607C13.1093 30.8406 13.0511 31.4196 13.192 31.9133C13.4271 32.7373 13.8147 33.3764 14.6908 33.6737C15.2731 33.8713 15.7601 33.7893 16.2197 33.406C16.7485 32.9649 17.2316 32.4852 17.59 31.8912C17.7418 31.6398 17.9353 31.4126 18.1099 31.1743C18.7613 32.7188 18.2417 34.5493 16.7806 35.3897C15.4918 36.131 13.7502 35.9055 12.8298 34.5503C11.9538 33.2604 11.9437 31.8672 12.6552 30.4607Z" fill="#4C415D"/>
</g>
<g opacity="0.7">
<path d="M28.9063 67.4606C27.9219 65.5977 24.8834 65.4208 23.7708 67.4898C23.6536 67.7077 23.3132 67.8356 23.4515 68.1741C23.8168 69.3368 24.5985 70.1899 25.6333 70.7844C26.4796 71.2707 27.7833 70.709 28.2564 69.7203C28.5974 69.0074 28.7494 68.2315 28.9063 67.4606Z" fill="#534963"/>
<path d="M28.9063 67.4607C28.4522 67.8406 28.5105 68.4196 28.3696 68.9133C28.1344 69.7373 27.7468 70.3764 26.8708 70.6737C26.2884 70.8713 25.8014 70.7893 25.3418 70.406C24.813 69.9649 24.3299 69.4852 23.9715 68.8912C23.8197 68.6398 23.6262 68.4126 23.4516 68.1743C22.8002 69.7188 23.3198 71.5493 24.781 72.3897C26.0697 73.131 27.8114 72.9055 28.7317 71.5503C29.6077 70.2604 29.6178 68.8672 28.9063 67.4607Z" fill="#4C415D"/>
</g>
<g opacity="0.7">
<path d="M41.4462 60.8247C40.7535 61.9887 38.7526 62.1719 38.0725 60.9334C38.0008 60.803 37.7803 60.7331 37.8795 60.5226C38.1482 59.8023 38.6829 59.261 39.3775 58.8718C39.9456 58.5534 40.7884 58.8649 41.0749 59.4582C41.2814 59.8859 41.3621 60.3569 41.4462 60.8247Z" fill="#534963"/>
<path d="M41.4463 60.8246C41.1573 60.6034 41.2099 60.2477 41.1295 59.9491C40.9952 59.4508 40.7563 59.0693 40.188 58.909C39.8102 58.8025 39.4882 58.8646 39.1768 59.1105C38.8184 59.3934 38.4891 59.6988 38.239 60.071C38.1331 60.2286 38.0003 60.3724 37.8797 60.5225C37.4898 59.5936 37.8763 58.4608 38.8571 57.9106C39.7222 57.4254 40.8611 57.5204 41.4324 58.3269C41.9762 59.0944 41.9485 59.9466 41.4463 60.8246Z" fill="#4C415D"/>
</g>
<g opacity="0.7">
<path d="M59.0899 40.9011C59.7827 42.0651 61.7836 42.2483 62.4636 41.0098C62.5353 40.8794 62.7558 40.8095 62.6566 40.599C62.3879 39.8787 61.8533 39.3375 61.1586 38.9482C60.5906 38.6298 59.7477 38.9413 59.4613 39.5346C59.2548 39.9623 59.174 40.4334 59.0899 40.9011Z" fill="#534963"/>
<path d="M59.0898 40.901C59.3788 40.6798 59.3263 40.3242 59.4067 40.0256C59.5409 39.5272 59.7798 39.1458 60.3481 38.9855C60.7259 38.8789 61.0479 38.941 61.3594 39.1869C61.7177 39.4698 62.047 39.7752 62.2972 40.1474C62.403 40.305 62.5358 40.4488 62.6564 40.5989C63.0464 39.67 62.6599 38.5372 61.679 37.987C60.814 37.5018 59.6751 37.5968 59.1037 38.4033C58.5599 39.1708 58.5876 40.023 59.0898 40.901Z" fill="#4C415D"/>
</g>
<g opacity="0.7">
<path d="M79.4462 69.8247C78.7535 70.9887 76.7526 71.1719 76.0725 69.9334C76.0008 69.803 75.7803 69.7331 75.8795 69.5226C76.1482 68.8023 76.6829 68.261 77.3775 67.8718C77.9456 67.5534 78.7884 67.8649 79.0749 68.4582C79.2814 68.8859 79.3621 69.3569 79.4462 69.8247Z" fill="#534963"/>
<path d="M79.4463 69.8246C79.1573 69.6034 79.2099 69.2477 79.1295 68.9491C78.9952 68.4508 78.7563 68.0693 78.188 67.909C77.8102 67.8025 77.4882 67.8646 77.1768 68.1105C76.8184 68.3934 76.4891 68.6988 76.239 69.071C76.1331 69.2286 76.0003 69.3724 75.8797 69.5225C75.4898 68.5936 75.8763 67.4608 76.8571 66.9106C77.7222 66.4254 78.8611 66.5204 79.4324 67.3269C79.9762 68.0944 79.9485 68.9466 79.4463 69.8246Z" fill="#4C415D"/>
</g>
<g opacity="0.7">
<path d="M84.0901 34.9011C84.7828 36.0651 86.7837 36.2483 87.4638 35.0098C87.5354 34.8794 87.7559 34.8095 87.6567 34.599C87.388 33.8787 86.8534 33.3375 86.1587 32.9482C85.5907 32.6298 84.7479 32.9413 84.4614 33.5346C84.2549 33.9623 84.1742 34.4334 84.0901 34.9011Z" fill="#534963"/>
<path d="M84.0899 34.901C84.3789 34.6798 84.3264 34.3242 84.4068 34.0256C84.541 33.5272 84.78 33.1458 85.3483 32.9855C85.726 32.8789 86.048 32.941 86.3595 33.1869C86.7178 33.4698 87.0471 33.7752 87.2973 34.1474C87.4032 34.305 87.5359 34.4488 87.6565 34.5989C88.0465 33.67 87.66 32.5372 86.6791 31.987C85.8141 31.5018 84.6752 31.5968 84.1038 32.4033C83.5601 33.1708 83.5877 34.023 84.0899 34.901Z" fill="#4C415D"/>
</g>
<g opacity="0.7">
<path d="M62.655 13.0492C63.6394 14.9121 66.6779 15.089 67.7904 13.02C67.9077 12.802 68.248 12.6742 68.1098 12.3357C67.7444 11.173 66.9628 10.3199 65.9279 9.72534C65.0817 9.23911 63.7779 9.80077 63.3049 10.7895C62.9638 11.5023 62.8119 12.2783 62.655 13.0492Z" fill="#534963"/>
<path d="M62.655 13.049C63.1091 12.6691 63.0508 12.0902 63.1917 11.5965C63.4269 10.7725 63.8145 10.1334 64.6905 9.83609C65.2729 9.63845 65.7598 9.72043 66.2195 10.1038C66.7483 10.5449 67.2314 11.0246 67.5898 11.6185C67.7415 11.87 67.9351 12.0972 68.1096 12.3355C68.761 10.791 68.2415 8.96045 66.7803 8.12004C65.4916 7.37881 63.7499 7.60427 62.8295 8.95949C61.9536 10.2493 61.9434 11.6426 62.655 13.049Z" fill="#4C415D"/>
</g>
<g opacity="0.7">
<path d="M7.4462 63.6086C6.75347 62.4446 4.75256 62.2615 4.07249 63.4999C4.00084 63.6304 3.78034 63.7002 3.87954 63.9107C4.14825 64.6311 4.68288 65.1723 5.37752 65.5616C5.94556 65.8799 6.7884 65.5684 7.07487 64.9751C7.28138 64.5474 7.36209 64.0764 7.4462 63.6086Z" fill="#534963"/>
<path d="M7.44634 63.6087C7.15732 63.83 7.20987 64.1856 7.12945 64.4842C6.99523 64.9825 6.7563 65.364 6.18799 65.5243C5.81021 65.6309 5.48821 65.5687 5.17675 65.3228C4.81841 65.0399 4.48914 64.7346 4.23898 64.3623C4.13308 64.2048 4.00032 64.0609 3.87974 63.9108C3.48977 64.8398 3.87627 65.9725 4.85711 66.5227C5.72218 67.008 6.86105 66.913 7.43242 66.1065C7.9762 65.3389 7.94853 64.4868 7.44634 63.6087Z" fill="#4C415D"/>
</g>
<g opacity="0.7">
<path d="M98.9064 56.2941C97.922 58.157 94.8835 58.3339 93.771 56.2649C93.6537 56.0469 93.3134 55.9191 93.4516 55.5806C93.817 54.4179 94.5986 53.5648 95.6335 52.9702C96.4797 52.484 97.7835 53.0456 98.2565 54.0344C98.5976 54.7472 98.7495 55.5232 98.9064 56.2941Z" fill="#534963"/>
<path d="M98.9064 56.2939C98.4523 55.914 98.5106 55.3351 98.3697 54.8414C98.1345 54.0174 97.7469 53.3783 96.8709 53.081C96.2885 52.8833 95.8016 52.9653 95.342 53.3487C94.8131 53.7898 94.33 54.2694 93.9716 54.8634C93.8199 55.1148 93.6263 55.3421 93.4518 55.5804C92.8004 54.0358 93.3199 52.2053 94.7811 51.3649C96.0698 50.6237 97.8115 50.8491 98.7319 52.2044C99.6078 53.4942 99.618 54.8875 98.9064 56.2939Z" fill="#4C415D"/>
</g>
<g opacity="0.7">
<path d="M563.554 20.3914C564.247 21.5554 566.248 21.7385 566.928 20.5001C566.999 20.3696 567.22 20.2998 567.121 20.0893C566.852 19.3689 566.317 18.8277 565.623 18.4384C565.055 18.1201 564.212 18.4316 563.925 19.0249C563.719 19.4526 563.638 19.9236 563.554 20.3914Z" fill="#534963"/>
<path d="M563.554 20.3913C563.843 20.17 563.79 19.8144 563.871 19.5158C564.005 19.0175 564.244 18.636 564.812 18.4757C565.19 18.3691 565.512 18.4313 565.823 18.6772C566.182 18.9601 566.511 19.2654 566.761 19.6377C566.867 19.7952 567 19.9391 567.12 20.0892C567.51 19.1602 567.124 18.0275 566.143 17.4773C565.278 16.992 564.139 17.087 563.568 17.8935C563.024 18.6611 563.052 19.5132 563.554 20.3913Z" fill="#4C415D"/>
</g>
<g opacity="0.7">
<path d="M589.91 66.3914C589.217 67.5554 587.216 67.7385 586.536 66.5001C586.465 66.3696 586.244 66.2998 586.343 66.0893C586.612 65.3689 587.147 64.8277 587.841 64.4384C588.409 64.1201 589.252 64.4316 589.539 65.0249C589.745 65.4526 589.826 65.9236 589.91 66.3914Z" fill="#534963"/>
<path d="M589.91 66.3913C589.621 66.17 589.674 65.8144 589.593 65.5158C589.459 65.0175 589.22 64.636 588.652 64.4757C588.274 64.3691 587.952 64.4313 587.64 64.6772C587.282 64.9601 586.953 65.2654 586.703 65.6377C586.597 65.7952 586.464 65.9391 586.343 66.0892C585.954 65.1602 586.34 64.0275 587.321 63.4773C588.186 62.992 589.325 63.087 589.896 63.8935C590.44 64.6611 590.412 65.5132 589.91 66.3913Z" fill="#4C415D"/>
</g>
<g opacity="0.7">
<path d="M582.554 14.1753C583.247 13.0113 585.248 12.8281 585.928 14.0666C585.999 14.197 586.22 14.2669 586.121 14.4774C585.852 15.1977 585.317 15.739 584.623 16.1282C584.055 16.4466 583.212 16.1351 582.925 15.5418C582.719 15.1141 582.638 14.6431 582.554 14.1753Z" fill="#534963"/>
<path d="M582.554 14.1754C582.843 14.3966 582.79 14.7523 582.871 15.0509C583.005 15.5492 583.244 15.9307 583.812 16.091C584.19 16.1975 584.512 16.1354 584.823 15.8895C585.182 15.6066 585.511 15.3012 585.761 14.929C585.867 14.7714 586 14.6276 586.12 14.4775C586.51 15.4064 586.124 16.5392 585.143 17.0894C584.278 17.5746 583.139 17.4796 582.568 16.6731C582.024 15.9056 582.052 15.0534 582.554 14.1754Z" fill="#4C415D"/>
</g>
<g opacity="0.7">
<path d="M564.91 34.0989C564.217 32.9349 562.216 32.7517 561.536 33.9902C561.465 34.1206 561.244 34.1905 561.343 34.401C561.612 35.1213 562.147 35.6625 562.841 36.0518C563.409 36.3702 564.252 36.0587 564.539 35.4654C564.745 35.0377 564.826 34.5666 564.91 34.0989Z" fill="#534963"/>
<path d="M564.91 34.099C564.621 34.3202 564.674 34.6758 564.593 34.9744C564.459 35.4728 564.22 35.8542 563.652 36.0145C563.274 36.1211 562.952 36.059 562.64 35.8131C562.282 35.5302 561.953 35.2248 561.703 34.8526C561.597 34.695 561.464 34.5512 561.343 34.4011C560.954 35.33 561.34 36.4628 562.321 37.013C563.186 37.4982 564.325 37.4032 564.896 36.5967C565.44 35.8292 565.412 34.977 564.91 34.099Z" fill="#4C415D"/>
</g>
<g opacity="0.7">
<path d="M544.554 5.17528C545.247 4.01127 547.248 3.82814 547.928 5.06657C547.999 5.19705 548.22 5.26687 548.121 5.47738C547.852 6.19775 547.317 6.73895 546.623 7.12823C546.055 7.44657 545.212 7.13507 544.925 6.54179C544.719 6.11408 544.638 5.64306 544.554 5.17528Z" fill="#534963"/>
<path d="M544.554 5.17538C544.843 5.39663 544.79 5.75225 544.871 6.05085C545.005 6.54919 545.244 6.93066 545.812 7.09096C546.19 7.19753 546.512 7.13537 546.823 6.88948C547.182 6.60658 547.511 6.3012 547.761 5.92897C547.867 5.7714 548 5.62759 548.12 5.47749C548.51 6.40642 548.124 7.53918 547.143 8.08937C546.278 8.57463 545.139 8.47962 544.568 7.67315C544.024 6.90559 544.052 6.05341 544.554 5.17538Z" fill="#4C415D"/>
</g>
<g opacity="0.7">
<path d="M539.91 40.0989C539.217 38.9349 537.216 38.7517 536.536 39.9902C536.465 40.1206 536.244 40.1905 536.343 40.401C536.612 41.1213 537.147 41.6625 537.841 42.0518C538.409 42.3702 539.252 42.0587 539.539 41.4654C539.745 41.0377 539.826 40.5666 539.91 40.0989Z" fill="#534963"/>
<path d="M539.91 40.099C539.621 40.3202 539.674 40.6758 539.593 40.9744C539.459 41.4728 539.22 41.8542 538.652 42.0145C538.274 42.1211 537.952 42.059 537.64 41.8131C537.282 41.5302 536.953 41.2248 536.703 40.8526C536.597 40.695 536.464 40.5512 536.343 40.4011C535.954 41.33 536.34 42.4628 537.321 43.013C538.186 43.4982 539.325 43.4032 539.896 42.5967C540.44 41.8292 540.412 40.977 539.91 40.099Z" fill="#4C415D"/>
</g>
<g opacity="0.7">
<path d="M561.345 61.9508C560.361 60.0879 557.322 59.911 556.209 61.98C556.092 62.198 555.752 62.3258 555.89 62.6643C556.255 63.827 557.037 64.6801 558.072 65.2747C558.918 65.7609 560.222 65.1992 560.695 64.2105C561.036 63.4977 561.188 62.7217 561.345 61.9508Z" fill="#534963"/>
<path d="M561.345 61.951C560.891 62.3309 560.949 62.9098 560.808 63.4035C560.573 64.2275 560.185 64.8666 559.309 65.1639C558.727 65.3616 558.24 65.2796 557.78 64.8962C557.252 64.4551 556.769 63.9754 556.41 63.3815C556.258 63.13 556.065 62.9028 555.89 62.6645C555.239 64.209 555.758 66.0396 557.22 66.88C558.508 67.6212 560.25 67.3957 561.17 66.0405C562.046 64.7507 562.056 63.3574 561.345 61.951Z" fill="#4C415D"/>
</g>
<g opacity="0.7">
<path d="M525.094 18.7059C526.078 16.843 529.116 16.6661 530.229 18.7351C530.346 18.9531 530.687 19.0809 530.548 19.4194C530.183 20.5821 529.401 21.4352 528.367 22.0298C527.52 22.516 526.217 21.9544 525.743 20.9656C525.402 20.2528 525.251 19.4768 525.094 18.7059Z" fill="#534963"/>
<path d="M525.094 18.7061C525.548 19.086 525.489 19.6649 525.63 20.1586C525.865 20.9826 526.253 21.6217 527.129 21.919C527.711 22.1167 528.198 22.0347 528.658 21.6513C529.187 21.2102 529.67 20.7306 530.028 20.1366C530.18 19.8852 530.374 19.6579 530.548 19.4196C531.2 20.9642 530.68 22.7947 529.219 23.6351C527.93 24.3763 526.189 24.1509 525.268 22.7956C524.392 21.5058 524.382 20.1125 525.094 18.7061Z" fill="#4C415D"/>
</g>
<g opacity="0.7">
<path d="M201.91 73.3914C201.217 74.5554 199.216 74.7385 198.536 73.5001C198.464 73.3696 198.244 73.2998 198.343 73.0893C198.612 72.3689 199.146 71.8277 199.841 71.4384C200.409 71.1201 201.252 71.4316 201.538 72.0249C201.745 72.4526 201.826 72.9236 201.91 73.3914Z" fill="#534963"/>
<path d="M201.91 73.3913C201.621 73.17 201.673 72.8144 201.593 72.5158C201.459 72.0175 201.22 71.636 200.652 71.4757C200.274 71.3691 199.952 71.4313 199.64 71.6772C199.282 71.9601 198.953 72.2654 198.703 72.6377C198.597 72.7952 198.464 72.9391 198.343 73.0892C197.953 72.1602 198.34 71.0275 199.321 70.4773C200.186 69.992 201.325 70.087 201.896 70.8935C202.44 71.6611 202.412 72.5132 201.91 73.3913Z" fill="#4C415D"/>
</g>
<g opacity="0.7">
<path d="M150.554 21.3914C151.247 22.5554 153.247 22.7385 153.928 21.5001C153.999 21.3696 154.22 21.2998 154.12 21.0893C153.852 20.3689 153.317 19.8277 152.622 19.4384C152.054 19.1201 151.212 19.4316 150.925 20.0249C150.719 20.4526 150.638 20.9236 150.554 21.3914Z" fill="#534963"/>
<path d="M150.554 21.3913C150.843 21.17 150.79 20.8144 150.871 20.5158C151.005 20.0175 151.244 19.636 151.812 19.4757C152.19 19.3691 152.512 19.4313 152.823 19.6772C153.182 19.9601 153.511 20.2654 153.761 20.6377C153.867 20.7952 154 20.9391 154.12 21.0892C154.51 20.1602 154.124 19.0275 153.143 18.4773C152.278 17.992 151.139 18.087 150.568 18.8935C150.024 19.6611 150.051 20.5132 150.554 21.3913Z" fill="#4C415D"/>
</g>
<g opacity="0.7">
<path d="M176.91 67.3914C176.217 68.5554 174.216 68.7385 173.536 67.5001C173.464 67.3696 173.244 67.2998 173.343 67.0893C173.612 66.3689 174.146 65.8277 174.841 65.4384C175.409 65.1201 176.252 65.4316 176.538 66.0249C176.745 66.4526 176.826 66.9236 176.91 67.3914Z" fill="#534963"/>
<path d="M176.91 67.3913C176.621 67.17 176.673 66.8144 176.593 66.5158C176.459 66.0175 176.22 65.636 175.652 65.4757C175.274 65.3691 174.952 65.4313 174.64 65.6772C174.282 65.9601 173.953 66.2654 173.703 66.6377C173.597 66.7952 173.464 66.9391 173.343 67.0892C172.953 66.1602 173.34 65.0275 174.321 64.4773C175.186 63.992 176.325 64.087 176.896 64.8935C177.44 65.6611 177.412 66.5132 176.91 67.3913Z" fill="#4C415D"/>
</g>
<g opacity="0.7">
<path d="M198.345 45.5394C197.36 47.4023 194.322 47.5792 193.209 45.5102C193.092 45.2923 192.752 45.1644 192.89 44.8259C193.255 43.6632 194.037 42.8101 195.072 42.2156C195.918 41.7293 197.222 42.291 197.695 43.2797C198.036 43.9926 198.188 44.7685 198.345 45.5394Z" fill="#534963"/>
<path d="M198.345 45.5393C197.891 45.1594 197.949 44.5804 197.808 44.0867C197.573 43.2627 197.185 42.6236 196.309 42.3263C195.727 42.1287 195.24 42.2107 194.78 42.594C194.251 43.0351 193.768 43.5148 193.41 44.1088C193.258 44.3602 193.065 44.5874 192.89 44.8257C192.239 43.2812 192.758 41.4507 194.219 40.6103C195.508 39.869 197.25 40.0945 198.17 41.4497C199.046 42.7396 199.056 44.1328 198.345 45.5393Z" fill="#4C415D"/>
</g>
<g opacity="0.7">
<path d="M182.094 8.53944C183.078 10.4023 186.117 10.5792 187.229 8.51025C187.346 8.29227 187.687 8.16443 187.548 7.82594C187.183 6.66324 186.402 5.81014 185.367 5.21557C184.52 4.72935 183.217 5.291 182.744 6.27975C182.403 6.99256 182.251 7.76854 182.094 8.53944Z" fill="#534963"/>
<path d="M182.094 8.53927C182.548 8.15935 182.49 7.58044 182.63 7.08672C182.866 6.26273 183.253 5.62362 184.129 5.32632C184.712 5.12868 185.199 5.21066 185.658 5.59404C186.187 6.03514 186.67 6.5148 187.029 7.10877C187.18 7.36019 187.374 7.58745 187.548 7.82575C188.2 6.28121 187.68 4.45068 186.219 3.61027C184.93 2.86904 183.189 3.0945 182.268 4.44973C181.392 5.73956 181.382 7.13282 182.094 8.53927Z" fill="#4C415D"/>
</g>
<g opacity="0.7">
<path d="M169.554 15.1753C170.247 14.0113 172.247 13.8281 172.928 15.0666C172.999 15.197 173.22 15.2669 173.12 15.4774C172.852 16.1977 172.317 16.739 171.622 17.1282C171.054 17.4466 170.212 17.1351 169.925 16.5418C169.719 16.1141 169.638 15.6431 169.554 15.1753Z" fill="#534963"/>
<path d="M169.554 15.1754C169.843 15.3966 169.79 15.7523 169.871 16.0509C170.005 16.5492 170.244 16.9307 170.812 17.091C171.19 17.1975 171.512 17.1354 171.823 16.8895C172.182 16.6066 172.511 16.3012 172.761 15.929C172.867 15.7714 173 15.6276 173.12 15.4775C173.51 16.4064 173.124 17.5392 172.143 18.0894C171.278 18.5746 170.139 18.4796 169.568 17.6731C169.024 16.9056 169.051 16.0534 169.554 15.1754Z" fill="#4C415D"/>
</g>
<g opacity="0.7">
<path d="M151.91 35.0989C151.217 33.9349 149.216 33.7517 148.536 34.9902C148.465 35.1206 148.244 35.1905 148.343 35.401C148.612 36.1213 149.147 36.6625 149.841 37.0518C150.409 37.3702 151.252 37.0587 151.539 36.4654C151.745 36.0377 151.826 35.5666 151.91 35.0989Z" fill="#534963"/>
<path d="M151.91 35.099C151.621 35.3202 151.674 35.6758 151.593 35.9744C151.459 36.4728 151.22 36.8542 150.652 37.0145C150.274 37.1211 149.952 37.059 149.641 36.8131C149.282 36.5302 148.953 36.2248 148.703 35.8526C148.597 35.695 148.464 35.5512 148.344 35.4011C147.954 36.33 148.34 37.4628 149.321 38.013C150.186 38.4982 151.325 38.4032 151.896 37.5967C152.44 36.8292 152.412 35.977 151.91 35.099Z" fill="#4C415D"/>
</g>
<g opacity="0.7">
<path d="M131.554 6.17528C132.247 5.01127 134.247 4.82814 134.928 6.06657C134.999 6.19705 135.22 6.26687 135.12 6.47738C134.852 7.19775 134.317 7.73895 133.622 8.12823C133.054 8.44657 132.212 8.13507 131.925 7.54179C131.719 7.11408 131.638 6.64306 131.554 6.17528Z" fill="#534963"/>
<path d="M131.554 6.17538C131.843 6.39663 131.79 6.75225 131.871 7.05085C132.005 7.54919 132.244 7.93066 132.812 8.09096C133.19 8.19753 133.512 8.13537 133.823 7.88948C134.182 7.60658 134.511 7.3012 134.761 6.92897C134.867 6.7714 135 6.62759 135.12 6.47749C135.51 7.40642 135.124 8.53918 134.143 9.08937C133.278 9.57463 132.139 9.47962 131.568 8.67315C131.024 7.90559 131.051 7.05341 131.554 6.17538Z" fill="#4C415D"/>
</g>
<g opacity="0.7">
<path d="M126.91 41.0989C126.217 39.9349 124.216 39.7517 123.536 40.9902C123.465 41.1206 123.244 41.1905 123.343 41.401C123.612 42.1213 124.147 42.6625 124.841 43.0518C125.409 43.3702 126.252 43.0587 126.539 42.4654C126.745 42.0377 126.826 41.5666 126.91 41.0989Z" fill="#534963"/>
<path d="M126.91 41.099C126.621 41.3202 126.674 41.6758 126.593 41.9744C126.459 42.4728 126.22 42.8542 125.652 43.0145C125.274 43.1211 124.952 43.059 124.64 42.8131C124.282 42.5302 123.953 42.2248 123.703 41.8526C123.597 41.695 123.464 41.5512 123.343 41.4011C122.954 42.33 123.34 43.4628 124.321 44.013C125.186 44.4982 126.325 44.4032 126.896 43.5967C127.44 42.8292 127.412 41.977 126.91 41.099Z" fill="#4C415D"/>
</g>
<g opacity="0.7">
<path d="M148.345 62.9508C147.361 61.0879 144.322 60.911 143.21 62.98C143.092 63.198 142.752 63.3258 142.89 63.6643C143.256 64.827 144.037 65.6801 145.072 66.2747C145.918 66.7609 147.222 66.1992 147.695 65.2105C148.036 64.4977 148.188 63.7217 148.345 62.9508Z" fill="#534963"/>
<path d="M148.345 62.951C147.891 63.3309 147.949 63.9098 147.808 64.4035C147.573 65.2275 147.186 65.8666 146.309 66.1639C145.727 66.3616 145.24 66.2796 144.781 65.8962C144.252 65.4551 143.769 64.9754 143.41 64.3815C143.258 64.13 143.065 63.9028 142.89 63.6645C142.239 65.209 142.758 67.0396 144.22 67.88C145.508 68.6212 147.25 68.3957 148.17 67.0405C149.046 65.7507 149.057 64.3574 148.345 62.951Z" fill="#4C415D"/>
</g>
<g opacity="0.7">
<path d="M203.554 12.3914C204.247 13.5554 206.247 13.7385 206.928 12.5001C206.999 12.3696 207.22 12.2998 207.12 12.0893C206.852 11.3689 206.317 10.8277 205.622 10.4384C205.054 10.1201 204.212 10.4316 203.925 11.0249C203.719 11.4526 203.638 11.9236 203.554 12.3914Z" fill="#534963"/>
<path d="M203.554 12.3913C203.843 12.17 203.79 11.8144 203.871 11.5158C204.005 11.0175 204.244 10.636 204.812 10.4757C205.19 10.3691 205.512 10.4313 205.823 10.6772C206.182 10.9601 206.511 11.2654 206.761 11.6377C206.867 11.7952 207 11.9391 207.12 12.0892C207.51 11.1602 207.124 10.0275 206.143 9.47728C205.278 8.99202 204.139 9.08703 203.568 9.89351C203.024 10.6611 203.051 11.5132 203.554 12.3913Z" fill="#4C415D"/>
</g>
<g opacity="0.7">
<path d="M112.094 19.7059C113.078 17.843 116.116 17.6661 117.229 19.7351C117.346 19.9531 117.687 20.0809 117.548 20.4194C117.183 21.5821 116.401 22.4352 115.367 23.0298C114.52 23.516 113.217 22.9544 112.743 21.9656C112.402 21.2528 112.251 20.4768 112.094 19.7059Z" fill="#534963"/>
<path d="M112.094 19.7061C112.548 20.086 112.489 20.6649 112.63 21.1586C112.865 21.9826 113.253 22.6217 114.129 22.919C114.711 23.1167 115.198 23.0347 115.658 22.6513C116.187 22.2102 116.67 21.7306 117.028 21.1366C117.18 20.8852 117.374 20.6579 117.548 20.4196C118.2 21.9642 117.68 23.7947 116.219 24.6351C114.93 25.3763 113.189 25.1509 112.268 23.7956C111.392 22.5058 111.382 21.1125 112.094 19.7061Z" fill="#4C415D"/>
</g>
<g opacity="0.7">
<path d="M422.09 1.60863C422.783 0.444624 424.784 0.261494 425.464 1.49992C425.536 1.6304 425.756 1.70022 425.657 1.91073C425.388 2.6311 424.854 3.1723 424.159 3.56158C423.591 3.87992 422.748 3.56842 422.462 2.97514C422.255 2.54743 422.174 2.07641 422.09 1.60863Z" fill="#534963"/>
<path d="M422.09 1.60873C422.379 1.82998 422.327 2.1856 422.407 2.4842C422.541 2.98254 422.78 3.36401 423.348 3.52431C423.726 3.63088 424.048 3.56872 424.36 3.32283C424.718 3.03993 425.047 2.73455 425.297 2.36232C425.403 2.20475 425.536 2.06094 425.657 1.91084C426.047 2.83977 425.66 3.97253 424.679 4.52272C423.814 5.00798 422.675 4.91297 422.104 4.10649C421.56 3.33894 421.588 2.48676 422.09 1.60873Z" fill="#4C415D"/>
</g>
<g opacity="0.7">
<path d="M473.446 53.6086C472.753 52.4446 470.753 52.2615 470.072 53.4999C470.001 53.6304 469.78 53.7002 469.88 53.9107C470.148 54.6311 470.683 55.1723 471.378 55.5616C471.946 55.8799 472.788 55.5684 473.075 54.9751C473.281 54.5474 473.362 54.0764 473.446 53.6086Z" fill="#534963"/>
<path d="M473.446 53.6087C473.157 53.83 473.21 54.1856 473.129 54.4842C472.995 54.9825 472.756 55.364 472.188 55.5243C471.81 55.6309 471.488 55.5687 471.177 55.3228C470.818 55.0399 470.489 54.7346 470.239 54.3623C470.133 54.2048 470 54.0609 469.88 53.9108C469.49 54.8398 469.876 55.9725 470.857 56.5227C471.722 57.008 472.861 56.913 473.432 56.1065C473.976 55.3389 473.949 54.4868 473.446 53.6087Z" fill="#4C415D"/>
</g>
<g opacity="0.7">
<path d="M447.09 7.60863C447.783 6.44462 449.784 6.26149 450.464 7.49992C450.536 7.6304 450.756 7.70022 450.657 7.91073C450.388 8.6311 449.854 9.1723 449.159 9.56158C448.591 9.87992 447.748 9.56842 447.462 8.97514C447.255 8.54743 447.174 8.07641 447.09 7.60863Z" fill="#534963"/>
<path d="M447.09 7.60873C447.379 7.82998 447.327 8.1856 447.407 8.4842C447.541 8.98254 447.78 9.36401 448.348 9.52431C448.726 9.63088 449.048 9.56872 449.36 9.32283C449.718 9.03993 450.047 8.73455 450.297 8.36232C450.403 8.20475 450.536 8.06094 450.657 7.91084C451.047 8.83977 450.66 9.97253 449.679 10.5227C448.814 11.008 447.675 10.913 447.104 10.1065C446.56 9.33894 446.588 8.48676 447.09 7.60873Z" fill="#4C415D"/>
</g>
<g opacity="0.7">
<path d="M425.655 29.4606C426.64 27.5977 429.678 27.4208 430.791 29.4898C430.908 29.7077 431.248 29.8356 431.11 30.1741C430.745 31.3368 429.963 32.1899 428.928 32.7844C428.082 33.2707 426.778 32.709 426.305 31.7203C425.964 31.0074 425.812 30.2315 425.655 29.4606Z" fill="#534963"/>
<path d="M425.655 29.4607C426.109 29.8406 426.051 30.4196 426.192 30.9133C426.427 31.7373 426.815 32.3764 427.691 32.6737C428.273 32.8713 428.76 32.7893 429.22 32.406C429.749 31.9649 430.232 31.4852 430.59 30.8912C430.742 30.6398 430.935 30.4126 431.11 30.1743C431.761 31.7188 431.242 33.5493 429.781 34.3897C428.492 35.131 426.75 34.9055 425.83 33.5503C424.954 32.2604 424.944 30.8672 425.655 29.4607Z" fill="#4C415D"/>
</g>
<g opacity="0.7">
<path d="M441.906 66.4606C440.922 64.5977 437.883 64.4208 436.771 66.4898C436.654 66.7077 436.313 66.8356 436.452 67.1741C436.817 68.3368 437.598 69.1899 438.633 69.7844C439.48 70.2707 440.783 69.709 441.256 68.7203C441.597 68.0074 441.749 67.2315 441.906 66.4606Z" fill="#534963"/>
<path d="M441.906 66.4607C441.452 66.8406 441.51 67.4196 441.37 67.9133C441.134 68.7373 440.747 69.3764 439.871 69.6737C439.288 69.8713 438.801 69.7893 438.342 69.406C437.813 68.9649 437.33 68.4852 436.971 67.8912C436.82 67.6398 436.626 67.4126 436.452 67.1743C435.8 68.7188 436.32 70.5493 437.781 71.3897C439.07 72.131 440.811 71.9055 441.732 70.5503C442.608 69.2604 442.618 67.8672 441.906 66.4607Z" fill="#4C415D"/>
</g>
<g opacity="0.7">
<path d="M454.446 59.8247C453.753 60.9887 451.753 61.1719 451.072 59.9334C451.001 59.803 450.78 59.7331 450.88 59.5226C451.148 58.8023 451.683 58.261 452.378 57.8718C452.946 57.5534 453.788 57.8649 454.075 58.4582C454.281 58.8859 454.362 59.3569 454.446 59.8247Z" fill="#534963"/>
<path d="M454.446 59.8246C454.157 59.6034 454.21 59.2477 454.129 58.9491C453.995 58.4508 453.756 58.0693 453.188 57.909C452.81 57.8025 452.488 57.8646 452.177 58.1105C451.818 58.3934 451.489 58.6988 451.239 59.071C451.133 59.2286 451 59.3724 450.88 59.5225C450.49 58.5936 450.876 57.4608 451.857 56.9106C452.722 56.4254 453.861 56.5204 454.432 57.3269C454.976 58.0944 454.949 58.9466 454.446 59.8246Z" fill="#4C415D"/>
</g>
<g opacity="0.7">
<path d="M472.09 39.9011C472.783 41.0651 474.784 41.2483 475.464 40.0098C475.535 39.8794 475.756 39.8095 475.657 39.599C475.388 38.8787 474.853 38.3375 474.159 37.9482C473.591 37.6298 472.748 37.9413 472.461 38.5346C472.255 38.9623 472.174 39.4334 472.09 39.9011Z" fill="#534963"/>
<path d="M472.09 39.901C472.379 39.6798 472.326 39.3242 472.407 39.0256C472.541 38.5272 472.78 38.1458 473.348 37.9855C473.726 37.8789 474.048 37.941 474.359 38.1869C474.718 38.4698 475.047 38.7752 475.297 39.1474C475.403 39.305 475.536 39.4488 475.656 39.5989C476.046 38.67 475.66 37.5372 474.679 36.987C473.814 36.5018 472.675 36.5968 472.104 37.4033C471.56 38.1708 471.588 39.023 472.09 39.901Z" fill="#4C415D"/>
</g>
<g opacity="0.7">
<path d="M492.446 68.8247C491.753 69.9887 489.753 70.1719 489.072 68.9334C489.001 68.803 488.78 68.7331 488.88 68.5226C489.148 67.8023 489.683 67.261 490.378 66.8718C490.946 66.5534 491.788 66.8649 492.075 67.4582C492.281 67.8859 492.362 68.3569 492.446 68.8247Z" fill="#534963"/>
<path d="M492.446 68.8246C492.157 68.6034 492.21 68.2477 492.129 67.9491C491.995 67.4508 491.756 67.0693 491.188 66.909C490.81 66.8025 490.488 66.8646 490.177 67.1105C489.818 67.3934 489.489 67.6988 489.239 68.071C489.133 68.2286 489 68.3724 488.88 68.5225C488.49 67.5936 488.876 66.4608 489.857 65.9106C490.722 65.4254 491.861 65.5204 492.432 66.3269C492.976 67.0944 492.949 67.9466 492.446 68.8246Z" fill="#4C415D"/>
</g>
<g opacity="0.7">
<path d="M497.09 33.9011C497.783 35.0651 499.784 35.2483 500.464 34.0098C500.535 33.8794 500.756 33.8095 500.657 33.599C500.388 32.8787 499.853 32.3375 499.159 31.9482C498.591 31.6298 497.748 31.9413 497.461 32.5346C497.255 32.9623 497.174 33.4334 497.09 33.9011Z" fill="#534963"/>
<path d="M497.09 33.901C497.379 33.6798 497.326 33.3242 497.407 33.0256C497.541 32.5272 497.78 32.1458 498.348 31.9855C498.726 31.8789 499.048 31.941 499.36 32.1869C499.718 32.4698 500.047 32.7752 500.297 33.1474C500.403 33.305 500.536 33.4488 500.657 33.5989C501.046 32.67 500.66 31.5372 499.679 30.987C498.814 30.5018 497.675 30.5968 497.104 31.4033C496.56 32.1708 496.588 33.023 497.09 33.901Z" fill="#4C415D"/>
</g>
<g opacity="0.7">
<path d="M475.655 12.0492C476.639 13.9121 479.678 14.089 480.79 12.02C480.908 11.802 481.248 11.6742 481.11 11.3357C480.744 10.173 479.963 9.31991 478.928 8.72534C478.082 8.23911 476.778 8.80077 476.305 9.78951C475.964 10.5023 475.812 11.2783 475.655 12.0492Z" fill="#534963"/>
<path d="M475.655 12.049C476.109 11.6691 476.051 11.0902 476.192 10.5965C476.427 9.7725 476.814 9.13338 477.691 8.83609C478.273 8.63845 478.76 8.72043 479.219 9.1038C479.748 9.54491 480.231 10.0246 480.59 10.6185C480.742 10.87 480.935 11.0972 481.11 11.3355C481.761 9.79097 481.242 7.96045 479.78 7.12004C478.492 6.37881 476.75 6.60427 475.83 7.95949C474.954 9.24932 474.943 10.6426 475.655 12.049Z" fill="#4C415D"/>
</g>
<g opacity="0.7">
<path d="M420.446 62.6086C419.753 61.4446 417.753 61.2615 417.072 62.4999C417.001 62.6304 416.78 62.7002 416.88 62.9107C417.148 63.6311 417.683 64.1723 418.378 64.5616C418.946 64.8799 419.788 64.5684 420.075 63.9751C420.281 63.5474 420.362 63.0764 420.446 62.6086Z" fill="#534963"/>
<path d="M420.446 62.6087C420.157 62.83 420.21 63.1856 420.129 63.4842C419.995 63.9825 419.756 64.364 419.188 64.5243C418.81 64.6309 418.488 64.5687 418.177 64.3228C417.818 64.0399 417.489 63.7346 417.239 63.3623C417.133 63.2048 417 63.0609 416.88 62.9108C416.49 63.8398 416.876 64.9725 417.857 65.5227C418.722 66.008 419.861 65.913 420.432 65.1065C420.976 64.3389 420.949 63.4868 420.446 62.6087Z" fill="#4C415D"/>
</g>
<g opacity="0.7">
<path d="M511.906 55.2941C510.922 57.157 507.884 57.3339 506.771 55.2649C506.654 55.0469 506.313 54.9191 506.452 54.5806C506.817 53.4179 507.599 52.5648 508.633 51.9702C509.48 51.484 510.783 52.0456 511.257 53.0344C511.598 53.7472 511.749 54.5232 511.906 55.2941Z" fill="#534963"/>
<path d="M511.906 55.2939C511.452 54.914 511.511 54.3351 511.37 53.8414C511.135 53.0174 510.747 52.3783 509.871 52.081C509.289 51.8833 508.802 51.9653 508.342 52.3487C507.813 52.7898 507.33 53.2694 506.972 53.8634C506.82 54.1148 506.626 54.3421 506.452 54.5804C505.8 53.0358 506.32 51.2053 507.781 50.3649C509.07 49.6237 510.811 49.8491 511.732 51.2044C512.608 52.4942 512.618 53.8875 511.906 55.2939Z" fill="#4C415D"/>
</g>
<g opacity="0.7">
<path d="M225.09 1.60863C225.783 0.444624 227.784 0.261494 228.464 1.49992C228.536 1.6304 228.756 1.70022 228.657 1.91073C228.388 2.6311 227.854 3.1723 227.159 3.56158C226.591 3.87992 225.748 3.56842 225.462 2.97514C225.255 2.54743 225.174 2.07641 225.09 1.60863Z" fill="#534963"/>
<path d="M225.09 1.60873C225.379 1.82998 225.327 2.1856 225.407 2.4842C225.541 2.98254 225.78 3.36401 226.348 3.52431C226.726 3.63088 227.048 3.56872 227.36 3.32283C227.718 3.03993 228.047 2.73455 228.297 2.36232C228.403 2.20475 228.536 2.06094 228.657 1.91084C229.047 2.83977 228.66 3.97253 227.679 4.52272C226.814 5.00798 225.675 4.91297 225.104 4.10649C224.56 3.33894 224.588 2.48676 225.09 1.60873Z" fill="#4C415D"/>
</g>
<g opacity="0.7">
<path d="M276.446 53.6086C275.753 52.4446 273.753 52.2615 273.072 53.4999C273.001 53.6304 272.78 53.7002 272.88 53.9107C273.148 54.6311 273.683 55.1723 274.378 55.5616C274.946 55.8799 275.788 55.5684 276.075 54.9751C276.281 54.5474 276.362 54.0764 276.446 53.6086Z" fill="#534963"/>
<path d="M276.446 53.6087C276.157 53.83 276.21 54.1856 276.129 54.4842C275.995 54.9825 275.756 55.364 275.188 55.5243C274.81 55.6309 274.488 55.5687 274.177 55.3228C273.818 55.0399 273.489 54.7346 273.239 54.3623C273.133 54.2048 273 54.0609 272.88 53.9108C272.49 54.8398 272.876 55.9725 273.857 56.5227C274.722 57.008 275.861 56.913 276.432 56.1065C276.976 55.3389 276.949 54.4868 276.446 53.6087Z" fill="#4C415D"/>
</g>
<g opacity="0.7">
<path d="M250.09 7.60863C250.783 6.44462 252.784 6.26149 253.464 7.49992C253.536 7.6304 253.756 7.70022 253.657 7.91073C253.388 8.6311 252.854 9.1723 252.159 9.56158C251.591 9.87992 250.748 9.56842 250.462 8.97514C250.255 8.54743 250.174 8.07641 250.09 7.60863Z" fill="#534963"/>
<path d="M250.09 7.60873C250.379 7.82998 250.327 8.1856 250.407 8.4842C250.541 8.98254 250.78 9.36401 251.348 9.52431C251.726 9.63088 252.048 9.56872 252.36 9.32283C252.718 9.03993 253.047 8.73455 253.297 8.36232C253.403 8.20475 253.536 8.06094 253.657 7.91084C254.047 8.83977 253.66 9.97253 252.679 10.5227C251.814 11.008 250.675 10.913 250.104 10.1065C249.56 9.33894 249.588 8.48676 250.09 7.60873Z" fill="#4C415D"/>
</g>
<g opacity="0.7">
<path d="M228.655 29.4606C229.64 27.5977 232.678 27.4208 233.791 29.4898C233.908 29.7077 234.248 29.8356 234.11 30.1741C233.745 31.3368 232.963 32.1899 231.928 32.7844C231.082 33.2707 229.778 32.709 229.305 31.7203C228.964 31.0074 228.812 30.2315 228.655 29.4606Z" fill="#534963"/>
<path d="M228.655 29.4607C229.109 29.8406 229.051 30.4196 229.192 30.9133C229.427 31.7373 229.815 32.3764 230.691 32.6737C231.273 32.8713 231.76 32.7893 232.22 32.406C232.749 31.9649 233.232 31.4852 233.59 30.8912C233.742 30.6398 233.935 30.4126 234.11 30.1743C234.761 31.7188 234.242 33.5493 232.781 34.3897C231.492 35.131 229.75 34.9055 228.83 33.5503C227.954 32.2604 227.944 30.8672 228.655 29.4607Z" fill="#4C415D"/>
</g>
<g opacity="0.7">
<path d="M244.906 66.4606C243.922 64.5977 240.883 64.4208 239.771 66.4898C239.654 66.7077 239.313 66.8356 239.452 67.1741C239.817 68.3368 240.598 69.1899 241.633 69.7844C242.48 70.2707 243.783 69.709 244.256 68.7203C244.597 68.0074 244.749 67.2315 244.906 66.4606Z" fill="#534963"/>
<path d="M244.906 66.4607C244.452 66.8406 244.51 67.4196 244.37 67.9133C244.134 68.7373 243.747 69.3764 242.871 69.6737C242.288 69.8713 241.801 69.7893 241.342 69.406C240.813 68.9649 240.33 68.4852 239.971 67.8912C239.82 67.6398 239.626 67.4126 239.452 67.1743C238.8 68.7188 239.32 70.5493 240.781 71.3897C242.07 72.131 243.811 71.9055 244.732 70.5503C245.608 69.2604 245.618 67.8672 244.906 66.4607Z" fill="#4C415D"/>
</g>
<g opacity="0.7">
<path d="M257.446 59.8247C256.753 60.9887 254.753 61.1719 254.072 59.9334C254.001 59.803 253.78 59.7331 253.88 59.5226C254.148 58.8023 254.683 58.261 255.378 57.8718C255.946 57.5534 256.788 57.8649 257.075 58.4582C257.281 58.8859 257.362 59.3569 257.446 59.8247Z" fill="#534963"/>
<path d="M257.446 59.8246C257.157 59.6034 257.21 59.2477 257.129 58.9491C256.995 58.4508 256.756 58.0693 256.188 57.909C255.81 57.8025 255.488 57.8646 255.177 58.1105C254.818 58.3934 254.489 58.6988 254.239 59.071C254.133 59.2286 254 59.3724 253.88 59.5225C253.49 58.5936 253.876 57.4608 254.857 56.9106C255.722 56.4254 256.861 56.5204 257.432 57.3269C257.976 58.0944 257.949 58.9466 257.446 59.8246Z" fill="#4C415D"/>
</g>
<g opacity="0.7">
<path d="M275.09 39.9011C275.783 41.0651 277.784 41.2483 278.464 40.0098C278.535 39.8794 278.756 39.8095 278.657 39.599C278.388 38.8787 277.853 38.3375 277.159 37.9482C276.591 37.6298 275.748 37.9413 275.461 38.5346C275.255 38.9623 275.174 39.4334 275.09 39.9011Z" fill="#534963"/>
<path d="M275.09 39.901C275.379 39.6798 275.326 39.3242 275.407 39.0256C275.541 38.5272 275.78 38.1458 276.348 37.9855C276.726 37.8789 277.048 37.941 277.359 38.1869C277.718 38.4698 278.047 38.7752 278.297 39.1474C278.403 39.305 278.536 39.4488 278.656 39.5989C279.046 38.67 278.66 37.5372 277.679 36.987C276.814 36.5018 275.675 36.5968 275.104 37.4033C274.56 38.1708 274.588 39.023 275.09 39.901Z" fill="#4C415D"/>
</g>
<g opacity="0.7">
<path d="M295.446 68.8247C294.753 69.9887 292.753 70.1719 292.072 68.9334C292.001 68.803 291.78 68.7331 291.88 68.5226C292.148 67.8023 292.683 67.261 293.378 66.8718C293.946 66.5534 294.788 66.8649 295.075 67.4582C295.281 67.8859 295.362 68.3569 295.446 68.8247Z" fill="#534963"/>
<path d="M295.446 68.8246C295.157 68.6034 295.21 68.2477 295.129 67.9491C294.995 67.4508 294.756 67.0693 294.188 66.909C293.81 66.8025 293.488 66.8646 293.177 67.1105C292.818 67.3934 292.489 67.6988 292.239 68.071C292.133 68.2286 292 68.3724 291.88 68.5225C291.49 67.5936 291.876 66.4608 292.857 65.9106C293.722 65.4254 294.861 65.5204 295.432 66.3269C295.976 67.0944 295.949 67.9466 295.446 68.8246Z" fill="#4C415D"/>
</g>
<g opacity="0.7">
<path d="M300.09 33.9011C300.783 35.0651 302.784 35.2483 303.464 34.0098C303.535 33.8794 303.756 33.8095 303.657 33.599C303.388 32.8787 302.853 32.3375 302.159 31.9482C301.591 31.6298 300.748 31.9413 300.461 32.5346C300.255 32.9623 300.174 33.4334 300.09 33.9011Z" fill="#534963"/>
<path d="M300.09 33.901C300.379 33.6798 300.326 33.3242 300.407 33.0256C300.541 32.5272 300.78 32.1458 301.348 31.9855C301.726 31.8789 302.048 31.941 302.36 32.1869C302.718 32.4698 303.047 32.7752 303.297 33.1474C303.403 33.305 303.536 33.4488 303.657 33.5989C304.046 32.67 303.66 31.5372 302.679 30.987C301.814 30.5018 300.675 30.5968 300.104 31.4033C299.56 32.1708 299.588 33.023 300.09 33.901Z" fill="#4C415D"/>
</g>
<g opacity="0.7">
<path d="M278.655 12.0492C279.639 13.9121 282.678 14.089 283.79 12.02C283.908 11.802 284.248 11.6742 284.11 11.3357C283.744 10.173 282.963 9.31991 281.928 8.72534C281.082 8.23911 279.778 8.80077 279.305 9.78951C278.964 10.5023 278.812 11.2783 278.655 12.0492Z" fill="#534963"/>
<path d="M278.655 12.049C279.109 11.6691 279.051 11.0902 279.192 10.5965C279.427 9.7725 279.814 9.13338 280.691 8.83609C281.273 8.63845 281.76 8.72043 282.219 9.1038C282.748 9.54491 283.231 10.0246 283.59 10.6185C283.742 10.87 283.935 11.0972 284.11 11.3355C284.761 9.79097 284.242 7.96045 282.78 7.12004C281.492 6.37881 279.75 6.60427 278.83 7.95949C277.954 9.24932 277.943 10.6426 278.655 12.049Z" fill="#4C415D"/>
</g>
<g opacity="0.7">
<path d="M223.446 62.6086C222.753 61.4446 220.753 61.2615 220.072 62.4999C220.001 62.6304 219.78 62.7002 219.88 62.9107C220.148 63.6311 220.683 64.1723 221.378 64.5616C221.946 64.8799 222.788 64.5684 223.075 63.9751C223.281 63.5474 223.362 63.0764 223.446 62.6086Z" fill="#534963"/>
<path d="M223.446 62.6087C223.157 62.83 223.21 63.1856 223.129 63.4842C222.995 63.9825 222.756 64.364 222.188 64.5243C221.81 64.6309 221.488 64.5687 221.177 64.3228C220.818 64.0399 220.489 63.7346 220.239 63.3623C220.133 63.2048 220 63.0609 219.88 62.9108C219.49 63.8398 219.876 64.9725 220.857 65.5227C221.722 66.008 222.861 65.913 223.432 65.1065C223.976 64.3389 223.949 63.4868 223.446 62.6087Z" fill="#4C415D"/>
</g>
<g opacity="0.7">
<path d="M314.906 55.2941C313.922 57.157 310.884 57.3339 309.771 55.2649C309.654 55.0469 309.313 54.9191 309.452 54.5806C309.817 53.4179 310.599 52.5648 311.633 51.9702C312.48 51.484 313.783 52.0456 314.257 53.0344C314.598 53.7472 314.749 54.5232 314.906 55.2941Z" fill="#534963"/>
<path d="M314.906 55.2939C314.452 54.914 314.511 54.3351 314.37 53.8414C314.135 53.0174 313.747 52.3783 312.871 52.081C312.289 51.8833 311.802 51.9653 311.342 52.3487C310.813 52.7898 310.33 53.2694 309.972 53.8634C309.82 54.1148 309.626 54.3421 309.452 54.5804C308.8 53.0358 309.32 51.2053 310.781 50.3649C312.07 49.6237 313.811 49.8491 314.732 51.2044C315.608 52.4942 315.618 53.8875 314.906 55.2939Z" fill="#4C415D"/>
</g>
<g opacity="0.7">
<path d="M398.91 73.3914C398.217 74.5554 396.216 74.7385 395.536 73.5001C395.464 73.3696 395.244 73.2998 395.343 73.0893C395.612 72.3689 396.146 71.8277 396.841 71.4384C397.409 71.1201 398.252 71.4316 398.538 72.0249C398.745 72.4526 398.826 72.9236 398.91 73.3914Z" fill="#534963"/>
<path d="M398.91 73.3913C398.621 73.17 398.673 72.8144 398.593 72.5158C398.459 72.0175 398.22 71.636 397.652 71.4757C397.274 71.3691 396.952 71.4313 396.64 71.6772C396.282 71.9601 395.953 72.2654 395.703 72.6377C395.597 72.7952 395.464 72.9391 395.343 73.0892C394.953 72.1602 395.34 71.0275 396.321 70.4773C397.186 69.992 398.325 70.087 398.896 70.8935C399.44 71.6611 399.412 72.5132 398.91 73.3913Z" fill="#4C415D"/>
</g>
<g opacity="0.7">
<path d="M347.554 21.3914C348.247 22.5554 350.247 22.7385 350.928 21.5001C350.999 21.3696 351.22 21.2998 351.12 21.0893C350.852 20.3689 350.317 19.8277 349.622 19.4384C349.054 19.1201 348.212 19.4316 347.925 20.0249C347.719 20.4526 347.638 20.9236 347.554 21.3914Z" fill="#534963"/>
<path d="M347.554 21.3913C347.843 21.17 347.79 20.8144 347.871 20.5158C348.005 20.0175 348.244 19.636 348.812 19.4757C349.19 19.3691 349.512 19.4313 349.823 19.6772C350.182 19.9601 350.511 20.2654 350.761 20.6377C350.867 20.7952 351 20.9391 351.12 21.0892C351.51 20.1602 351.124 19.0275 350.143 18.4773C349.278 17.992 348.139 18.087 347.568 18.8935C347.024 19.6611 347.051 20.5132 347.554 21.3913Z" fill="#4C415D"/>
</g>
<g opacity="0.7">
<path d="M373.91 67.3914C373.217 68.5554 371.216 68.7385 370.536 67.5001C370.464 67.3696 370.244 67.2998 370.343 67.0893C370.612 66.3689 371.146 65.8277 371.841 65.4384C372.409 65.1201 373.252 65.4316 373.538 66.0249C373.745 66.4526 373.826 66.9236 373.91 67.3914Z" fill="#534963"/>
<path d="M373.91 67.3913C373.621 67.17 373.673 66.8144 373.593 66.5158C373.459 66.0175 373.22 65.636 372.652 65.4757C372.274 65.3691 371.952 65.4313 371.64 65.6772C371.282 65.9601 370.953 66.2654 370.703 66.6377C370.597 66.7952 370.464 66.9391 370.343 67.0892C369.953 66.1602 370.34 65.0275 371.321 64.4773C372.186 63.992 373.325 64.087 373.896 64.8935C374.44 65.6611 374.412 66.5132 373.91 67.3913Z" fill="#4C415D"/>
</g>
<g opacity="0.7">
<path d="M395.345 45.5394C394.36 47.4023 391.322 47.5792 390.209 45.5102C390.092 45.2923 389.752 45.1644 389.89 44.8259C390.255 43.6632 391.037 42.8101 392.072 42.2156C392.918 41.7293 394.222 42.291 394.695 43.2797C395.036 43.9926 395.188 44.7685 395.345 45.5394Z" fill="#534963"/>
<path d="M395.345 45.5393C394.891 45.1594 394.949 44.5804 394.808 44.0867C394.573 43.2627 394.185 42.6236 393.309 42.3263C392.727 42.1287 392.24 42.2107 391.78 42.594C391.251 43.0351 390.768 43.5148 390.41 44.1088C390.258 44.3602 390.065 44.5874 389.89 44.8257C389.239 43.2812 389.758 41.4507 391.219 40.6103C392.508 39.869 394.25 40.0945 395.17 41.4497C396.046 42.7396 396.056 44.1328 395.345 45.5393Z" fill="#4C415D"/>
</g>
<g opacity="0.7">
<path d="M379.094 8.53944C380.078 10.4023 383.117 10.5792 384.229 8.51025C384.346 8.29227 384.687 8.16443 384.548 7.82594C384.183 6.66324 383.402 5.81014 382.367 5.21557C381.52 4.72935 380.217 5.291 379.744 6.27975C379.403 6.99256 379.251 7.76854 379.094 8.53944Z" fill="#534963"/>
<path d="M379.094 8.53927C379.548 8.15935 379.49 7.58044 379.63 7.08672C379.866 6.26273 380.253 5.62362 381.129 5.32632C381.712 5.12868 382.199 5.21066 382.658 5.59404C383.187 6.03514 383.67 6.5148 384.029 7.10877C384.18 7.36019 384.374 7.58745 384.548 7.82575C385.2 6.28121 384.68 4.45068 383.219 3.61027C381.93 2.86904 380.189 3.0945 379.268 4.44973C378.392 5.73956 378.382 7.13282 379.094 8.53927Z" fill="#4C415D"/>
</g>
<g opacity="0.7">
<path d="M366.554 15.1753C367.247 14.0113 369.247 13.8281 369.928 15.0666C369.999 15.197 370.22 15.2669 370.12 15.4774C369.852 16.1977 369.317 16.739 368.622 17.1282C368.054 17.4466 367.212 17.1351 366.925 16.5418C366.719 16.1141 366.638 15.6431 366.554 15.1753Z" fill="#534963"/>
<path d="M366.554 15.1754C366.843 15.3966 366.79 15.7523 366.871 16.0509C367.005 16.5492 367.244 16.9307 367.812 17.091C368.19 17.1975 368.512 17.1354 368.823 16.8895C369.182 16.6066 369.511 16.3012 369.761 15.929C369.867 15.7714 370 15.6276 370.12 15.4775C370.51 16.4064 370.124 17.5392 369.143 18.0894C368.278 18.5746 367.139 18.4796 366.568 17.6731C366.024 16.9056 366.051 16.0534 366.554 15.1754Z" fill="#4C415D"/>
</g>
<g opacity="0.7">
<path d="M348.91 35.0989C348.217 33.9349 346.216 33.7517 345.536 34.9902C345.465 35.1206 345.244 35.1905 345.343 35.401C345.612 36.1213 346.147 36.6625 346.841 37.0518C347.409 37.3702 348.252 37.0587 348.539 36.4654C348.745 36.0377 348.826 35.5666 348.91 35.0989Z" fill="#534963"/>
<path d="M348.91 35.099C348.621 35.3202 348.674 35.6758 348.593 35.9744C348.459 36.4728 348.22 36.8542 347.652 37.0145C347.274 37.1211 346.952 37.059 346.641 36.8131C346.282 36.5302 345.953 36.2248 345.703 35.8526C345.597 35.695 345.464 35.5512 345.344 35.4011C344.954 36.33 345.34 37.4628 346.321 38.013C347.186 38.4982 348.325 38.4032 348.896 37.5967C349.44 36.8292 349.412 35.977 348.91 35.099Z" fill="#4C415D"/>
</g>
<g opacity="0.7">
<path d="M328.554 6.17528C329.247 5.01127 331.247 4.82814 331.928 6.06657C331.999 6.19705 332.22 6.26687 332.12 6.47738C331.852 7.19775 331.317 7.73895 330.622 8.12823C330.054 8.44657 329.212 8.13507 328.925 7.54179C328.719 7.11408 328.638 6.64306 328.554 6.17528Z" fill="#534963"/>
<path d="M328.554 6.17538C328.843 6.39663 328.79 6.75225 328.871 7.05085C329.005 7.54919 329.244 7.93066 329.812 8.09096C330.19 8.19753 330.512 8.13537 330.823 7.88948C331.182 7.60658 331.511 7.3012 331.761 6.92897C331.867 6.7714 332 6.62759 332.12 6.47749C332.51 7.40642 332.124 8.53918 331.143 9.08937C330.278 9.57463 329.139 9.47962 328.568 8.67315C328.024 7.90559 328.051 7.05341 328.554 6.17538Z" fill="#4C415D"/>
</g>
<g opacity="0.7">
<path d="M323.91 41.0989C323.217 39.9349 321.216 39.7517 320.536 40.9902C320.465 41.1206 320.244 41.1905 320.343 41.401C320.612 42.1213 321.147 42.6625 321.841 43.0518C322.409 43.3702 323.252 43.0587 323.539 42.4654C323.745 42.0377 323.826 41.5666 323.91 41.0989Z" fill="#534963"/>
<path d="M323.91 41.099C323.621 41.3202 323.674 41.6758 323.593 41.9744C323.459 42.4728 323.22 42.8542 322.652 43.0145C322.274 43.1211 321.952 43.059 321.64 42.8131C321.282 42.5302 320.953 42.2248 320.703 41.8526C320.597 41.695 320.464 41.5512 320.343 41.4011C319.954 42.33 320.34 43.4628 321.321 44.013C322.186 44.4982 323.325 44.4032 323.896 43.5967C324.44 42.8292 324.412 41.977 323.91 41.099Z" fill="#4C415D"/>
</g>
<g opacity="0.7">
<path d="M345.345 62.9508C344.361 61.0879 341.322 60.911 340.21 62.98C340.092 63.198 339.752 63.3258 339.89 63.6643C340.256 64.827 341.037 65.6801 342.072 66.2747C342.918 66.7609 344.222 66.1992 344.695 65.2105C345.036 64.4977 345.188 63.7217 345.345 62.9508Z" fill="#534963"/>
<path d="M345.345 62.951C344.891 63.3309 344.949 63.9098 344.808 64.4035C344.573 65.2275 344.186 65.8666 343.309 66.1639C342.727 66.3616 342.24 66.2796 341.781 65.8962C341.252 65.4551 340.769 64.9754 340.41 64.3815C340.258 64.13 340.065 63.9028 339.89 63.6645C339.239 65.209 339.758 67.0396 341.22 67.88C342.508 68.6212 344.25 68.3957 345.17 67.0405C346.046 65.7507 346.057 64.3574 345.345 62.951Z" fill="#4C415D"/>
</g>
<g opacity="0.7">
<path d="M400.554 12.3914C401.247 13.5554 403.247 13.7385 403.928 12.5001C403.999 12.3696 404.22 12.2998 404.12 12.0893C403.852 11.3689 403.317 10.8277 402.622 10.4384C402.054 10.1201 401.212 10.4316 400.925 11.0249C400.719 11.4526 400.638 11.9236 400.554 12.3914Z" fill="#534963"/>
<path d="M400.554 12.3913C400.843 12.17 400.79 11.8144 400.871 11.5158C401.005 11.0175 401.244 10.636 401.812 10.4757C402.19 10.3691 402.512 10.4313 402.823 10.6772C403.182 10.9601 403.511 11.2654 403.761 11.6377C403.867 11.7952 404 11.9391 404.12 12.0892C404.51 11.1602 404.124 10.0275 403.143 9.47728C402.278 8.99202 401.139 9.08703 400.568 9.89351C400.024 10.6611 400.051 11.5132 400.554 12.3913Z" fill="#4C415D"/>
</g>
<g opacity="0.7">
<path d="M309.094 19.7059C310.078 17.843 313.116 17.6661 314.229 19.7351C314.346 19.9531 314.687 20.0809 314.548 20.4194C314.183 21.5821 313.401 22.4352 312.367 23.0298C311.52 23.516 310.217 22.9544 309.743 21.9656C309.402 21.2528 309.251 20.4768 309.094 19.7059Z" fill="#534963"/>
<path d="M309.094 19.7061C309.548 20.086 309.489 20.6649 309.63 21.1586C309.865 21.9826 310.253 22.6217 311.129 22.919C311.711 23.1167 312.198 23.0347 312.658 22.6513C313.187 22.2102 313.67 21.7306 314.028 21.1366C314.18 20.8852 314.374 20.6579 314.548 20.4196C315.2 21.9642 314.68 23.7947 313.219 24.6351C311.93 25.3763 310.189 25.1509 309.268 23.7956C308.392 22.5058 308.382 21.1125 309.094 19.7061Z" fill="#4C415D"/>
</g>
</svg>
