<svg width="103" height="74" viewBox="0 0 103 74" fill="none" xmlns="http://www.w3.org/2000/svg">
<g opacity="0.7">
<path d="M9.09006 1.60863C9.78278 0.444624 11.7837 0.261494 12.4638 1.49992C12.5354 1.6304 12.7559 1.70022 12.6567 1.91073C12.388 2.6311 11.8534 3.1723 11.1587 3.56158C10.5907 3.87992 9.74786 3.56842 9.46139 2.97514C9.25487 2.54743 9.17416 2.07641 9.09006 1.60863Z" fill="#3E7575"/>
<path d="M9.08955 1.60885C9.37856 1.8301 9.32602 2.18573 9.40644 2.48432C9.54066 2.98266 9.77959 3.36413 10.3479 3.52443C10.7257 3.631 11.0477 3.56884 11.3591 3.32296C11.7175 3.04005 12.0467 2.73467 12.2969 2.36244C12.4028 2.20487 12.5356 2.06106 12.6562 1.91096C13.0461 2.83989 12.6596 3.97265 11.6788 4.52284C10.8137 5.0081 9.67484 4.91309 9.10347 4.10662C8.55969 3.33906 8.58736 2.48688 9.08955 1.60885Z" fill="#307070"/>
</g>
<g opacity="0.7">
<path d="M60.4461 53.6086C59.7533 52.4446 57.7524 52.2615 57.0724 53.4999C57.0007 53.6304 56.7802 53.7002 56.8794 53.9107C57.1481 54.6311 57.6828 55.1723 58.3774 55.5616C58.9454 55.8799 59.7883 55.5684 60.0747 54.9751C60.2813 54.5474 60.362 54.0764 60.4461 53.6086Z" fill="#3E7575"/>
<path d="M60.4466 53.6089C60.1576 53.8301 60.2101 54.1857 60.1297 54.4843C59.9955 54.9827 59.7565 55.3641 59.1882 55.5244C58.8105 55.631 58.4885 55.5688 58.177 55.323C57.8186 55.04 57.4894 54.7347 57.2392 54.3624C57.1333 54.2049 57.0006 54.0611 56.88 53.911C56.49 54.8399 56.8765 55.9727 57.8574 56.5228C58.7224 57.0081 59.8613 56.9131 60.4327 56.1066C60.9764 55.3391 60.9488 54.4869 60.4466 53.6089Z" fill="#307070"/>
</g>
<g opacity="0.7">
<path d="M34.0901 7.60863C34.7828 6.44462 36.7837 6.26149 37.4638 7.49992C37.5354 7.6304 37.7559 7.70022 37.6567 7.91073C37.388 8.6311 36.8534 9.1723 36.1587 9.56158C35.5907 9.87992 34.7479 9.56842 34.4614 8.97514C34.2549 8.54743 34.1742 8.07641 34.0901 7.60863Z" fill="#3E7575"/>
<path d="M34.0896 7.60885C34.3786 7.8301 34.326 8.18573 34.4064 8.48432C34.5407 8.98266 34.7796 9.36413 35.3479 9.52443C35.7257 9.631 36.0477 9.56884 36.3591 9.32296C36.7175 9.04005 37.0467 8.73467 37.2969 8.36244C37.4028 8.20487 37.5356 8.06106 37.6562 7.91096C38.0461 8.83989 37.6596 9.97265 36.6788 10.5228C35.8137 11.0081 34.6748 10.9131 34.1035 10.1066C33.5597 9.33906 33.5874 8.48688 34.0896 7.60885Z" fill="#307070"/>
</g>
<g opacity="0.7">
<path d="M12.6551 29.4606C13.6395 27.5977 16.678 27.4208 17.7906 29.4898C17.9078 29.7077 18.2482 29.8356 18.1099 30.1741C17.7446 31.3368 16.9629 32.1899 15.9281 32.7844C15.0818 33.2707 13.7781 32.709 13.305 31.7203C12.964 31.0074 12.812 30.2315 12.6551 29.4606Z" fill="#3E7575"/>
<path d="M12.6546 29.4608C13.1087 29.8407 13.0504 30.4196 13.1913 30.9133C13.4265 31.7373 13.8141 32.3764 14.6901 32.6737C15.2725 32.8713 15.7595 32.7894 16.2191 32.406C16.7479 31.9649 17.231 31.4852 17.5894 30.8913C17.7412 30.6398 17.9347 30.4126 18.1093 30.1743C18.7607 31.7188 18.2411 33.5493 16.78 34.3898C15.4912 35.131 13.7495 34.9055 12.8292 33.5503C11.9532 32.2605 11.9431 30.8672 12.6546 29.4608Z" fill="#307070"/>
</g>
<g opacity="0.7">
<path d="M28.9064 66.4606C27.922 64.5977 24.8835 64.4208 23.771 66.4898C23.6537 66.7077 23.3134 66.8356 23.4516 67.1741C23.817 68.3368 24.5986 69.1899 25.6335 69.7844C26.4797 70.2707 27.7835 69.709 28.2565 68.7203C28.5976 68.0074 28.7495 67.2315 28.9064 66.4606Z" fill="#3E7575"/>
<path d="M28.9069 66.4608C28.4528 66.8407 28.5111 67.4196 28.3702 67.9133C28.135 68.7373 27.7474 69.3764 26.8714 69.6737C26.289 69.8713 25.8021 69.7894 25.3424 69.406C24.8136 68.9649 24.3305 68.4852 23.9721 67.8913C23.8204 67.6398 23.6268 67.4126 23.4523 67.1743C22.8008 68.7188 23.3204 70.5493 24.7816 71.3898C26.0703 72.131 27.812 71.9055 28.7324 70.5503C29.6083 69.2605 29.6184 67.8672 28.9069 66.4608Z" fill="#307070"/>
</g>
<g opacity="0.7">
<path d="M41.4461 59.825C40.7533 60.989 38.7524 61.1721 38.0724 59.9337C38.0007 59.8032 37.7802 59.7334 37.8794 59.5229C38.1481 58.8025 38.6828 58.2613 39.3774 57.872C39.9454 57.5537 40.7883 57.8652 41.0747 58.4585C41.2813 58.8862 41.362 59.3572 41.4461 59.825Z" fill="#3E7575"/>
<path d="M41.4466 59.8247C41.1576 59.6035 41.2101 59.2479 41.1297 58.9493C40.9955 58.4509 40.7565 58.0695 40.1882 57.9092C39.8105 57.8026 39.4885 57.8648 39.177 58.1106C38.8186 58.3935 38.4894 58.6989 38.2392 59.0712C38.1333 59.2287 38.0006 59.3725 37.88 59.5226C37.49 58.5937 37.8765 57.4609 38.8574 56.9108C39.7224 56.4255 40.8613 56.5205 41.4327 57.327C41.9764 58.0945 41.9488 58.9467 41.4466 59.8247Z" fill="#307070"/>
</g>
<g opacity="0.7">
<path d="M59.0901 39.9011C59.7828 41.0651 61.7837 41.2483 62.4638 40.0098C62.5354 39.8794 62.7559 39.8095 62.6567 39.599C62.388 38.8787 61.8534 38.3375 61.1587 37.9482C60.5907 37.6298 59.7479 37.9413 59.4614 38.5346C59.2549 38.9623 59.1742 39.4334 59.0901 39.9011Z" fill="#3E7575"/>
<path d="M59.0896 39.9009C59.3786 39.6797 59.326 39.324 59.4064 39.0254C59.5407 38.5271 59.7796 38.1456 60.3479 37.9853C60.7257 37.8788 61.0477 37.9409 61.3591 38.1868C61.7175 38.4697 62.0467 38.7751 62.2969 39.1473C62.4028 39.3049 62.5356 39.4487 62.6562 39.5988C63.0461 38.6699 62.6596 37.5371 61.6788 36.9869C60.8137 36.5017 59.6748 36.5967 59.1035 37.4031C58.5597 38.1707 58.5874 39.0229 59.0896 39.9009Z" fill="#307070"/>
</g>
<g opacity="0.7">
<path d="M79.4461 68.825C78.7533 69.989 76.7524 70.1721 76.0724 68.9337C76.0007 68.8032 75.7802 68.7334 75.8794 68.5229C76.1481 67.8025 76.6828 67.2613 77.3774 66.872C77.9454 66.5537 78.7883 66.8652 79.0747 67.4585C79.2813 67.8862 79.362 68.3572 79.4461 68.825Z" fill="#3E7575"/>
<path d="M79.4466 68.8247C79.1576 68.6035 79.2101 68.2479 79.1297 67.9493C78.9955 67.4509 78.7565 67.0695 78.1882 66.9092C77.8105 66.8026 77.4885 66.8648 77.177 67.1106C76.8186 67.3935 76.4894 67.6989 76.2392 68.0712C76.1333 68.2287 76.0006 68.3725 75.88 68.5226C75.49 67.5937 75.8765 66.4609 76.8574 65.9108C77.7224 65.4255 78.8613 65.5205 79.4327 66.327C79.9764 67.0945 79.9488 67.9467 79.4466 68.8247Z" fill="#307070"/>
</g>
<g opacity="0.7">
<path d="M84.0901 33.9011C84.7828 35.0651 86.7837 35.2483 87.4638 34.0098C87.5354 33.8794 87.7559 33.8095 87.6567 33.599C87.388 32.8787 86.8534 32.3375 86.1587 31.9482C85.5907 31.6298 84.7479 31.9413 84.4614 32.5346C84.2549 32.9623 84.1742 33.4334 84.0901 33.9011Z" fill="#3E7575"/>
<path d="M84.0896 33.9009C84.3786 33.6797 84.326 33.324 84.4064 33.0254C84.5407 32.5271 84.7796 32.1456 85.3479 31.9853C85.7257 31.8788 86.0477 31.9409 86.3591 32.1868C86.7175 32.4697 87.0467 32.7751 87.2969 33.1473C87.4028 33.3049 87.5356 33.4487 87.6562 33.5988C88.0461 32.6699 87.6596 31.5371 86.6788 30.9869C85.8137 30.5017 84.6748 30.5967 84.1035 31.4031C83.5597 32.1707 83.5874 33.0229 84.0896 33.9009Z" fill="#307070"/>
</g>
<g opacity="0.7">
<path d="M62.6551 12.0492C63.6395 13.9121 66.678 14.089 67.7906 12.02C67.9078 11.802 68.2482 11.6742 68.1099 11.3357C67.7446 10.173 66.9629 9.31991 65.9281 8.72534C65.0818 8.23911 63.7781 8.80077 63.305 9.78951C62.964 10.5023 62.812 11.2783 62.6551 12.0492Z" fill="#3E7575"/>
<path d="M62.6546 12.049C63.1087 11.6691 63.0504 11.0902 63.1913 10.5965C63.4265 9.77247 63.8141 9.13335 64.6901 8.83606C65.2725 8.63842 65.7595 8.7204 66.2191 9.10377C66.7479 9.54488 67.231 10.0245 67.5894 10.6185C67.7412 10.8699 67.9347 11.0972 68.1093 11.3355C68.7607 9.79094 68.2411 7.96042 66.78 7.12001C65.4912 6.37878 63.7495 6.60424 62.8292 7.95946C61.9532 9.24929 61.9431 10.6426 62.6546 12.049Z" fill="#307070"/>
</g>
<g opacity="0.7">
<path d="M7.44607 62.6086C6.75335 61.4446 4.75244 61.2615 4.07237 62.4999C4.00072 62.6304 3.78022 62.7002 3.87942 62.9107C4.14813 63.6311 4.68275 64.1723 5.37739 64.5616C5.94544 64.8799 6.78828 64.5684 7.07475 63.9751C7.28126 63.5474 7.36197 63.0764 7.44607 62.6086Z" fill="#3E7575"/>
<path d="M7.44658 62.6089C7.15757 62.8301 7.21011 63.1857 7.12969 63.4843C6.99548 63.9827 6.75655 64.3641 6.18824 64.5244C5.81046 64.631 5.48845 64.5688 5.177 64.323C4.81865 64.04 4.48939 63.7347 4.23923 63.3624C4.13333 63.2049 4.00056 63.0611 3.87998 62.911C3.49001 63.8399 3.87652 64.9727 4.85735 65.5228C5.72243 66.0081 6.8613 65.9131 7.43266 65.1066C7.97644 64.3391 7.94877 63.4869 7.44658 62.6089Z" fill="#307070"/>
</g>
<g opacity="0.7">
<path d="M98.9064 55.2943C97.922 57.1572 94.8835 57.3341 93.771 55.2651C93.6537 55.0472 93.3134 54.9193 93.4516 54.5808C93.817 53.4181 94.5986 52.565 95.6335 51.9705C96.4797 51.4842 97.7835 52.0459 98.2565 53.0346C98.5976 53.7474 98.7495 54.5234 98.9064 55.2943Z" fill="#3E7575"/>
<path d="M98.9069 55.2941C98.4528 54.9142 98.5111 54.3353 98.3702 53.8416C98.135 53.0176 97.7474 52.3785 96.8714 52.0812C96.289 51.8835 95.8021 51.9655 95.3424 52.3489C94.8136 52.79 94.3305 53.2697 93.9721 53.8636C93.8204 54.115 93.6268 54.3423 93.4523 54.5806C92.8008 53.0361 93.3204 51.2055 94.7816 50.3651C96.0703 49.6239 97.812 49.8494 98.7324 51.2046C99.6083 52.4944 99.6184 53.8877 98.9069 55.2941Z" fill="#307070"/>
</g>
</svg>
