<svg width="20" height="21" viewBox="0 0 20 21" fill="none" xmlns="http://www.w3.org/2000/svg">
<path d="M3.80521 10.0403C3.79921 10.0426 3.79387 10.0433 3.78821 10.0456L5.17854 18.7186C5.28554 19.3616 5.84221 19.8333 6.49454 19.8333H13.5049C14.1572 19.8333 14.7139 19.3616 14.8209 18.7183L16.6362 7.49994H9.93921L3.80521 10.0403ZM7.33321 18.1666C7.00721 18.1666 6.73688 17.9323 6.67887 17.6233L5.67887 11.2899C5.67154 11.2499 5.66654 11.2089 5.66654 11.1666C5.66654 10.7986 5.96521 10.4999 6.33321 10.4999C6.65921 10.4999 6.92954 10.7339 6.98754 11.0433L7.98754 17.3766C7.99487 17.4166 7.99988 17.4576 7.99988 17.4999C7.99988 17.8679 7.70121 18.1666 7.33321 18.1666ZM12.0122 17.3766L13.0122 11.0433C13.0702 10.7339 13.3405 10.4999 13.6665 10.4999C14.0345 10.4999 14.3332 10.7986 14.3332 11.1666C14.3332 11.2089 14.3282 11.2499 14.3209 11.2899L13.3209 17.6233C13.2629 17.9323 12.9925 18.1666 12.6665 18.1666C12.2985 18.1666 11.9999 17.8679 11.9999 17.4999C11.9999 17.4576 12.0049 17.4166 12.0122 17.3766ZM10.6665 11.1666V17.4999C10.6665 17.8679 10.3679 18.1666 9.99988 18.1666C9.63188 18.1666 9.33321 17.8679 9.33321 17.4999V11.1666C9.33321 10.7986 9.63188 10.4999 9.99988 10.4999C10.3679 10.4999 10.6665 10.7986 10.6665 11.1666Z" fill="#E3E3E3"/>
<path d="M15.642 3.33573L15.2194 2.41139C14.9864 1.85006 14.452 1.50006 13.8744 1.50006C13.685 1.50006 13.4917 1.53173 13.3047 1.60639L10.3434 2.83373L9.83337 1.69639C9.77804 1.57339 9.65771 1.50006 9.53071 1.50006C9.48837 1.50006 9.44537 1.50806 9.40337 1.52539L5.87171 2.98906C5.74371 3.04206 5.66671 3.16539 5.66671 3.29506C5.66671 3.34006 5.67571 3.38606 5.69537 3.43039L6.19371 4.55373L3.26071 5.76906C2.68137 6.00173 2.33337 6.54773 2.33337 7.14773C2.33337 7.33106 2.36971 7.5174 2.44337 7.69773L2.85971 8.62506C2.91271 8.75506 3.03804 8.8334 3.17037 8.83306C3.21204 8.83306 3.25471 8.82506 3.29571 8.80806L15.459 3.77106C15.5887 3.71839 15.6667 3.59339 15.6667 3.46173C15.6667 3.41973 15.659 3.37706 15.642 3.33573Z" fill="#E3E3E3"/>
</svg>
