<svg width="360" height="253" viewBox="0 0 360 253" fill="none" xmlns="http://www.w3.org/2000/svg">
<rect y="142" width="360" height="111" fill="white"/>
<path d="M187 56.6115C114.853 87.0588 33 52.7489 0 27.6423V130L360 129.517V16.5375C268.5 -27.882 254.5 28.1253 187 56.6115Z" fill="#B0CCCE"/>
<path d="M187 66.5718C112.304 91.4703 33 62.5718 0 36.5718V142.572L360 142.072V25.0718C268.5 -20.9282 251.5 45.0718 187 66.5718Z" fill="white"/>
<path d="M218 82.5C218 102.382 159.913 97.5 126.5 97.5C93.0868 97.5 38 87.3823 38 67.5C38 47.6177 78.0868 22 111.5 22C144.913 22 218 62.6177 218 82.5Z" fill="#AFCBCD"/>
<path d="M201 120.5C201 140.382 259.087 135.5 292.5 135.5C325.913 135.5 381 125.382 381 105.5C381 85.6177 340.913 60 307.5 60C274.087 60 201 100.618 201 120.5Z" fill="#AFCBCD"/>
<path d="M218 89C218 108.882 159.913 104 126.5 104C93.0868 104 38 93.8823 38 74C38 54.1177 78.0868 28.5 111.5 28.5C144.913 28.5 218 69.1177 218 89Z" fill="white"/>
<path d="M201 127C201 146.882 259.087 142 292.5 142C325.913 142 381 131.882 381 112C381 92.1177 340.913 66.5 307.5 66.5C274.087 66.5 201 107.118 201 127Z" fill="white"/>
</svg>
