<svg width="1920" height="1080" viewBox="0 0 1920 1080" fill="none" xmlns="http://www.w3.org/2000/svg">
<path d="M1920.06 0H0.0610352V1080H1920.06V0Z" fill="url(#paint0_linear_6560_344326)"/>
<path d="M1.06104 113.641C390.187 117.252 560.557 116.789 581.112 113.641C581.946 113.514 585.985 112.853 586.241 113.641C587.696 118.135 463.922 162.45 433.676 172.616C363.101 196.337 226.767 227.388 1.06104 198.257V113.641Z" fill="#69A4D9"/>
<path d="M1073.7 40.5642C1504.44 38.338 1689.81 35.2518 1709.42 31.6996C1710.49 31.5068 1716.8 30.2734 1717.29 31.5899C1718.99 36.1621 1648.45 66.2269 1645.5 67.4873C1485.91 135.509 1236.77 90.6962 1222.42 88.0001C1178.17 79.6575 1134.49 68.5242 1091.65 54.6668L1073.7 40.5642Z" fill="#69A4D9"/>
<path d="M762.869 125.298C779.344 125.298 792.7 111.942 792.7 95.4671C792.7 78.992 779.344 65.6362 762.869 65.6362C746.394 65.6362 733.038 78.992 733.038 95.4671C733.038 111.942 746.394 125.298 762.869 125.298Z" fill="white"/>
<path d="M762.869 165.193C801.377 165.193 832.595 133.976 832.595 95.4673C832.595 56.9586 801.377 25.7412 762.869 25.7412C724.36 25.7412 693.143 56.9586 693.143 95.4673C693.143 133.976 724.36 165.193 762.869 165.193Z" fill="url(#paint1_radial_6560_344326)"/>
<defs>
<linearGradient id="paint0_linear_6560_344326" x1="960.061" y1="0" x2="960.061" y2="1080" gradientUnits="userSpaceOnUse">
<stop stop-color="#3C8DCC"/>
<stop offset="0.11775" stop-color="#4B96D0"/>
<stop offset="0.34417" stop-color="#72ADDA"/>
<stop offset="0.65622" stop-color="#B2D2EB"/>
<stop offset="1" stop-color="white"/>
</linearGradient>
<radialGradient id="paint1_radial_6560_344326" cx="0" cy="0" r="1" gradientUnits="userSpaceOnUse" gradientTransform="translate(762.869 95.4673) scale(69.7261)">
<stop stop-color="white" stop-opacity="0.5"/>
<stop offset="1" stop-color="white" stop-opacity="0"/>
</radialGradient>
</defs>
</svg>
