<svg width="12" height="9" viewBox="0 0 12 9" fill="none" xmlns="http://www.w3.org/2000/svg">
<path d="M11.4152 0.806314C11.3402 0.736948 11.2509 0.681891 11.1525 0.644319C11.0541 0.606746 10.9486 0.587402 10.842 0.587402C10.7354 0.587402 10.6299 0.606746 10.5315 0.644319C10.4331 0.681891 10.3438 0.736948 10.2687 0.806314L4.25362 6.32723L1.72647 4.00341C1.64854 3.93441 1.55655 3.88015 1.45574 3.84374C1.35493 3.80732 1.24729 3.78947 1.13895 3.79118C1.03061 3.7929 0.923705 3.81416 0.824332 3.85375C0.724959 3.89334 0.635065 3.95048 0.559785 4.02191C0.484505 4.09335 0.425311 4.17767 0.385584 4.27007C0.345857 4.36247 0.326374 4.46114 0.328248 4.56045C0.330123 4.65975 0.353318 4.75774 0.396508 4.84883C0.439698 4.93991 0.502039 5.02231 0.57997 5.09131L3.68037 7.93318C3.75543 8.00254 3.84473 8.0576 3.94312 8.09517C4.04151 8.13275 4.14704 8.15209 4.25362 8.15209C4.36021 8.15209 4.46574 8.13275 4.56413 8.09517C4.66252 8.0576 4.75182 8.00254 4.82687 7.93318L11.4152 1.89422C11.4972 1.82491 11.5626 1.7408 11.6073 1.64718C11.6521 1.55357 11.6752 1.45247 11.6752 1.35026C11.6752 1.24806 11.6521 1.14696 11.6073 1.05334C11.5626 0.959725 11.4972 0.875615 11.4152 0.806314Z" fill="white"/>
</svg>
