<svg width="1920" height="384" viewBox="0 0 1920 384" fill="none" xmlns="http://www.w3.org/2000/svg">
<path d="M1127.76 113.814C1127.03 69.6794 818.843 40.7686 623.125 22.4084C307.586 -7.19205 5.54115 2.36277 0.283804 1.38193C0.269184 1.37919 0.287234 1.31726 0.283804 1.38193C0.209734 2.77788 -0.138776 28.2186 0.0610143 55.6834C0.238884 80.1348 21.0681 106.1 25.5471 118.138C65.5338 225.608 375.806 214.878 524.316 206.282C607.161 201.487 1128.71 171.3 1127.76 113.814Z" fill="#D2ECF6"/>
<path d="M0.0610352 55.6835V384H1920.06V56.6985C1920.12 56.3624 1920.12 56.0195 1920.06 55.6835C1878.64 47.7699 1814.37 36.807 1735.39 29.012C1320.19 -11.9679 1068.98 90.9273 775.467 125.24C596.585 146.151 334.268 149.506 0.0610352 55.6835Z" fill="white"/>
</svg>
