<svg width="335" height="157" viewBox="0 0 335 157" fill="none" xmlns="http://www.w3.org/2000/svg">
<path d="M90.3686 128.22C26.9036 116.573 -8.68548 151.148 -17.0999 166.029L-16.2937 176.32L445.074 140.176L443.06 114.468C339.112 70.0905 253.468 108.187 216.277 120.674C185.384 131.046 146.563 138.532 90.3686 128.22Z" fill="#6BB2B2" fill-opacity="0.1"/>
<path d="M89.9976 143.811C26.5326 132.164 -8.58077 164.383 -16.9952 179.264L-16.189 189.556L445.179 153.412L443.838 136.301C340.555 92.2068 254.679 121.048 217.102 133.668L216.382 133.91C185.489 144.282 146.192 154.123 89.9976 143.811Z" fill="#437E7E"/>
<path d="M189.415 150.824C190.101 150.769 190.512 150.961 190.617 151.386C190.736 151.866 190.389 152.224 189.66 152.373C189.594 152.366 189.526 152.362 189.458 152.36L189.466 152.363C188.928 152.312 188.603 152.102 188.588 151.758C188.571 151.364 188.776 151.009 189.415 150.824Z" fill="#5E9896"/>
<path d="M269.932 126.645C270.443 126.92 270.503 127.255 270.108 127.625C269.663 128.042 269.045 128.153 268.402 127.931C268.366 127.895 268.327 127.861 268.284 127.828L268.285 127.833C267.987 127.548 268.003 127.239 268.368 126.972C268.787 126.666 269.309 126.492 269.932 126.645Z" fill="#5E9896"/>
<path d="M331.759 139.438C331.183 139.707 330.664 139.681 330.242 139.362C329.765 139.002 329.801 138.592 330.342 138.231C330.408 138.215 330.472 138.197 330.535 138.176L330.526 138.176C331.049 138.043 331.504 138.111 331.783 138.392C332.103 138.714 332.192 139.076 331.759 139.438Z" fill="#5E9896"/>
<path d="M245.696 157.254C245.322 156.898 245.398 156.558 245.92 156.26C246.509 155.925 247.14 155.92 247.66 156.247C247.68 156.288 247.703 156.329 247.73 156.368L247.731 156.362C247.9 156.693 247.762 156.995 247.309 157.196C246.79 157.427 246.225 157.51 245.696 157.254Z" fill="#5E9896"/>
<path d="M189.415 150.824C189.374 150.867 189.337 150.913 189.291 150.954C188.511 151.667 188.531 151.833 189.466 152.363C188.869 152.525 188.51 152.321 188.191 152.058C187.87 151.793 187.932 151.479 188.201 151.225C188.47 150.97 188.838 150.709 189.415 150.824Z" fill="#3E6D6B"/>
<path d="M269.932 126.646C269.858 126.66 269.784 126.677 269.708 126.687C268.418 126.867 268.25 127.002 268.285 127.834C267.717 127.682 267.703 127.362 267.781 127.016C267.858 126.668 268.242 126.459 268.696 126.39C269.151 126.321 269.679 126.293 269.932 126.646Z" fill="#3E6D6B"/>
<path d="M331.759 139.438C331.762 139.389 331.761 139.339 331.77 139.289C331.923 138.443 331.777 138.312 330.526 138.176C330.938 137.847 331.419 137.9 331.909 138.014C332.403 138.13 332.59 138.411 332.544 138.71C332.498 139.009 332.367 139.346 331.759 139.438Z" fill="#3E6D6B"/>
<path d="M245.696 157.254C245.772 157.252 245.849 157.248 245.925 157.25C247.22 157.291 247.433 157.186 247.731 156.362C248.21 156.607 248.095 156.924 247.883 157.251C247.67 157.581 247.224 157.722 246.765 157.714C246.306 157.705 245.795 157.643 245.696 157.254Z" fill="#3E6D6B"/>
<path d="M62.0275 151.206C63.5792 151.968 63.4576 152.941 62.7791 153.694C61.6575 154.938 59.9089 155.15 58.5655 154.784C57.9324 154.611 57.3326 154.425 57.3173 153.889C57.0946 152.658 59.7182 151.23 61.5674 151.212C61.7207 151.211 61.8724 151.232 62.0275 151.206Z" fill="#5E9896"/>
<path d="M243.089 141.218C242.249 142.443 240.776 142.685 239.523 142.504C237.454 142.205 236.804 141.175 237.093 140.21C237.23 139.756 237.393 139.318 238.189 139.133C239.983 138.591 242.612 139.774 242.992 140.931C243.023 141.027 243.021 141.129 243.089 141.218Z" fill="#5E9896"/>
<path d="M301.243 157.09C299.256 156.962 298.615 156.114 298.646 155.268C298.696 153.868 300.108 153.123 301.602 152.99C302.305 152.927 302.99 152.887 303.417 153.327C304.568 154.278 303.305 156.318 301.653 156.935C301.516 156.986 301.363 157.018 301.243 157.09Z" fill="#5E9896"/>
<path d="M243.089 141.218C242.769 141.172 242.833 140.966 242.739 140.827C242.084 139.863 240.967 139.284 239.323 139.138C238.946 139.104 238.557 139.219 238.189 139.133C239.148 138.462 240.555 138.356 241.821 138.842C243.16 139.356 243.631 140.31 243.089 141.218Z" fill="#3A6865"/>
<path d="M301.243 157.09C301.252 156.874 301.571 156.847 301.759 156.742C303.073 156.014 303.722 155.123 303.627 154.041C303.605 153.794 303.36 153.586 303.417 153.327C304.601 153.711 305.028 154.561 304.545 155.516C304.034 156.526 302.701 157.134 301.243 157.09Z" fill="#3A6865"/>
<path d="M62.0275 151.206C61.8536 151.398 61.5676 151.319 61.3301 151.351C59.6776 151.58 58.4504 152.171 57.6942 153.177C57.5212 153.408 57.565 153.675 57.3175 153.889C56.6298 153.158 56.9315 152.253 58.0696 151.55C59.2737 150.806 60.8502 150.692 62.0275 151.206Z" fill="#3A6865"/>
<path d="M265.264 117.059C265.796 116.906 265.937 116.506 266.054 116.004C267.96 107.824 272.891 102.261 280.787 99.4069C285.227 97.8016 289.773 97.8237 294.309 99.1192C294.506 99.1755 294.702 99.2345 294.9 99.2889C294.945 99.2974 294.991 99.3021 295.037 99.3029C295.548 98.8181 295.844 98.0503 296.71 98.0262C297.969 99.3841 299.507 100.343 301.168 101.129C301.216 101.207 301.267 101.303 301.233 101.384C300.891 102.201 301.353 102.69 301.924 103.159C302.496 103.63 302.968 104.235 303.727 104.445C305.728 106.371 307.283 108.608 308.466 111.115C309.187 112.64 309.679 114.239 310.096 115.864C310.203 116.279 310.288 116.705 310.259 117.141C310.041 117.898 309.688 118.606 309.443 119.354C308.485 120.331 307.297 121.009 306.202 121.806C305.507 122.311 304.76 122.746 304.046 123.226C303.776 123.408 303.491 123.534 303.157 123.502C301.999 123.286 301.645 123.544 301.206 124.927C300.525 125.659 299.615 126.067 298.774 126.547C294.64 128.909 290.559 131.369 286.323 133.55C283.243 135.136 280.124 136.644 276.921 137.973C276.826 138.015 276.728 138.053 276.63 138.088C276.501 138.137 276.361 138.146 276.228 138.114C274.07 136.929 271.961 135.67 270.083 134.061C270.024 134.024 269.967 133.984 269.914 133.94C269.857 133.896 269.803 133.849 269.753 133.797C268.082 131.697 267 129.304 266.25 126.75C266.085 126.188 265.82 125.64 265.886 125.026C266.091 124.27 265.827 123.55 265.715 122.818C265.675 122.558 265.488 122.451 265.241 122.408C264.977 122.36 264.69 122.337 264.579 122.021C264.512 121.626 264.667 121.261 264.741 120.885C264.94 119.86 265.12 118.833 265.128 117.784C265.13 117.536 265.118 117.282 265.264 117.059Z" fill="#FEBE00"/>
<path d="M303.107 123.412C303.358 123.395 303.601 123.313 303.81 123.174C305.602 121.996 307.379 120.796 309.103 119.521C309.195 119.454 309.276 119.373 309.363 119.299C309.62 118.926 310.044 118.738 310.346 118.415C313.083 116.322 315.81 114.217 318.336 111.868C321.097 109.301 323.752 106.64 325.926 103.541C326.387 102.885 326.768 102.186 327.139 101.48C327.285 101.221 327.356 100.926 327.344 100.628C327.301 99.8987 327.137 99.7214 326.394 99.6583C325.118 99.5598 323.835 99.6007 322.568 99.7805C318.926 100.269 315.325 101.022 311.792 102.032C309.268 102.754 306.758 103.519 304.273 104.363C304.033 104.435 303.784 104.474 303.534 104.477C303.163 104.561 302.935 104.309 302.704 104.101C302.199 103.645 301.726 103.152 301.208 102.711C300.905 102.453 300.792 102.204 300.961 101.827C301.052 101.624 301.128 101.403 301.092 101.168C300.965 100.981 301.001 100.829 301.19 100.709C303.337 100.009 305.47 99.2674 307.637 98.6308C312.241 97.2785 316.875 96.0674 321.664 95.5625C323.164 95.4043 324.667 95.345 326.171 95.5167C326.693 95.5733 327.208 95.6769 327.711 95.8265C330.365 96.6314 331.791 98.9692 331.287 101.698C331.077 102.831 330.621 103.872 330.058 104.869C328.648 107.37 326.809 109.544 324.853 111.626C320.92 115.813 316.5 119.438 311.85 122.795C311.629 122.955 311.42 123.131 311.205 123.3C311.154 123.548 310.949 123.667 310.767 123.8C308.266 125.629 305.67 127.315 303.029 128.935C300.65 130.401 298.253 131.837 295.804 133.186C295.486 133.361 295.17 133.542 294.85 133.715C294.421 133.915 294.038 134.19 293.654 134.462C293.034 134.756 292.414 135.048 291.861 135.46C289.176 136.813 286.538 138.257 283.829 139.56C282.713 140.107 281.566 140.586 280.441 141.113C280.193 141.23 279.939 141.319 279.658 141.285C278.46 141.662 277.336 142.222 276.171 142.682C271.048 144.705 265.833 146.411 260.37 147.249C257.477 147.693 254.568 147.887 251.649 147.477C250.812 147.369 249.993 147.149 249.215 146.822C246.68 145.724 245.526 143.314 246.283 140.668C246.682 139.272 247.408 138.035 248.217 136.844C249.94 134.308 251.996 132.053 254.153 129.886C257.247 126.793 260.528 123.892 263.977 121.199C264.483 121.198 264.41 121.717 264.656 121.951C264.961 122.201 264.961 122.201 265.832 122.259C265.956 123.015 266.078 123.792 266.214 124.567C266.252 124.783 266.09 124.892 266.014 125.048C265.73 125.567 265.231 125.868 264.794 126.228C261.198 129.188 257.749 132.306 254.609 135.752C253.317 137.17 252.198 138.722 251.04 140.247C250.008 141.605 250.916 143.215 252.493 143.411C253.491 143.536 254.501 143.477 255.503 143.434C257.836 143.335 260.137 142.927 262.405 142.43C265.794 141.689 269.098 140.625 272.345 139.393C273.091 139.11 273.827 138.8 274.582 138.537C275.141 138.423 275.597 137.983 276.206 138.024C276.339 137.991 276.473 137.957 276.606 137.924C276.656 137.906 276.698 137.872 276.728 137.829C278.332 137.233 279.873 136.493 281.415 135.762C284.69 134.207 287.926 132.576 291.066 130.761C292.427 129.975 293.752 129.118 295.148 128.4C297.058 127.418 298.849 126.246 300.696 125.163C300.853 125.071 301.016 124.987 301.129 124.837C301.7 124.239 302.468 123.915 303.107 123.412Z" fill="#9A6802"/>
<path d="M279.658 141.285C281.01 140.618 282.386 140.002 283.778 139.423C284.459 139.207 285.173 139.247 285.869 139.15C287.722 138.9 289.539 138.43 291.281 137.75C291.619 137.617 291.956 137.47 292.323 137.429C292.522 137.396 292.727 137.41 292.92 137.47C293.778 137.758 294.502 137.493 295.163 136.95C295.614 136.538 295.767 135.961 296.009 135.433C298.109 133.875 300.03 132.091 301.739 130.113C302.139 129.649 302.541 129.19 303.011 128.793C304.242 127.985 305.466 127.166 306.707 126.373C308.239 125.395 309.709 124.329 311.205 123.3C311.506 123.577 311.767 123.875 311.731 124.324C311.333 125.381 310.826 126.392 310.431 127.452C310.178 128.134 310.133 128.872 309.796 129.522C309.418 130.012 308.916 129.884 308.443 129.782C308.263 129.91 308.213 130.093 308.134 130.253C305.248 136.062 300.691 139.971 294.514 141.904C289.518 143.468 284.536 143.236 279.658 141.285Z" fill="#E3A711"/>
<path d="M301.191 100.709C301.158 100.862 301.125 101.015 301.093 101.168C299.492 100.622 298.136 99.7026 296.971 98.4883C296.84 98.352 296.735 98.2152 296.71 98.0261C296.799 98.0138 296.894 97.9754 296.977 97.993C298.727 98.3637 300.248 99.092 301.191 100.709Z" fill="#CC9406"/>
<path d="M264.656 121.951C264.383 121.93 264.283 121.725 264.202 121.513C264.153 121.385 264.123 121.253 263.977 121.199C264.084 120.142 264.308 119.108 264.577 118.081C264.687 117.66 264.817 117.254 265.264 117.059C265.442 118.34 265.179 119.587 264.943 120.832C264.871 121.208 264.824 121.597 264.656 121.951Z" fill="#CC9406"/>
<path d="M309.796 129.521C309.714 129.056 309.881 128.62 310.014 128.199C310.397 126.994 310.831 125.806 311.429 124.685C311.496 124.54 311.6 124.416 311.731 124.324C311.762 124.384 311.782 124.45 311.788 124.518C311.793 124.586 311.786 124.654 311.765 124.719C311.493 125.811 311.349 126.935 310.962 127.997C310.735 128.621 310.396 129.174 309.796 129.521Z" fill="#B8840C"/>
<path d="M279.551 114.498C278.955 116.189 277.634 116.873 275.963 117.024C275.05 117.106 273.787 116.411 273.569 115.063C273.764 114.43 274.092 113.845 274.531 113.348C275.843 111.807 278.479 112.206 279.342 114.075C279.408 114.218 279.431 114.381 279.551 114.498Z" fill="#C99100"/>
<path d="M283.725 128.768C284.453 129.079 284.944 129.823 284.938 130.559C284.924 132.218 284.063 133.081 282.761 133.598C281.786 133.984 280.044 133.553 279.68 132.232C279.768 130.24 281.762 128.532 283.725 128.768Z" fill="#CA9100"/>
<path d="M296.914 114.423C295.76 114.89 294.651 114.759 293.719 113.967C292.865 113.242 292.402 112.288 292.694 111.112C292.731 111.006 292.779 110.905 292.837 110.809C293.688 110.209 294.621 109.812 295.669 109.754C296.666 109.698 297.404 110.267 297.549 111.243C297.715 112.367 297.586 113.454 296.914 114.423Z" fill="#CA9100"/>
<path d="M296.914 114.423C297.061 113.811 297.264 113.214 297.367 112.59C297.447 112.145 297.446 111.689 297.364 111.244C297.197 110.37 296.501 109.841 295.604 109.938C294.967 110.007 294.356 110.159 293.795 110.483C293.499 110.654 293.187 110.789 292.837 110.809C293.257 109.359 295.083 108.047 296.532 108.204C297.815 108.343 298.762 109.001 299.207 110.234C299.636 111.419 299.278 112.48 298.495 113.4C298.081 113.887 297.569 114.279 296.914 114.423Z" fill="#A77200"/>
<path d="M279.55 114.498C279.274 114.448 279.248 114.182 279.122 114.003C278.619 113.286 277.953 112.799 277.095 112.603C276.078 112.372 275.259 112.727 274.619 113.516C274.334 113.868 274.068 114.238 273.896 114.668C273.834 114.824 273.8 115.035 273.568 115.063C273.21 113.436 273.971 111.544 276.262 111.08C278.046 110.719 279.507 111.943 279.682 113.502C279.722 113.862 279.462 114.151 279.55 114.498Z" fill="#A77200"/>
<path d="M274.68 138.708C274.637 138.417 274.366 138.334 274.178 138.187C272.76 137.081 271.481 135.809 270.368 134.399C270.256 134.258 270.121 134.129 270.081 133.942C270.33 133.953 270.503 134.12 270.666 134.268C272.213 135.666 274.008 136.69 275.832 137.667C275.999 137.757 276.161 137.821 276.206 138.025C275.732 138.329 275.203 138.514 274.68 138.708Z" fill="#E4A916"/>
<path d="M283.725 128.768C283.663 128.881 283.57 128.898 283.443 128.898C281.975 128.904 280.493 129.973 280.018 131.35C279.916 131.647 279.891 131.975 279.68 132.232C278.937 131.373 279.432 129.693 280.354 128.951C281.416 128.096 282.596 128.01 283.725 128.768Z" fill="#A87300"/>
<path d="M282.669 103.854C282.746 104.436 282.139 105.225 281.564 105.291C280.962 105.36 280.339 104.872 280.252 104.263C280.156 103.59 280.572 103.112 281.352 103.001C282.042 102.902 282.591 103.258 282.669 103.854Z" fill="#C99100"/>
<path d="M276.304 126.799C275.825 127.134 275.338 127.232 274.814 126.884C274.324 126.558 274.143 126.098 274.216 125.541C274.29 124.983 274.71 124.623 275.378 124.486C275.736 124.714 276.156 124.844 276.371 125.277C276.636 125.81 276.723 126.308 276.304 126.799Z" fill="#CB9200"/>
<path d="M287.058 117.019C286.393 117.409 285.909 117.369 285.484 116.887C285.171 116.532 285.198 115.975 285.553 115.465C286.101 115.228 286.571 115.384 286.958 115.788C287.311 116.156 287.333 116.583 287.058 117.019Z" fill="#C99100"/>
<path d="M291.429 128.497C290.836 128.441 290.565 128.017 290.478 127.522C290.394 127.045 290.691 126.675 291.087 126.41C291.259 126.295 291.442 126.21 291.643 126.357C291.726 126.443 291.852 126.403 291.945 126.459L291.942 126.456C292.406 126.942 292.428 127.258 292.03 127.877C291.872 128.123 291.708 128.367 291.429 128.497Z" fill="#CB9200"/>
<path d="M303.107 123.412C303.116 123.565 303.028 123.661 302.913 123.744C302.344 124.151 301.786 124.575 301.129 124.837C301.122 124.189 301.389 123.695 301.968 123.386C302.349 123.182 302.735 123.096 303.107 123.412Z" fill="#D59800"/>
<path d="M287.059 117.019C287.048 116.909 287.043 116.798 287.045 116.687C287.092 116.032 286.781 115.618 286.145 115.539C285.948 115.514 285.745 115.536 285.553 115.465C285.822 115.001 286.243 114.909 286.718 115.029C287.143 115.137 287.465 115.42 287.529 115.855C287.596 116.306 287.553 116.768 287.059 117.019Z" fill="#A87300"/>
<path d="M276.304 126.799C276.369 126.322 276.579 125.846 276.221 125.38C276.058 125.168 275.962 124.909 275.672 124.821C275.595 124.801 275.526 124.758 275.473 124.698C275.421 124.639 275.387 124.565 275.378 124.486C275.516 124.442 275.642 124.511 275.774 124.524C276.407 124.588 276.759 124.833 276.882 125.305C277.044 125.927 276.862 126.398 276.304 126.799Z" fill="#AD7800"/>
<path d="M291.428 128.497C291.546 128.307 291.644 128.101 291.785 127.93C292.167 127.467 292.284 126.989 291.942 126.456C292.469 126.602 292.721 126.868 292.732 127.29C292.746 127.821 292.499 128.26 292.035 128.374C291.84 128.421 291.675 128.708 291.428 128.497Z" fill="#AD7800"/>
<path d="M310.101 117.262C310.268 117.694 310.182 118.175 310.361 118.605C310.084 118.908 309.743 119.145 309.363 119.299C309.442 118.56 309.815 117.927 310.101 117.262Z" fill="#E4A916"/>
<path d="M285.657 124.036C285.396 124.09 285.224 123.963 285.159 123.716C285.1 123.493 285.373 123.238 285.672 123.203C285.934 123.173 286.116 123.261 286.164 123.537C286.214 123.82 286.032 123.998 285.657 124.036Z" fill="#CB9200"/>
<path d="M269.165 121.912C269.138 121.677 269.383 121.422 269.633 121.412C269.875 121.403 270.016 121.526 270.047 121.762C270.083 122.043 269.923 122.171 269.668 122.222C269.389 122.277 269.249 122.131 269.165 121.912Z" fill="#D59800"/>
<path d="M300.663 118.518C300.429 118.557 300.253 118.483 300.191 118.249C300.123 117.994 300.213 117.801 300.485 117.743C300.751 117.686 300.925 117.806 300.967 118.074C301.004 118.309 300.89 118.458 300.663 118.518Z" fill="#CB9200"/>
<path d="M291.944 126.459C291.825 126.48 291.716 126.471 291.643 126.357C291.756 126.352 291.87 126.346 291.944 126.459Z" fill="#AD7800"/>
<path d="M276.728 137.829C276.722 137.856 276.707 137.881 276.684 137.899C276.662 137.916 276.634 137.925 276.606 137.924C276.647 137.892 276.688 137.86 276.728 137.829Z" fill="#E4A916"/>
<path d="M270.097 133.953C270.061 133.948 270.028 133.93 270.004 133.903C269.98 133.876 269.967 133.841 269.966 133.804C270 133.814 270.03 133.834 270.053 133.86C270.076 133.886 270.091 133.919 270.097 133.953Z" fill="#E4A916"/>
<path d="M303.011 128.793C302.798 129.368 302.296 129.724 301.92 130.168C301.197 131.039 300.419 131.863 299.59 132.635C298.471 133.658 297.398 134.741 296.051 135.485C295.676 134.818 295.187 134.23 294.738 133.614C296.287 132.721 297.842 131.837 299.383 130.931C300.439 130.31 301.477 129.66 302.52 129.02C302.676 128.924 302.827 128.826 303.011 128.793Z" fill="#FBBC00"/>
<path d="M292.515 137.583C291.854 137.668 291.267 137.982 290.655 138.207C288.972 138.818 287.222 139.222 285.442 139.411C284.905 139.471 284.332 139.605 283.778 139.423C284.481 138.918 285.29 138.607 286.065 138.244C287.234 137.695 288.343 137.035 289.501 136.469C290.295 136.081 291.034 135.585 291.868 135.275C292.018 136.063 292.358 136.798 292.515 137.583Z" fill="#FBBC00"/>
<path d="M292.515 137.583C292.465 137.354 292.298 137.194 292.166 137.016C291.775 136.484 291.816 135.882 291.867 135.276C292.393 134.839 292.97 134.506 293.65 134.373C294.824 134.502 295.282 134.991 295.382 136.195C295.405 136.468 295.326 136.729 295.338 136.998C294.718 137.624 294.005 137.957 293.106 137.708C292.912 137.654 292.726 137.558 292.515 137.583Z" fill="#CA9100"/>
<path d="M295.338 136.998C295.275 136.971 295.224 136.922 295.196 136.86C295.167 136.797 295.163 136.727 295.184 136.662C295.264 136.365 295.152 136.083 295.14 135.795C295.116 135.156 294.727 134.839 294.178 134.646C293.989 134.58 293.777 134.557 293.65 134.373C293.885 133.938 294.326 133.796 294.738 133.614C295.423 134.065 295.94 134.634 296.052 135.486C296.02 136.086 295.765 136.582 295.338 136.998Z" fill="#AD7800"/>
<path d="M65.2208 127.251C65.0757 126.87 65.1083 126.475 65.1708 126.093C65.2994 125.307 65.5152 124.547 65.9625 123.877C66.0791 123.702 66.1892 123.52 66.3243 123.361C66.8445 122.747 66.9324 122.048 66.7511 121.281C66.6142 120.702 66.3863 120.157 66.1649 119.609C65.777 118.648 65.377 117.693 65.2426 116.654C65.1692 116.086 65.1187 115.517 65.0911 114.947C65.0356 113.86 64.9998 112.771 64.7998 111.696C64.5734 111.135 64.1749 110.693 63.7765 110.256C63.1947 109.617 62.434 109.561 61.6502 109.631C61.0682 109.682 60.5298 109.892 60.0078 110.142C59.7796 110.251 59.5467 110.341 59.2956 110.379C58.979 111.089 58.841 111.846 58.7934 112.615C58.7282 113.668 58.6942 114.723 58.7982 115.779C58.8787 116.596 59.0854 117.374 59.4811 118.102C59.6591 118.437 59.8202 118.781 59.9639 119.133C60.1324 119.534 60.0693 119.896 59.6463 120.164C59.1453 120.481 58.589 120.662 58.0466 120.88C57.417 121.132 56.7872 121.381 56.1689 121.662C55.5443 121.947 54.967 122.307 54.4038 122.687C53.8363 123.069 53.3555 123.553 53.0719 124.2C52.9397 124.502 52.8743 124.82 52.8385 125.147C52.8252 125.267 52.8452 125.407 52.7129 125.485C52.6835 126.296 52.67 127.108 52.579 127.916C52.6054 128.207 52.4613 128.328 52.1825 128.349C51.9403 128.366 51.7057 128.371 51.4831 128.253C50.7875 127.919 50.077 127.617 49.4176 127.209C48.9977 126.949 48.6296 126.638 48.3577 126.22C48.2923 126.123 48.2121 126.037 48.1201 125.965C48.02 125.9 47.9726 125.815 48.0189 125.695C48.332 124.702 48.6438 123.709 48.8677 122.69C48.8466 122.172 48.9915 121.687 49.1912 121.225C49.7907 119.839 50.2006 118.395 50.5228 116.922C50.6332 116.417 50.7774 115.924 51.0034 115.456C51.2846 114.875 51.673 114.394 52.2381 114.072C52.7197 113.798 53.172 113.474 53.6848 113.25C53.8706 113.169 54.0185 113.002 54.1837 112.875C54.4201 112.428 54.73 112.028 54.9868 111.598C55.4341 110.848 55.6171 110.015 55.4512 109.136C55.3093 108.385 54.9708 108.054 54.1131 107.851C53.8242 107.788 53.527 107.774 53.2344 107.81C52.943 107.894 52.6699 108.019 52.3985 108.154C51.6796 108.513 50.9849 108.915 50.276 109.291C49.9683 109.455 49.6394 109.614 49.2627 109.547C48.7239 109.814 48.3219 110.24 47.9521 110.699C47.2357 111.587 46.7574 112.622 46.2174 113.618C46.0571 113.914 45.8693 114.193 45.7134 114.491C45.5572 114.902 45.2924 115.249 45.0502 115.609C45.0314 115.632 45.0148 115.658 45.0006 115.685C44.8104 116.144 44.6241 116.605 44.3662 117.032C44.284 117.202 44.1872 117.366 44.1214 117.542C43.7649 118.494 43.0463 119.056 42.1385 119.414C41.924 119.498 41.7462 119.656 41.5173 119.707C41.3083 119.743 41.1224 119.661 40.9382 119.582C40.3224 119.319 39.6898 119.127 39.0186 119.088C38.9699 119.102 38.9248 119.127 38.8861 119.16C38.1569 119.961 37.3932 120.726 36.5432 121.398C35.48 122.239 34.351 122.971 33.1244 123.562C31.212 124.482 29.2006 125.034 27.0951 125.276C26.9548 125.292 26.7923 125.276 26.7067 125.434C26.7664 125.607 26.8729 125.755 26.9704 125.905C27.3222 126.449 27.6021 127.033 27.9075 127.601C28.1513 128.055 28.3784 128.521 28.5775 129C28.7517 129.418 28.9642 129.821 29.1565 130.232C29.3711 130.691 29.5818 131.152 29.7944 131.611C29.9142 131.87 30.0547 132.119 30.1829 132.374C30.7861 133.566 31.4643 134.72 32.2132 135.826C33.1111 137.158 34.1206 138.408 35.2682 139.538C36.1056 140.362 37.009 141.116 37.969 141.791C39.3112 142.735 40.7396 143.548 42.2345 144.219C43.3033 144.699 44.3949 145.118 45.5053 145.492C46.9272 145.967 48.3728 146.365 49.8358 146.685C50.781 146.894 51.7338 147.069 52.689 147.232C54.1215 147.475 55.5595 147.669 57.002 147.828C58.6123 148.006 60.225 148.155 61.8403 148.275C63.6661 148.409 65.4932 148.516 67.3216 148.596C67.8384 148.619 68.3512 148.582 68.8619 148.535C70.0239 148.433 71.1755 148.241 72.3068 147.962C73.2635 147.722 74.1968 147.424 75.0917 147.004C75.5662 146.782 76.0428 146.558 76.481 146.278C77.2854 145.77 78.0473 145.197 78.7595 144.565C79.6413 143.775 80.4426 142.898 81.1518 141.948C81.9538 140.878 82.6624 139.748 83.1492 138.491C83.3673 137.928 83.5042 137.348 83.4693 136.732C83.4158 135.786 82.6765 135.071 81.9347 134.817C81.1973 134.565 80.512 134.673 79.8506 135.066C79.1103 135.506 78.5253 136.118 77.9468 136.738C76.982 137.773 76.0975 138.881 75.1182 139.903C74.5898 140.455 74.0399 140.98 73.4376 141.455C72.993 141.806 72.5145 142.113 72.0091 142.369C70.8637 142.948 69.6606 143.37 68.3649 143.479C68.2177 143.491 68.071 143.497 67.9341 143.428C67.8905 143.363 67.9482 143.304 67.9383 143.242C67.8693 142.905 68.0133 142.596 68.0628 142.275C68.2277 141.206 68.1253 140.149 67.964 139.086C67.6569 137.062 67.2528 135.062 66.6337 133.106C66.4023 132.374 66.0163 131.711 65.7414 131C65.5424 130.485 65.3605 129.965 65.2274 129.43C65.0468 128.703 64.9517 127.976 65.2208 127.251Z" fill="#E6CFB1"/>
<path d="M43.0395 110.962C42.9852 110.897 42.9974 110.825 43.0121 110.751C43.25 109.557 43.3263 108.347 43.3081 107.13C43.2941 106.19 43.1977 105.251 43.02 104.325C42.8903 103.65 42.7382 102.98 42.5264 102.325C42.3241 101.692 42.09 101.069 41.825 100.46C41.5399 99.8004 41.2137 99.1597 40.8485 98.5411C40.0381 97.1763 39.0455 95.9285 37.8985 94.8329C36.5953 93.5876 35.1099 92.5509 33.4951 91.7594C32.6798 91.3611 31.8366 91.0241 30.9727 90.7512C29.6846 90.3459 28.3564 90.0879 27.0134 89.9821C24.4255 89.7743 21.8287 90.1348 19.4035 91.0386C18.7875 91.2713 18.1875 91.5371 17.5942 91.8259C16.7745 92.2288 15.9878 92.6952 15.2412 93.2211C13.6185 94.355 12.2289 95.7409 11.055 97.3449C10.0928 98.6595 9.34711 100.091 8.76437 101.609C8.44184 102.444 8.18994 103.306 8.01135 104.185C7.85046 104.969 7.74044 105.763 7.68197 106.563C7.61194 107.576 7.61479 108.59 7.72238 109.601C7.88792 111.167 8.25583 112.707 8.81681 114.181C9.34362 115.568 10.0847 116.838 10.9089 118.056C11.5657 119.027 12.3633 119.889 13.2222 120.692C14.1758 121.581 15.2239 122.36 16.3473 123.017C17.2573 123.554 18.2157 124.004 19.2092 124.358C19.696 124.531 20.1864 124.691 20.6863 124.824C21.6538 125.083 22.6401 125.263 23.6353 125.362C24.6409 125.457 25.652 125.466 26.6578 125.391C26.6489 124.91 26.352 124.557 26.0747 124.222C24.9855 122.906 23.7956 121.683 22.5708 120.494C21.8015 119.748 21.1274 118.922 20.4953 118.053C19.9734 117.336 19.553 116.571 19.1858 115.771C18.6289 114.558 18.3865 113.273 18.3166 111.953C18.2419 110.541 18.4024 109.145 18.5717 107.749C18.739 106.371 18.8353 104.991 18.4761 103.619C18.3849 103.271 18.2894 102.923 18.2003 102.574C18.1378 102.33 18.0688 102.081 18.1669 101.828C18.2298 101.564 18.4213 101.55 18.6356 101.595C19.1911 101.71 19.6437 102.02 20.0582 102.391C20.3207 102.624 20.5437 102.897 20.7184 103.202C20.8652 103.46 21.0234 103.711 21.1811 103.963C21.3462 104.226 21.543 104.47 21.8055 104.632C22.3825 104.99 22.9439 105.362 23.3792 105.896C23.5935 105.846 23.5173 105.665 23.5137 105.541C23.4999 105.065 23.422 104.595 23.3467 104.125C23.1778 103.071 22.941 102.027 22.8645 100.96C22.8501 100.759 22.8389 100.559 22.8672 100.359C22.956 99.7315 23.2248 99.4813 23.8587 99.4367C24.6161 99.3774 25.1819 99.712 25.5994 100.324C25.8259 100.656 26.0289 101.005 26.2293 101.354C26.5408 101.9 26.9832 102.359 27.5159 102.69C28.1372 103.079 28.6397 103.581 29.0517 104.181C29.1907 104.383 29.3841 104.54 29.6088 104.635C30.2828 104.759 30.8917 105.031 31.452 105.43C31.7601 105.65 32.1077 105.698 32.4764 105.605C33.3844 105.374 34.249 105.056 35.0704 104.588C35.978 104.071 36.8663 103.51 37.8368 103.109C38.3724 102.859 38.9269 102.683 39.5271 102.674C40.0864 102.666 40.4623 102.945 40.7004 103.433C40.9615 103.968 41.0432 104.538 41.0158 105.126C41.1193 106.185 40.9825 107.228 40.845 108.271C40.8379 108.3 40.8327 108.329 40.8274 108.359C40.8242 108.373 40.8221 108.388 40.819 108.402C40.7325 109.139 40.5553 109.849 40.2072 110.507C40.0522 111.122 39.6959 111.631 39.3425 112.136C38.8257 112.875 38.1997 113.529 37.6859 114.271C37.2848 114.85 36.9206 115.451 36.762 116.153C36.7024 116.501 36.7276 116.85 36.7915 117.194C36.8832 117.687 37.1995 117.941 37.701 117.949C38.1834 117.957 38.5994 117.842 38.9365 117.455C40.3169 115.87 41.6745 114.27 42.6082 112.359C42.6279 112.335 42.6458 112.309 42.6615 112.282C42.6847 112.243 42.7048 112.202 42.7216 112.16C42.7917 111.895 42.9267 111.653 42.9891 111.386C42.9959 111.351 42.9534 111.324 42.9719 111.288C42.9811 111.268 42.9887 111.248 42.9961 111.227C43.0037 111.208 43.0096 111.188 43.0138 111.167C43.0144 111.168 43.0203 111.137 43.021 111.138C43.0265 111.118 43.0305 111.099 43.0342 111.079C43.0348 111.079 43.0397 111.05 43.0403 111.05C43.0451 111.031 43.0472 111.011 43.0464 110.991C43.0467 110.991 43.0395 110.962 43.0395 110.962Z" fill="#B7E2E3"/>
<path d="M37.841 103.016C37.1233 103.313 36.4632 103.716 35.7858 104.09C35.328 104.343 34.8896 104.637 34.4162 104.854C33.7331 105.167 33.0202 105.414 32.2773 105.558C32.0298 105.606 31.7965 105.538 31.5815 105.412C31.4084 105.31 31.236 105.206 31.0723 105.089C30.637 104.781 30.1423 104.651 29.6278 104.576C29.3683 104.552 29.1327 104.658 28.8889 104.713C27.7945 104.961 26.6892 105.17 25.6458 105.602C25.4801 105.671 25.3323 105.773 25.166 105.836C24.8276 105.965 24.5014 105.773 24.5283 105.423C24.625 104.167 24.2081 102.979 24.0406 101.759C23.9832 101.34 23.8938 100.926 23.8264 100.508C23.7842 100.246 23.7886 99.9795 23.8394 99.7201C23.8603 99.6115 23.9154 99.494 23.8104 99.393C23.4173 99.3179 23.0009 99.5732 22.8692 99.9809C22.7888 100.22 22.7538 100.473 22.766 100.727C22.8057 101.422 22.9111 102.109 23.0311 102.794C23.1855 103.676 23.3633 104.554 23.4337 105.447C23.4461 105.604 23.4627 105.761 23.4016 105.912C23.3151 105.987 23.37 106.068 23.3968 106.144C23.5451 106.562 23.6207 107.002 23.8349 107.401C23.9832 107.678 23.9633 107.976 23.7901 108.248C23.0952 109.339 22.5318 110.51 21.7851 111.569C21.6061 111.822 21.5142 112.114 21.3936 112.394C21.3412 112.516 21.3259 112.661 21.1852 112.751C21.025 112.675 20.9648 112.504 20.8608 112.378C20.3077 111.711 19.8819 110.994 19.7232 110.11C19.5723 109.27 19.4624 108.453 19.5969 107.597C19.8966 105.69 19.4493 103.921 18.4299 102.287C18.3297 102.126 18.3156 101.897 18.0972 101.819C17.955 102.098 18.0661 102.374 18.1277 102.645C18.2071 102.995 18.3127 103.339 18.4032 103.686C18.6653 104.693 18.6738 105.713 18.5884 106.737C18.4757 108.091 18.2511 109.433 18.217 110.796C18.1763 112.418 18.3856 113.998 18.9679 115.523C19.0674 115.778 19.1871 116.026 19.3259 116.263C19.4957 116.556 19.608 116.876 19.7911 117.165C20.1032 117.656 20.4559 118.116 20.7938 118.589C21.0654 118.968 21.3647 119.319 21.6657 119.672C22.1809 120.276 22.7886 120.787 23.3352 121.359C24.0637 122.122 24.8014 122.876 25.5037 123.663C25.8389 124.038 26.1781 124.419 26.4183 124.875C26.5076 125.044 26.542 125.236 26.6578 125.391C26.674 125.406 26.6903 125.42 26.7066 125.435C26.9572 125.348 27.2225 125.345 27.4812 125.312C28.8241 125.147 30.1434 124.834 31.4154 124.378C32.0549 124.152 32.68 123.888 33.2873 123.586C33.9503 123.252 34.6189 122.918 35.2289 122.489C36.3663 121.689 37.4558 120.83 38.4065 119.807C38.5984 119.601 38.8101 119.411 38.9632 119.169C38.8694 118.997 38.696 119.021 38.5456 119.004C37.1405 118.851 35.7344 118.871 34.3283 118.951C34.1326 118.962 33.9376 118.989 33.7167 118.991C34.5422 118.282 35.3549 117.605 36.075 116.826C36.3002 116.582 36.6372 116.458 36.8162 116.159C37.009 115.536 37.2991 114.948 37.6757 114.418C38.0129 113.938 38.376 113.478 38.754 113.029C39.3227 112.354 39.8301 111.636 40.2009 110.828C40.2498 110.721 40.3062 110.62 40.2519 110.499C40.0842 110.469 40.0119 110.608 39.9194 110.698C39.3641 111.244 38.6969 111.663 37.9634 111.925C37.4311 112.115 36.8877 112.207 36.3204 112.138C37.4321 111.886 38.4476 111.428 39.3195 110.691C39.99 110.124 40.414 109.37 40.7862 108.586C40.8176 108.519 40.8509 108.454 40.8822 108.388L40.8798 108.393C40.8849 108.361 40.8922 108.33 40.9019 108.3C41.0523 107.548 41.0957 106.785 41.1242 106.02C41.1309 105.842 41.1349 105.663 41.1321 105.485C41.1304 105.37 41.1288 105.251 41.0493 105.153C40.9692 105.016 40.8603 105.104 40.771 105.125C39.733 105.37 38.8591 105.095 38.1507 104.283C38.121 104.252 38.0888 104.223 38.0587 104.193C38.0045 104.135 37.959 104.07 37.9234 103.999C37.9082 103.964 37.8967 103.927 37.8889 103.89C37.8866 103.863 37.8827 103.837 37.8791 103.811C37.8754 103.77 37.8689 103.73 37.8598 103.689C37.7555 103.467 37.8838 103.24 37.841 103.016Z" fill="#A7C4B2"/>
<path d="M65.2208 127.251C64.9521 127.541 64.9552 127.903 64.9699 128.265C65.0045 129.109 65.2465 129.908 65.537 130.695C65.7604 131.3 66.042 131.879 66.3106 132.465C66.5268 132.936 66.6624 133.439 66.8003 133.938C67.1418 135.172 67.449 136.414 67.6502 137.679C67.7714 138.441 67.9031 139.202 68.0045 139.967C68.1346 140.945 68.0835 141.937 67.8539 142.892C67.8234 143.021 67.7543 143.162 67.9382 143.242C68.268 143.01 68.5958 142.776 68.8816 142.489C69.0026 142.019 69.2556 141.621 69.5548 141.252C70.301 140.331 70.778 139.273 71.122 138.145C71.1651 138.004 71.2084 137.859 71.1993 137.711C71.1405 136.746 71.5173 135.918 71.9852 135.12C72.1019 134.921 72.2384 134.734 72.3218 134.516C72.4597 133.519 73.0873 132.851 73.8156 132.25C73.9263 132.159 74.0328 132.062 74.1413 131.968C74.1514 131.943 74.1629 131.918 74.1757 131.894L74.1767 131.902C74.4659 131.356 74.803 130.838 75.0277 130.254C75.3908 129.311 75.4889 128.363 75.2399 127.368C75.0421 126.577 74.8295 125.79 74.6579 124.992C74.3546 123.583 74.2453 122.166 74.4462 120.737C74.6175 119.518 74.5942 118.293 74.5336 117.067C74.4728 115.834 74.2811 114.627 73.8356 113.467C73.7101 113.14 73.7816 112.824 73.894 112.512C73.3428 112.363 72.8704 112.57 72.4614 112.89C72.1446 113.139 71.8527 113.419 71.5898 113.725C70.9158 114.505 70.4732 115.4 70.1832 116.379C69.8716 117.432 69.7659 118.511 69.8301 119.61C69.8857 120.561 70.0216 121.507 70.0512 122.459C70.0757 123.247 70.0318 124.027 69.7601 124.773C69.6461 125.085 69.5252 125.403 69.2224 125.594C69.2185 125.605 69.2112 125.615 69.2017 125.622C69.1921 125.629 69.1807 125.633 69.1688 125.634C69.0438 125.709 68.9188 125.784 68.7938 125.86C68.7886 125.871 68.78 125.879 68.7694 125.885C68.7587 125.89 68.7465 125.892 68.7347 125.89C68.2317 126.089 67.7106 126.232 67.1907 126.379C66.6163 126.542 66.0749 126.778 65.5865 127.128C65.48 127.204 65.3769 127.31 65.2208 127.251Z" fill="#CF934B"/>
<path d="M42.9428 111.312C42.8785 111.603 42.7095 111.859 42.6599 112.155C42.6533 112.185 42.6414 112.214 42.6247 112.24L42.6236 112.237C42.3204 113.088 42.046 113.949 41.6752 114.774C41.0265 116.224 40.1894 117.58 39.1856 118.807C39.1138 118.895 38.9811 118.972 39.0626 119.126C39.1222 119.147 39.1831 119.163 39.2449 119.176C39.8756 119.26 40.4738 119.454 41.0563 119.711C41.1874 119.769 41.33 119.824 41.4825 119.804C41.4492 119.643 41.4524 119.498 41.6095 119.394C41.6599 119.361 41.7044 119.29 41.6997 119.232C41.6633 118.791 41.9608 118.49 42.1432 118.145C42.3281 117.795 42.4062 117.413 42.5359 117.047C42.7357 116.468 42.9945 115.912 43.3082 115.388C43.9102 114.401 44.2752 113.311 44.6701 112.233C45.3297 110.431 45.9885 108.63 46.6287 106.821C46.8509 106.193 47.0163 105.553 47.2158 104.921C47.5702 103.798 48.1545 102.782 48.6802 101.739C49.0071 101.09 49.339 100.439 49.4836 99.7176C49.5846 99.2138 49.593 98.7098 49.2618 98.2621C48.9486 98.1939 48.6901 98.3261 48.438 98.4819C48.3217 98.4887 48.2521 98.6028 48.1368 98.612C47.5801 99.0107 47.1156 99.5013 46.7058 100.049C46.012 100.975 45.5388 102.015 45.1601 103.104C44.7264 104.351 44.4311 105.635 44.1786 106.931C43.9198 108.258 43.547 109.554 43.1251 110.836C43.1087 110.886 43.0922 110.937 43.0396 110.962L43.0367 110.955C43.026 110.984 43.0187 111.015 43.0148 111.046L43.0157 111.042C43.0048 111.071 42.9973 111.102 42.9933 111.134L42.9945 111.128C42.9848 111.158 42.9769 111.189 42.9709 111.221L42.9731 111.215C42.9627 111.247 42.935 111.274 42.9428 111.312Z" fill="#CF934B"/>
<path d="M49.2618 98.2622C49.2741 98.3242 49.2744 98.3919 49.3005 98.4475C49.5733 99.0283 49.485 99.6102 49.2862 100.173C48.9778 101.047 48.5355 101.86 48.11 102.68C47.5964 103.669 47.1171 104.675 46.9121 105.786C46.8576 106.082 46.7105 106.338 46.6153 106.616C46.3838 107.291 46.148 107.964 45.9077 108.635C45.6381 109.386 45.3603 110.133 45.0858 110.882C44.7933 111.679 44.4884 112.472 44.2116 113.275C43.9881 113.924 43.6924 114.534 43.3552 115.128C43.0289 115.702 42.7315 116.292 42.501 116.915C42.4646 117.014 42.4195 117.109 42.3989 117.213C42.2944 117.738 42.0666 118.206 41.7474 118.631C41.6837 118.715 41.6364 118.808 41.637 118.921C41.6389 119.313 41.638 119.313 41.3253 119.546C41.377 119.631 41.4297 119.718 41.4824 119.804C41.8291 119.709 42.1254 119.504 42.4483 119.357C42.6955 119.245 42.9175 119.083 43.1734 118.982C43.4093 118.888 43.5385 118.667 43.6741 118.473C43.9883 118.025 44.2441 117.539 44.4353 117.025C44.6141 116.573 44.7682 116.109 45.0452 115.703C45.0589 115.69 45.0708 115.676 45.0807 115.661C45.2882 115.277 45.5053 114.899 45.7499 114.538C46.0515 114.132 46.2755 113.679 46.5114 113.234C46.955 112.398 47.3847 111.555 47.969 110.805C48.3001 110.38 48.6746 110.004 49.1224 109.703C49.1816 109.663 49.2563 109.635 49.2628 109.547C48.9154 109.369 48.9025 109.019 48.8596 108.706C48.8007 108.275 48.8483 107.841 48.9077 107.412C49.1201 105.877 49.575 104.411 50.1309 102.974C50.3435 102.425 50.5645 101.879 50.6989 101.301C50.8652 100.586 50.7969 99.8943 50.4813 99.2305C50.3118 98.8741 50.0842 98.5584 49.7129 98.3805C49.5702 98.3122 49.4275 98.2405 49.2618 98.2622Z" fill="#C08032"/>
<path d="M73.8941 112.512C73.5833 112.809 73.6335 113.184 73.7681 113.513C74.1367 114.416 74.2992 115.361 74.4049 116.313C74.4944 117.12 74.4947 117.935 74.5044 118.747C74.5156 119.688 74.3734 120.615 74.2897 121.546C74.2211 122.31 74.2837 123.065 74.3715 123.82C74.4642 124.618 74.6547 125.398 74.8577 126.175C75.0262 126.819 75.1924 127.463 75.2843 128.123C75.335 128.467 75.3259 128.817 75.2575 129.157C75.0779 130.026 74.7388 130.851 74.2574 131.592C74.1995 131.682 74.0885 131.768 74.1768 131.902C74.6464 131.555 75.039 131.13 75.4031 130.677C76.0035 129.93 76.4401 129.101 76.6026 128.142C76.7111 127.501 76.6498 126.864 76.5616 126.223C76.4868 125.68 76.3122 125.165 76.172 124.64C75.9694 123.883 75.7853 123.121 75.6443 122.351C75.484 121.475 75.5682 120.601 75.6916 119.73C75.816 118.851 75.9895 117.98 76.035 117.091C76.0815 116.179 76.029 115.279 75.731 114.401C75.5477 113.844 75.223 113.345 74.7892 112.951C74.5447 112.73 74.2467 112.544 73.8941 112.512Z" fill="#C18032"/>
<path d="M48.0418 125.953C48.1956 126.152 48.3443 126.355 48.5041 126.549C48.8454 126.964 49.2881 127.252 49.7523 127.498C50.3174 127.798 50.8916 128.081 51.4816 128.33C51.9193 128.347 52.3476 128.337 52.6371 127.931C52.7459 127.201 52.7502 126.463 52.7771 125.727C52.7803 125.639 52.7452 125.563 52.7129 125.485C52.5143 125.264 52.317 125.043 52.1166 124.824C51.5868 124.245 50.9206 123.888 50.1982 123.622C49.9301 123.524 49.6678 123.41 49.4127 123.281C49.1575 123.152 48.9597 122.971 48.8677 122.691C48.798 122.73 48.7714 122.798 48.7552 122.871C48.5408 123.831 48.2167 124.76 47.9578 125.707C47.9432 125.804 47.9861 125.88 48.0418 125.953Z" fill="#CF944C"/>
<path d="M72.3218 134.516C72.0758 134.739 71.9421 135.042 71.7789 135.32C71.57 135.684 71.3984 136.069 71.2668 136.468C71.147 136.821 71.1108 137.191 71.1247 137.56C71.1325 137.771 71.1013 137.982 71.0325 138.181C70.8504 138.718 70.6713 139.256 70.4156 139.763C70.1211 140.348 69.7556 140.884 69.35 141.395C69.174 141.617 69.0287 141.863 68.918 142.125C68.8693 142.239 68.8145 142.359 68.8816 142.489C68.9676 142.431 69.0535 142.373 69.1395 142.314C69.2257 142.217 69.3756 142.203 69.4415 142.08C69.8392 141.834 70.1809 141.518 70.5303 141.21C70.8716 140.909 71.2001 140.599 71.4901 140.247C72.1704 139.421 72.5335 138.483 72.4785 137.395C72.4624 137.078 72.4488 136.761 72.4143 136.446C72.3439 135.804 72.2916 135.162 72.3218 134.516Z" fill="#C18033"/>
<path d="M59.2958 110.379C59.3941 110.503 59.5072 110.438 59.6087 110.397C59.8891 110.283 60.1673 110.164 60.4436 110.041C61.2224 109.695 62.033 109.594 62.8692 109.776C63.2624 109.862 63.5618 110.123 63.8228 110.423C64.1416 110.79 64.4511 111.163 64.6876 111.591C64.6983 111.616 64.7138 111.637 64.7332 111.655C64.7525 111.673 64.7753 111.687 64.8 111.696C64.6669 110.659 64.2155 109.77 63.5259 108.995C63.4315 108.895 63.3301 108.802 63.2223 108.716C62.4691 108.084 61.4842 107.931 60.493 108.791C59.9701 109.244 59.591 109.77 59.2958 110.379Z" fill="#D0954E"/>
<path d="M53.2344 107.81C53.4637 107.914 53.7113 107.865 53.9493 107.902C55.0388 108.072 55.3637 108.573 55.4227 109.455C55.4828 110.354 55.2541 111.188 54.6891 111.91C54.4638 112.198 54.2438 112.495 54.1837 112.875C54.4948 112.742 54.6826 112.468 54.8953 112.229C55.5929 111.447 56.0661 110.545 56.2455 109.499C56.3193 109.069 56.3169 108.642 56.1566 108.221C56.0132 107.845 55.75 107.612 55.3728 107.502C55.2718 107.472 55.1679 107.453 55.0631 107.447C54.4222 107.412 53.814 107.543 53.2344 107.81Z" fill="#D09650"/>
<path d="M69.4415 142.08C69.3285 142.142 69.2014 142.186 69.1395 142.314C69.264 142.273 69.3705 142.191 69.4415 142.08Z" fill="#DBB17D"/>
<path d="M48.1367 98.6121C48.265 98.6329 48.3407 98.5327 48.4379 98.482C48.3019 98.4435 48.2281 98.5481 48.1367 98.6121Z" fill="#DBB17D"/>
<path d="M69.1686 125.634C69.205 125.646 69.2209 125.63 69.2224 125.594C69.2045 125.608 69.1865 125.621 69.1686 125.634Z" fill="#DBB17D"/>
<path d="M68.7344 125.89C68.767 125.905 68.7881 125.897 68.7937 125.86C68.774 125.87 68.7542 125.88 68.7344 125.89Z" fill="#DBB17D"/>
<path d="M74.1758 131.894C74.1642 131.918 74.1527 131.943 74.1412 131.968C74.1804 131.956 74.1852 131.928 74.1758 131.894Z" fill="#C18032"/>
<path d="M39.0626 119.126C39.1723 118.871 39.3818 118.689 39.5448 118.475C39.9573 117.932 40.3564 117.38 40.7063 116.794C41.3422 115.73 41.883 114.619 42.2851 113.441C42.3969 113.113 42.5276 112.792 42.607 112.453C42.6236 112.383 42.6547 112.312 42.6237 112.237C42.454 112.365 42.4186 112.574 42.3268 112.747C41.834 113.679 41.2336 114.537 40.5822 115.36C40.0883 115.984 39.5951 116.609 39.0626 117.201C38.9062 117.369 38.7403 117.529 38.5655 117.678C38.3337 117.882 38.0328 117.855 37.7568 117.869C37.2229 117.894 36.9371 117.636 36.8509 117.105C36.7999 116.791 36.8103 116.475 36.8164 116.159C36.4216 116.413 36.0586 116.714 35.7349 117.054C35.2134 117.611 34.6264 118.096 34.0528 118.597C33.8823 118.745 33.6957 118.874 33.4862 119.025C33.6194 119.115 33.723 119.079 33.8187 119.071C35.1377 118.963 36.4587 118.932 37.7813 119.018C38.177 119.044 38.5788 119.04 38.9633 119.169C38.9964 119.155 39.0295 119.141 39.0626 119.126Z" fill="#9AA074"/>
<path d="M52.637 127.931C52.3495 128.125 52.0399 128.258 51.6858 128.264C51.613 128.267 51.5424 128.29 51.4816 128.33C51.8139 128.504 52.1516 128.433 52.4894 128.362C52.5865 128.341 52.6276 128.27 52.6362 128.182C52.6406 128.098 52.6409 128.015 52.637 127.931Z" fill="#D4A264"/>
<path d="M45.0452 115.703C44.8601 115.792 44.7866 115.978 44.7063 116.142C44.5874 116.385 44.5071 116.647 44.4165 116.903C44.4045 116.937 44.4282 116.984 44.4353 117.025C44.5692 116.912 44.6052 116.743 44.6724 116.593C44.8042 116.3 44.9733 116.022 45.0452 115.703Z" fill="#CF9A56"/>
<path d="M45.7499 114.538C45.5909 114.586 45.5387 114.734 45.4645 114.856C45.34 115.062 45.2283 115.275 45.1081 115.483C45.0749 115.541 45.0534 115.596 45.0808 115.661C45.3557 115.318 45.6085 114.962 45.7499 114.538Z" fill="#CF9A56"/>
<path d="M48.0415 125.952C48.0723 125.85 47.9935 125.786 47.9578 125.707C47.9024 125.817 47.8773 125.916 48.0415 125.952Z" fill="#DBB17D"/>
<path d="M18.0973 101.819C18.2023 102.074 18.3572 102.301 18.4932 102.538C19.3519 104.04 19.7654 105.636 19.5475 107.366C19.5028 107.721 19.4738 108.078 19.4244 108.432C19.3928 108.64 19.3983 108.853 19.4407 109.06C19.5708 109.669 19.7017 110.278 19.8333 110.888C19.8921 111.163 20.0323 111.401 20.1928 111.624C20.5 112.051 20.8197 112.469 21.1343 112.891C21.2529 112.913 21.3105 112.847 21.3484 112.752C21.3871 112.654 21.428 112.557 21.4631 112.458C21.5856 112.101 21.7549 111.762 21.9665 111.451C22.6577 110.448 23.1877 109.344 23.8504 108.322C24.0974 107.942 24.0533 107.564 23.834 107.191C23.7588 107.064 23.7035 106.926 23.67 106.781C23.5998 106.486 23.5102 106.196 23.4018 105.912C23.2147 105.56 22.9604 105.269 22.6187 105.059C22.4295 104.943 22.2428 104.822 22.0523 104.708C21.7164 104.505 21.4355 104.221 21.2352 103.883C21.0809 103.629 20.9284 103.375 20.7722 103.122C20.3527 102.445 19.7707 101.956 19.0505 101.629C18.8562 101.541 18.6532 101.48 18.4405 101.481C18.2044 101.482 18.1181 101.575 18.0973 101.819Z" fill="#999F74"/>
<path d="M10.8605 108.984C10.9901 108.593 11.0034 108.221 11.0713 107.861C11.1711 107.331 11.3026 106.813 11.444 106.295C11.6905 105.39 12.0795 104.538 12.299 103.621C12.6372 102.208 13.0398 100.811 13.7156 99.5143C13.8418 99.2722 13.9449 99.0158 14.0902 98.7863C14.4543 98.2111 14.6059 97.5462 14.8737 96.9308C14.9468 96.763 15.0188 96.5586 14.8727 96.389C14.7274 96.2203 14.5214 96.2636 14.3382 96.3035C14.0939 96.362 13.8576 96.4494 13.6344 96.564C12.9006 96.9213 12.4047 97.5169 11.9464 98.1695C11.3944 98.9631 10.9435 99.8236 10.6041 100.731C10.3201 101.477 10.1198 102.249 9.96029 103.037C9.70676 104.291 9.89931 105.518 10.0825 106.752C10.1791 107.403 10.3891 108.023 10.6285 108.634C10.6761 108.768 10.7558 108.888 10.8605 108.984Z" fill="#FEFFFF"/>
<path d="M23.8103 99.393C23.7383 99.7867 23.6732 100.181 23.7478 100.584C23.8478 101.123 23.9486 101.663 24.0439 102.203C24.1887 103.025 24.3309 103.846 24.4704 104.668C24.4958 104.804 24.4945 104.943 24.4664 105.077C24.4437 105.191 24.4328 105.307 24.4339 105.423C24.4306 105.822 24.8218 106.118 25.1697 105.931C26.3894 105.276 27.7423 105.076 29.0616 104.757C29.254 104.711 29.4501 104.671 29.6277 104.576C29.3042 104.417 29.0875 104.139 28.9022 103.85C28.6204 103.411 28.2363 103.093 27.8179 102.803C27.3842 102.502 26.9513 102.203 26.6187 101.779C26.4802 101.603 26.371 101.411 26.2539 101.222C26.058 100.908 25.8741 100.586 25.6745 100.273C25.3217 99.7212 24.8082 99.4213 24.1703 99.3281C24.0442 99.3096 23.9175 99.3035 23.8103 99.393Z" fill="#99A074"/>
<path d="M14.477 117.383C15.0947 117.004 15.3284 116.412 15.2248 115.817C15.1464 115.367 14.8933 115.051 14.5582 114.777C14.3775 114.629 14.1535 114.584 13.9376 114.561C13.1996 114.481 12.5545 114.693 12.2303 115.432C11.8883 116.211 12.275 117.09 13.086 117.342C13.2466 117.392 13.4067 117.448 13.5669 117.494C13.8742 117.577 14.2005 117.537 14.477 117.383Z" fill="#FCFEFE"/>
<path d="M37.8101 103.842C37.8155 103.86 37.8236 103.876 37.834 103.892C37.8359 103.921 37.8385 103.95 37.8419 103.978C37.8956 104.067 37.9494 104.156 38.0032 104.245C38.0273 104.26 38.0512 104.275 38.075 104.29C38.7716 105.143 39.6548 105.438 40.7172 105.212C40.8264 105.189 40.9286 105.116 41.0493 105.153C41.124 105.106 41.1208 105.033 41.1152 104.957C41.0787 104.46 41.0147 103.97 40.8226 103.501C40.5798 102.908 40.1376 102.596 39.5043 102.596C39.0559 102.596 38.6323 102.715 38.2155 102.862C38.0884 102.907 37.9656 102.965 37.8409 103.016C37.7501 103.259 37.6731 103.502 37.8246 103.753C37.8293 103.783 37.8242 103.815 37.8101 103.842Z" fill="#617559"/>
<path d="M40.8822 108.388C40.6947 108.497 40.6575 108.71 40.5608 108.879C40.2372 109.445 39.9203 110.017 39.4374 110.466C39.0228 110.852 38.5819 111.202 38.0402 111.402C37.8252 111.482 37.6425 111.626 37.4235 111.71C37.0109 111.869 36.6002 112.017 36.1551 112.049C36.1006 112.053 36.0525 112.069 36.034 112.128C36.0387 112.149 36.0499 112.167 36.066 112.181C36.0821 112.195 36.1023 112.204 36.1234 112.205C36.7505 112.305 37.3912 112.238 37.9813 112.01C38.4091 111.844 38.8452 111.682 39.2142 111.4C39.5811 111.125 39.9279 110.824 40.2519 110.498C40.4733 110.307 40.5039 110.023 40.5873 109.767C40.7335 109.319 40.8604 108.865 40.8822 108.388Z" fill="#9AA176"/>
<path d="M42.9432 111.31C42.9531 111.279 42.9631 111.247 42.973 111.216C42.9516 111.243 42.8656 111.25 42.9432 111.31Z" fill="white"/>
<path d="M42.9932 111.134C43.0244 111.109 43.0377 111.08 43.0156 111.042C43.0029 111.053 42.9939 111.068 42.9899 111.084C42.9859 111.101 42.987 111.118 42.9932 111.134Z" fill="white"/>
<path d="M42.9708 111.221C42.9841 111.21 42.9936 111.195 42.9978 111.179C43.0021 111.162 43.0009 111.144 42.9945 111.128C42.9827 111.14 42.9742 111.155 42.9701 111.171C42.9659 111.188 42.9662 111.205 42.9708 111.221Z" fill="white"/>
<path d="M42.6245 112.24C42.6375 112.231 42.6476 112.218 42.6539 112.203C42.6601 112.188 42.6621 112.171 42.6597 112.155C42.6519 112.159 42.6447 112.163 42.6386 112.169C42.6326 112.175 42.6278 112.182 42.6245 112.19C42.6212 112.198 42.6196 112.207 42.6196 112.215C42.6195 112.224 42.6212 112.232 42.6245 112.24Z" fill="#9AA074"/>
<path d="M43.0147 111.046C43.0513 111.023 43.0661 110.995 43.0367 110.955C43.0235 110.966 43.0142 110.98 43.0102 110.997C43.0062 111.013 43.0078 111.031 43.0147 111.046Z" fill="white"/>
<path d="M40.9019 108.3C40.8945 108.331 40.8871 108.362 40.8797 108.393C40.8871 108.362 40.8945 108.331 40.9019 108.3Z" fill="#9AA176"/>
<path d="M30.1176 110.001C30.4497 109.817 30.6964 109.543 30.9118 109.237C31.0564 108.741 30.9494 108.302 30.6052 107.917C30.5152 107.867 30.4396 107.886 30.3766 107.964C30.3305 108.076 30.3977 108.168 30.4388 108.263C30.497 108.388 30.5205 108.527 30.5066 108.664C30.4706 108.971 30.2223 109.092 29.9589 108.931C29.7772 108.82 29.6804 108.648 29.6185 108.45C29.5787 108.323 29.5738 108.172 29.4193 108.11C29.0732 108.287 28.8098 108.529 28.7658 108.946C28.9845 109.274 29.2404 109.565 29.5654 109.795C29.7344 109.914 29.9096 109.998 30.1176 110.001Z" fill="#919464"/>
<path d="M30.3807 107.995C30.4411 107.962 30.4978 107.912 30.5746 107.953C30.7464 108.046 30.9362 108.041 31.1209 108.055C31.4338 108.08 31.737 108.138 32.0228 108.275C32.1604 108.303 32.2791 108.295 32.304 108.12C32.3236 107.983 32.2431 107.863 32.0959 107.805C31.9258 107.738 31.7439 107.74 31.5675 107.72C31.234 107.683 30.8957 107.63 30.5639 107.649C29.5231 107.711 28.7811 108.25 28.2958 109.158C28.123 109.482 27.9382 109.803 27.9502 110.192C27.9528 110.275 27.9334 110.36 27.9977 110.46C28.1583 110.427 28.2806 110.311 28.4194 110.229C28.5218 109.79 28.6519 109.36 28.8092 108.939C28.8051 108.908 28.7859 108.865 28.7993 108.848C29.0001 108.598 29.1599 108.311 29.4383 108.131C29.7507 108.074 30.0607 108.002 30.3807 107.995Z" fill="#999F74"/>
<path d="M28.8091 108.938C28.5363 109.324 28.3929 109.749 28.4193 110.228C28.7974 110.21 29.1758 110.194 29.5536 110.171C29.7536 110.159 29.9516 110.129 30.1178 110.001C29.9784 109.85 29.7593 109.863 29.6018 109.725C29.3652 109.517 29.114 109.33 28.9517 109.052C28.9377 109.024 28.9176 108.999 28.893 108.979C28.8683 108.96 28.8396 108.946 28.8091 108.938Z" fill="#627559"/>
<path d="M32.0228 108.275C31.9786 108.168 31.8955 108.118 31.7853 108.091C31.3886 107.994 30.9819 107.948 30.5747 107.953C30.8187 108.316 30.9572 108.704 30.8829 109.147C30.8784 109.175 30.9017 109.207 30.912 109.236C31.1679 108.783 31.58 108.511 32.0228 108.275Z" fill="#627559"/>
<path d="M38.0751 104.291C38.051 104.276 38.027 104.261 38.003 104.245C38.0091 104.259 38.0192 104.271 38.0321 104.279C38.045 104.287 38.06 104.291 38.0751 104.291Z" fill="#919464"/>
<path d="M37.8418 103.978C37.8393 103.949 37.8367 103.92 37.8341 103.892C37.8264 103.905 37.823 103.92 37.8244 103.936C37.8258 103.951 37.8319 103.966 37.8418 103.978Z" fill="#919464"/>
<path d="M37.8102 103.843C37.8151 103.813 37.82 103.783 37.8248 103.753C37.8199 103.783 37.815 103.813 37.8102 103.843Z" fill="#919464"/>
<path d="M30.3804 107.994C30.0397 107.865 29.731 107.946 29.4379 108.13C29.4734 108.252 29.5098 108.373 29.5439 108.495C29.6096 108.729 29.7363 108.913 29.9551 109.033C30.2613 109.2 30.5572 109.052 30.5995 108.705C30.6322 108.436 30.5277 108.209 30.3804 107.994Z" fill="#627559"/>
<path d="M16.7589 44.7844C-37.1763 79.1479 -78.9578 35.6819 -91.5482 16.8169L-94.2221 1.91675L337.875 -75.626L386.61 -38.8953C306.65 53.4662 165.455 18.8797 127.454 11.4796C95.8875 5.33274 64.5155 14.3573 16.7589 44.7844Z" fill="#6BB2B2" fill-opacity="0.1"/>
<path d="M18.3568 28.731C-35.5784 63.0946 -78.2229 26.9768 -90.8132 8.11182L-93.4872 -6.78836L338.61 -84.3311L343.056 -59.5573C263.607 32.2127 175.856 15.1144 137.459 7.63288L136.723 7.48945C105.157 1.34258 66.1134 -1.69603 18.3568 28.731Z" fill="#437E7E"/>
</svg>
