<svg width="335" height="157" viewBox="0 0 335 157" fill="none" xmlns="http://www.w3.org/2000/svg">
<path d="M19.5001 40.0001C-34.4351 74.3636 -78.9578 24.682 -91.5481 5.817L-94.2221 -9.08317L337.875 -86.6259L386.611 -49.8952C306.65 42.4662 159.502 26.9 121.5 19.4999C89.934 13.353 67.2567 9.57305 19.5001 40.0001Z" fill="#BFB9C7"/>
<path d="M19 28C-34.9352 62.3636 -78.223 15.9769 -90.8133 -2.8881L-93.4873 -17.7883L338.61 -95.331L343.056 -70.5572C263.095 21.8042 183.002 25.1315 145 17.7314C113.434 11.5845 66.7566 -2.42703 19 28Z" fill="#6E6280"/>
<path d="M64 125.063C-0.00806427 98.7197 -39.1968 149.106 -49 171.649V188.063H426V147.063C323.19 63.8097 232.5 113.562 193.443 128.737C161 141.343 120.676 148.388 64 125.063Z" fill="#5F5174" fill-opacity="0.4"/>
<path d="M63.3244 138.738C-0.683662 112.395 -39.1968 159.106 -49 181.649V198.063H426V170.773C323.849 88.0533 233.662 123.106 194.199 138.444L193.443 138.738C161 151.343 120 162.063 63.3244 138.738Z" fill="#6E6280"/>
<path d="M248.822 133.873C249.322 134.371 249.357 134.909 248.923 135.447C248.434 136.053 247.792 136.152 247.153 135.72C247.119 135.659 247.081 135.599 247.04 135.542L247.041 135.551C246.759 135.062 246.8 134.575 247.195 134.196C247.648 133.763 248.196 133.551 248.822 133.873Z" fill="#534963"/>
<path d="M248.822 133.873C248.744 133.886 248.667 133.904 248.589 133.911C247.254 134.036 247.072 134.229 247.041 135.552C246.472 135.24 246.483 134.732 246.59 134.193C246.698 133.651 247.107 133.367 247.578 133.314C248.049 133.261 248.59 133.283 248.822 133.873Z" fill="#443A53"/>
<path d="M34.1106 146.986C35.6373 148.387 35.435 149.914 34.6802 151.023C33.4328 152.857 31.6265 152.976 30.2812 152.228C29.6472 151.876 29.0484 151.506 29.0757 150.655C28.9465 148.675 31.7456 146.738 33.6393 146.939C33.7963 146.956 33.9498 147.009 34.1106 146.986Z" fill="#534963"/>
<path d="M220.186 153.639C219.228 155.476 217.701 155.676 216.434 155.234C214.34 154.504 213.757 152.79 214.131 151.297C214.307 150.593 214.51 149.919 215.339 149.725C217.218 149.088 219.813 151.29 220.109 153.172C220.134 153.328 220.123 153.49 220.186 153.639Z" fill="#534963"/>
<path d="M220.186 153.639C219.862 153.526 219.944 153.207 219.859 152.976C219.265 151.365 218.169 150.31 216.498 149.873C216.116 149.773 215.708 149.907 215.339 149.726C216.374 148.781 217.822 148.787 219.079 149.715C220.408 150.696 220.813 152.267 220.186 153.639Z" fill="#443A53"/>
<path d="M34.1106 146.986C33.9173 147.269 33.631 147.108 33.3853 147.13C31.676 147.287 30.3729 148.073 29.5184 149.573C29.323 149.917 29.3464 150.345 29.0759 150.655C28.4308 149.411 28.8121 148.013 30.0331 147.04C31.3248 146.01 32.9471 146.026 34.1106 146.986Z" fill="#443A53"/>
<path d="M184.796 142.018L290.06 136.344L295.776 157.129L190.121 161.38L184.796 142.018Z" fill="#5F4113"/>
<path d="M186.917 149.732L293.389 148.452L295.776 157.129L190.121 161.38L186.917 149.732Z" fill="#5C3E10"/>
<path d="M321.64 111.642L289.936 135.894L295.776 157.129L326.39 128.914L321.64 111.642Z" fill="#5F4113"/>
<path d="M201.546 134.3L184.919 142.468L289.093 137.188L321.669 111.749L201.546 134.3Z" fill="#5F4113"/>
<path d="M295.869 157.104L326.419 129.022L321.62 111.57M295.869 157.104L287.818 127.831M295.869 157.104L190.193 161.644L185.006 142.785M287.818 127.831L321.62 111.57M287.818 127.831L185.006 142.785M321.62 111.57L202.356 134.077L185.006 142.785" stroke="#553A11" stroke-width="3" stroke-linecap="round"/>
<rect width="38.1727" height="11.9971" transform="matrix(-0.964851 0.262796 0.262796 0.964851 94.2339 118.571)" fill="#242424"/>
<path d="M85.0944 130.669L80.1686 129.184L76.4855 130.187L71.7972 133.725L77.9104 160.32L82.9795 162.33L88.7672 160.754L92.4994 155.781L85.0944 130.669Z" fill="#FFA114"/>
<path d="M99.5877 127.851L96.0971 125.411L91.984 124.835L85.144 126.698L82.7998 128.467L85.2382 131.194L92.4999 155.78L88.7676 160.753L98.2384 158.174L105.128 152.341L106.661 143.445L104.082 133.975L99.5877 127.851Z" fill="#FFA928"/>
<path d="M108.149 126.084L106.094 122.688L99.3027 120.581L85.5264 126.029L93.1792 125.075L96.0966 125.41L99.5873 127.851L104.081 133.974L106.661 143.445L104.984 151.815L107.185 149.52L110.391 144.69L111.062 138.855L110.921 132.111L108.149 126.084Z" fill="#FFB23F"/>
<path d="M106.476 122.018L98.4427 117.424L93.4206 117.662L83.9478 126.459L92.0796 123.114L99.4458 121.107L104.898 122.448L108.149 126.084L106.476 122.018Z" fill="#FFA114"/>
<path d="M50.7039 137.209L55.298 129.175L59.7468 126.833L72.3725 129.612L63.6674 130.852L56.3012 132.858L52.2823 136.779L51.3242 141.562L50.7039 137.209Z" fill="#FFA928"/>
<path d="M50.7977 141.705L50.8468 137.735L55.6314 132.476L70.2675 130.185L63.1879 133.243L60.8438 135.012L59.0729 138.886L58.3051 146.442L60.8846 155.913L66.5741 162.276L63.5134 161.414L58.3009 158.878L54.7632 154.189L51.465 148.305L50.7977 141.705Z" fill="#FFB23F"/>
<path d="M58.0212 139.173L59.7921 135.299L63.0453 132.718L69.8853 130.855L72.8027 131.19L72.0841 134.777L78.2934 159.65L83.5059 162.186L74.5612 164.623L65.6657 163.089L59.6896 155.674L57.2534 146.729L58.0212 139.173Z" fill="#FE9800"/>
<path d="M91.0294 117.183L86.1507 117.946L83.4237 120.384L81.6527 124.258L81.6998 126.506L83.5649 127.128L93.4206 117.662L91.0294 117.183Z" fill="#FFB23F"/>
<path d="M60.6559 126.021L65.248 124.205L68.8349 124.923L72.3255 127.364L73.4249 129.325L72.133 130.807L58.8379 127.646L60.6559 126.021Z" fill="#FFA114"/>
<path d="M76.1518 126.887L73.5702 123.633L72.2313 122.868L69.84 122.389L66.5398 122.722L65.6308 123.535L65.2479 124.205L68.8348 124.923L72.3254 127.364L74.0943 129.708L76.1518 126.887Z" fill="#FE9800"/>
<path d="M76.1518 126.887L72.2312 122.868L74.4967 120.81L79.1675 119.283L83.8066 119.715L82.4186 122.919L81.4133 125.454L76.1518 126.887Z" fill="#FE9800"/>
<path d="M83.7087 127.655L81.4137 125.454L76.0088 126.361L74.2379 130.235L77.2986 131.096L82.5602 129.663L83.7087 127.655Z" fill="#4B2F04"/>
<path d="M92.3991 134.597C93.6944 136.738 93.4917 139.231 91.9464 140.166C90.4011 141.101 86.3154 142.967 85.0201 140.826C83.7248 138.685 85.7106 133.348 87.2559 132.413C88.8011 131.478 91.1039 132.456 92.3991 134.597Z" fill="#232323"/>
<path d="M71.219 146.575C72.037 147.927 73.7963 148.36 75.1484 147.542C76.5006 146.724 79.6715 144.423 78.8534 143.071C78.0353 141.719 73.5381 141.828 72.186 142.646C70.8339 143.464 70.4009 145.223 71.219 146.575Z" fill="#232323"/>
<path d="M75.1162 153.824L93.7146 144.645L94.0424 147.992L89.8646 148.385L88.4687 151.466L85.0871 151.363L83.0449 154.295L78.2207 154.538L75.1162 153.824Z" fill="#232323"/>
<path d="M76.8372 119.849L73.598 119.283L76.2786 124.627L77.1187 127.711L81.6784 127.032L79.63 123.438L76.8372 119.849Z" fill="#4B2F04"/>
</svg>
