<svg width="211" height="142" viewBox="0 0 211 142" fill="none" xmlns="http://www.w3.org/2000/svg">
<g clip-path="url(#clip0_5909_314579)">
<path d="M59.7125 10.3805C59.2994 10.3699 58.8847 10.3792 58.4735 10.3458C51.0032 9.7375 44.7728 12.0183 40.3593 18.2962C39.5691 19.4202 39.2075 20.8456 38.648 22.1318C39.0203 22.2643 39.0694 21.9316 39.1956 21.7361C41.4265 18.37 44.407 15.5666 47.9034 13.5459C50.9093 11.7285 54.0588 11.4816 57.3813 11.9288C59.7742 12.251 62.1512 12.6683 64.5123 13.1808C64.92 13.3339 65.3709 13.3242 65.7717 13.1537C64.8883 12.6527 64.0028 12.1553 63.1234 11.6473C62.9699 11.5444 62.824 11.4304 62.6869 11.3064L59.7125 10.3805Z" fill="#EF6D35"/>
<path d="M46.663 36.6076C45.1215 38.3216 43.9018 40.2997 43.0625 42.4467C41.3781 46.3934 40.8733 50.7436 41.6091 54.9712C42.9959 62.5191 47.0756 68.1892 53.8868 71.7593C56.2417 72.9874 58.8066 73.7617 61.4478 74.0417C61.6744 74.082 61.8979 74.1386 62.1164 74.211C62.452 74.0006 62.2969 73.6978 62.2403 73.4354C61.8841 71.8664 61.6165 70.2786 61.4388 68.6795C61.3503 67.7969 61.1589 67.7096 60.305 67.989C59.8536 68.1767 59.373 68.2847 58.8847 68.3081C58.2683 68.3658 57.8806 68.8384 57.3925 69.131C55.9385 70.0027 54.3927 69.8538 52.7638 69.6513C53.5544 68.2279 56.2255 66.614 57.5323 67.0614C57.8237 67.1611 58.1007 67.1859 58.2888 66.869C58.5535 66.5502 58.9002 66.3098 59.2915 66.1736C59.6829 66.0374 60.1039 66.0107 60.5093 66.0963C61.0973 66.2345 61.2147 65.9338 61.2181 65.4616C61.2234 64.7199 61.1906 63.979 61.2087 63.2364C61.1728 62.9635 61.2125 62.6859 61.3234 62.4338C61.4342 62.1818 61.6121 61.9651 61.8376 61.8071C61.2771 61.2737 60.5825 60.9022 59.8277 60.7323C58.3595 60.2437 56.8748 59.805 55.3978 59.3429C54.8129 59.19 54.2712 58.9041 53.8148 58.5075C53.583 58.2877 53.239 58.052 53.5621 57.6493C53.9151 57.4493 54.3204 57.3608 54.7247 57.3954C56.1587 57.2829 57.5919 57.1576 59.0279 57.0708C59.3628 57.0505 59.7291 57.0971 59.9776 56.752C59.7909 56.2683 59.3186 56.2359 58.9276 56.1207C57.3151 55.6855 55.7795 55.0039 54.3749 54.1002C53.2065 53.2116 52.1752 52.1557 51.3144 50.9666C50.8097 50.2103 50.5064 49.3378 50.4331 48.4316C50.2429 45.7014 51.1638 45.88 52.922 46.5963C54.6498 47.5801 56.5003 48.3307 58.4252 48.8286C60.1162 49.1796 61.5984 48.5575 63.0582 47.8304C64.717 46.9908 66.5388 46.5227 68.3968 46.4587C68.6864 46.4413 69.1762 46.6572 69.2047 46.0527C68.5846 45.6227 67.8546 45.8299 67.1824 45.6997C61.84 44.5358 60.5433 44.9504 56.1796 40.298C55.4438 39.5516 54.6492 38.8656 53.8033 38.2468C53.534 37.9894 53.176 37.8454 52.8035 37.8447C51.672 38.6706 50.6335 39.6169 49.7063 40.667C49.1869 41.1638 48.7357 41.7273 48.3645 42.3427C48.9739 40.8559 49.7426 39.4395 50.657 38.1182C50.8683 37.8816 51.0228 37.5999 51.1085 37.2944C51.1211 36.8919 50.8258 36.7496 50.5254 36.6466C49.2863 36.1601 47.9116 36.1462 46.663 36.6076V36.6076Z" fill="#B9CFDC"/>
<path d="M67.157 45.8736L69.2406 46.1549C69.3099 46.2562 69.411 46.3314 69.5279 46.3686C69.6448 46.4058 69.7708 46.4028 69.8858 46.3601C71.9755 46.189 74.0782 46.2658 76.1498 46.589C77.2049 46.8713 78.225 47.2713 79.1909 47.7813C79.5936 47.9602 79.9882 48.1528 80.3823 47.7726C80.7479 47.3121 80.4148 46.9562 80.1791 46.6115C79.0452 44.953 79.3522 43.1883 79.767 41.392C81.3707 42.9311 82.3459 44.6953 81.9495 46.9953C82.7864 47.7596 82.7681 48.764 82.7282 49.7755C82.9568 50.2328 83.4878 50.2277 83.8348 50.5044C84.9085 50.9375 85.8313 51.6544 86.8844 52.1269C86.9778 52.1439 87.0742 52.1263 87.1556 52.0776C87.3093 49.4971 86.965 46.9111 86.1415 44.4607C84.8669 40.266 82.3883 36.538 79.0134 33.7397C78.8365 33.5941 78.6784 33.4257 78.5115 33.2679C78.2087 33.5485 77.8131 33.7076 77.4004 33.7149C76.9877 33.7221 76.5868 33.577 76.2743 33.3072C75.9937 33.0307 75.9991 32.562 75.6398 32.3311C75.1755 32.4248 74.8993 33.0149 74.3406 32.7925C73.918 32.5398 73.5883 32.1574 73.4005 31.7023C73.3373 31.5151 73.2353 31.3435 73.1012 31.1985C72.967 31.0536 72.8037 30.9386 72.622 30.8612C72.4403 30.7838 72.2443 30.7457 72.0468 30.7494C71.8494 30.7531 71.6549 30.7985 71.4762 30.8827C71.1219 31.0036 70.7438 31.0381 70.3735 30.9834C70.0031 30.9287 69.6512 30.7863 69.347 30.5681C68.6381 30.1234 67.9931 29.5873 67.2861 29.1436C66.5256 28.6663 65.7409 28.3204 64.9109 29.0366C64.835 29.1056 64.7445 29.1566 64.6462 29.1858C64.5479 29.215 64.4442 29.2216 64.343 29.2053C63.3717 28.9886 62.3303 29.2159 61.4053 28.6687C61.0298 28.4162 60.5864 28.2837 60.1339 28.2886C59.6814 28.2936 59.241 28.4359 58.8711 28.6966C58.59 28.8975 58.2594 29.0177 57.915 29.0443C57.5705 29.0709 57.2254 29.0028 56.9169 28.8473C56.729 28.773 56.5333 28.7204 56.3335 28.6906C55.8073 28.6075 55.5409 28.7791 55.6983 29.3525C55.7441 29.5191 55.8214 29.6764 55.8598 29.8449C56.0597 30.7233 55.6727 31.1039 54.7835 30.8917C54.3786 30.7376 53.943 30.6811 53.5122 30.7269C53.0613 30.8296 52.6514 31.0175 52.7512 31.582C52.8747 32.2812 52.4949 32.4053 51.9581 32.3043C51.3241 32.185 50.9123 32.3057 50.7565 33.0156C50.6376 33.5574 50.1461 33.7503 49.6681 33.8967C49.2136 34.0359 49.1186 34.2932 49.2446 34.749C49.4935 35.6498 49.1489 35.9711 48.2475 35.7348C47.9948 35.6686 47.7719 35.5282 47.5294 35.4402C47.2779 35.3489 46.9915 35.1377 46.7921 35.5312C47.7231 36.0069 46.7062 36.2488 46.6629 36.6077C47.9201 36.6898 49.1792 36.7514 50.4321 36.8753C50.6201 36.8939 50.7793 37.2041 50.9519 37.3794C51.2981 37.5146 51.4019 37.2046 51.5532 37.0277C52.3585 36.1235 53.292 35.3421 54.3238 34.7085C54.5512 34.5032 54.8301 34.3634 55.1307 34.3041C55.4313 34.2448 55.7424 34.2683 56.0307 34.3719C56.0788 34.9063 55.7017 35.1598 55.368 35.4064C54.6513 35.938 53.9643 36.5085 53.3101 37.1153C53.0642 37.3425 52.7439 37.5344 52.764 37.9429L55.9848 40.3996C56.277 40.6334 56.6285 40.7813 57 40.8268C58.1397 40.9929 59.2614 41.2656 60.3502 41.6413C62.385 42.134 64.1972 43.2918 65.4993 44.9313C65.681 45.2087 65.9261 45.4388 66.2144 45.6027C66.5026 45.7665 66.8258 45.8594 67.157 45.8736Z" fill="#EFF3F6"/>
<path d="M91.7982 60.0248L91.7553 59.5017C91.0613 60.0943 91.111 60.9949 90.8278 61.7568C90.7383 61.9976 90.7733 62.2703 90.6876 62.5852C90.3285 61.9886 90.5707 61.2617 90.1441 60.7445C89.3843 60.5237 88.8313 59.9243 88.1101 59.6326C87.8148 59.558 87.5097 59.5293 87.2056 59.5475C86.7712 59.5905 86.5273 59.9194 86.2668 60.2035C85.8807 60.57 85.4398 60.874 84.9601 61.1047C84.8144 61.2003 84.6901 61.3249 84.5949 61.4708C82.5967 65.4676 79.4569 68.7812 75.5735 70.9917C75.3321 71.0932 75.1355 71.2782 75.0195 71.513C74.9518 71.9163 75.2309 72.1472 75.4639 72.3989C77.3826 74.4714 79.2759 76.5679 81.2489 78.5894C83.06 80.2826 84.9827 81.8524 87.004 83.288C87.2005 83.4636 87.4585 83.5542 87.7217 83.54C88.183 83.3725 88.5842 83.0718 88.8746 82.6761C91.939 79.5884 94.499 76.0774 97.2321 72.7118C98.0833 71.6636 98.9454 70.6241 99.7823 69.5646C100.397 68.7868 100.358 68.6521 99.4526 68.3456C99.1898 68.2314 98.9391 68.0911 98.7043 67.9268C98.486 67.848 98.2487 67.8378 98.0244 67.8976C96.1426 68.3188 94.6936 67.3452 93.231 66.4166C93.1936 66.3903 93.1628 66.3558 93.1409 66.3156C93.1191 66.2755 93.1067 66.2309 93.1049 66.1852C93.1213 65.9373 93.3315 65.869 93.5212 65.8355C95.1468 65.5488 96.7742 65.2737 98.2646 66.3233C98.4673 66.4901 98.7263 66.5728 98.9881 66.5544C99.7405 66.3722 100.534 66.4912 101.2 66.8858C101.803 67.1837 102.079 66.9509 102.065 66.2221C101.641 65.9228 101.155 65.7219 100.644 65.6342C98.0098 64.8146 95.4549 63.7602 93.0094 62.4839C92.0952 62.0259 91.4487 61.5068 91.84 60.3639C91.8755 60.2602 91.8205 60.1374 91.7982 60.0248Z" fill="#DACFC8"/>
<path d="M65.7717 13.1537C62.4995 12.6225 59.2273 12.0917 55.955 11.5613C52.4665 11.0011 49.4353 12.23 46.5889 14.0478C43.8038 15.8438 41.3866 18.1541 39.4667 20.8552C39.1711 21.2646 38.9193 21.7056 38.6473 22.1321L38.2975 23.2898C37.7176 26.3264 37.1649 29.3725 35.2618 31.9451C33.8804 34.8506 32.0409 37.5151 29.8137 39.8366C28.4108 41.3639 26.6365 42.502 24.6634 43.1403C25.182 44.3385 25.3918 44.4397 26.5383 44.0864C32.1359 42.3616 36.3053 38.8318 39.3994 33.9343C39.5831 33.6758 39.7139 33.3836 39.7843 33.0745C39.8547 32.7653 39.8632 32.4453 39.8095 32.1328C39.755 31.5263 39.8838 30.9174 40.1792 30.385C40.2102 29.78 40.1973 29.1736 40.1408 28.5705C39.8743 28.3034 39.6931 27.9631 39.6202 27.5928C39.5474 27.2226 39.5861 26.839 39.7316 26.4908C40.0324 25.5305 40.4021 24.5932 40.8376 23.6861C40.9921 23.3555 41.2397 23.0772 41.5501 22.8854C41.8606 22.6936 42.2202 22.5967 42.585 22.6064C43.1626 22.5881 43.7241 22.4117 44.2084 22.0964C44.5108 21.9257 44.8441 21.8168 45.189 21.7758C45.5339 21.7348 45.8834 21.7627 46.2174 21.8577C46.4948 21.927 46.7859 21.9188 47.0589 21.834C47.3319 21.7493 47.5765 21.5912 47.7659 21.3771C48.0904 21.086 48.4878 20.8886 48.9158 20.8058C49.3437 20.723 49.7861 20.758 50.1957 20.9069C50.7845 21.0429 51.3833 21.1307 51.9864 21.1695C52.1866 21.1957 52.39 21.155 52.5646 21.0535C52.7393 20.9521 52.8755 20.7957 52.9519 20.6088C53.5893 19.3431 54.4763 18.9997 55.8566 19.3824C56.4071 19.535 56.8621 19.9282 57.3995 20.0228C57.7276 19.7283 57.6254 19.3882 57.6647 19.0857C57.6613 18.6457 57.8263 18.2211 58.1259 17.8988C58.4256 17.5766 58.8371 17.3812 59.2762 17.3526C60.2177 17.2062 61.1779 17.2299 62.111 17.4226C62.3434 17.4344 62.5665 17.518 62.7495 17.6618C62.9325 17.8056 63.0665 18.0025 63.1331 18.2255C63.1849 18.3657 63.2673 18.4925 63.3744 18.5968C63.4814 18.701 63.6104 18.7801 63.7519 18.8281C64.6559 19.1233 65.4416 19.7001 65.994 20.4741C66.3338 20.818 66.7649 21.0576 67.2364 21.1647C67.9915 21.0017 68.7599 20.9075 69.532 20.8835C71.4611 20.8691 71.74 21.0935 71.911 22.9151C72.351 23.2576 72.8607 23.0277 73.3351 23.0914C73.6453 22.9808 73.978 22.9484 74.3037 22.9971C74.6294 23.0458 74.938 23.1741 75.2023 23.3707C75.3822 23.4951 75.5882 23.5768 75.8046 23.6094C76.021 23.642 76.2419 23.6247 76.4505 23.5587C73.7007 19.7545 70.3747 16.402 66.5925 13.622C66.3354 13.4422 66.046 13.3087 65.7717 13.1537Z" fill="#D35721"/>
<path d="M131.228 110.211L134.638 110.907C135.01 110.538 134.694 110.216 134.542 109.912C133.907 108.634 133.196 107.394 132.586 106.101C131.987 105.608 131.333 105.184 130.637 104.838C129.335 103.984 128.15 102.963 127.114 101.801C128.207 102.163 129.391 102.138 130.468 101.73C129.722 100.709 129.513 99.4004 128.692 98.4195C126.98 97.8837 125.352 97.1094 123.855 96.1194C123.846 95.6737 124.17 95.5553 124.614 95.4828C125.429 95.3499 126.284 95.5508 127.069 95.1828C127.234 94.8807 127.071 94.6219 126.948 94.3682C125.129 90.6405 123.47 86.8423 121.921 82.9954C121.741 82.5032 121.389 82.0923 120.931 81.8375C118.908 80.7391 116.841 79.7324 114.728 78.8174C114.661 78.7895 114.589 78.7764 114.517 78.7788C114.444 78.7813 114.373 78.7993 114.309 78.8316C114.037 79.13 114.104 79.5118 114.051 79.8645C113.795 83.7486 113.843 87.6467 114.193 91.5234C114.182 92.4447 114.337 93.3605 114.65 94.227C114.979 94.5912 115.239 95.0116 115.418 95.4681C116.642 98.0773 118.228 100.501 120.128 102.668C123.14 105.943 126.871 108.474 131.027 110.062C131.108 110.089 131.179 110.141 131.228 110.211Z" fill="#A2806B"/>
<path d="M114.811 94.2369C114.605 92.338 114.281 90.4429 114.22 88.5393C114.128 85.6592 114.217 82.7733 114.23 79.8898C113.728 80.3254 113.386 80.9158 113.257 81.5676C112.81 82.8124 112.505 84.1001 111.956 85.3186C111.623 86.0744 111.116 86.741 110.477 87.2641C109.838 87.7873 109.084 88.1524 108.278 88.3296C106.13 88.9083 103.899 89.1179 101.68 88.9496C100.219 88.7791 98.7918 88.3923 97.4445 87.802C96.645 87.6993 95.8392 87.6522 95.0332 87.6613C93.9574 87.6113 92.936 87.1741 92.1572 86.4303C92.0411 86.2819 91.888 86.1667 91.7131 86.0964C91.5383 86.026 91.348 86.0031 91.1615 86.0298C90.4133 85.9737 89.7057 85.6673 89.1528 85.16C89.1139 85.107 89.0642 85.0629 89.0069 85.0307C88.9497 84.9985 88.8862 84.9788 88.8207 84.9731C88.7552 84.9674 88.6893 84.9757 88.6273 84.9975C88.5653 85.0192 88.5086 85.054 88.4611 85.0994C87.6913 85.742 86.8624 86.3093 86.1016 86.9628C86.0569 86.9988 86.0243 87.0475 86.0079 87.1025C85.9916 87.1576 85.9925 87.2162 86.0103 87.2708C88.5922 88.9374 91.1007 90.7357 93.7791 92.2291C95.9253 93.4258 98.2758 94.257 100.54 95.2403C101.172 95.5149 101.821 95.7535 102.462 96.0086C102.524 96.0952 102.594 96.1762 102.67 96.2507C103.936 96.6883 105.228 97.0498 106.538 97.3335C107.859 97.7058 109.205 97.9832 110.566 98.1636C110.897 98.2632 111.253 98.249 111.575 98.1233L116.021 98.5736C116.071 98.4537 116.093 98.324 116.086 98.1942C116.079 98.0645 116.043 97.938 115.98 97.8242C115.623 96.8501 115.34 95.8504 115.134 94.8337C115.099 94.6031 114.985 94.392 114.811 94.2369Z" fill="#C6B2A5"/>
<path d="M179.954 93.5101C178.354 93.4034 177.986 91.9858 177.33 90.9456C175.342 87.7509 173.083 84.7336 170.577 81.927C170.332 81.6861 170.073 81.4607 169.8 81.2522C168.242 80.0574 166.509 79.1108 164.662 78.4458C164.191 78.6527 164.523 78.8928 164.66 79.0848C165.084 79.6965 165.441 80.3526 165.724 81.0416C165.916 81.3819 165.974 81.7813 165.888 82.1623C164.051 81.3649 162.349 80.5776 161.919 78.3961C160.907 78.4118 160.593 77.498 159.978 76.8963C159.595 77.0933 159.255 77.3662 158.981 77.6984C158.707 78.0307 158.503 78.4153 158.382 78.8289C157.305 81.3923 157.1 84.1355 156.859 86.8639C156.805 87.4742 157.128 87.7117 157.723 87.5449C158.108 87.4215 158.515 87.377 158.917 87.4142C159.236 87.3822 159.533 87.2368 159.754 87.0044C160.203 86.6159 160.724 86.3195 161.287 86.1324C161.851 85.9453 162.445 85.8711 163.037 85.914C163.783 85.8511 164.533 85.911 165.259 86.0916C165.336 86.2786 165.344 86.3839 165.285 86.438C163.89 87.7164 162.466 88.9393 160.384 88.7918C160.096 88.7471 159.802 88.7881 159.538 88.9099C158.91 89.4561 158.114 89.7693 157.282 89.7966C156.915 89.8217 156.593 89.8528 156.521 90.2999C156.363 91.4409 156.476 91.5745 157.662 91.6164C161.947 91.7679 166.222 92.0581 170.488 92.4871C172.552 92.6712 174.587 93.1008 176.549 93.7667C177.684 94.0252 178.871 93.9358 179.954 93.5101V93.5101Z" fill="#DACFC8"/>
<path d="M86.0099 87.2707L88.8511 85.1048C89.353 86.0569 90.3412 86.0844 91.2292 86.3173C91.63 85.752 91.8892 85.0988 91.9852 84.4126C92.055 83.684 91.3137 83.7433 90.9498 83.3827C91.6504 82.3425 92.5715 81.5078 93.3537 80.558C94.7089 78.9126 96.0286 77.2401 97.3577 75.5745C97.5211 75.3697 97.6122 74.8072 98.1155 75.1965C98.8128 75.5166 99.4749 75.2058 100.148 75.0889C100.847 74.3722 100.383 73.6394 100.105 72.964C99.9555 72.5998 99.8801 72.3706 100.149 72.0505C101.568 70.3583 102.895 68.5889 104.397 66.9656C104.909 66.3858 105.451 65.833 106.021 65.3094C106.704 64.7272 107.508 64.3034 108.374 64.0681C109.24 63.8328 110.148 63.7919 111.032 63.9483C111.018 64.3207 110.566 64.5878 110.795 64.9768C111.175 65.4815 111.696 65.8457 112.117 66.3102C112.709 66.5355 112.955 66.0033 113.331 65.757C114.507 64.664 114.507 64.664 116.016 65.4338C116.118 65.4861 116.223 65.5329 116.33 65.574C116.887 65.8636 117.505 66.0144 118.133 66.0137C118.761 66.013 119.379 65.8609 119.935 65.5701C119.756 65.3957 119.567 65.2323 119.368 65.0808C119.147 64.9449 118.919 64.8224 118.683 64.7138C116.38 63.4489 113.887 62.5658 111.301 62.0989C110.005 61.8573 108.67 61.9357 107.412 62.3274C106.153 62.7191 105.01 63.4123 104.08 64.3466C103.812 64.6027 103.529 64.8437 103.253 65.0918C102.983 65.2083 102.741 65.3808 102.543 65.5979C102.344 65.815 102.195 66.0718 102.103 66.3512L101.808 66.7505C100.896 66.5291 100.135 66.3317 99.3666 66.1735C99.2634 66.1522 99.1194 66.3291 98.9943 66.4143C98.8191 66.6353 98.6983 66.8945 98.6419 67.1708C98.5854 67.4471 98.5948 67.7328 98.6693 68.0049L100.007 68.87C100.017 68.7772 100.037 68.8775 99.9963 68.9278C96.6789 73.0026 93.3717 77.086 90.0224 81.1346C89.29 81.9407 88.5171 82.7092 87.7068 83.4371C86.8861 83.6947 86.4548 84.5255 85.6081 84.8471C85.35 84.5213 85.1134 84.1789 84.8999 83.8223C84.8633 83.7359 84.8095 83.6579 84.7417 83.593C84.674 83.5281 84.5938 83.4777 84.506 83.4447C84.4181 83.4118 84.3245 83.3971 84.2308 83.4015C84.1371 83.4059 84.0453 83.4293 83.9609 83.4703C83.4606 83.848 82.7375 84.0124 82.6724 84.8091C82.7149 85.0062 82.7949 85.1933 82.9083 85.3601C83.4276 86.2261 83.4075 86.3205 82.4299 86.6667C77.6477 88.3603 73.3951 87.3568 69.5529 84.1585C67.8103 82.7079 66.8496 80.7766 65.9841 78.7429C66.2198 78.4657 66.6705 78.4843 66.77 78.0969C66.9384 77.5341 67.3291 76.9886 66.9071 76.3799C66.6782 76.1277 66.3792 75.9498 66.0484 75.8689C65.7176 75.7881 65.3702 75.808 65.0508 75.9261C64.5715 75.3972 64.7413 74.6052 64.199 74.1561C63.7562 73.962 63.268 73.8953 62.7893 73.9636C62.5258 73.9766 62.1802 73.976 62.2548 74.4209C62.8419 77.1496 63.8484 79.7708 65.2386 82.1912C66.9435 85.1565 69.6293 87.4343 72.8332 88.6321C72.9923 88.6912 73.1483 88.7588 73.2616 88.8047C73.0979 89.2324 72.9427 89.6382 72.7875 90.044C72.9562 90.5395 73.1541 91.0078 73.7644 91.0915C74.7803 90.9976 75.2162 90.2583 75.6093 89.423C79.2229 90.009 82.9257 89.2427 86.0099 87.2707V87.2707Z" fill="#030202"/>
<path d="M113.203 65.6449L112.182 66.1948C112.08 66.1229 111.942 66.0996 111.881 66.196C111.359 66.8411 110.974 67.586 110.75 68.3851C110.894 68.5261 111.066 68.636 111.255 68.7083C111.443 68.7805 111.645 68.8136 111.846 68.8053C113.561 69.0259 115.293 69.084 117.018 68.9788C120.042 68.743 123.063 68.984 126.083 69.0444C129.743 69.0758 133.392 69.4468 136.983 70.1527C139.009 70.5746 141.024 71.0527 143.035 71.5486C146.953 72.5147 150.763 73.8344 154.621 74.9932C155.483 75.2276 156.323 75.5348 157.133 75.9115C157.618 76.1719 158.162 76.3036 158.712 76.294C159.789 75.763 160.905 75.3169 162.02 74.8693C160.584 74.0939 159.171 73.2724 157.707 72.5557C156.115 71.7765 154.498 71.0376 152.85 70.3865C151.168 69.7219 149.457 69.112 147.721 68.6071C143.185 67.2575 138.51 66.433 133.786 66.1497C129.376 65.9105 124.956 65.8702 120.54 65.7327C120.333 65.7022 120.13 65.6477 119.935 65.5702C119.596 65.5776 119.258 65.6149 118.925 65.6815C118.064 65.8921 117.156 65.7796 116.372 65.3653C116.279 65.8083 116.65 65.6821 116.977 65.8107C115.644 65.5185 114.416 65.8335 113.203 65.6449Z" fill="#ECE1DA"/>
<path d="M130.044 98.8017C130.283 98.6827 130.535 98.5903 130.794 98.5263C135.057 97.9497 139.321 97.3835 143.586 96.8276C144.06 96.7659 144.545 96.7888 145.024 96.7725C144.903 96.4614 145.17 96.5521 145.297 96.5187C147.104 96.0438 148.954 95.7987 150.79 95.4753C151.309 95.4103 151.802 95.2082 152.217 94.89C151.725 94.1283 151.46 93.2428 151.451 92.3362C151.405 92.0648 151.297 91.8077 151.135 91.5848C150.974 91.3618 150.764 91.179 150.52 91.0503C148.309 90.9089 146.091 90.9131 143.88 91.0629C141.348 91.1279 138.818 91.258 136.291 91.4533C135.861 91.5015 135.425 91.4746 135.003 91.374C132.185 90.6476 129.471 89.5663 126.925 88.1561C125.929 87.6303 125.061 86.8886 124.387 85.9852C124.271 85.7841 124.093 85.6264 123.879 85.5363C123.327 85.6739 123.632 86.0355 123.749 86.2465C124.322 87.282 124.723 88.3959 125.257 89.4502C126.243 91.4012 127.233 93.3525 128.099 95.3618C128.707 96.4738 129.287 97.6006 129.82 98.7517C129.851 98.7771 129.887 98.7948 129.926 98.8035C129.965 98.8122 130.005 98.8116 130.044 98.8017V98.8017Z" fill="#C6B2A5"/>
<path d="M179.955 93.5104L176.664 93.5553C176.106 93.655 175.574 93.1369 175.006 93.4881C175 93.8601 175.304 94.0295 175.522 94.2433C178.529 97.187 181.523 100.146 184.39 103.225C186.235 105.206 187.963 107.295 189.678 109.392C190.472 110.351 191.261 111.314 192.065 112.264C192.159 112.375 192.381 112.512 192.46 112.472C192.628 112.379 192.757 112.229 192.822 112.048C193.151 111.043 193.452 110.028 193.762 109.016C192.578 107.518 191.602 105.867 190.861 104.107C191.457 104.359 191.995 104.73 192.442 105.198C192.863 105.666 193.458 105.937 193.925 106.363C194.088 106.511 194.213 106.732 194.485 106.71L195.02 105.089C195.057 105.062 195.085 105.024 195.098 104.981C195.112 104.937 195.112 104.89 195.097 104.847C193.656 103.46 192.721 101.569 190.839 100.575C190.77 100.529 190.992 100.481 190.891 100.537C190.863 100.552 190.876 100.579 190.932 100.612C191.486 100.967 192.077 101.26 192.695 101.485C193.521 101.726 194.318 102.055 195.074 102.466C195.313 102.605 195.579 102.773 195.867 102.542C196.143 101.959 196.153 101.468 195.531 101.058C192.009 98.6268 188.271 96.5251 184.365 94.779C183.359 94.3718 182.314 94.0679 181.247 93.872L179.955 93.5104Z" fill="#A2806B"/>
<path d="M40.0751 28.5655L40.1268 30.3449C40.1178 30.4318 40.1344 30.5195 40.1745 30.5972C40.2146 30.6749 40.2764 30.7393 40.3525 30.7824C41.4065 31.1987 41.5283 32.3128 42.1356 33.0427C41.2419 34.2746 41.3495 35.0818 42.4632 35.7463C43.3941 35.8689 44.3361 35.8835 45.2704 35.7897C45.7776 35.7036 46.2848 35.6175 46.792 35.5314C47.0297 35.5684 47.2652 35.6187 47.4973 35.6823C47.7999 35.8417 48.1227 35.9592 48.457 36.0316C48.8452 36.0629 49.2318 35.9542 49.5468 35.7252C49.7003 35.5757 49.5224 35.0706 49.4667 34.7292C49.4141 34.5669 49.3425 34.4113 49.2536 34.2657C50.2394 34.0178 51.2042 33.7385 51.1176 32.4578C51.6275 32.5905 52.1592 32.6167 52.6797 32.5349C52.9393 32.4282 52.9652 31.7525 53.096 31.3323L52.8952 31.0365C53.3964 31.0285 53.8977 31.0132 54.3989 31.0145C54.9095 31.0158 55.5756 31.2392 55.8957 30.9975C56.4267 30.5963 56.2183 29.9053 55.9243 29.3341C55.851 29.1493 55.7893 28.96 55.7397 28.7675C56.1722 28.8776 56.487 28.95 56.7973 29.0382C57.5163 29.2427 58.1408 29.5826 58.9233 28.916C59.6868 28.2657 60.62 28.5719 61.5717 28.948C62.5955 29.2402 63.6502 29.4106 64.7139 29.4557C64.7715 29.4546 64.8281 29.4412 64.8799 29.4163C64.9318 29.3913 64.9777 29.3555 65.0145 29.3113C65.7274 28.4118 66.4502 28.894 67.1338 29.3195C67.9136 29.8049 68.6504 30.3589 69.4165 30.8672C69.7157 31.0933 70.0708 31.234 70.4437 31.274C70.8166 31.3141 71.1935 31.252 71.5339 31.0945C72.3225 30.7527 72.8631 31.1117 73.2769 31.8665C73.5971 32.3117 73.9727 32.7143 74.3947 33.0645C74.543 32.6918 74.5698 32.2818 74.4711 31.893C74.3724 31.5042 74.1533 31.1565 73.8451 30.8998C73.5259 30.4994 73.0875 30.2111 72.5935 30.0766C72.0995 29.942 71.5755 29.9682 71.0974 30.1513C70.9667 30.2281 70.8206 30.2747 70.6696 30.2878C70.5186 30.3009 70.3666 30.28 70.2247 30.2268C70.0828 30.1735 69.9546 30.0893 69.8495 29.9801C69.7444 29.871 69.665 29.7397 69.6171 29.5959C68.7707 27.7594 65.4182 27.1675 63.8007 28.2569C63.5767 28.4169 63.3086 28.5035 63.0333 28.5048C62.7581 28.5061 62.4892 28.422 62.2636 28.2642C61.8637 28.0345 61.4574 27.8117 61.0804 27.5489C60.1557 26.9516 59.0853 26.6182 57.985 26.585C56.7604 26.4917 55.6826 26.752 55.0697 27.9691C54.9752 28.1321 54.8377 28.2662 54.6723 28.3566C54.5069 28.4471 54.3199 28.4905 54.1315 28.4821C53.0434 28.5845 52.0921 28.8865 51.6758 30.053C51.5724 30.3427 51.253 30.406 51.0054 30.552C49.7252 31.3068 48.4928 31.1236 47.0897 30.7745C45.9769 30.4976 45.2879 30.3678 44.999 29.0594C44.8281 28.2856 44.4573 27.6347 44.8227 26.8262C44.9414 26.4345 44.9248 26.0143 44.7757 25.6331C44.5922 24.9288 44.9257 24.6107 45.5582 24.4665C46.2302 24.2957 46.9239 24.2256 47.6165 24.2586C48.8259 24.2784 50.0349 24.2037 51.2326 24.0351C53.1547 23.88 54.0499 23.0674 54.3351 21.1757C54.4676 20.6809 54.7121 20.2233 55.0498 19.8381C54.7151 19.1928 54.12 19.0946 53.7805 19.6797C53.5794 20.0567 53.301 20.3869 52.9635 20.6489C52.6472 20.8852 52.585 21.2215 52.506 22.1749C51.4227 22.1104 50.3361 22.124 49.2548 22.2157C48.9375 22.1965 48.6193 22.2293 48.3126 22.3127C47.8769 22.5548 47.3849 22.6773 46.8866 22.6677C46.3882 22.6582 45.9013 22.5169 45.4751 22.2583C45.0351 21.9921 44.574 22.2784 44.312 22.7262C44.2524 22.8561 44.1551 22.9651 44.0327 23.0389C43.9103 23.1127 43.7685 23.1479 43.6258 23.14C43.189 23.0956 42.75 23.1998 42.3798 23.4358C42.0095 23.6717 41.7297 24.0256 41.5854 24.4403C41.2839 25.3008 41.8169 25.9209 42.4147 26.4798C41.4117 25.8823 41.0959 26.0019 40.4705 26.9793C40.1443 27.4892 39.6138 27.8841 40.0751 28.5655Z" fill="#C6C6C6"/>
<path d="M42.4339 35.6192C42.3232 35.5321 42.2213 35.4345 42.1295 35.3277C41.4039 34.3042 41.4712 33.9559 42.4339 33.2876C42.2263 32.6046 41.9384 31.9485 41.5764 31.3331C41.1509 30.9263 40.6612 30.5923 40.1271 30.3445C39.9448 30.9419 39.7455 31.5349 39.5853 32.1382C39.5241 32.6859 39.3982 33.2244 39.21 33.7423C36.3799 38.6201 31.811 42.2483 26.4189 43.8998C25.7745 44.1317 25.2533 44.2161 24.9912 43.4019C24.9555 43.291 24.7765 43.2261 24.6639 43.14L22.8769 43.3504C22.9361 44.0012 22.8572 44.6572 22.6453 45.2754C22.5067 45.554 22.7648 45.8622 23.0001 46.086C23.5195 46.3949 23.7984 47.1439 24.5888 46.9576C27.6595 46.3498 30.7359 45.7694 33.7994 45.1276C38.2655 44.192 41.6175 41.7777 43.6034 37.5963C43.7508 37.2859 43.9448 36.9976 44.1171 36.6991C44.3916 36.3188 44.311 36.0645 43.8467 35.9565C43.3684 35.8778 42.8962 35.765 42.4339 35.6192Z" fill="#B7400D"/>
<path d="M189.678 109.392C189.167 108.653 188.708 107.869 188.135 107.181C184.186 102.593 180.007 98.2095 175.612 94.0469C175.429 93.8678 175.213 93.7227 175.012 93.5618C174.952 93.4681 174.859 93.4002 174.751 93.3715C174.644 93.3429 174.529 93.3555 174.43 93.4069C173.743 93.6996 173.061 94.0048 172.36 94.2696C171.486 94.6003 171.424 94.8751 172.082 95.5468C174.451 97.9814 176.688 100.541 178.783 103.215C181.453 106.464 183.774 109.984 185.711 113.717C185.966 114.232 186.174 114.764 186.405 115.287C187.372 113.513 188.339 111.739 189.307 109.965C189.416 109.766 189.554 109.583 189.678 109.392Z" fill="#815A40"/>
<path d="M151.296 92.4182C151.242 92.8799 151.293 93.3479 151.445 93.787C151.598 94.2262 151.847 94.6252 152.176 94.9543L144.445 96.4532L145.025 96.7722C146.197 96.8683 147.368 96.9644 148.57 97.063C148.875 97.5478 149.197 98.1149 149.581 98.6367C149.687 98.7811 149.976 98.7908 150.181 98.8622C150.454 98.8723 150.724 98.8035 150.959 98.6638C151.193 98.5242 151.383 98.3197 151.504 98.0751L151.355 96.8245L154.76 94.7209C155.292 94.3435 155.726 93.8442 156.025 93.2648C156.325 92.6854 156.481 92.0427 156.481 91.3905C156.502 90.9846 156.743 90.635 156.676 90.2283C156.809 90.1304 156.953 90.0493 157.106 89.9868C157.898 89.7698 158.698 89.5796 159.487 89.352C159.547 89.3349 159.542 89.0982 159.568 88.9636C159.563 88.3784 159.356 87.8128 158.981 87.3633C158.724 87.2728 158.454 87.2209 158.182 87.2093C157.768 87.2883 157.36 87.3998 156.963 87.543C157.563 83.8532 157.301 80.0643 159.797 77.0257L161.336 78.8504L161.955 78.4489C162.485 78.4055 162.662 77.9709 162.897 77.6002C163.073 76.9131 162.509 76.6105 162.129 76.1675C163.279 76.2964 164.446 75.9945 165.492 76.6281C165.521 76.6287 165.549 76.6283 165.578 76.6302C165.606 76.6321 165.634 76.6363 165.663 76.6395C165.544 76.4359 165.404 76.2454 165.245 76.0711C164.338 75.3151 163.201 74.8912 162.02 74.8694C160.891 74.9467 159.813 75.3702 158.934 76.0822C157.769 76.726 157.287 77.8713 156.84 79.0155C156.484 79.9241 156.228 80.869 156.077 81.8333C155.503 81.8935 154.944 81.2382 154.457 81.8915C154.086 82.2737 153.827 82.7507 153.709 83.2704C153.811 83.5843 153.987 83.8691 154.222 84.1011C154.457 84.333 154.744 84.5053 155.059 84.6035C155.257 84.6763 155.42 84.821 155.516 85.0086C155.611 85.1963 155.633 85.4131 155.576 85.6159C155.371 87.3461 155.201 89.0801 154.855 90.7896C154.84 91.6245 154.309 92.2516 154.02 93.0256C153.438 92.7167 153.699 91.7414 152.875 91.761C152.304 91.8517 151.763 92.0769 151.296 92.4182V92.4182Z" fill="#030202"/>
<path d="M76.4506 23.5587L75.1328 23.1459C75.0336 23.0896 74.9197 23.0644 74.806 23.0735C74.6923 23.0826 74.5839 23.1256 74.4949 23.197C74.3098 23.3015 74.0941 23.3388 73.8847 23.3023C73.6752 23.2659 73.4848 23.158 73.3459 22.997L71.9549 22.9136C71.7347 22.6333 71.7936 22.2498 71.5935 21.9579C71.473 21.74 71.2815 21.5698 71.0509 21.4759C70.8203 21.3819 70.5644 21.3697 70.3259 21.4413C69.8164 21.596 69.2803 21.6429 68.7517 21.5792C68.2231 21.5154 67.7135 21.3423 67.2554 21.071L66.0419 20.3435C65.8652 20.1813 65.6499 20.0671 65.4165 20.0118C65.183 19.9566 64.9393 19.9621 64.7087 20.028C64.6584 20.4195 64.7272 20.8172 64.9062 21.1691C65.0851 21.521 65.3659 21.8108 65.7119 22.0009C66.0904 22.2111 66.4953 22.3698 66.9159 22.4728C67.9499 22.731 68.9288 23.1737 69.8056 23.7794C70.7189 24.3576 71.8147 24.5754 72.8797 24.3904C73.5953 24.331 74.0434 24.4303 74.1486 25.3344C74.2429 25.7756 74.4527 26.1839 74.7565 26.5175C75.0603 26.851 75.4473 27.0979 75.8779 27.2328C76.1579 27.3059 76.4275 27.4142 76.6803 27.5551C76.6301 29.5634 76.0988 31.466 76.1021 33.4269C77.126 34.2115 78.0128 34.1528 78.5115 33.2674C78.4459 32.6282 78.3802 31.9889 78.3214 31.4174C78.9878 31.5609 79.6915 31.7577 80.4085 31.8424C80.5555 31.8445 80.701 31.8131 80.8341 31.7506C80.9672 31.6882 81.0843 31.5962 81.1766 31.4818C81.2621 31.3565 81.0517 30.9649 80.8937 30.753C80.5695 30.3653 80.2259 29.9943 79.8642 29.6413C80.9611 29.8684 81.8046 30.0457 82.6496 30.2155C82.7881 30.2544 82.9334 30.2633 83.0756 30.2416C83.4108 30.1567 83.7368 30.0359 84.0665 29.9295C83.9258 29.6167 83.7675 29.3122 83.5925 29.0173C82.5901 27.5117 80.7116 27.3499 79.3998 26.3107C79.0993 26.1062 78.7828 25.9262 78.4535 25.7724C78.5063 25.3153 78.4935 24.853 78.4155 24.3994C78.3262 24.2759 78.2108 24.1735 78.0775 24.0996C77.9442 24.0256 77.7963 23.9819 77.6442 23.9716C76.9476 24.5867 76.7082 24.0869 76.4506 23.5587Z" fill="#E7E7E7"/>
<path d="M186.405 115.287C186.395 114.955 186.339 114.626 186.239 114.31C183.669 108.959 180.088 104.297 176.25 99.8209C174.869 98.2093 173.38 96.6894 171.944 95.1243C171.87 95.0204 171.807 94.9094 171.755 94.7929L174.476 93.5578C174.387 93.4434 174.27 93.3539 174.137 93.2979C174.004 93.2418 173.858 93.2212 173.714 93.2379C171.93 93.1553 170.146 93.1035 168.361 93.1899C168.065 93.2043 167.696 93.1591 167.617 93.5996C170.033 96.1002 172.656 98.4351 174.818 101.139C178.465 105.699 181.823 110.491 185.295 115.191C185.854 115.948 185.959 115.972 186.405 115.287Z" fill="#754D33"/>
<path d="M16.3272 39.6701C16.1658 39.4823 15.9401 39.3616 15.6943 39.3317C15.4485 39.3017 15.2004 39.3647 14.9987 39.5083C14.2303 40.0585 14.6266 40.7156 14.9564 41.5234C13.8124 41.0411 13.4386 41.7722 13.1447 42.4868C12.7713 43.3945 13.8968 43.5106 14.1114 44.1853C13.183 44.4662 13.2304 45.0707 13.5584 45.8513C13.6238 46.1881 13.5601 46.5372 13.3801 46.8294C13.1727 47.1045 12.9434 47.3623 12.6943 47.6002C11.9744 48.552 12.1209 49.1237 13.1428 49.7204C13.4055 49.8739 13.5967 50.1252 13.6748 50.4193C13.6727 50.5855 13.7067 50.7501 13.7745 50.9019C13.8423 51.0537 13.9422 51.1889 14.0674 51.2982C14.1926 51.4076 14.34 51.4884 14.4996 51.5352C14.6591 51.5819 14.8268 51.5935 14.9912 51.5691C15.7848 51.549 16.4906 51.4254 16.7751 50.5417C16.8179 50.4087 16.8719 50.2794 16.9983 49.9404C17.5018 50.3523 17.9595 50.8171 18.3638 51.3267C18.491 51.5098 18.6579 51.6619 18.852 51.7717C19.0461 51.8814 19.2625 51.946 19.485 51.9605C19.7076 51.9751 19.9305 51.9393 20.1373 51.8559C20.3441 51.7724 20.5294 51.6433 20.6794 51.4783C20.907 51.2055 20.803 50.656 20.8494 50.2319L20.6178 50.205C20.9277 49.7735 21.2864 49.3792 21.6868 49.03C22.0396 48.822 22.4503 48.7337 22.8575 48.7785C23.688 48.8475 24.5189 49.0864 25.2219 48.4043C25.3835 48.0374 25.1345 47.8477 24.8715 47.7426C24.2832 47.5076 23.7339 47.1806 23.1309 46.9871C21.8847 46.5874 21.0445 46.9903 20.1764 48.3753C19.9773 48.3786 19.883 48.2165 19.758 48.1058C18.6789 47.1505 17.7131 47.1629 16.6343 48.15C16.5283 48.2471 16.4458 48.3681 16.3346 48.4603C16.2752 48.5241 16.1947 48.5641 16.108 48.573C16.0213 48.5818 15.9343 48.559 15.8632 48.5086C15.8018 48.4681 15.7569 48.4071 15.7363 48.3365C15.7158 48.2659 15.7211 48.1903 15.7513 48.1232C16.0146 47.4481 16.0509 46.7056 15.8546 46.008C15.7771 45.6708 16.0305 45.4869 16.2653 45.3107C16.5986 44.9247 16.7963 44.4401 16.828 43.931C16.8898 43.2456 16.7124 42.5599 16.326 41.9904C16.085 41.7479 15.9455 41.4228 15.9358 41.0811C15.9261 40.7394 16.047 40.4069 16.2739 40.1512C16.3298 40.0855 16.3648 40.0045 16.3743 39.9188C16.3838 39.8331 16.3674 39.7464 16.3272 39.6701V39.6701Z" fill="#C6C6C6"/>
<path d="M167.616 93.5997C167.736 93.5343 167.856 93.4101 167.975 93.4123C170.142 93.4519 172.309 93.5067 174.476 93.5581C174.654 93.5593 174.833 93.5605 175.012 93.5618C175.562 93.5595 176.113 93.5573 176.663 93.5552C173.363 92.3172 169.882 92.1447 166.427 91.8723C163.312 91.6267 160.186 91.5102 157.065 91.3341C156.932 91.3202 156.799 91.2992 156.668 91.2713L156.676 90.2286C156.291 91.834 155.88 93.4288 154.761 94.7213C158.161 94.3151 161.558 93.8818 164.963 93.5214C165.848 93.4854 166.735 93.5116 167.616 93.5997V93.5997Z" fill="#C6B2A5"/>
<path d="M62.2551 74.4204L64.2461 74.3389C64.2867 74.3203 64.3215 74.291 64.3468 74.2542C64.372 74.2174 64.3868 74.1743 64.3895 74.1297C63.8446 71.6928 63.4676 69.2214 63.2611 66.7329C63.1483 65.5608 63.1426 64.3809 63.2441 63.2079C63.276 63.0675 63.2762 62.9217 63.2448 62.7812C63.2135 62.6407 63.1512 62.5089 63.0627 62.3954C62.6905 62.0871 62.3293 61.7463 61.78 61.9502L61.0396 61.8319C61.0133 63.2522 60.9885 64.5924 60.9637 65.9323C59.7955 65.6713 58.5665 66.0313 58.1423 66.7586C58.1928 67.3901 58.4377 67.9904 58.8433 68.4771L61.0864 68.0585L62.1166 74.2107L62.2551 74.4204Z" fill="#5D727F"/>
<path d="M114.811 94.2369C115.214 95.6824 115.617 97.128 116.021 98.5735C117.453 102.02 119.885 104.958 123.004 107.008C125.518 108.587 128.308 109.674 131.227 110.212C129.834 109.446 128.428 108.701 127.048 107.911C122.339 105.266 118.54 101.258 116.151 96.4139C115.771 95.6546 115.261 94.961 114.811 94.2369Z" fill="#825B41"/>
<path d="M16.0736 45.2023C15.8714 45.4953 15.7192 45.8198 15.6234 46.1627C15.5481 46.9167 15.5844 47.6818 15.5753 48.4423L15.3014 48.4825L16.1361 49.0092C18.0217 47.1171 18.3969 47.1079 20.3134 48.9292C20.5933 47.9256 21.0397 47.0313 22.2233 47.0898C23.3535 47.1307 24.4257 47.6007 25.2216 48.4043C25.2295 48.1269 25.1961 47.85 25.1225 47.5825C24.9768 47.3486 24.7968 47.1381 24.5884 46.9578C24.0879 46.6193 23.5874 46.2808 23.0869 45.9423C22.3433 46.4497 21.8183 45.9792 21.3607 45.495C21.0931 45.2092 20.8854 44.8726 20.7501 44.5052C20.6147 44.1378 20.5543 43.747 20.5725 43.3559C20.6031 43.1102 20.5361 42.8624 20.3859 42.6655C20.2358 42.4687 20.0144 42.3386 19.7694 42.3031C19.6583 42.274 19.7986 42.3023 19.6866 42.2792C18.2828 41.9904 17.0542 41.4759 16.6194 39.9253C16.5221 39.8402 16.4246 39.7551 16.3271 39.67C16.108 39.9622 15.9227 40.2784 15.7748 40.6123C15.6801 40.9125 15.68 41.2346 15.7746 41.5349C16.0401 42.2897 16.3807 43.0182 16.6915 43.7571C17.6835 43.1155 18.5803 43.5543 18.7022 44.7711C18.758 45.0779 18.8394 45.3795 18.9453 45.6728C19.067 46.1318 18.7303 46.498 18.3445 46.2765C17.7674 45.8335 17.0729 45.5697 16.3471 45.518C16.2515 45.5214 16.1663 45.3112 16.0736 45.2023Z" fill="#D7D7D7"/>
<path d="M90.0609 60.7914C90.2107 61.5402 90.3589 62.2894 90.515 63.0369C90.5229 63.075 90.5986 63.099 90.6288 63.1198L91.7551 59.5014C91.2175 56.7381 89.7365 54.2476 87.5653 52.4557C87.4715 52.3941 87.3701 52.3448 87.2636 52.3091C86.8 52.6121 86.952 53.1199 86.8503 53.5437C86.8289 53.8053 86.8341 54.0685 86.8657 54.3291C86.8898 54.4528 86.9376 54.5705 87.0065 54.6759C87.5204 55.2092 87.972 55.7992 88.3526 56.4345C88.2599 56.697 88.0012 56.6038 87.8414 56.7032C87.3801 56.9247 86.9259 57.1598 86.4849 57.421C86.3818 57.4892 86.3019 57.5872 86.2557 57.7019C86.2095 57.8166 86.1992 57.9426 86.2262 58.0633C86.3624 58.6949 86.697 59.2664 87.1812 59.6943L87.9559 59.7508C88.529 59.8292 88.9384 59.3307 89.4809 59.2976C89.9182 59.7144 89.718 60.3589 90.0609 60.7914Z" fill="#040303"/>
<path d="M16.6194 39.9257C16.649 41.6178 17.8493 42.0703 19.2004 42.3574C19.9438 42.5154 20.4392 42.7328 20.3751 43.7281C20.3726 44.3049 20.549 44.8683 20.8802 45.3405C21.2114 45.8128 21.6809 46.1707 22.2241 46.3649C22.5662 46.4559 23.1438 46.7752 23.0868 45.9427C23.0141 45.6592 22.7858 45.2615 22.8956 45.1121C23.085 44.8567 23.1856 44.5463 23.1821 44.2283C23.1786 43.9103 23.0712 43.6022 22.8763 43.351C22.5052 43.3271 22.1341 43.3031 21.5619 43.2662C22.0932 42.5857 22.5732 42.0076 23.006 41.396C23.1256 41.1601 23.2103 40.908 23.2573 40.6477C22.9921 40.586 22.6908 40.4122 22.4684 40.4837C21.8044 40.6972 21.1714 41.0069 20.4382 41.3161C20.3947 40.875 20.3916 40.4307 20.429 39.989C20.5199 39.4146 20.4651 38.8897 19.9255 38.6567C19.5484 38.4939 18.8927 38.3811 18.6741 38.5836C18.3523 38.9881 18.1502 39.4746 18.0907 39.988C18.0335 40.2473 18.2137 40.559 18.3443 41.0747L16.6194 39.9257Z" fill="#E7E7E7"/>
<path d="M102.104 66.3514C102.487 65.9316 102.87 65.5119 103.253 65.0921C101.49 64.7084 99.7572 64.1939 98.0701 63.553C95.8968 62.5572 93.8811 61.2175 91.798 60.0253C91.6953 60.3248 91.5879 60.623 91.4901 60.9243C91.4363 61.0433 91.4071 61.172 91.4043 61.3026C91.4014 61.4332 91.4249 61.563 91.4734 61.6843C91.5218 61.8056 91.5942 61.9159 91.6863 62.0086C91.7784 62.1012 91.8882 62.1744 92.0092 62.2237C93.4675 62.9526 94.8947 63.7618 96.4028 64.3689C98.267 65.1194 100.2 65.6984 102.104 66.3514Z" fill="#ECE1DA"/>
<path d="M195.029 104.832L195.02 105.09C195.517 103.628 196.042 102.174 196.479 100.695C196.544 100.477 196.267 100.031 196.028 99.8687C192.263 97.2142 188.006 95.3369 183.506 94.3466C182.752 94.1933 182 94.0306 181.247 93.8722C186.098 95.3753 190.348 98.0434 194.581 100.744C194.793 100.891 195.013 101.028 195.239 101.152C195.887 101.475 196.147 101.917 195.738 102.598C195.473 102.902 195.273 103.257 195.151 103.641C195.029 104.025 194.987 104.431 195.029 104.832V104.832Z" fill="#BC9A84"/>
<path d="M130.462 101.652L126.461 101.663C127.699 102.717 128.899 103.796 130.165 104.792C130.905 105.318 131.672 105.805 132.464 106.25C132.879 106.523 133.147 107.297 133.831 106.65C133.053 105.028 132.275 103.406 131.498 101.784C131.377 101.63 131.201 101.531 131.007 101.506C130.813 101.481 130.618 101.534 130.462 101.652V101.652Z" fill="#825A40"/>
<path d="M151.504 98.0756C151.063 98.338 150.622 98.6004 150.181 98.8628C150.223 101.196 151.825 102.468 153.489 103.681C153.883 103.968 154.326 103.962 154.245 103.302C153.991 101.222 153.601 99.1957 151.504 98.0756Z" fill="#D35722"/>
<path d="M73.7646 91.0914L72.7877 90.0438C70.7694 90.4978 69.9331 92.1164 69.1423 93.7683C69.069 93.9213 69.0746 94.263 69.1574 94.3081C69.3551 94.4035 69.5816 94.4207 69.7914 94.3562C71.5173 93.7628 73.0951 92.9753 73.7646 91.0914Z" fill="#835599"/>
<path d="M165.492 76.6278C164.358 76.0294 163.056 75.8311 161.795 76.0651C162.089 76.3527 162.357 76.6667 162.594 77.0032C162.695 77.1782 162.608 77.462 162.606 77.6967C163.093 78.1906 163.745 78.4866 164.437 78.5275C166.225 79.4357 168.012 80.3438 169.799 81.252C167.99 79.5869 166.181 77.9219 164.53 76.4022L165.492 76.6278Z" fill="#ECE1DA"/>
<path d="M194.485 106.71L190.841 103.593L190.59 103.793C190.65 104.082 190.739 104.365 190.856 104.637C191.502 105.821 192.152 107.005 192.855 108.155C193.118 108.481 193.423 108.771 193.762 109.016L194.485 106.71Z" fill="#825B41"/>
<path d="M133.831 106.65C133.376 106.517 132.92 106.384 132.464 106.25C133.101 107.508 133.746 108.763 134.368 110.028C134.482 110.313 134.572 110.607 134.638 110.907C134.982 110.904 135.326 110.9 135.67 110.897C135.625 110.575 135.548 110.258 135.439 109.951C134.923 108.841 134.37 107.749 133.831 106.65Z" fill="#BD9A85"/>
<path d="M35.2619 31.9448C36.8095 30.2454 37.7664 28.0913 37.99 25.8038C38.0844 24.9649 38.1945 24.1277 38.2975 23.2897C37.4948 25.6747 36.6983 28.0618 35.8843 30.4429C35.7094 30.9547 35.471 31.4447 35.2619 31.9448Z" fill="#EF6D35"/>
<path d="M130.462 101.652L131.498 101.784C131.013 100.79 130.529 99.7956 130.045 98.8017L129.874 98.7333C129.727 98.5752 129.53 98.4728 129.316 98.4436C129.102 98.4144 128.885 98.4601 128.701 98.573C129.055 99.373 129.381 100.187 129.777 100.965C129.969 101.228 130.2 101.46 130.462 101.652V101.652Z" fill="#BC9A84"/>
<path d="M86.9986 53.6878L87.2632 52.3091L87.1556 52.0773L86.9692 52.0609C86.4912 51.8238 85.9476 51.7537 85.4251 51.8617C85.5208 52.2703 85.7138 52.6498 85.9878 52.9678C86.2618 53.2857 86.6086 53.5327 86.9986 53.6878V53.6878Z" fill="#353F46"/>
<path d="M42.4341 35.6193L44.1501 36.4105C44.1532 36.3828 44.1352 36.5411 44.1172 36.6993C44.5017 36.3959 44.8863 36.0926 45.2708 35.7893C44.3251 35.7326 43.3796 35.676 42.4341 35.6193Z" fill="#D6CECB"/>
<path d="M61.7803 61.95L63.0591 62.5354C63.652 63.2532 64.4185 63.8075 65.2859 64.1456C65.9999 64.1853 65.9065 63.6073 66.0199 63.1872C66.3708 62.3453 67.0802 61.7019 67.2189 60.7249C67.5152 58.6375 66.7785 56.8753 65.6701 55.2006C65.3435 54.7793 65.0462 54.3361 64.7803 53.8741C65.4282 53.6107 66.109 53.437 66.8039 53.3579C69.2825 52.9733 71.116 51.5299 72.7169 49.7277C73.0108 49.3969 73.3181 48.9513 72.7218 48.5603C70.1553 48.1193 67.6621 47.2286 65.0081 47.329C64.3204 47.3525 63.6382 47.46 62.9765 47.649C61.6081 48.2684 60.249 48.9273 58.6725 48.6661C56.6599 48.3488 54.7231 47.6631 52.9592 46.6433C52.6686 46.4846 52.4678 46.631 52.3112 46.8575C51.743 47.572 51.0225 48.1505 50.2022 48.551C50.4895 49.3642 50.7768 50.1774 51.0641 50.9907C51.4888 50.9568 51.7406 51.2809 52.0257 51.4944C54.3668 53.212 56.9434 54.583 59.676 55.565C60.0235 55.6945 60.4565 55.7971 60.4507 56.2565C60.4404 56.4747 60.3563 56.6828 60.2123 56.8469C60.0682 57.011 59.8726 57.1212 59.6577 57.1596C59.6043 57.181 59.5494 57.198 59.4934 57.2107C57.4823 57.4789 55.4485 57.5346 53.4258 57.3767C52.931 57.7382 52.9538 58.1628 53.4 58.4938C53.9048 58.9047 54.4674 59.2389 55.0697 59.4857C56.6616 60.0459 58.2979 60.4789 59.895 61.0256C60.5431 61.2919 61.1729 61.6007 61.7803 61.95V61.95Z" fill="#A1B1BB"/>
<path d="M67.1571 45.8733C66.5353 45.4423 65.9481 44.9635 65.4007 44.4412C64.2978 43.1048 62.8181 42.1314 61.1542 41.6476C59.4368 41.2095 57.7086 40.8137 55.9851 40.3993C56.9117 41.2885 57.8096 42.2102 58.7717 43.059C60.1305 44.2182 61.8015 44.9498 63.5748 45.162C64.5326 45.3048 65.4669 45.602 66.4155 45.8127C66.6609 45.8504 66.9087 45.8707 67.1571 45.8733V45.8733Z" fill="#D8E4EB"/>
<path d="M53.425 57.3769C53.5648 57.4848 53.7065 57.6886 53.8442 57.6859C55.5923 57.652 57.3409 57.6077 59.0869 57.5176C59.4879 57.5039 59.8762 57.3736 60.2042 57.1426C60.3611 57.0287 60.4919 56.8826 60.5878 56.7142C60.6838 56.5457 60.7427 56.3587 60.7607 56.1657C60.6856 55.9904 60.5736 55.8333 60.4323 55.7052C60.2911 55.5771 60.1239 55.4809 59.9421 55.4232C57.081 54.407 54.3874 52.9701 51.9499 51.1597C51.7442 51.0043 51.4706 50.4018 51.0633 50.9911C53.1362 54.1524 56.188 55.8068 59.783 56.7661C58.8234 56.8416 57.8624 56.9031 56.9044 56.9963C55.7432 57.1092 54.5847 57.2488 53.425 57.3769Z" fill="#9DADB7"/>
<path d="M52.7641 37.9426C53.6539 37.1752 54.5738 36.439 55.4198 35.6261C55.8029 35.258 56.3959 34.5139 56.2782 34.3261C55.8567 33.6537 55.0772 33.9616 54.6096 34.3148C53.3421 35.2724 52.1649 36.3494 50.9519 37.3791C49.6237 39.0252 48.6118 40.9032 47.9677 42.9179C49.5624 41.2638 51.1612 39.6054 52.7641 37.9426Z" fill="#FDFEFE"/>
<path d="M62.9763 47.6491C64.5704 47.6994 66.1745 47.6567 67.7555 47.8275C69.1949 47.983 70.6084 48.3747 72.0355 48.651C72.2876 48.6854 72.5415 48.7045 72.7959 48.7083C73.1323 48.6813 73.3525 49.3418 73.765 48.8713C73.9615 48.184 74.164 47.4966 73.6554 46.8469C72.8696 46.3901 71.967 46.1741 71.0596 46.2258C70.6395 46.2132 70.2218 46.1472 69.8002 46.1528L69.2407 46.1549C67.9443 46.341 66.6328 46.4581 65.357 46.7379C64.5408 46.9788 63.7448 47.2835 62.9763 47.6491V47.6491Z" fill="#B1C1CB"/>
<path d="M58.8431 68.4777C58.6093 67.905 58.3756 67.3322 58.1419 66.7593C58.0894 66.8249 58.0166 66.9563 57.9867 66.9472C56.1674 66.3927 54.8394 67.3418 53.5547 68.3981C53.111 68.7586 52.7184 69.1777 52.3877 69.644C54.4238 70.1342 56.3679 70.3129 58.1142 68.9056C58.346 68.7447 58.5897 68.6016 58.8431 68.4777V68.4777Z" fill="#A6C5D0"/>
<path d="M50.2016 48.5509C51.2531 48.4857 51.8366 47.7253 52.4599 47.0265C52.5703 46.9029 52.6637 46.7641 52.765 46.6324C52.8897 46.5557 52.9441 46.4595 52.8504 46.3226C52.7698 46.2922 52.6875 46.2654 52.6087 46.2308C50.5601 45.3331 50.0976 46.2685 50.1817 48.1221C50.1882 48.265 50.1948 48.408 50.2016 48.5509Z" fill="#898E90"/>
<path d="M52.8505 46.3224C52.8221 46.4258 52.7937 46.5291 52.7652 46.6323C53.3148 47.0076 53.8925 47.3399 54.4931 47.6263C55.8349 48.1536 57.154 48.8274 58.672 48.6658C56.7315 47.8847 54.791 47.1036 52.8505 46.3224Z" fill="#B1C1CB"/>
<path d="M76.102 33.4271C76.2101 33.294 76.4228 33.1494 76.4098 33.0295C76.2004 32.1566 76.3438 31.2363 76.8088 30.4685C76.856 30.3649 76.8822 30.2529 76.8861 30.1391C76.89 30.0253 76.8714 29.9119 76.8315 29.8053C76.6764 29.4151 76.6418 28.9874 76.7321 28.5773C76.8225 28.1672 77.0336 27.7937 77.3383 27.5048C75.7481 26.9399 74.03 26.5293 74.3387 24.1956C73.627 24.1883 72.9258 24.1605 72.2259 24.1789C71.19 24.1855 70.1806 23.8516 69.353 23.2287C68.6549 22.7837 67.8815 22.4698 67.0707 22.3025C66.5017 22.2078 65.9719 21.9514 65.5446 21.564C65.1172 21.1765 64.8103 20.6743 64.6605 20.1172C64.665 19.7326 64.3912 19.6353 64.0918 19.5634C62.9338 19.4736 61.7869 19.2743 60.6665 18.9683C60.4347 19.2762 60.2186 19.3217 59.8262 19.1291C58.9487 18.6984 58.5001 18.8983 58.2158 19.8179C58.1978 19.9235 58.157 20.0238 58.0962 20.1119C58.0354 20.2001 57.9561 20.2739 57.8639 20.3282C57.7716 20.3826 57.6686 20.4161 57.5621 20.4266C57.4555 20.437 57.348 20.4241 57.2469 20.3886C56.7692 20.2991 56.305 20.1485 55.8657 19.9405C55.5872 19.8126 55.3207 19.6023 54.9826 19.7639C54.7229 19.9056 54.5056 20.1138 54.3529 20.3672C54.2003 20.6206 54.1178 20.91 54.1139 21.2058C54.0039 22.7846 52.9009 23.7212 51.23 23.8281C49.6891 23.9267 48.1426 23.9544 46.6059 24.0938C45.8382 24.2109 45.0788 24.3776 44.3326 24.5927C44.6172 25.8257 44.9342 26.8996 44.1522 27.8851C44.1088 27.9397 44.1502 28.1331 44.2153 28.1913C44.5687 28.5378 44.833 28.9646 44.9857 29.4354C45.1384 29.9062 45.175 30.4069 45.0923 30.8948C46.4743 30.7007 47.8818 30.9676 49.0968 31.6542C49.1882 31.7011 49.3885 31.5338 49.5389 31.4678C50.0855 31.2281 50.6417 31.0079 51.1751 30.7418C51.439 30.6103 51.8172 30.4354 51.8757 30.2104C52.1638 29.101 52.9851 28.7945 53.9582 28.7403C54.6769 28.7003 55.1569 28.5478 55.45 27.7562C55.7637 26.909 57.2158 26.6722 58.5527 26.8497C59.8097 27.1191 60.9966 27.6482 62.0372 28.4033C62.3131 28.624 62.6549 28.7462 63.0083 28.7502C63.3616 28.7543 63.7061 28.6401 63.9871 28.4257C65.6309 27.3209 68.2706 27.9968 69.3729 29.6879C69.8107 30.3595 70.1428 30.8604 71.1762 30.3677C72.4521 29.7594 73.9399 30.7383 74.244 32.1431C74.3098 32.4469 74.3455 32.7572 74.395 33.0643C74.8098 32.9167 75.2247 32.7693 75.6487 32.6186L76.102 33.4271Z" fill="#D7D7D7"/>
<path d="M61.5531 30.7104C60.2077 30.2965 59.1464 30.7801 58.7939 31.9676C58.6949 32.5213 58.8082 33.092 59.111 33.566C59.4139 34.0401 59.8842 34.3827 60.4282 34.5256C60.9913 34.6151 61.5681 34.514 62.0671 34.2384C62.5662 33.9627 62.9589 33.5283 63.183 33.0041C63.4664 32.0629 62.7716 31.0852 61.5531 30.7104Z" fill="#FEFEFE"/>
<path d="M82.0218 47.0175C82.6182 44.9948 81.3977 41.8392 79.6912 41.0278C79.6338 41.0756 79.527 41.1189 79.5132 41.1824C79.0871 43.1441 78.7727 45.093 80.0928 46.8844C80.2071 47.1104 80.2849 47.353 80.3233 47.6033C80.3506 47.6336 80.378 47.6639 80.4052 47.6945C80.7083 47.7111 81.0112 47.6588 81.2912 47.5415C81.5712 47.4243 81.821 47.2451 82.0218 47.0175V47.0175Z" fill="#CA6438"/>
<path d="M69.8007 46.1526L73.6919 46.9957C73.808 47.1978 73.9992 47.3459 74.224 47.4075C75.6339 47.8901 76.9978 48.4977 78.2996 49.2229C78.683 49.3344 79.0783 49.3998 79.4771 49.4177C80.6876 49.5459 80.8029 49.4242 80.5846 48.2588C80.5743 48.0369 80.5332 47.8176 80.4624 47.6071C80.4169 47.622 80.3676 47.6209 80.3229 47.6038C80.0395 47.6276 79.6854 47.7738 79.4829 47.657C77.2898 46.4259 74.7824 45.8688 72.2744 46.0553C71.4502 46.0962 70.6252 46.1206 69.8007 46.1526Z" fill="#B9CFDC"/>
<path d="M80.3749 48.1865L80.5388 49.2939L78.5307 49.0607C78.4425 49.571 78.8984 49.6342 79.1797 49.8025C80.0333 50.3134 80.9096 50.7861 81.7581 51.3062C83.2056 52.3614 84.9245 52.9804 86.3078 54.1408C86.3917 54.2386 86.5001 54.3122 86.6219 54.3542C86.7436 54.3962 86.8744 54.405 87.0007 54.3796C87.0001 54.149 86.9996 53.9185 86.999 53.6879C86.4604 53.0956 85.922 52.5032 85.3836 51.9109C85.183 51.1139 84.3574 50.9007 83.9105 50.3338L82.8085 49.6338C82.5416 49.2216 82.1831 48.8765 81.761 48.6255C81.3389 48.3745 80.8646 48.2243 80.3749 48.1865V48.1865Z" fill="#5D727F"/>
<path d="M80.3747 48.1861L82.8082 49.6334C83.3504 48.7131 82.6651 47.9444 82.4761 47.118C82.4612 47.0533 82.1794 47.0498 82.0216 47.0177C81.5015 47.2142 80.9815 47.4106 80.4618 47.6071C80.433 47.8 80.404 47.993 80.3747 48.1861Z" fill="#191D20"/>
<path d="M62.9242 37.1065C63.4426 37.0981 64.0317 37.0605 64.1148 36.343C64.1462 36.2152 64.148 36.082 64.1199 35.9534C64.0919 35.8249 64.0348 35.7045 63.9531 35.6014C63.8713 35.4983 63.7671 35.4153 63.6483 35.3587C63.5296 35.3021 63.3994 35.2734 63.2679 35.2749C63.0459 35.2929 62.8312 35.3622 62.6406 35.4773C62.4499 35.5924 62.2886 35.7502 62.1694 35.9383C61.9803 36.4166 62.2194 36.9603 62.9242 37.1065Z" fill="#FDFEFE"/>
<path d="M83.9103 50.3339C84.4014 50.8595 84.8924 51.3852 85.3835 51.9109C85.912 51.961 86.4406 52.0111 86.9692 52.0612L83.9103 50.3339Z" fill="#23282B"/>
<path d="M73.6222 48.9677C73.347 48.8813 73.0718 48.7949 72.7966 48.7085C72.7137 49.0166 72.7241 49.4096 72.5331 49.6197C70.8548 51.4666 68.9468 52.9333 66.3469 53.2263C65.681 53.336 65.0214 53.4807 64.3707 53.6598C64.9648 54.5829 65.5546 55.4219 66.0647 56.3068C67.3815 58.5911 67.5847 60.8527 65.8032 63.0263C65.9836 63.3222 66.2402 63.5641 66.5461 63.727C68.035 64.8059 69.3858 66.0636 70.5681 67.4718C71.8767 68.9578 73.3089 70.3302 74.8495 71.5741C74.9347 71.5975 75.0257 71.5886 75.1047 71.5489C77.5214 70.2758 79.6717 68.5513 81.4392 66.4687C82.6877 64.9251 83.667 63.1637 84.7663 61.4994C84.2925 61.2096 83.8232 61.4754 83.3568 61.5236C82.5885 61.6637 81.8053 61.7041 81.0267 61.6438C81.0007 61.4876 81.0209 61.3272 81.0848 61.1824C81.1486 61.0375 81.2534 60.9144 81.3863 60.8283C82.4456 59.7818 83.4925 58.7098 85.0573 58.431C85.2836 58.3907 85.5067 58.3105 85.5557 58.0305C85.5282 57.8892 85.4698 57.7557 85.3845 57.6397C85.2993 57.5237 85.1894 57.4281 85.0628 57.3596C82.2791 55.2367 79.6032 52.9808 76.8974 50.7615C75.9675 49.9064 74.8434 49.2908 73.6222 48.9677V48.9677Z" fill="#ACBDC8"/>
<path d="M75.1045 71.5493C75.0528 71.5324 75.0008 71.5161 74.9487 71.5003C74.2763 71.6293 73.6519 71.9396 73.1432 72.3978C73.1113 72.4747 73.1014 72.5589 73.1146 72.6411C74.5828 74.8485 76.2135 76.9371 77.8311 79.0343C78.5522 79.9691 79.2854 80.8976 80.0864 81.7675C80.2921 81.9909 80.4555 82.3075 80.8463 82.2506C81.1339 81.8917 80.8944 81.5412 80.8235 81.1908C80.6301 80.7132 80.5888 80.1875 80.7052 79.6856C81.9908 80.2593 83.018 81.2895 83.588 82.5768C83.7197 82.9162 83.7172 83.3225 84.058 83.5631C85.025 83.6977 85.0566 84.6155 85.5826 85.2839C86.2583 84.6964 86.9827 84.0666 87.7072 83.4368C85.5743 81.7415 83.3289 80.1674 81.3396 78.3178C79.2391 76.3649 77.3812 74.1507 75.4232 72.0452C75.3021 71.8899 75.1955 71.7239 75.1045 71.5493Z" fill="#C6B2A5"/>
<path d="M98.6696 68.0045C98.7778 67.4745 98.8861 66.9445 98.9944 66.4143C98.2364 65.8944 97.3734 65.5475 96.4664 65.3984C95.5594 65.2493 94.6308 65.3015 93.7462 65.5514C93.3649 65.6533 92.9891 65.7751 92.6205 65.9162C93.3606 67.0983 96.1779 68.841 98.6696 68.0045Z" fill="#D35722"/>
<path d="M85.4638 58.0909C83.556 58.3856 82.2136 59.5694 81.0083 60.952C80.8629 61.1768 80.7499 61.421 80.6726 61.6773C80.9379 61.8024 81.223 61.8803 81.515 61.9076C82.6018 61.8051 83.6828 61.6408 84.766 61.4994L85.0333 61.2258C85.7542 60.3884 86.1801 59.3373 86.2453 58.2342C86.0533 57.8138 85.7653 57.9155 85.4638 58.0909Z" fill="#A6C5D0"/>
<path d="M86.1626 58.1319C85.7863 59.1631 85.4099 60.1944 85.0336 61.2258C85.7494 60.7154 86.4653 60.205 87.1811 59.6945C86.9064 59.1349 86.6317 58.5752 86.357 58.0155C86.2371 57.9622 86.16 57.9804 86.1626 58.1319Z" fill="#CAE5DE"/>
<path d="M90.0609 60.7914L89.7808 58.8713L87.9559 59.7509C88.4064 60.0382 88.8446 60.3485 89.3131 60.6027C89.5534 60.6971 89.8046 60.7605 90.0609 60.7914V60.7914Z" fill="#E7DCD5"/>
<path d="M54.9829 19.764C55.5314 20.05 56.0993 20.2971 56.6825 20.5036C57.2164 20.612 57.7588 20.6732 58.3035 20.6865C58.4783 18.8361 58.8118 18.7192 60.5141 19.7564L60.6734 19.0199C61.3613 17.9693 61.3614 17.969 62.6535 18.2217C62.8393 18.2907 63.0447 18.2841 63.2256 18.2032C63.4081 17.4358 62.7249 17.3021 62.3162 17.2172C61.5019 17.0529 60.6696 16.996 59.8405 17.048C57.9261 17.1626 57.3546 17.8597 57.4266 19.903C56.4161 19.2513 55.3964 18.7876 54.1845 19.1189C53.8682 19.1556 53.5703 19.2868 53.3296 19.4953C53.0889 19.7038 52.9166 19.98 52.8352 20.2878C52.7052 20.9349 52.3139 21.0258 51.7706 20.9503C50.8787 20.7619 49.9714 20.6546 49.0601 20.6299C48.5016 20.6555 47.9665 21.1142 47.4132 21.3613C47.1306 21.4875 46.8145 21.697 46.542 21.6599C45.529 21.5219 44.5639 21.393 43.6878 22.1486C43.4667 22.3393 43.0369 22.3116 42.6993 22.3392C42.1614 22.3287 41.6363 22.5039 41.2125 22.8353C40.7886 23.1668 40.492 23.6341 40.3725 24.1587C40.0454 24.8888 39.7654 25.6391 39.5343 26.4051C39.4676 27.0785 39.4971 27.758 39.622 28.423C39.628 28.4845 39.918 28.5182 40.076 28.5648C40.0711 28.007 39.9487 27.3904 40.7434 27.2316C40.7682 27.2267 40.8077 27.1987 40.8079 27.1811C40.8281 25.5163 41.9061 26.6417 42.5854 26.4882C42.0985 25.7426 41.2192 25.0318 42.0346 24.0169C42.2857 23.6981 42.6339 23.4698 43.0265 23.3667C43.419 23.2636 43.8344 23.2913 44.2098 23.4456C44.7813 22.0774 45.0722 22.0482 46.7369 23.1824C48.6496 21.9828 50.7681 22.4457 52.9075 22.4095C52.8629 22.0293 52.6807 21.5705 52.8054 21.2213C52.9232 20.8913 53.3636 20.6765 53.7767 20.309C53.8384 19.4273 54.0482 19.2974 54.9829 19.764Z" fill="#B8400D"/>
<path d="M67.2554 21.0707C67.9766 22.0241 68.9952 21.9617 69.9706 21.7509C71.1549 21.4951 71.2715 21.5126 71.6333 22.7244C71.6593 22.8116 71.8439 22.8515 71.9547 22.9133C72.343 21.4932 71.7497 20.6354 70.278 20.6762C69.2641 20.7531 68.255 20.8848 67.2554 21.0707V21.0707Z" fill="#B84210"/>
<path d="M63.2256 18.2031C62.8545 18.0612 62.4749 17.9423 62.0892 17.847C61.1742 17.6744 60.7402 18.0504 60.6734 19.0198C61.7047 19.7501 62.8934 19.691 64.0691 19.6971C64.2542 19.3038 64.2502 18.9551 63.8341 18.7041L63.2256 18.2031Z" fill="#E6E5E4"/>
<path d="M63.8341 18.7045C63.9124 19.0355 63.9908 19.3665 64.0691 19.6975L64.6605 20.1175C65.1209 20.1928 65.5812 20.2681 66.0416 20.3435C65.829 19.9156 65.5182 19.544 65.1345 19.2591C64.7508 18.9743 64.3052 18.7842 63.8341 18.7045V18.7045Z" fill="#BE5123"/>
<path d="M73.3458 22.9968C73.4247 23.5985 73.7266 23.7568 74.2758 23.4871C74.5509 23.352 74.8464 23.2581 75.1327 23.1456C74.913 22.8928 74.6032 22.7358 74.2695 22.708C73.9357 22.6802 73.6043 22.7838 73.3458 22.9968V22.9968Z" fill="#BB4919"/>
<path d="M154.471 82.1622C155.108 81.3392 155.567 82.1635 156.204 82.3832C156.645 80.0728 157.227 77.8225 158.933 76.082C158.398 75.9964 157.868 75.8829 157.345 75.7419C153.321 74.4453 149.324 73.0573 145.275 71.8456C142.704 71.0416 140.082 70.4147 137.425 69.9693C133.842 69.4154 130.22 69.0309 126.6 68.8297C123.201 68.6407 119.783 68.8362 116.375 68.7618C114.494 68.7207 112.617 68.4725 110.739 68.3177C109.906 68.4062 109.289 68.9777 108.557 69.2918C108.171 69.4575 107.817 69.7361 107.374 69.6446C107.121 69.2363 107.37 68.9469 107.501 68.6415C107.637 68.3264 107.84 68.0148 107.511 67.6938C106.521 67.0919 105.341 67.1785 104.291 66.7982L99.4339 72.5265C99.8112 72.7943 100.087 73.1814 100.218 73.6254C100.349 74.0693 100.326 74.5443 100.154 74.9738C99.7331 75.3719 100.105 75.7188 100.25 76.0531C100.57 76.7742 100.718 77.5596 100.682 78.3476C100.647 79.1356 100.429 79.9045 100.045 80.5938C99.9771 80.6189 99.9019 80.6165 99.8355 80.5872C99.7691 80.5578 99.7167 80.5038 99.6894 80.4365C98.9639 79.0945 98.1917 77.7559 98.5852 76.1338C98.7029 75.6484 98.6073 75.3086 98.1456 75.0956L98.0152 74.494C95.5118 77.529 93.0461 80.5183 90.5625 83.5293L91.8732 84.1891C91.9636 84.78 92.4537 84.7973 92.8628 84.7909C94.6575 84.7627 95.8041 85.917 96.9944 86.9957C97.1217 87.1132 97.2227 87.2563 97.2906 87.4157C97.3585 87.5751 97.3919 87.747 97.3885 87.9203C98.9835 88.8342 100.802 89.2838 102.64 89.2181C104.449 89.1617 106.252 88.9702 108.033 88.6451C109.116 88.4475 110.121 87.9471 110.932 87.2018C111.742 86.4565 112.325 85.4968 112.612 84.434C113.13 82.912 113.688 81.404 114.229 79.8897C114.272 79.5511 114.315 79.2126 114.359 78.8741C114.457 78.6971 114.618 78.5628 114.81 78.4971C115.001 78.4313 115.211 78.4387 115.397 78.5179C117.028 79.0025 118.625 79.5963 120.287 79.9774C120.8 80.0949 120.991 80.5423 121.163 80.9751C121.719 82.3737 122.511 83.653 123.187 84.9908C123.274 85.2384 123.451 85.4441 123.683 85.5672C124.61 86.7688 125.761 87.7789 127.074 88.5411C129.619 89.934 132.343 90.9734 135.169 91.6306C136.359 91.8995 137.679 91.5782 138.94 91.5414C142.813 91.4283 146.687 91.3194 150.56 91.2147C150.77 90.8678 150.562 90.5482 150.484 90.2267C150.271 89.1641 150.265 88.0705 150.467 87.0056C150.792 86.8806 150.944 86.9763 151.049 87.112C151.954 88.2756 152.78 89.4707 152.7 91.0537C152.687 91.3095 152.485 91.699 152.988 91.7728C153.33 91.5267 153.754 91.4197 154.172 91.4733C154.545 91.4757 155.006 91.5368 155.02 90.9373L155.992 84.6805C154.981 84.4206 154.183 84.0775 153.821 83.143C153.737 83.0257 153.629 82.9275 153.504 82.8548C153.38 82.7821 153.241 82.7365 153.098 82.7211C151.413 82.2491 150.646 80.8542 149.755 79.5357C151.189 78.9106 153.607 80.2998 154.471 82.1622Z" fill="#DACFC8"/>
<path d="M123.684 85.5674C122.836 83.8369 122.014 82.0923 121.116 80.3884C120.876 80.0575 120.529 79.8201 120.134 79.7168C118.49 79.1872 116.825 78.7251 115.175 78.2145C114.529 78.0147 114.204 78.1259 114.359 78.8745C116.509 79.9134 118.664 80.9411 120.806 81.996C121.836 82.5034 121.898 83.6386 122.304 84.5249C123.38 86.8714 124.363 89.26 125.405 91.622C125.927 92.8042 126.498 93.9648 127.046 95.1351C127.192 95.3087 127.396 95.423 127.621 95.4564C127.845 95.4899 128.074 95.4402 128.264 95.3167C127.494 93.6477 126.732 91.9746 125.951 90.3108C125.206 88.7246 124.44 87.1481 123.684 85.5674Z" fill="#BC9984"/>
<path d="M128.264 95.317C127.858 95.2565 127.452 95.196 127.046 95.1355C126.16 95.1797 125.271 95.1905 124.39 95.2864C124.085 95.3197 123.62 95.5093 123.555 95.7254C123.519 95.9047 123.55 96.0911 123.643 96.2485C123.737 96.4059 123.885 96.5229 124.06 96.5769C125.618 97.2169 127.156 97.9039 128.701 98.5732C129.092 98.6268 129.483 98.6803 129.874 98.7337C129.337 97.5948 128.8 96.4559 128.264 95.317Z" fill="#825A40"/>
<path d="M97.3888 87.9203C97.8584 87.6742 97.7135 87.3515 97.4375 87.0991C96.0957 85.8721 94.8408 84.4879 92.7726 84.5635C92.451 84.4997 92.1454 84.3725 91.8736 84.1892C91.6587 84.8988 91.4438 85.6083 91.2291 86.3176C91.3761 86.3075 91.5994 86.2304 91.6582 86.2975C93.2217 88.0801 95.3087 87.9845 97.3888 87.9203Z" fill="#D35721"/>
<path d="M158.981 87.3634L159.568 88.9637C162.177 89.0539 165.273 87.5829 165.692 85.9322C163.235 85.4871 160.903 85.3658 158.981 87.3634Z" fill="#C9E5DE"/>
<path d="M164.437 78.5277C163.827 78.2501 163.217 77.9728 162.607 77.6959C162.389 77.9476 162.172 78.1986 161.955 78.4489C162.031 79.0453 162.204 79.6252 162.467 80.1657C163.348 81.3907 164.709 81.931 166.19 82.3505C166.015 80.9257 165.403 79.5901 164.437 78.5277Z" fill="#D35722"/>
<path d="M107.611 67.8841C107.422 68.2029 107.265 68.5388 107.139 68.8873C107.092 69.2063 107.083 69.5299 107.113 69.8511C107.414 69.8863 107.719 69.8656 108.012 69.79C108.938 69.3347 109.833 68.8139 110.739 68.3178C111.088 67.7783 111.434 67.2362 111.789 66.7007C111.907 66.5233 112.05 66.363 112.182 66.1949L110.893 64.9179C110.131 65.11 109.414 65.4525 108.786 65.9254C108.316 66.531 107.7 67.0498 107.611 67.8841Z" fill="#C9E5DE"/>
<path d="M98.1462 75.0957C98.2709 75.4255 98.3365 75.7748 98.3401 76.1274C98.0402 77.7649 98.9096 80.3218 100.207 81.1565C100.804 79.4331 101.365 77.7837 100.485 76.0075C100.348 75.6722 100.237 75.3266 100.154 74.9741C99.485 75.0145 98.8156 75.0551 98.1462 75.0957Z" fill="#835599"/>
<path d="M80.8551 82.2615C81.2934 82.7982 81.7413 83.3275 82.1662 83.8746C82.3929 84.1665 82.58 84.4892 82.785 84.798C83.2093 84.3864 83.6336 83.9749 84.0579 83.5633C83.8031 81.4255 82.321 80.3366 80.5394 79.2954C80.102 80.465 80.8287 81.3271 80.8551 82.2615Z" fill="#C9E5DE"/>
<path d="M66.5527 78.155C67.8111 79.8148 69.5399 79.9439 71.6634 79.749C70.7827 78.5377 70.004 77.5932 68.7632 77.154C68.0807 76.9124 67.2438 77.0875 66.7312 76.3919C66.6719 76.9797 66.6124 77.5674 66.5527 78.155Z" fill="#84579A"/>
<path d="M108.945 65.9468C109.595 65.6037 110.244 65.2605 110.893 64.9174L111.44 63.7969C109.42 63.4372 107.516 63.67 105.913 65.1832C105.57 65.6941 106.034 65.8024 106.321 65.8527C107.176 66.089 108.075 66.1212 108.945 65.9468V65.9468Z" fill="#FDFDFD"/>
<path d="M108.945 65.9475C108.165 65.8624 107.378 65.8115 106.608 65.6726C106.355 65.6271 106.144 65.3533 105.913 65.1838L104.291 66.7986C104.665 67.0225 105.057 67.2146 105.464 67.3727C106.166 67.5859 106.894 67.7181 107.611 67.8843C108.055 67.2387 108.5 66.5931 108.945 65.9475Z" fill="#ECE1DA"/>
<path d="M113.203 65.6451C113.327 65.7401 113.45 65.9175 113.574 65.9173C114.704 65.9156 115.835 65.8831 117.012 65.8586L116.372 65.3655L114.19 64.4193L113.203 65.6451Z" fill="#F9F9F9"/>
<path d="M152.887 91.7746C153.191 89.9498 152.412 88.4736 151.345 87.1089C151.102 86.8871 150.826 86.7052 150.526 86.5701C150.392 86.8736 150.126 87.1867 150.147 87.4788C150.239 88.7276 150.415 89.9702 150.561 91.215C150.805 91.6162 151.05 92.0174 151.295 92.4187L152.869 91.9179C152.935 91.8937 152.959 91.8644 152.942 91.83C152.938 91.8173 152.93 91.8059 152.92 91.7963C152.911 91.7868 152.899 91.7794 152.887 91.7746V91.7746Z" fill="#C9E5DE"/>
<path d="M195.029 104.832C195.265 104.087 195.502 103.343 195.739 102.598C194.072 101.848 192.405 101.098 190.738 100.348L190.686 100.471L195.029 104.832Z" fill="#825B41"/>
<path d="M154.471 82.1623C154.422 81.7892 154.311 81.4268 154.144 81.0899C153.133 79.7261 150.722 78.7854 149.35 79.2489C150.391 81.1055 151.498 82.7963 153.821 83.1431C154.038 82.8162 154.254 82.4892 154.471 82.1623Z" fill="#835699"/>
<path d="M152.887 91.7744C152.88 91.822 152.874 91.8698 152.869 91.9177C153.069 92.1076 153.248 92.3191 153.402 92.5483C153.558 92.9049 153.689 93.272 153.794 93.6469C154.445 92.8741 154.87 91.9363 155.02 90.9373C154.606 91.0874 154.174 91.1822 153.735 91.2193C153.257 91.1999 152.995 91.319 152.887 91.7744Z" fill="#C3B0A3"/>
<path d="M16.0733 45.2029C16.026 45.6263 16.095 46.0399 16.6334 45.8598C16.8261 45.7751 17.0429 45.763 17.2438 45.8256C17.4447 45.8882 17.6162 46.0212 17.7267 46.2003C17.7929 46.3046 17.8803 46.3939 17.9831 46.4623C18.086 46.5307 18.2021 46.5767 18.3239 46.5973C18.4457 46.618 18.5705 46.6128 18.6901 46.5821C18.8098 46.5514 18.9217 46.4959 19.0185 46.4193C19.1055 46.3527 19.1756 46.2666 19.2233 46.168C19.2709 46.0694 19.2948 45.961 19.293 45.8515C19.2912 45.742 19.2638 45.6345 19.2129 45.5375C19.162 45.4405 19.0891 45.3569 19 45.2932C18.9284 45.2211 18.8594 45.0588 18.8925 44.9835C19.2883 44.0835 18.3133 43.8066 18.0533 43.2075C17.8431 42.7231 17.1051 43.0266 16.6913 43.7578C16.4853 44.2395 16.2793 44.7212 16.0733 45.2029Z" fill="#E7E7E7"/>
<path d="M64.3138 74.1651C66.1774 73.9516 68.0528 73.8077 69.9005 73.4988C71.0118 73.2484 72.1063 72.9287 73.1777 72.5416C73.1907 72.4942 73.2033 72.4468 73.2156 72.3996C73.2265 72.1131 73.0357 71.9247 72.8773 71.7258C71.1122 69.3961 69.1595 67.2146 67.0388 65.2032C66.5343 64.7044 65.9547 64.2879 65.3211 63.9688L63.059 62.536C62.8404 66.2347 63.1806 69.9453 64.0681 73.5427C64.1327 73.7565 64.2149 73.9647 64.3138 74.1651V74.1651Z" fill="#B9CFDC"/>
<path d="M86.1625 58.1315L86.3569 58.0152C86.4216 57.8558 86.4863 57.6965 86.551 57.5372C86.7984 57.0349 86.9058 56.4752 86.862 55.917C86.8522 55.8339 86.8319 55.7525 86.8015 55.6746C85.3841 54.0606 83.7814 52.6192 82.0265 51.3803C81.9511 51.3247 81.7905 51.3184 81.8498 51.1523C80.9909 50.6403 80.1281 50.1346 79.2754 49.6124C79.0128 49.4515 78.7778 49.2455 78.5304 49.0603C76.9178 48.3722 75.305 47.684 73.692 46.9957L73.622 48.9673C77.8933 51.2617 81.1359 54.9158 85.0801 57.643C85.2267 57.7751 85.3557 57.9256 85.464 58.0906L86.1625 58.1315Z" fill="#B3C4CF"/>
<path d="M81.8499 51.1524C81.826 51.2189 81.7638 51.3278 81.7837 51.3456C83.4278 52.8239 85.0761 54.2977 86.7285 55.7669C87.1884 55.4878 87.103 55.0295 87.1111 54.602L87.0008 54.3795L81.8499 51.1524Z" fill="#B9CEDB"/>
<path d="M87.111 54.6019L86.7285 55.7669L86.7486 55.7692C86.8082 56.0422 86.9468 56.2916 87.1471 56.4865C87.3474 56.6814 87.6005 56.813 87.8751 56.8651L88.9358 56.7037L87.111 54.6019Z" fill="#F5F5F5"/>
<path d="M87.8752 56.8655C87.4996 56.5002 87.124 56.1348 86.7485 55.7695C86.6829 56.3589 86.6171 56.9483 86.5512 57.5377C86.9925 57.3136 87.4338 57.0896 87.8752 56.8655Z" fill="#EAE0D9"/>
<path d="M65.3212 63.9688C68.3405 66.416 70.7454 69.4384 73.2157 72.3996C73.7933 72.0997 74.3709 71.7998 74.9484 71.5C72.8662 69.3912 70.8199 67.2449 68.6843 65.1916C67.7706 64.4095 66.8082 63.6864 65.8027 63.0265C65.5242 63.2803 66.1003 63.9708 65.3212 63.9688Z" fill="#A5B4BC"/>
<path d="M64.2589 52.3949C64.5721 52.497 64.9123 52.4772 65.2115 52.3392C65.5107 52.2013 65.7467 51.9555 65.8724 51.651C65.9357 51.3124 65.8873 50.9624 65.7344 50.6537C65.5815 50.3451 65.3325 50.0944 65.0248 49.9396C64.6773 49.8523 64.31 49.8924 63.9895 50.0527C63.6691 50.213 63.4167 50.4828 63.2781 50.8131C63.2053 51.1525 63.2668 51.5068 63.4497 51.8017C63.6326 52.0966 63.9226 52.3092 64.2589 52.3949V52.3949Z" fill="#5F7481"/>
<path d="M65.0668 55.6104C63.6306 53.7848 61.6607 52.4526 59.4315 51.7996L65.0668 55.6104Z" fill="#AEC3D0"/>
<path d="M63.1703 60.5882C63.5925 59.0308 61.2939 54.8923 59.12 53.4616C61.074 55.4391 62.4712 57.8975 63.1703 60.5882V60.5882Z" fill="#ADC1CD"/>
<path d="M65.013 58.5656C63.5048 55.9974 61.3479 53.8708 58.7585 52.3992C59.8811 53.3704 61.0557 54.2887 62.1112 55.3281C63.1418 56.3429 64.0507 57.4814 65.013 58.5656Z" fill="#A8BDCA"/>
<path d="M70.9685 27.3997C70.2119 25.5831 68.501 24.553 67.1835 24.9529C67.1548 24.7537 67.0841 24.5627 66.976 24.3928C66.868 24.2228 66.7252 24.0778 66.5569 23.9671C66.3887 23.8565 66.1989 23.7828 66.0001 23.7509C65.8013 23.7191 65.5979 23.7298 65.4036 23.7823C65.1569 23.7787 64.9178 23.6971 64.7205 23.549C64.3131 23.1903 63.8582 22.8896 63.3686 22.6554C62.6518 22.5296 61.9245 22.4741 61.197 22.4899L61.151 22.7639C60.9149 22.519 60.6916 22.26 60.4402 22.0319C59.674 21.337 58.9268 21.5276 58.2306 22.2693C57.4544 23.0136 56.6176 23.692 55.7289 24.2976C55.4139 24.4989 55.086 24.6793 54.7473 24.8377C54.6242 24.9075 54.4939 25.1007 54.4076 25.0786C53.5624 24.8624 52.9021 25.3129 52.1602 25.5768C51.2439 25.9028 50.2204 25.9252 49.2995 26.2422C49.1034 26.3568 48.9338 26.5117 48.8019 26.6967C48.67 26.8817 48.5789 27.0925 48.5345 27.3153C48.4859 27.5259 48.9097 27.9676 49.2123 28.1132C49.9886 28.4867 50.798 28.6633 51.518 27.9134C51.6317 27.7949 51.8862 27.8011 52.0789 27.7712C52.5142 27.6769 52.9566 27.6191 53.4014 27.5984C53.9493 27.643 54.4994 27.545 54.9981 27.3139C55.4967 27.0827 55.9271 26.7263 56.2471 26.2794C56.4032 26.0644 56.8456 26.0815 57.1003 25.9092C57.2176 25.798 57.3576 25.7134 57.5107 25.6612C57.6637 25.609 57.8262 25.5904 57.9871 25.6068C58.1479 25.6231 58.3034 25.6739 58.4428 25.7558C58.5823 25.8376 58.7024 25.9486 58.7951 26.0811C58.9483 26.2473 59.1397 26.3736 59.3527 26.4492C59.5658 26.5247 59.794 26.5473 60.0177 26.5148C60.2414 26.4824 60.4538 26.3959 60.6366 26.263C60.8194 26.13 60.967 25.9545 61.0667 25.7517C61.1137 25.6309 61.1894 25.5234 61.2874 25.4385C61.3853 25.3537 61.5024 25.294 61.6286 25.2646C61.7548 25.2353 61.8863 25.2372 62.0116 25.2701C62.1369 25.3031 62.2523 25.3661 62.3477 25.4538C62.7675 25.8006 63.2476 26.0672 63.764 26.2401C65.0387 26.4462 66.3612 26.8906 67.6192 26.4252C67.844 26.2957 68.1014 26.2338 68.3605 26.2467C68.6196 26.2597 68.8695 26.3471 69.0802 26.4984C69.6868 26.8445 70.318 27.1458 70.9685 27.3997V27.3997Z" fill="#E7E7E7"/>
<path d="M140.066 86.9309L135.844 87.469L135.878 87.7577C137.298 87.6864 138.755 87.9471 140.1 87.2136L140.066 86.9309Z" fill="#C9B7AB"/>
<path d="M142.263 88.9037L145.714 88.5879L145.679 88.2533C144.475 87.9204 143.387 88.5548 142.237 88.6655L142.263 88.9037Z" fill="#C9B6AA"/>
</g>
<defs>
<clipPath id="clip0_5909_314579">
<rect width="192.359" height="88.7064" fill="white" transform="matrix(-0.954813 -0.297208 -0.297208 0.954813 210.031 57.1709)"/>
</clipPath>
</defs>
</svg>
