<svg width="414" height="223" viewBox="0 0 414 223" fill="none" xmlns="http://www.w3.org/2000/svg">
<path d="M9.56277 46.8753C9.71985 45.8328 9.00208 44.8603 7.9596 44.7033C6.91711 44.5462 5.94467 45.264 5.78759 46.3064L9.56277 46.8753ZM-4.52197 114.727C-4.67905 115.77 -3.96129 116.742 -2.9188 116.899C-1.87632 117.056 -0.903872 116.338 -0.746791 115.296L-4.52197 114.727ZM34.6399 70.1232C35.6176 69.7289 36.0906 68.6167 35.6964 67.6389C35.3021 66.6612 34.1898 66.1882 33.2121 66.5825L34.6399 70.1232ZM-30.1944 92.1515C-31.1721 92.5458 -31.6451 93.658 -31.2508 94.6358C-30.8565 95.6135 -29.7443 96.0865 -28.7665 95.6922L-30.1944 92.1515ZM27.7998 103.635C28.6291 104.286 29.8291 104.141 30.4799 103.312C31.1308 102.482 30.986 101.282 30.1567 100.631L27.7998 103.635ZM-23.3543 58.6398C-24.1837 57.989 -25.3836 58.1337 -26.0345 58.9631C-26.6853 59.7924 -26.5406 60.9924 -25.7112 61.6432L-23.3543 58.6398ZM-1.33789 50.5447C-2.12152 49.8395 -3.32849 49.903 -4.03374 50.6866C-4.73899 51.4703 -4.67544 52.6772 -3.89181 53.3825L-1.33789 50.5447ZM4.36893 60.8169C5.15256 61.5222 6.35954 61.4586 7.06478 60.675C7.77003 59.8913 7.70648 58.6844 6.92285 57.9791L4.36893 60.8169ZM16.6696 55.8483C17.591 55.3361 17.9228 54.1739 17.4106 53.2524C16.8984 52.331 15.7362 51.9992 14.8147 52.5114L16.6696 55.8483ZM5.04483 57.9419C4.12336 58.4541 3.79157 59.6163 4.30377 60.5378C4.81596 61.4593 5.97818 61.7911 6.89965 61.2789L5.04483 57.9419ZM31.3288 80.9885C32.1887 81.5986 33.3802 81.396 33.9902 80.5362C34.6002 79.6763 34.3977 78.4847 33.5378 77.8747L31.3288 80.9885ZM24.4741 71.4447C23.6143 70.8347 22.4227 71.0372 21.8127 71.8971C21.2027 72.7569 21.4052 73.9485 22.2651 74.5585L24.4741 71.4447ZM20.7429 73.2597C20.5718 74.3 21.2764 75.282 22.3167 75.4531C23.3569 75.6242 24.339 74.9197 24.5101 73.8794L20.7429 73.2597ZM26.3238 62.8532C26.4949 61.813 25.7903 60.8309 24.75 60.6598C23.7097 60.4887 22.7277 61.1933 22.5566 62.2336L26.3238 62.8532ZM18.4172 92.0674C17.3851 92.2822 16.7225 93.2931 16.9373 94.3252C17.1521 95.3574 18.163 96.0199 19.1951 95.8051L18.4172 92.0674ZM30.1175 93.5318C31.1497 93.317 31.8122 92.3061 31.5974 91.274C31.3826 90.2419 30.3717 89.5793 29.3396 89.7941L30.1175 93.5318ZM15.6596 104.49C15.5334 105.537 16.2795 106.488 17.3262 106.614C18.3729 106.74 19.3237 105.994 19.45 104.948L15.6596 104.49ZM20.7877 93.8565C20.9139 92.8099 20.1678 91.859 19.1211 91.7328C18.0745 91.6066 17.1236 92.3527 16.9974 93.3994L20.7877 93.8565ZM-11.4745 106.629C-12.421 107.094 -12.8118 108.237 -12.3475 109.184C-11.8832 110.13 -10.7395 110.521 -9.793 110.057L-11.4745 106.629ZM0.239406 105.135C1.1859 104.671 1.57678 103.527 1.11245 102.581C0.648123 101.634 -0.495575 101.243 -1.44207 101.708L0.239406 105.135ZM6.16646 111.827C6.98557 112.491 8.18764 112.365 8.85135 111.546C9.51506 110.727 9.38908 109.524 8.56997 108.861L6.16646 111.827ZM-0.0643717 101.865C-0.883483 101.201 -2.08554 101.327 -2.74925 102.146C-3.41296 102.965 -3.28698 104.167 -2.46787 104.831L-0.0643717 101.865ZM-26.4082 82.1111C-27.3031 81.5538 -28.4803 81.8274 -29.0377 82.7223C-29.595 83.6172 -29.3214 84.7944 -28.4265 85.3518L-26.4082 82.1111ZM-18.9931 91.227C-18.0982 91.7844 -16.9209 91.5108 -16.3636 90.6159C-15.8062 89.721 -16.0799 88.5437 -16.9747 87.9864L-18.9931 91.227ZM-16.5503 89.4006C-16.3991 88.3573 -17.1223 87.3889 -18.1656 87.2377C-19.209 87.0864 -20.1774 87.8097 -20.3286 88.853L-16.5503 89.4006ZM-21.9313 99.9105C-22.0825 100.954 -21.3593 101.922 -20.316 102.074C-19.2726 102.225 -18.3042 101.502 -18.153 100.458L-21.9313 99.9105ZM-12.0471 57.3912C-11.9527 56.3412 -12.7275 55.4135 -13.7775 55.3191C-14.8275 55.2248 -15.7552 55.9995 -15.8496 57.0496L-12.0471 57.3912ZM-16.849 68.1741C-16.9434 69.2241 -16.1686 70.1518 -15.1186 70.2462C-14.0686 70.3405 -13.1409 69.5658 -13.0465 68.5158L-16.849 68.1741ZM-5.40299 66.6354C-5.28016 65.5883 -6.02941 64.6399 -7.07649 64.5171C-8.12356 64.3943 -9.07196 65.1435 -9.19479 66.1906L-5.40299 66.6354ZM-9.92898 72.4492C-10.0518 73.4963 -9.30257 74.4447 -8.25549 74.5675C-7.20842 74.6904 -6.26002 73.9411 -6.13719 72.894L-9.92898 72.4492ZM-7.54395 74.7985C-6.55288 74.439 -6.04089 73.3441 -6.4004 72.3531C-6.7599 71.362 -7.85475 70.85 -8.84581 71.2095L-7.54395 74.7985ZM-14.7675 73.3576C-15.7586 73.7171 -16.2706 74.8119 -15.9111 75.803C-15.5516 76.794 -14.4567 77.306 -13.4657 76.9465L-14.7675 73.3576ZM-11.3747 87.745C-10.476 88.2961 -9.30064 88.0143 -8.74953 87.1156C-8.19842 86.2168 -8.48023 85.0415 -9.37898 84.4904L-11.3747 87.745ZM-14.7232 81.2133C-15.6219 80.6622 -16.7973 80.944 -17.3484 81.8427C-17.8995 82.7415 -17.6177 83.9168 -16.7189 84.4679L-14.7232 81.2133ZM-8.68462 86.1163C-8.49635 85.079 -9.18464 84.0855 -10.2219 83.8972C-11.2593 83.7089 -12.2528 84.3972 -12.441 85.4345L-8.68462 86.1163ZM-13.5668 91.637C-13.755 92.6744 -13.0668 93.6679 -12.0295 93.8561C-10.9921 94.0444 -9.99862 93.3561 -9.81035 92.3188L-13.5668 91.637ZM4.23079 99.6231C5.05677 100.278 6.25746 100.14 6.91261 99.3138C7.56775 98.4878 7.42927 97.2871 6.6033 96.632L4.23079 99.6231ZM1.69201 92.7364C0.866035 92.0813 -0.334656 92.2197 -0.989803 93.0457C-1.64495 93.8717 -1.50647 95.0724 -0.680491 95.7275L1.69201 92.7364ZM-5.94712 95.5859C-6.89835 96.0405 -7.30097 97.1801 -6.84641 98.1313C-6.39185 99.0825 -5.25224 99.4851 -4.30102 99.0306L-5.94712 95.5859ZM1.38606 96.3129C2.33729 95.8583 2.73991 94.7187 2.28535 93.7675C1.83079 92.8163 0.691181 92.4137 -0.260044 92.8682L1.38606 96.3129ZM12.1038 88.4339C11.1526 88.8885 10.7499 90.0281 11.2045 90.9793C11.6591 91.9305 12.7987 92.3332 13.7499 91.8786L12.1038 88.4339ZM19.437 89.1609C20.3882 88.7064 20.7908 87.5668 20.3363 86.6155C19.8817 85.6643 18.7421 85.2617 17.7909 85.7162L19.437 89.1609ZM14.8724 89.2324C14.9482 88.1809 14.1573 87.267 13.1057 87.1911C12.0542 87.1153 11.1403 87.9062 11.0645 88.9577L14.8724 89.2324ZM10.6112 95.2412C10.5354 96.2927 11.3263 97.2066 12.3778 97.2825C13.4293 97.3583 14.3433 96.5674 14.4191 95.5159L10.6112 95.2412ZM18.0695 70.3867C18.2391 69.3461 17.533 68.3652 16.4924 68.1956C15.4519 68.0261 14.471 68.7322 14.3014 69.7727L18.0695 70.3867ZM13.2878 75.9939C13.1182 77.0344 13.8243 78.0154 14.8648 78.1849C15.9054 78.3545 16.8863 77.6484 17.0559 76.6078L13.2878 75.9939ZM16.8035 74.0667C16.1406 73.2469 14.9387 73.1197 14.1189 73.7826C13.2991 74.4455 13.1719 75.6474 13.8348 76.4672L16.8035 74.0667ZM17.778 81.3437C18.4408 82.1635 19.6428 82.2907 20.4626 81.6278C21.2824 80.9649 21.4096 79.763 20.7467 78.9432L17.778 81.3437ZM3.58633 65.7287C2.55493 65.947 1.8958 66.9601 2.11413 67.9915C2.33245 69.0229 3.34556 69.682 4.37696 69.4637L3.58633 65.7287ZM10.5339 68.1604C11.5653 67.9421 12.2244 66.929 12.0061 65.8976C11.7878 64.8662 10.7747 64.207 9.74326 64.4254L10.5339 68.1604ZM3.60355 69.0248C4.56132 69.4654 5.69492 69.0461 6.13553 68.0884C6.57614 67.1306 6.15691 65.997 5.19914 65.5564L3.60355 69.0248ZM-0.497473 62.9357C-1.45524 62.4951 -2.58885 62.9144 -3.02946 63.8721C-3.47007 64.8299 -3.05083 65.9635 -2.09306 66.4041L-0.497473 62.9357ZM5.78759 46.3064L-4.52197 114.727L-0.746791 115.296L9.56277 46.8753L5.78759 46.3064ZM33.2121 66.5825L-30.1944 92.1515L-28.7665 95.6922L34.6399 70.1232L33.2121 66.5825ZM30.1567 100.631L-23.3543 58.6398L-25.7112 61.6432L27.7998 103.635L30.1567 100.631ZM-3.89181 53.3825L4.36893 60.8169L6.92285 57.9791L-1.33789 50.5447L-3.89181 53.3825ZM14.8147 52.5114L5.04483 57.9419L6.89965 61.2789L16.6696 55.8483L14.8147 52.5114ZM33.5378 77.8747L24.4741 71.4447L22.2651 74.5585L31.3288 80.9885L33.5378 77.8747ZM24.5101 73.8794L26.3238 62.8532L22.5566 62.2336L20.7429 73.2597L24.5101 73.8794ZM19.1951 95.8051L30.1175 93.5318L29.3396 89.7941L18.4172 92.0674L19.1951 95.8051ZM19.45 104.948L20.7877 93.8565L16.9974 93.3994L15.6596 104.49L19.45 104.948ZM-9.793 110.057L0.239406 105.135L-1.44207 101.708L-11.4745 106.629L-9.793 110.057ZM8.56997 108.861L-0.0643717 101.865L-2.46787 104.831L6.16646 111.827L8.56997 108.861ZM-28.4265 85.3518L-18.9931 91.227L-16.9747 87.9864L-26.4082 82.1111L-28.4265 85.3518ZM-20.3286 88.853L-21.9313 99.9105L-18.153 100.458L-16.5503 89.4006L-20.3286 88.853ZM-15.8496 57.0496L-16.849 68.1741L-13.0465 68.5158L-12.0471 57.3912L-15.8496 57.0496ZM-9.19479 66.1906L-9.92898 72.4492L-6.13719 72.894L-5.40299 66.6354L-9.19479 66.1906ZM-8.84581 71.2095L-14.7675 73.3576L-13.4657 76.9465L-7.54395 74.7985L-8.84581 71.2095ZM-9.37898 84.4904L-14.7232 81.2133L-16.7189 84.4679L-11.3747 87.745L-9.37898 84.4904ZM-12.441 85.4345L-13.5668 91.637L-9.81035 92.3188L-8.68462 86.1163L-12.441 85.4345ZM6.6033 96.632L1.69201 92.7364L-0.680491 95.7275L4.23079 99.6231L6.6033 96.632ZM-4.30102 99.0306L1.38606 96.3129L-0.260044 92.8682L-5.94712 95.5859L-4.30102 99.0306ZM13.7499 91.8786L19.437 89.1609L17.7909 85.7162L12.1038 88.4339L13.7499 91.8786ZM11.0645 88.9577L10.6112 95.2412L14.4191 95.5159L14.8724 89.2324L11.0645 88.9577ZM14.3014 69.7727L13.2878 75.9939L17.0559 76.6078L18.0695 70.3867L14.3014 69.7727ZM13.8348 76.4672L17.778 81.3437L20.7467 78.9432L16.8035 74.0667L13.8348 76.4672ZM4.37696 69.4637L10.5339 68.1604L9.74326 64.4254L3.58633 65.7287L4.37696 69.4637ZM5.19914 65.5564L-0.497473 62.9357L-2.09306 66.4041L3.60355 69.0248L5.19914 65.5564Z" fill="#B0CCCE"/>
<path d="M391.437 19.8802C391.279 18.8377 391.997 17.8653 393.04 17.7082C394.082 17.5511 395.055 18.2689 395.212 19.3113L391.437 19.8802ZM405.526 87.7636C405.683 88.8061 404.965 89.7785 403.923 89.9356C402.88 90.0927 401.908 89.3749 401.751 88.3325L405.526 87.7636ZM366.347 43.1382C365.369 42.7439 364.896 41.6317 365.291 40.6539C365.685 39.6762 366.797 39.2032 367.775 39.5975L366.347 43.1382ZM431.211 65.1783C432.189 65.5726 432.662 66.6848 432.267 67.6626C431.873 68.6403 430.761 69.1133 429.783 68.7191L431.211 65.1783ZM373.19 76.6655C372.36 77.3163 371.16 77.1715 370.509 76.3422C369.859 75.5128 370.003 74.3128 370.833 73.662L373.19 76.6655ZM424.369 31.651C425.198 31.0001 426.398 31.1449 427.049 31.9742C427.7 32.8036 427.555 34.0036 426.725 34.6544L424.369 31.651ZM402.342 23.5521C403.126 22.8469 404.333 22.9104 405.038 23.694C405.743 24.4777 405.679 25.6846 404.896 26.3899L402.342 23.5521ZM396.631 33.8277C395.848 34.533 394.641 34.4694 393.935 33.6858C393.23 32.9022 393.294 31.6952 394.077 30.99L396.631 33.8277ZM384.326 28.8567C383.405 28.3446 383.073 27.1823 383.585 26.2609C384.097 25.3394 385.259 25.0076 386.181 25.5198L384.326 28.8567ZM395.955 30.9529C396.877 31.4651 397.209 32.6273 396.696 33.5487C396.184 34.4702 395.022 34.802 394.1 34.2898L395.955 30.9529ZM369.659 54.0087C368.799 54.6187 367.608 54.4161 366.998 53.5563C366.388 52.6964 366.59 51.5049 367.45 50.8949L369.659 54.0087ZM376.518 44.4618C377.378 43.8518 378.569 44.0544 379.179 44.9142C379.789 45.7741 379.587 46.9656 378.727 47.5756L376.518 44.4618ZM380.249 46.2771C380.421 47.3174 379.716 48.2994 378.676 48.4705C377.635 48.6416 376.653 47.9371 376.482 46.8968L380.249 46.2771ZM374.668 35.8655C374.497 34.8253 375.201 33.8432 376.242 33.6721C377.282 33.501 378.264 34.2056 378.435 35.2459L374.668 35.8655ZM382.577 65.0943C383.609 65.3091 384.272 66.3199 384.057 67.3521C383.842 68.3842 382.831 69.0468 381.799 68.832L382.577 65.0943ZM370.872 66.5576C369.839 66.3428 369.177 65.3319 369.392 64.2998C369.606 63.2676 370.617 62.6051 371.649 62.8199L370.872 66.5576ZM385.335 77.5223C385.461 78.569 384.715 79.5198 383.668 79.646C382.622 79.7723 381.671 79.0261 381.545 77.9795L385.335 77.5223ZM380.206 66.8832C380.08 65.8366 380.826 64.8857 381.873 64.7595C382.92 64.6333 383.87 65.3794 383.997 66.4261L380.206 66.8832ZM412.482 79.6629C413.429 80.1273 413.82 81.271 413.355 82.2175C412.891 83.164 411.747 83.5548 410.801 83.0905L412.482 79.6629ZM400.764 78.1666C399.817 77.7023 399.426 76.5586 399.891 75.6121C400.355 74.6656 401.499 74.2747 402.445 74.739L400.764 78.1666ZM394.833 84.8615C394.014 85.5252 392.812 85.3992 392.148 84.5801C391.484 83.761 391.61 82.5589 392.429 81.8952L394.833 84.8615ZM401.068 74.8958C401.887 74.232 403.089 74.358 403.753 75.1771C404.416 75.9963 404.29 77.1983 403.471 77.862L401.068 74.8958ZM427.424 55.1332C428.319 54.5759 429.496 54.8495 430.053 55.7444C430.611 56.6393 430.337 57.8166 429.442 58.3739L427.424 55.1332ZM420.004 64.2519C419.109 64.8092 417.932 64.5356 417.375 63.6407C416.817 62.7458 417.091 61.5686 417.986 61.0112L420.004 64.2519ZM417.562 62.4253C417.41 61.3819 418.134 60.4135 419.177 60.2623C420.22 60.1111 421.189 60.8343 421.34 61.8776L417.562 62.4253ZM422.943 72.9403C423.095 73.9836 422.371 74.952 421.328 75.1032C420.285 75.2545 419.316 74.5313 419.165 73.4879L422.943 72.9403ZM413.056 30.401C412.962 29.351 413.737 28.4233 414.787 28.329C415.837 28.2346 416.765 29.0094 416.859 30.0594L413.056 30.401ZM417.859 41.1891C417.953 42.2391 417.178 43.1668 416.128 43.2612C415.078 43.3555 414.151 42.5808 414.056 41.5307L417.859 41.1891ZM406.409 39.6495C406.286 38.6024 407.036 37.654 408.083 37.5312C409.13 37.4084 410.078 38.1576 410.201 39.2047L406.409 39.6495ZM410.936 45.4662C411.058 46.5133 410.309 47.4617 409.262 47.5845C408.215 47.7073 407.267 46.9581 407.144 45.911L410.936 45.4662ZM408.551 47.8156C407.56 47.4561 407.048 46.3613 407.407 45.3702C407.767 44.3791 408.861 43.8671 409.852 44.2266L408.551 47.8156ZM415.777 46.3757C416.768 46.7352 417.28 47.83 416.92 48.8211C416.561 49.8122 415.466 50.3242 414.475 49.9647L415.777 46.3757ZM412.382 60.7682C411.484 61.3193 410.308 61.0375 409.757 60.1388C409.206 59.24 409.488 58.0647 410.387 57.5136L412.382 60.7682ZM415.733 54.235C416.632 53.6839 417.807 53.9657 418.359 54.8644C418.91 55.7632 418.628 56.9385 417.729 57.4896L415.733 54.235ZM409.692 59.1393C409.504 58.102 410.192 57.1085 411.23 56.9202C412.267 56.732 413.261 57.4203 413.449 58.4576L409.692 59.1393ZM414.575 64.663C414.763 65.7003 414.075 66.6938 413.038 66.8821C412 67.0703 411.007 66.3821 410.819 65.3447L414.575 64.663ZM396.77 72.6518C395.944 73.307 394.743 73.1685 394.088 72.3425C393.433 71.5166 393.571 70.3159 394.397 69.6607L396.77 72.6518ZM399.311 65.7634C400.137 65.1082 401.337 65.2467 401.992 66.0727C402.648 66.8987 402.509 68.0994 401.683 68.7545L399.311 65.7634ZM406.952 68.6143C407.904 69.0689 408.306 70.2085 407.852 71.1597C407.397 72.1109 406.257 72.5135 405.306 72.059L406.952 68.6143ZM399.617 69.34C398.665 68.8855 398.263 67.7459 398.717 66.7946C399.172 65.8434 400.311 65.4408 401.263 65.8954L399.617 69.34ZM388.893 61.459C389.844 61.9136 390.247 63.0532 389.792 64.0044C389.338 64.9556 388.198 65.3583 387.247 64.9037L388.893 61.459ZM381.557 62.1848C380.606 61.7302 380.203 60.5906 380.658 59.6394C381.113 58.6881 382.252 58.2855 383.203 58.7401L381.557 62.1848ZM386.124 62.257C386.049 61.2055 386.84 60.2916 387.891 60.2157C388.943 60.1399 389.857 60.9308 389.932 61.9823L386.124 62.257ZM390.386 68.2687C390.462 69.3202 389.671 70.2341 388.619 70.31C387.568 70.3858 386.654 69.5949 386.578 68.5434L390.386 68.2687ZM382.926 43.4025C382.756 42.3619 383.462 41.381 384.503 41.2114C385.543 41.0419 386.524 41.748 386.694 42.7885L382.926 43.4025ZM387.708 49.0125C387.878 50.0531 387.172 51.034 386.131 51.2036C385.09 51.3731 384.109 50.667 383.94 49.6265L387.708 49.0125ZM384.192 47.0849C384.855 46.2651 386.057 46.1379 386.877 46.8008C387.697 47.4636 387.824 48.6656 387.161 49.4854L384.192 47.0849ZM383.216 54.3641C382.553 55.1839 381.351 55.3111 380.531 54.6483C379.712 53.9854 379.584 52.7834 380.247 51.9637L383.216 54.3641ZM397.415 38.7433C398.446 38.9616 399.105 39.9747 398.887 41.0061C398.669 42.0375 397.655 42.6966 396.624 42.4783L397.415 38.7433ZM390.464 41.1744C389.433 40.9561 388.774 39.943 388.992 38.9116C389.21 37.8802 390.223 37.2211 391.255 37.4394L390.464 41.1744ZM397.397 42.0393C396.439 42.4799 395.306 42.0606 394.865 41.1029C394.425 40.1451 394.844 39.0115 395.802 38.5709L397.397 42.0393ZM401.501 35.949C402.459 35.5084 403.592 35.9276 404.033 36.8854C404.474 37.8432 404.054 38.9768 403.097 39.4174L401.501 35.949ZM395.212 19.3113L405.526 87.7636L401.751 88.3325L391.437 19.8802L395.212 19.3113ZM367.775 39.5975L431.211 65.1783L429.783 68.7191L366.347 43.1382L367.775 39.5975ZM370.833 73.662L424.369 31.651L426.725 34.6544L373.19 76.6655L370.833 73.662ZM404.896 26.3899L396.631 33.8277L394.077 30.99L402.342 23.5521L404.896 26.3899ZM386.181 25.5198L395.955 30.9529L394.1 34.2898L384.326 28.8567L386.181 25.5198ZM367.45 50.8949L376.518 44.4618L378.727 47.5756L369.659 54.0087L367.45 50.8949ZM376.482 46.8968L374.668 35.8655L378.435 35.2459L380.249 46.2771L376.482 46.8968ZM381.799 68.832L370.872 66.5576L371.649 62.8199L382.577 65.0943L381.799 68.832ZM381.545 77.9795L380.206 66.8832L383.997 66.4261L385.335 77.5223L381.545 77.9795ZM410.801 83.0905L400.764 78.1666L402.445 74.739L412.482 79.6629L410.801 83.0905ZM392.429 81.8952L401.068 74.8958L403.471 77.862L394.833 84.8615L392.429 81.8952ZM429.442 58.3739L420.004 64.2519L417.986 61.0112L427.424 55.1332L429.442 58.3739ZM421.34 61.8776L422.943 72.9403L419.165 73.4879L417.562 62.4253L421.34 61.8776ZM416.859 30.0594L417.859 41.1891L414.056 41.5307L413.056 30.401L416.859 30.0594ZM410.201 39.2047L410.936 45.4662L407.144 45.911L406.409 39.6495L410.201 39.2047ZM409.852 44.2266L415.777 46.3757L414.475 49.9647L408.551 47.8156L409.852 44.2266ZM410.387 57.5136L415.733 54.235L417.729 57.4896L412.382 60.7682L410.387 57.5136ZM413.449 58.4576L414.575 64.663L410.819 65.3447L409.692 59.1393L413.449 58.4576ZM394.397 69.6607L399.311 65.7634L401.683 68.7545L396.77 72.6518L394.397 69.6607ZM405.306 72.059L399.617 69.34L401.263 65.8954L406.952 68.6143L405.306 72.059ZM387.247 64.9037L381.557 62.1848L383.203 58.7401L388.893 61.459L387.247 64.9037ZM389.932 61.9823L390.386 68.2687L386.578 68.5434L386.124 62.257L389.932 61.9823ZM386.694 42.7885L387.708 49.0125L383.94 49.6265L382.926 43.4025L386.694 42.7885ZM387.161 49.4854L383.216 54.3641L380.247 51.9637L384.192 47.0849L387.161 49.4854ZM396.624 42.4783L390.464 41.1744L391.255 37.4394L397.415 38.7433L396.624 42.4783ZM395.802 38.5709L401.501 35.949L403.097 39.4174L397.397 42.0393L395.802 38.5709Z" fill="#B0CCCE"/>
<path d="M114.617 7.00311C113.933 6.20095 112.728 6.10523 111.926 6.78933C111.123 7.47343 111.028 8.67828 111.712 9.48044L114.617 7.00311ZM158.849 64.753C159.533 65.5552 160.738 65.6509 161.54 64.9668C162.342 64.2827 162.438 63.0778 161.754 62.2757L158.849 64.753ZM150.29 3.03649C150.633 2.03974 150.104 0.953313 149.107 0.609888C148.11 0.266464 147.024 0.79609 146.68 1.79284L150.29 3.03649ZM123.299 69.6544C122.956 70.6511 123.485 71.7375 124.482 72.081C125.479 72.4244 126.565 71.8948 126.909 70.898L123.299 69.6544ZM172.217 31.4652C173.252 31.2658 173.929 30.2649 173.73 29.2297C173.53 28.1945 172.53 27.5169 171.494 27.7164L172.217 31.4652ZM101.372 41.2256C100.337 41.425 99.6596 42.4259 99.859 43.4611C100.058 44.4963 101.059 45.1739 102.095 44.9744L101.372 41.2256ZM110.105 18.2024C109.059 18.3316 108.316 19.2845 108.445 20.3308C108.574 21.3772 109.527 22.1206 110.573 21.9914L110.105 18.2024ZM122.153 20.5612C123.199 20.432 123.943 19.4791 123.814 18.4328C123.684 17.3864 122.731 16.643 121.685 16.7722L122.153 20.5612ZM126.601 7.46546C126.818 6.43388 126.158 5.42131 125.127 5.20381C124.095 4.98631 123.083 5.64625 122.865 6.67783L126.601 7.46546ZM120.444 18.1604C120.227 19.192 120.887 20.2046 121.918 20.4221C122.95 20.6396 123.962 19.9796 124.18 18.9481L120.444 18.1604ZM156.691 13.0792C157.715 12.83 158.343 11.7976 158.094 10.7732C157.845 9.74881 156.812 9.12043 155.788 9.36965L156.691 13.0792ZM144.452 12.1277C143.427 12.3769 142.799 13.4094 143.048 14.4338C143.297 15.4581 144.33 16.0865 145.354 15.8373L144.452 12.1277ZM143.373 16.1815C144.046 16.9928 145.249 17.1047 146.061 16.4315C146.872 15.7583 146.984 14.5548 146.311 13.7435L143.373 16.1815ZM138.819 4.7155C138.146 3.90419 136.943 3.79226 136.131 4.46548C135.32 5.13871 135.208 6.34216 135.881 7.15347L138.819 4.7155ZM156.69 31.0794C156.175 31.9995 156.504 33.1626 157.424 33.6772C158.344 34.1918 159.507 33.863 160.022 32.9429L156.69 31.0794ZM165.739 22.7202C166.253 21.8 165.925 20.6369 165.004 20.1224C164.084 19.6078 162.921 19.9365 162.407 20.8567L165.739 22.7202ZM164.626 41.7069C165.334 42.4885 166.541 42.5486 167.322 41.8411C168.104 41.1337 168.164 39.9265 167.457 39.1449L164.626 41.7069ZM159.586 30.4494C158.879 29.6678 157.671 29.6077 156.89 30.3152C156.108 31.0227 156.048 32.2298 156.756 33.0114L159.586 30.4494ZM147.664 64.7758C147.394 65.7949 148.001 66.8399 149.02 67.11C150.039 67.38 151.084 66.7728 151.354 65.7537L147.664 64.7758ZM154.359 54.4134C154.63 53.3943 154.022 52.3492 153.003 52.0792C151.984 51.8091 150.939 52.4163 150.669 53.4354L154.359 54.4134ZM163.819 54.2524C164.858 54.0691 165.551 53.079 165.367 52.0407C165.184 51.0025 164.194 50.3095 163.156 50.4927L163.819 54.2524ZM151.666 52.5206C150.628 52.7039 149.935 53.6941 150.118 54.7323C150.301 55.7705 151.292 56.4636 152.33 56.2803L151.666 52.5206ZM117.885 59.8014C116.877 60.1116 116.312 61.1799 116.622 62.1874C116.932 63.195 118.001 63.7604 119.008 63.4502L117.885 59.8014ZM130.159 60.0172C131.167 59.707 131.732 58.6387 131.422 57.6311C131.112 56.6235 130.044 56.0582 129.036 56.3684L130.159 60.0172ZM130.349 56.9767C129.66 56.1784 128.455 56.0895 127.657 56.7781C126.859 57.4667 126.77 58.672 127.458 59.4703L130.349 56.9767ZM135.12 68.3527C135.808 69.151 137.014 69.24 137.812 68.5514C138.61 67.8628 138.699 66.6574 138.011 65.8591L135.12 68.3527ZM108.08 31.3758C107.349 30.616 106.141 30.5927 105.381 31.3236C104.621 32.0545 104.598 33.263 105.329 34.0227L108.08 31.3758ZM113.459 42.4731C114.19 43.2328 115.398 43.2561 116.158 42.5252C116.917 41.7943 116.941 40.5859 116.21 39.8261L113.459 42.4731ZM119.979 32.4711C119.269 31.6918 118.062 31.6356 117.283 32.3456C116.503 33.0556 116.447 34.263 117.157 35.0423L119.979 32.4711ZM121.613 39.9327C122.323 40.712 123.53 40.7682 124.31 40.0581C125.089 39.3481 125.145 38.1408 124.435 37.3615L121.613 39.9327ZM124.958 39.6893C125.336 38.7053 124.845 37.6008 123.861 37.2224C122.877 36.844 121.773 37.3349 121.394 38.3189L124.958 39.6893ZM119.02 44.4916C118.642 45.4756 119.133 46.58 120.117 46.9584C121.101 47.3369 122.205 46.8459 122.584 45.8619L119.02 44.4916ZM132.643 51.5816C133.648 51.2644 134.206 50.1922 133.889 49.1868C133.572 48.1814 132.5 47.6235 131.494 47.9407L132.643 51.5816ZM125.218 49.9209C124.212 50.2381 123.654 51.3103 123.972 52.3157C124.289 53.3211 125.361 53.879 126.366 53.5618L125.218 49.9209ZM133.158 48.4783C132.499 47.656 131.297 47.5242 130.475 48.184C129.652 48.8437 129.521 50.0452 130.18 50.8675L133.158 48.4783ZM134.322 56.0296C134.982 56.8519 136.183 56.9837 137.005 56.324C137.828 55.6642 137.96 54.4628 137.3 53.6405L134.322 56.0296ZM152.812 47.3857C153.848 47.1917 154.531 46.1943 154.337 45.1581C154.143 44.1218 153.146 43.4391 152.11 43.6331L152.812 47.3857ZM145.641 44.8445C144.605 45.0385 143.922 46.0358 144.116 47.0721C144.31 48.1083 145.307 48.7911 146.343 48.597L145.641 44.8445ZM142.715 52.7931C142.434 53.8093 143.031 54.8605 144.047 55.1411C145.063 55.4216 146.115 54.8252 146.395 53.8089L142.715 52.7931ZM148.156 47.4301C148.436 46.4139 147.84 45.3627 146.824 45.0821C145.807 44.8016 144.756 45.398 144.476 46.4143L148.156 47.4301ZM149.472 33.5614C149.192 34.5776 149.788 35.6289 150.804 35.9094C151.82 36.1899 152.872 35.5935 153.152 34.5772L149.472 33.5614ZM154.913 28.1985C155.193 27.1822 154.597 26.131 153.581 25.8504C152.565 25.5699 151.513 26.1664 151.233 27.1826L154.913 28.1985ZM151.852 31.9584C151.107 31.2116 149.899 31.2095 149.152 31.9537C148.405 32.6979 148.403 33.9065 149.147 34.6533L151.852 31.9584ZM153.816 39.3381C154.56 40.0848 155.769 40.0869 156.516 39.3427C157.262 38.5986 157.265 37.3899 156.52 36.6432L153.816 39.3381ZM139.109 16.4444C138.434 15.6342 137.23 15.524 136.42 16.1985C135.61 16.8729 135.5 18.0766 136.174 18.8868L139.109 16.4444ZM140.408 23.973C141.082 24.7833 142.286 24.8934 143.096 24.2189C143.906 23.5445 144.016 22.3409 143.342 21.5306L140.408 23.973ZM141.224 20.0155C140.17 19.9784 139.286 20.8025 139.249 21.8561C139.212 22.9097 140.036 23.7939 141.09 23.8309L141.224 20.0155ZM147.67 24.0623C148.723 24.0994 149.607 23.2753 149.644 22.2217C149.681 21.1681 148.857 20.284 147.804 20.2469L147.67 24.0623ZM125.603 24.7034C125.091 25.6253 125.424 26.7873 126.346 27.2987C127.268 27.8102 128.429 27.4775 128.941 26.5556L125.603 24.7034ZM132.146 20.778C132.658 19.8561 132.325 18.6942 131.403 18.1827C130.481 17.6713 129.319 18.004 128.808 18.9259L132.146 20.778ZM128.105 26.8259C129.065 26.3917 129.492 25.2609 129.058 24.3002C128.624 23.3396 127.493 22.9128 126.532 23.347L128.105 26.8259ZM120.533 26.0584C119.573 26.4926 119.146 27.6234 119.58 28.5841C120.014 29.5448 121.145 29.9716 122.106 29.5374L120.533 26.0584ZM111.712 9.48044L158.849 64.753L161.754 62.2757L114.617 7.00311L111.712 9.48044ZM146.68 1.79284L123.299 69.6544L126.909 70.898L150.29 3.03649L146.68 1.79284ZM171.494 27.7164L101.372 41.2256L102.095 44.9744L172.217 31.4652L171.494 27.7164ZM110.573 21.9914L122.153 20.5612L121.685 16.7722L110.105 18.2024L110.573 21.9914ZM122.865 6.67783L120.444 18.1604L124.18 18.9481L126.601 7.46546L122.865 6.67783ZM155.788 9.36965L144.452 12.1277L145.354 15.8373L156.691 13.0792L155.788 9.36965ZM146.311 13.7435L138.819 4.7155L135.881 7.15347L143.373 16.1815L146.311 13.7435ZM160.022 32.9429L165.739 22.7202L162.407 20.8567L156.69 31.0794L160.022 32.9429ZM167.457 39.1449L159.586 30.4494L156.756 33.0114L164.626 41.7069L167.457 39.1449ZM151.354 65.7537L154.359 54.4134L150.669 53.4354L147.664 64.7758L151.354 65.7537ZM163.156 50.4927L151.666 52.5206L152.33 56.2803L163.819 54.2524L163.156 50.4927ZM119.008 63.4502L130.159 60.0172L129.036 56.3684L117.885 59.8014L119.008 63.4502ZM127.458 59.4703L135.12 68.3527L138.011 65.8591L130.349 56.9767L127.458 59.4703ZM105.329 34.0227L113.459 42.4731L116.21 39.8261L108.08 31.3758L105.329 34.0227ZM117.157 35.0423L121.613 39.9327L124.435 37.3615L119.979 32.4711L117.157 35.0423ZM121.394 38.3189L119.02 44.4916L122.584 45.8619L124.958 39.6893L121.394 38.3189ZM131.494 47.9407L125.218 49.9209L126.366 53.5618L132.643 51.5816L131.494 47.9407ZM130.18 50.8675L134.322 56.0296L137.3 53.6405L133.158 48.4783L130.18 50.8675ZM152.11 43.6331L145.641 44.8445L146.343 48.597L152.812 47.3857L152.11 43.6331ZM146.395 53.8089L148.156 47.4301L144.476 46.4143L142.715 52.7931L146.395 53.8089ZM153.152 34.5772L154.913 28.1985L151.233 27.1826L149.472 33.5614L153.152 34.5772ZM149.147 34.6533L153.816 39.3381L156.52 36.6432L151.852 31.9584L149.147 34.6533ZM136.174 18.8868L140.408 23.973L143.342 21.5306L139.109 16.4444L136.174 18.8868ZM141.09 23.8309L147.67 24.0623L147.804 20.2469L141.224 20.0155L141.09 23.8309ZM128.941 26.5556L132.146 20.778L128.808 18.9259L125.603 24.7034L128.941 26.5556ZM126.532 23.347L120.533 26.0584L122.106 29.5374L128.105 26.8259L126.532 23.347Z" fill="#B0CCCE"/>
<path d="M62.1734 152.814C61.9333 151.787 60.9065 151.15 59.8799 151.39C58.8534 151.63 58.2158 152.657 58.456 153.683L62.1734 152.814ZM69.6262 201.439C69.8663 202.466 70.8931 203.104 71.9197 202.863C72.9462 202.623 73.5838 201.597 73.3437 200.57L69.6262 201.439ZM84.6296 162.067C85.3919 161.339 85.4194 160.131 84.6911 159.369C83.9628 158.606 82.7544 158.579 81.9922 159.307L84.6296 162.067ZM46.9545 192.785C46.1923 193.513 46.1648 194.721 46.8931 195.484C47.6214 196.246 48.8297 196.273 49.592 195.545L46.9545 192.785ZM88.3809 186.059C89.3923 186.357 90.4533 185.778 90.7508 184.766C91.0483 183.755 90.4695 182.694 89.4581 182.397L88.3809 186.059ZM43.2032 168.793C42.1918 168.496 41.1308 169.074 40.8333 170.086C40.5358 171.097 41.1146 172.158 42.126 172.456L43.2032 168.793ZM55.6104 157.696C54.6213 157.331 53.5237 157.837 53.1587 158.826C52.7938 159.815 53.2997 160.913 54.2888 161.278L55.6104 157.696ZM61.6793 164.005C62.6683 164.37 63.766 163.864 64.1309 162.875C64.4959 161.886 63.9899 160.788 63.0008 160.423L61.6793 164.005ZM69.0974 157.334C69.7637 156.517 69.6416 155.315 68.8246 154.649C68.0076 153.982 66.8051 154.105 66.1388 154.922L69.0974 157.334ZM61.1314 161.062C60.465 161.879 60.5872 163.081 61.4042 163.747C62.2212 164.414 63.4237 164.291 64.09 163.474L61.1314 161.062ZM84.7865 170.229C85.8111 170.477 86.8429 169.848 87.0912 168.823C87.3394 167.799 86.7101 166.767 85.6854 166.518L84.7865 170.229ZM78.0299 164.664C77.0053 164.415 75.9734 165.045 75.7252 166.069C75.477 167.094 76.1063 168.126 77.1309 168.374L78.0299 164.664ZM75.3758 167.498C75.602 168.527 76.6202 169.179 77.6499 168.952C78.6796 168.726 79.3309 167.708 79.1046 166.678L75.3758 167.498ZM77.4048 158.942C77.1785 157.913 76.1604 157.261 75.1307 157.487C74.101 157.714 73.4497 158.732 73.6759 159.762L77.4048 158.942ZM79.0171 179.909C78.1379 180.49 77.8967 181.675 78.4785 182.554C79.0602 183.433 80.2446 183.674 81.1238 183.093L79.0171 179.909ZM87.7188 178.729C88.598 178.147 88.8391 176.963 88.2574 176.084C87.6756 175.204 86.4913 174.963 85.6121 175.545L87.7188 178.729ZM80.2316 189.418C80.5019 190.437 81.5471 191.044 82.5661 190.774C83.5851 190.504 84.1921 189.458 83.9218 188.439L80.2316 189.418ZM81.8915 180.786C81.6212 179.767 80.576 179.16 79.557 179.43C78.538 179.7 77.931 180.745 78.2013 181.764L81.8915 180.786ZM63.0521 197.433C62.3448 198.215 62.4053 199.422 63.1871 200.129C63.9689 200.837 65.176 200.776 65.8833 199.994L63.0521 197.433ZM71.1971 194.121C71.9044 193.339 71.844 192.132 71.0622 191.424C70.2804 190.717 69.0733 190.778 68.366 191.559L71.1971 194.121ZM76.2787 197.129C77.2854 197.442 78.3553 196.88 78.6686 195.873C78.9818 194.867 78.4196 193.797 77.413 193.483L76.2787 197.129ZM69.8916 191.143C68.8849 190.83 67.815 191.392 67.5017 192.399C67.1885 193.405 67.7507 194.475 68.7573 194.789L69.8916 191.143ZM47.2944 185.035C46.2568 184.849 45.2645 185.539 45.0782 186.576C44.8918 187.614 45.5819 188.606 46.6196 188.793L47.2944 185.035ZM54.3729 190.185C55.4106 190.371 56.4028 189.681 56.5892 188.644C56.7755 187.606 56.0854 186.614 55.0478 186.427L54.3729 190.185ZM56.1407 187.665C55.8948 186.639 54.8644 186.008 53.8392 186.254C52.8141 186.499 52.1823 187.53 52.4282 188.555L56.1407 187.665ZM54.2752 196.256C54.5211 197.282 55.5514 197.913 56.5766 197.667C57.6018 197.422 58.2336 196.391 57.9877 195.366L54.2752 196.256ZM50.6964 165.378C50.3952 164.367 49.332 163.792 48.3217 164.094C47.3114 164.395 46.7365 165.458 47.0377 166.468L50.6964 165.378ZM49.2995 174.055C49.6007 175.066 50.6639 175.64 51.6742 175.339C52.6845 175.038 53.2594 173.975 52.9582 172.965L49.2995 174.055ZM57.5015 169.735C57.2279 168.717 56.1807 168.113 55.1626 168.387C54.1445 168.66 53.5409 169.708 53.8145 170.726L57.5015 169.735ZM54.9738 175.039C55.2475 176.057 56.2946 176.661 57.3128 176.387C58.3309 176.114 58.9344 175.067 58.6608 174.048L54.9738 175.039ZM58.0672 176.231C58.8547 175.53 58.9248 174.324 58.2239 173.536C57.523 172.749 56.3164 172.678 55.5289 173.379L58.0672 176.231ZM52.1936 176.348C51.4061 177.049 51.336 178.255 52.0369 179.043C52.7378 179.83 53.9444 179.901 54.7319 179.2L52.1936 176.348ZM58.479 185.894C59.5179 186.073 60.5053 185.376 60.6844 184.337C60.8636 183.298 60.1666 182.31 59.1277 182.131L58.479 185.894ZM54.7487 181.376C53.7098 181.197 52.7224 181.894 52.5432 182.933C52.3641 183.972 53.0611 184.959 54.1 185.138L54.7487 181.376ZM60.4619 183.457C60.2527 182.424 59.2455 181.756 58.2122 181.965C57.1789 182.174 56.5108 183.181 56.7201 184.215L60.4619 183.457ZM57.6068 188.594C57.8161 189.627 58.8233 190.295 59.8566 190.086C60.8899 189.877 61.5579 188.87 61.3487 187.836L57.6068 188.594ZM71.8066 189.603C72.8164 189.906 73.8805 189.333 74.1832 188.323C74.4859 187.313 73.9127 186.249 72.9028 185.946L71.8066 189.603ZM68.6466 184.67C67.6368 184.367 66.5727 184.941 66.27 185.951C65.9673 186.96 66.5405 188.024 67.5504 188.327L68.6466 184.67ZM63.7968 188.707C63.0815 189.481 63.1295 190.689 63.9039 191.404C64.6784 192.119 65.8861 192.071 66.6014 191.297L63.7968 188.707ZM69.6326 188.015C70.3479 187.24 70.2999 186.033 69.5255 185.317C68.751 184.602 67.5433 184.65 66.828 185.425L69.6326 188.015ZM73.8049 179.26C73.0896 180.034 73.1376 181.242 73.912 181.957C74.6865 182.673 75.8942 182.625 76.6095 181.85L73.8049 179.26ZM79.6407 178.568C80.356 177.794 80.308 176.586 79.5336 175.871C78.7591 175.155 77.5514 175.203 76.8361 175.978L79.6407 178.568ZM76.7755 179.268C76.4566 178.263 75.3834 177.707 74.3786 178.026C73.3737 178.345 72.8176 179.418 73.1365 180.423L76.7755 179.268ZM74.4873 184.679C74.8063 185.684 75.8794 186.24 76.8842 185.921C77.8891 185.602 78.4452 184.529 78.1263 183.524L74.4873 184.679ZM73.947 166.068C73.7192 165.039 72.7001 164.389 71.6708 164.617C70.6414 164.845 69.9916 165.864 70.2195 166.893L73.947 166.068ZM71.1849 171.255C71.4127 172.285 72.4318 172.935 73.4612 172.707C74.4905 172.479 75.1403 171.46 74.9125 170.43L71.1849 171.255ZM73.8087 168.459C72.8894 167.943 71.7258 168.27 71.2098 169.189C70.6937 170.108 71.0206 171.272 71.94 171.788L73.8087 168.459ZM75.8162 173.964C76.7355 174.48 77.8991 174.153 78.4152 173.234C78.9312 172.314 78.6043 171.151 77.685 170.635L75.8162 173.964ZM62.3373 166.46C61.46 167.045 61.2229 168.23 61.8076 169.107C62.3924 169.985 63.5775 170.222 64.4548 169.637L62.3373 166.46ZM68.1666 167.163C69.0438 166.578 69.281 165.393 68.6962 164.516C68.1115 163.638 66.9264 163.401 66.0491 163.986L68.1666 167.163ZM63.4932 169.644C64.5461 169.698 65.4439 168.889 65.4985 167.836C65.5531 166.783 64.7439 165.885 63.6911 165.831L63.4932 169.644ZM59.2524 165.601C58.1996 165.546 57.3018 166.355 57.2472 167.408C57.1925 168.461 58.0017 169.359 59.0546 169.413L59.2524 165.601ZM58.456 153.683L69.6262 201.439L73.3437 200.57L62.1734 152.814L58.456 153.683ZM81.9922 159.307L46.9545 192.785L49.592 195.545L84.6296 162.067L81.9922 159.307ZM89.4581 182.397L43.2032 168.793L42.126 172.456L88.3809 186.059L89.4581 182.397ZM54.2888 161.278L61.6793 164.005L63.0008 160.423L55.6104 157.696L54.2888 161.278ZM66.1388 154.922L61.1314 161.062L64.09 163.474L69.0974 157.334L66.1388 154.922ZM85.6854 166.518L78.0299 164.664L77.1309 168.374L84.7865 170.229L85.6854 166.518ZM79.1046 166.678L77.4048 158.942L73.6759 159.762L75.3758 167.498L79.1046 166.678ZM81.1238 183.093L87.7188 178.729L85.6121 175.545L79.0171 179.909L81.1238 183.093ZM83.9218 188.439L81.8915 180.786L78.2013 181.764L80.2316 189.418L83.9218 188.439ZM65.8833 199.994L71.1971 194.121L68.366 191.559L63.0521 197.433L65.8833 199.994ZM77.413 193.483L69.8916 191.143L68.7573 194.789L76.2787 197.129L77.413 193.483ZM46.6196 188.793L54.3729 190.185L55.0478 186.427L47.2944 185.035L46.6196 188.793ZM52.4282 188.555L54.2752 196.256L57.9877 195.366L56.1407 187.665L52.4282 188.555ZM47.0377 166.468L49.2995 174.055L52.9582 172.965L50.6964 165.378L47.0377 166.468ZM53.8145 170.726L54.9738 175.039L58.6608 174.048L57.5015 169.735L53.8145 170.726ZM55.5289 173.379L52.1936 176.348L54.7319 179.2L58.0672 176.231L55.5289 173.379ZM59.1277 182.131L54.7487 181.376L54.1 185.138L58.479 185.894L59.1277 182.131ZM56.7201 184.215L57.6068 188.594L61.3487 187.836L60.4619 183.457L56.7201 184.215ZM72.9028 185.946L68.6466 184.67L67.5504 188.327L71.8066 189.603L72.9028 185.946ZM66.6014 191.297L69.6326 188.015L66.828 185.425L63.7968 188.707L66.6014 191.297ZM76.6095 181.85L79.6407 178.568L76.8361 175.978L73.8049 179.26L76.6095 181.85ZM73.1365 180.423L74.4873 184.679L78.1263 183.524L76.7755 179.268L73.1365 180.423ZM70.2195 166.893L71.1849 171.255L74.9125 170.43L73.947 166.068L70.2195 166.893ZM71.94 171.788L75.8162 173.964L77.685 170.635L73.8087 168.459L71.94 171.788ZM64.4548 169.637L68.1666 167.163L66.0491 163.986L62.3373 166.46L64.4548 169.637ZM63.6911 165.831L59.2524 165.601L59.0546 169.413L63.4932 169.644L63.6911 165.831Z" fill="#B0CCCE"/>
<path d="M346.939 151.818C346.591 150.823 345.502 150.299 344.507 150.647C343.512 150.996 342.987 152.085 343.336 153.08L346.939 151.818ZM363.859 211.686C364.208 212.681 365.297 213.205 366.292 212.857C367.287 212.508 367.811 211.419 367.463 210.424L363.859 211.686ZM376.551 159.933C377.231 159.127 377.13 157.923 376.324 157.243C375.518 156.563 374.314 156.665 373.634 157.47L376.551 159.933ZM334.057 204.354C333.377 205.16 333.479 206.364 334.284 207.044C335.09 207.724 336.294 207.623 336.974 206.817L334.057 204.354ZM384.999 189.455C386.036 189.643 387.029 188.954 387.217 187.916C387.404 186.879 386.716 185.886 385.678 185.698L384.999 189.455ZM325.61 174.832C324.572 174.645 323.579 175.333 323.392 176.371C323.204 177.408 323.893 178.401 324.93 178.589L325.61 174.832ZM339.693 159.177C338.671 158.92 337.634 159.54 337.377 160.562C337.119 161.585 337.74 162.622 338.762 162.879L339.693 159.177ZM348.435 165.312C349.457 165.569 350.494 164.949 350.751 163.926C351.009 162.904 350.388 161.867 349.366 161.61L348.435 165.312ZM356.321 156.127C356.896 155.243 356.646 154.061 355.763 153.486C354.879 152.911 353.696 153.161 353.121 154.044L356.321 156.127ZM347.648 162.451C347.073 163.334 347.323 164.517 348.207 165.092C349.09 165.667 350.273 165.417 350.848 164.534L347.648 162.451ZM378.308 170.01C379.353 170.147 380.311 169.411 380.449 168.366C380.586 167.32 379.85 166.362 378.805 166.224L378.308 170.01ZM368.917 164.925C367.871 164.788 366.913 165.524 366.775 166.569C366.638 167.615 367.374 168.573 368.419 168.711L368.917 164.925ZM366.507 168.187C366.842 169.186 367.924 169.725 368.923 169.39C369.923 169.055 370.462 167.973 370.127 166.974L366.507 168.187ZM366.94 157.465C366.605 156.466 365.523 155.927 364.524 156.262C363.524 156.597 362.985 157.679 363.32 158.678L366.94 157.465ZM372.612 183.871C371.8 184.543 371.687 185.746 372.36 186.558C373.032 187.37 374.235 187.483 375.047 186.811L372.612 183.871ZM382.759 180.426C383.571 179.753 383.684 178.55 383.012 177.738C382.339 176.926 381.136 176.813 380.324 177.485L382.759 180.426ZM375.578 195.104C375.956 196.088 377.06 196.58 378.044 196.202C379.029 195.825 379.52 194.721 379.143 193.736L375.578 195.104ZM375.551 184.376C375.174 183.392 374.069 182.9 373.085 183.278C372.101 183.655 371.609 184.76 371.987 185.744L375.551 184.376ZM354.973 207.999C354.353 208.852 354.543 210.045 355.395 210.665C356.248 211.285 357.442 211.096 358.062 210.243L354.973 207.999ZM363.956 202.129C364.576 201.277 364.387 200.083 363.534 199.463C362.681 198.843 361.487 199.033 360.868 199.885L363.956 202.129ZM371.27 205.029C372.304 205.233 373.308 204.559 373.511 203.525C373.715 202.491 373.042 201.487 372.008 201.283L371.27 205.029ZM362.223 199.355C361.188 199.151 360.185 199.824 359.981 200.859C359.777 201.893 360.45 202.897 361.485 203.101L362.223 199.355ZM333.012 194.732C331.961 194.657 331.048 195.449 330.973 196.501C330.899 197.553 331.691 198.465 332.743 198.54L333.012 194.732ZM342.692 199.244C343.743 199.318 344.656 198.526 344.73 197.474C344.805 196.423 344.013 195.51 342.961 195.435L342.692 199.244ZM344.062 196.509C343.708 195.516 342.616 194.998 341.622 195.352C340.629 195.706 340.111 196.798 340.465 197.791L344.062 196.509ZM343.833 207.236C344.187 208.229 345.279 208.747 346.272 208.393C347.265 208.039 347.783 206.947 347.429 205.954L343.833 207.236ZM334.202 169.215C333.795 168.243 332.676 167.785 331.704 168.192C330.732 168.6 330.274 169.718 330.681 170.691L334.202 169.215ZM334.555 179.936C334.962 180.908 336.081 181.366 337.053 180.958C338.026 180.551 338.484 179.432 338.076 178.46L334.555 179.936ZM343.353 173.767C342.972 172.784 341.867 172.296 340.884 172.676C339.901 173.057 339.413 174.163 339.793 175.146L343.353 173.767ZM341.836 180.419C342.217 181.402 343.323 181.891 344.306 181.51C345.289 181.129 345.777 180.023 345.396 179.04L341.836 180.419ZM345.042 181.343C345.75 180.562 345.691 179.355 344.91 178.647C344.128 177.939 342.921 177.998 342.213 178.779L345.042 181.343ZM338.416 182.967C337.708 183.749 337.767 184.956 338.549 185.664C339.33 186.372 340.537 186.313 341.245 185.532L338.416 182.967ZM347.276 193.285C348.328 193.352 349.236 192.554 349.303 191.502C349.37 190.45 348.571 189.542 347.519 189.475L347.276 193.285ZM341.905 189.117C340.852 189.05 339.945 189.849 339.878 190.901C339.811 191.953 340.609 192.86 341.662 192.927L341.905 189.117ZM348.926 190.61C348.608 189.605 347.535 189.049 346.53 189.367C345.525 189.686 344.968 190.758 345.287 191.763L348.926 190.61ZM346.996 197.156C347.314 198.161 348.387 198.718 349.392 198.4C350.397 198.081 350.954 197.008 350.635 196.003L346.996 197.156ZM364.616 196.159C365.653 196.352 366.649 195.669 366.842 194.632C367.036 193.596 366.352 192.599 365.315 192.406L364.616 196.159ZM359.785 191.376C358.748 191.183 357.752 191.866 357.559 192.903C357.366 193.939 358.049 194.936 359.086 195.129L359.785 191.376ZM354.727 196.917C354.098 197.763 354.275 198.959 355.122 199.587C355.968 200.216 357.164 200.039 357.792 199.193L354.727 196.917ZM361.164 194.651C361.792 193.804 361.615 192.609 360.769 191.98C359.922 191.352 358.727 191.529 358.098 192.375L361.164 194.651ZM366.047 183.67C365.419 184.517 365.595 185.713 366.442 186.341C367.288 186.969 368.484 186.793 369.112 185.946L366.047 183.67ZM372.484 181.404C373.113 180.558 372.936 179.362 372.089 178.734C371.243 178.105 370.047 178.282 369.419 179.129L372.484 181.404ZM368.915 183.18C368.49 182.215 367.364 181.777 366.399 182.202C365.434 182.626 364.996 183.753 365.42 184.718L368.915 183.18ZM367.697 189.893C368.121 190.858 369.247 191.296 370.212 190.871C371.178 190.447 371.616 189.321 371.191 188.356L367.697 189.893ZM363.552 166.904C363.215 165.905 362.133 165.368 361.133 165.705C360.134 166.041 359.597 167.124 359.934 168.123L363.552 166.904ZM361.739 173.484C362.076 174.483 363.159 175.02 364.158 174.683C365.157 174.347 365.694 173.264 365.357 172.265L361.739 173.484ZM363.983 170.237C363.014 169.823 361.892 170.272 361.477 171.241C361.062 172.21 361.511 173.332 362.48 173.747L363.983 170.237ZM367.654 175.962C368.624 176.377 369.746 175.927 370.16 174.958C370.575 173.989 370.126 172.867 369.157 172.452L367.654 175.962ZM349.797 169.197C348.987 169.872 348.878 171.076 349.553 171.885C350.228 172.695 351.432 172.804 352.242 172.129L349.797 169.197ZM356.579 168.512C357.389 167.837 357.498 166.633 356.823 165.824C356.148 165.014 354.944 164.905 354.134 165.58L356.579 168.512ZM351.329 172.15C352.382 172.092 353.188 171.192 353.13 170.139C353.072 169.086 352.171 168.28 351.118 168.338L351.329 172.15ZM345.5 168.649C344.447 168.707 343.641 169.608 343.699 170.66C343.757 171.713 344.658 172.519 345.71 172.461L345.5 168.649ZM343.336 153.08L363.859 211.686L367.463 210.424L346.939 151.818L343.336 153.08ZM373.634 157.47L334.057 204.354L336.974 206.817L376.551 159.933L373.634 157.47ZM385.678 185.698L325.61 174.832L324.93 178.589L384.999 189.455L385.678 185.698ZM338.762 162.879L348.435 165.312L349.366 161.61L339.693 159.177L338.762 162.879ZM353.121 154.044L347.648 162.451L350.848 164.534L356.321 156.127L353.121 154.044ZM378.805 166.224L368.917 164.925L368.419 168.711L378.308 170.01L378.805 166.224ZM370.127 166.974L366.94 157.465L363.32 158.678L366.507 168.187L370.127 166.974ZM375.047 186.811L382.759 180.426L380.324 177.485L372.612 183.871L375.047 186.811ZM379.143 193.736L375.551 184.376L371.987 185.744L375.578 195.104L379.143 193.736ZM358.062 210.243L363.956 202.129L360.868 199.885L354.973 207.999L358.062 210.243ZM372.008 201.283L362.223 199.355L361.485 203.101L371.27 205.029L372.008 201.283ZM332.743 198.54L342.692 199.244L342.961 195.435L333.012 194.732L332.743 198.54ZM340.465 197.791L343.833 207.236L347.429 205.954L344.062 196.509L340.465 197.791ZM330.681 170.691L334.555 179.936L338.076 178.46L334.202 169.215L330.681 170.691ZM339.793 175.146L341.836 180.419L345.396 179.04L343.353 173.767L339.793 175.146ZM342.213 178.779L338.416 182.967L341.245 185.532L345.042 181.343L342.213 178.779ZM347.519 189.475L341.905 189.117L341.662 192.927L347.276 193.285L347.519 189.475ZM345.287 191.763L346.996 197.156L350.635 196.003L348.926 190.61L345.287 191.763ZM365.315 192.406L359.785 191.376L359.086 195.129L364.616 196.159L365.315 192.406ZM357.792 199.193L361.164 194.651L358.098 192.375L354.727 196.917L357.792 199.193ZM369.112 185.946L372.484 181.404L369.419 179.129L366.047 183.67L369.112 185.946ZM365.42 184.718L367.697 189.893L371.191 188.356L368.915 183.18L365.42 184.718ZM359.934 168.123L361.739 173.484L365.357 172.265L363.552 166.904L359.934 168.123ZM362.48 173.747L367.654 175.962L369.157 172.452L363.983 170.237L362.48 173.747ZM352.242 172.129L356.579 168.512L354.134 165.58L349.797 169.197L352.242 172.129ZM351.118 168.338L345.5 168.649L345.71 172.461L351.329 172.15L351.118 168.338Z" fill="#B0CCCE"/>
</svg>
