<svg width="1920" height="864" viewBox="0 0 1920 864" fill="none" xmlns="http://www.w3.org/2000/svg">
<path d="M0.0610352 293.795L536.523 141.231L674.984 224.564L1178.83 0.205078L1510.88 238.667L1680.11 197.641L1920.06 298.923V864H0.0610352V293.795Z" fill="#3179BB"/>
<path d="M0.0610352 400.205L109.599 330.974L217.292 365.59L449.343 307.897L774.984 393.795L1163.45 252.769L1555.75 491.231L1786.52 372L1920.06 474.564V864H0.0610352V400.205Z" fill="#2B6CAB"/>
<path d="M648.298 214.713L652.982 195.041L658.603 218.46L648.298 214.713Z" fill="#3179BB"/>
<path d="M361.651 195.041L356.967 179.116L352.283 199.725L361.651 195.041Z" fill="#3179BB"/>
<path d="M207.086 240.005L202.403 218.46L196.782 246.563L207.086 240.005Z" fill="#3179BB"/>
<path d="M788.812 179.116L792.559 160.381L797.242 175.369L788.812 179.116Z" fill="#3179BB"/>
<path d="M806.61 169.749L800.99 150.077L797.242 175.369L806.61 169.749Z" fill="#3179BB"/>
<path d="M1015.51 76.0732L1020.19 49.8442L1024.87 76.0732H1015.51Z" fill="#3179BB"/>
<path d="M1386.46 162.723L1393.02 133.215L1401.45 169.749L1386.46 162.723Z" fill="#3179BB"/>
<path d="M1603.49 227.201L1594.69 202.634L1591.44 233.691L1603.49 227.201Z" fill="#3179BB"/>
<path d="M1792.15 256.867L1795.4 236.478L1800.96 259.185L1792.15 256.867Z" fill="#3179BB"/>
<path d="M1800.96 264.747L1804.67 245.743L1809.77 264.747H1800.96Z" fill="#3179BB"/>
<path d="M788.812 398.05L797.242 354.959L806.61 398.05H788.812Z" fill="#2B6CAB"/>
<path d="M823.472 376.505L834.713 329.354L843.144 368.074L823.472 376.505Z" fill="#2B6CAB"/>
<path d="M869.373 366.2L855.321 306.248L843.144 376.505L869.373 366.2Z" fill="#2B6CAB"/>
<path d="M628.626 360.58L622.069 324.046L612.702 360.58H628.626Z" fill="#2B6CAB"/>
<path d="M504.975 320.299L493.734 268.778L484.366 320.299H504.975Z" fill="#2B6CAB"/>
<path d="M464.694 315.616L473.125 285.639L479.682 320.299L464.694 315.616Z" fill="#2B6CAB"/>
<path d="M1225.09 313.739L1236.89 276.512L1245.06 313.739H1225.09Z" fill="#2B6CAB"/>
<path d="M1335.86 384.484L1350.39 313.739V392.734L1335.86 388.194V384.484Z" fill="#2B6CAB"/>
<path d="M1317.7 360.58L1325.88 333.414V368.592L1317.7 360.58Z" fill="#2B6CAB"/>
<path d="M648.298 212.133L652.982 192.461L658.603 215.88L648.298 212.133Z" fill="#3179BB"/>
<path d="M361.651 192.461L356.967 176.536L352.283 197.145L361.651 192.461Z" fill="#3179BB"/>
<path d="M207.086 237.425L202.403 215.88L196.782 243.983L207.086 237.425Z" fill="#3179BB"/>
<path d="M788.812 176.536L792.559 157.801L797.242 172.789L788.812 176.536Z" fill="#3179BB"/>
<path d="M806.61 167.169L800.99 147.497L797.242 172.789L806.61 167.169Z" fill="#3179BB"/>
<path d="M1015.51 73.4932L1020.19 47.2642L1024.87 73.4932H1015.51Z" fill="#3179BB"/>
<path d="M1386.46 160.143L1393.02 130.635L1401.45 167.169L1386.46 160.143Z" fill="#3179BB"/>
<path d="M1603.49 224.621L1594.69 200.054L1591.44 231.111L1603.49 224.621Z" fill="#3179BB"/>
<path d="M1792.15 254.287L1795.4 233.898L1800.96 256.605L1792.15 254.287Z" fill="#3179BB"/>
<path d="M1800.96 262.168L1804.67 243.163L1809.77 262.168H1800.96Z" fill="#3179BB"/>
<path d="M788.812 395.47L797.242 352.379L806.61 395.47H788.812Z" fill="#2B6CAB"/>
<path d="M823.472 373.925L834.713 326.774L843.144 365.494L823.472 373.925Z" fill="#2B6CAB"/>
<path d="M869.373 363.62L855.321 303.668L843.144 373.925L869.373 363.62Z" fill="#2B6CAB"/>
<path d="M628.626 358L622.069 321.466L612.702 358H628.626Z" fill="#2B6CAB"/>
<path d="M504.975 317.719L493.734 266.198L484.366 317.719H504.975Z" fill="#2B6CAB"/>
<path d="M464.694 313.036L473.125 283.059L479.682 317.719L464.694 313.036Z" fill="#2B6CAB"/>
<path d="M1225.09 311.159L1236.89 273.932L1245.06 311.159H1225.09Z" fill="#2B6CAB"/>
<path d="M1335.86 381.904L1350.39 311.159V390.154L1335.86 385.614V381.904Z" fill="#2B6CAB"/>
<path d="M1317.7 358L1325.88 330.834V366.013L1317.7 358Z" fill="#2B6CAB"/>
</svg>
