<svg width="1920" height="524" viewBox="0 0 1920 524" fill="none" xmlns="http://www.w3.org/2000/svg">
<path d="M61.952 0.5L24.592 226.216H51.055L24.592 241.782L0.0610352 356.975V523.538H158.465L116.435 300.936L93.085 297.822L114.878 290.039L89.972 151.496L69.735 125.033L88.415 123.476L61.952 0.5Z" fill="#121328"/>
<path d="M243.025 74.6982L206.208 254.367L232.716 270.566L197.372 276.457L158.465 457.598H324.023L243.025 74.6982Z" fill="#121328"/>
<path d="M158.465 83.3159L121.366 254.912L146.1 245.636L112.836 278.678L62.6211 500.711H258.951L207.936 309.592L175.472 299.743L204.845 292.014L180.11 188.438L160.786 174.525L175.472 171.433L158.465 83.3159Z" fill="#1B3968"/>
<path d="M309.966 30.7549L271.763 210.551L302.237 197L271.763 231.723L224.941 457.426H410.912L365.619 266.148L330.063 244.09H356.343L309.966 30.7549Z" fill="#1B3968"/>
<path d="M405.021 161.587L366.731 307.383L394.712 295.602L366.731 326.528L338.75 457.598H483.073L460.983 369.236L428.584 355.982L459.51 357.455L430.057 325.056L453.62 338.31L405.021 161.587Z" fill="#121328"/>
<path d="M23.295 161.587L25.023 168.092L62.621 309.592L31.078 319.134L62.621 333.144L91.788 467.017L0.0610352 473.489L1.06104 244.09" fill="#1B3968"/>
<path d="M158.465 251.159L105.057 421.495L158.465 407.111L207.258 421.495L186.061 347.304L169.406 336.327H181.519L172.434 300.367L164.106 295.825L170.163 292.014L158.465 251.159Z" fill="#014A78"/>
<path d="M308.421 120.522L282.193 253.23L295.307 249.042L282.193 264.262L253.341 421.495L308.421 410.348L359.567 421.495L342.519 317.892L329.404 304.778L339.262 300.843L321.536 198.212H313.011L320.88 191.339L308.421 120.522Z" fill="#014A78"/>
<path d="M162.786 406.725H147.812V446.79H162.786V406.725Z" fill="#014A78"/>
<path d="M313.942 401.462H298.967V441.527H313.942V401.462Z" fill="#014A78"/>
<path d="M1842.01 177.478L1803.72 323.275L1831.7 311.493L1803.72 342.42L1775.74 473.489H1920.06L1897.97 385.128L1865.57 371.874L1896.5 373.346L1867.04 340.947L1890.61 354.201L1842.01 177.478Z" fill="#121328"/>
<path d="M1425.5 37.6509L1388.69 259.844L1415.2 279.878L1379.85 287.163L1340.94 511.176H1506.5L1425.5 37.6509Z" fill="#121328"/>
<path d="M1631.53 129.699L1594.17 298.68H1620.63L1594.17 310.334L1569.64 396.572V521.268H1728.04L1686.01 354.618L1662.66 352.288L1684.45 346.461L1659.55 242.741L1639.31 222.93L1657.99 221.765L1631.53 129.699Z" fill="#121328"/>
<path d="M1523.76 63.7642L1485.55 243.56L1516.03 230.009L1485.55 264.732L1438.73 490.434H1624.7L1579.41 299.157L1543.85 277.099H1570.13L1523.76 63.7642Z" fill="#1B3968"/>
<path d="M1898.4 90.769L1896.79 99.143L1861.67 281.295L1891.13 293.578L1861.67 311.613L1834.42 483.946L1920.11 492.278L1919.17 196.975" fill="#1B3968"/>
<path d="M1733.93 100.895L1696.83 272.491L1721.57 263.215L1688.3 296.257L1638.09 518.29H1834.42L1783.4 327.171L1750.94 317.322L1780.31 309.592L1755.58 206.017L1736.25 192.104L1750.94 189.012L1733.93 100.895Z" fill="#1B3968"/>
<path d="M1525.29 164.981L1499.06 297.689L1512.17 293.501L1499.06 308.721L1470.21 465.954L1525.29 454.807L1576.43 465.954L1559.38 362.351L1546.27 349.237L1556.13 345.303L1538.4 242.672H1529.88L1537.74 235.798L1525.29 164.981Z" fill="#014A78"/>
<path d="M1530.81 445.922H1515.83V485.986H1530.81V445.922Z" fill="#014A78"/>
<path d="M1738.56 274.414L1685.15 444.749L1738.56 430.365L1787.35 444.749L1766.16 370.559L1749.5 359.582H1761.61L1752.53 323.622L1744.2 319.08L1750.26 315.268L1738.56 274.414Z" fill="#014A78"/>
<path d="M1742.88 429.98H1727.91V470.044H1742.88V429.98Z" fill="#014A78"/>
</svg>
