<svg width="360" height="795" viewBox="0 0 360 795" fill="none" xmlns="http://www.w3.org/2000/svg">
<g opacity="0.3">
<path d="M-1.1717 607.756L49.9764 702.62M52.1595 610.462L-3.47211 701.306M77.5905 657.166L-28.9033 654.602M-9.05421 624.023L8.27743 625.605M16.0615 609.711L8.88597 625.567M60.6632 625.658L43.2645 626.075M42.8638 627.474L34.8123 612.044M57.1459 656.411L68.7252 643.418M65.6752 671.014L56.9655 655.946M33.6905 701.75L41.6721 686.284M58.1587 687.499L40.7686 686.811M-10.4277 686.686L6.91532 685.235M5.89405 685.06L14.2398 700.332M-18.355 641.117L-9.18933 655.911M-1.39881 646.389L3.54198 654.872M3.65023 655.437L-1.77009 663.622M13.1949 673.81L3.41779 674.697M12.6408 673.557L17.0376 682.334M44.267 674.088L34.454 673.801M30.2695 682.872L34.8618 674.195M46.2261 657.168L50.8184 648.491M45.2843 655.807L50.6009 664.06M31.5109 629.115L36.0658 637.812M35.2823 636.386L44.799 638.796M13.8676 637.371L20.3744 630.02M14.1081 636.6L4.50363 638.632" stroke="#B0CCCE" stroke-width="3.8178" stroke-linecap="round"/>
<path d="M-17.6829 442.002L15.1032 502.81M16.5026 443.736L-19.1575 501.968M32.804 473.674L-35.459 472.031M-22.7356 452.429L-11.626 453.443M-6.63635 443.255L-11.2359 453.419M21.9535 453.477L10.8009 453.744M10.544 454.641L5.38298 444.751M19.6988 473.19L27.1213 464.862M25.1662 482.55L19.5832 472.892M4.66385 502.252L9.78015 492.339M20.3481 493.118L9.20095 492.676M-23.6161 492.596L-12.4991 491.666M-13.1537 491.554L-7.80411 501.344M-28.6975 463.386L-22.8222 472.869M-17.8285 466.766L-14.6614 472.204M-14.592 472.565L-18.0665 477.812M-8.47389 484.343L-14.741 484.911M-8.82904 484.18L-6.01066 489.807M11.4435 484.521L5.1533 484.337M2.471 490.151L5.41466 484.589M12.6993 473.675L15.6429 468.113M12.0955 472.803L15.5035 478.093M3.26673 455.693L6.18647 461.268M5.68424 460.354L11.7845 461.899M-8.04266 460.985L-3.87179 456.273M-7.88848 460.491L-14.045 461.794" stroke="#B0CCCE" stroke-width="3.7" stroke-linecap="round"/>
<path d="M292.317 181.002L325.103 241.811M326.503 182.737L290.843 240.968M342.804 212.674L274.541 211.031M287.264 191.43L298.374 192.444M303.364 182.256L298.764 192.419M331.954 192.478L320.801 192.745M320.544 193.642L315.383 183.751M329.699 212.19L337.121 203.862M335.166 221.551L329.583 211.893M314.664 241.253L319.78 231.339M330.348 232.118L319.201 231.677M286.384 231.597L297.501 230.666M296.846 230.555L302.196 240.344M281.303 202.387L287.178 211.87M292.172 205.766L295.339 211.204M295.408 211.566L291.934 216.813M301.526 223.343L295.259 223.912M301.171 223.181L303.989 228.807M321.443 223.522L315.153 223.338M312.471 229.152L315.415 223.59M322.699 212.676L325.643 207.114M322.096 211.803L325.504 217.093M313.267 194.694L316.186 200.268M315.684 199.354L321.785 200.899M301.957 199.986L306.128 195.274M302.112 199.491L295.955 200.794" stroke="#B0CCCE" stroke-width="3.7" stroke-linecap="round"/>
<path d="M-7.68292 80.0024L25.1032 140.811M26.5026 81.7369L-9.15748 139.968M42.804 111.674L-25.459 110.031M-12.7356 90.4297L-1.62599 91.4439M3.36365 81.2557L-1.23591 91.4192M31.9535 91.4779L20.8009 91.7449M20.544 92.6416L15.383 82.7514M29.6988 111.19L37.1213 102.862M35.1662 120.551L29.5832 110.893M14.6639 140.253L19.7801 130.339M30.3481 131.118L19.201 130.677M-13.6161 130.597L-2.49911 129.666M-3.15374 129.555L2.19589 139.344M-18.6975 101.387L-12.8222 110.87M-7.82849 104.766L-4.66143 110.204M-4.59204 110.566L-8.06648 115.813M1.52611 122.343L-4.74104 122.912M1.17096 122.181L3.98934 127.807M21.4435 122.522L15.1533 122.338M12.471 128.152L15.4147 122.59M22.6993 111.676L25.6429 106.114M22.0955 110.803L25.5035 116.093M13.2667 93.6936L16.1865 99.2681M15.6842 98.3543L21.7845 99.8992M1.95734 98.9859L6.12821 94.2738M2.11152 98.4914L-4.04501 99.7941" stroke="#B0CCCE" stroke-width="3.7" stroke-linecap="round"/>
<path d="M228.828 697.756L279.976 792.62M282.159 700.462L226.528 791.306M307.591 747.166L201.097 744.602M220.946 714.023L238.277 715.605M246.062 699.711L238.886 715.567M290.663 715.658L273.265 716.075M272.864 717.474L264.812 702.044M287.146 746.411L298.725 733.418M295.675 761.014L286.965 745.946M263.69 791.75L271.672 776.284M288.159 777.499L270.769 776.811M219.572 776.686L236.915 775.235M235.894 775.06L244.24 790.332M211.645 731.117L220.811 745.911M228.601 736.389L233.542 744.872M233.65 745.437L228.23 753.622M243.195 763.81L233.418 764.697M242.641 763.557L247.038 772.334M274.267 764.088L264.454 763.801M260.269 772.872L264.862 764.195M276.226 747.168L280.818 738.491M275.284 745.807L280.601 754.06M261.511 719.115L266.066 727.812M265.282 726.386L274.799 728.796M243.868 727.371L250.374 720.02M244.108 726.6L234.504 728.632" stroke="#B0CCCE" stroke-width="3.8178" stroke-linecap="round"/>
<path d="M288.829 457.756L339.977 552.62M342.16 460.462L286.528 551.306M367.591 507.166L261.097 504.602M280.946 474.023L298.278 475.605M306.062 459.711L298.886 475.567M350.663 475.658L333.265 476.075M332.864 477.474L324.813 462.044M347.146 506.411L358.725 493.418M355.675 521.014L346.966 505.946M323.691 551.75L331.672 536.284M348.159 537.499L330.769 536.811M279.573 536.686L296.916 535.235M295.894 535.06L304.24 550.332M271.645 491.117L280.811 505.911M288.601 496.389L293.542 504.872M293.65 505.437L288.23 513.622M303.195 523.81L293.418 524.697M302.641 523.557L307.038 532.334M334.267 524.088L324.454 523.801M320.27 532.872L324.862 524.195M336.226 507.168L340.819 498.491M335.285 505.807L340.601 514.06M321.511 479.115L326.066 487.812M325.283 486.386L334.799 488.796M303.868 487.371L310.375 480.02M304.108 486.6L294.504 488.632" stroke="#B0CCCE" stroke-width="3.8178" stroke-linecap="round"/>
<path d="M127.829 327.756L178.977 422.62M181.16 330.462L125.528 421.306M206.591 377.166L100.097 374.602M119.946 344.023L137.278 345.605M145.062 329.711L137.886 345.567M189.663 345.658L172.265 346.075M171.864 347.474L163.813 332.044M186.146 376.411L197.725 363.418M194.675 391.014L185.966 375.946M162.691 421.75L170.672 406.284M187.159 407.499L169.769 406.811M118.573 406.686L135.916 405.235M134.894 405.06L143.24 420.332M110.645 361.117L119.811 375.911M127.601 366.389L132.542 374.872M132.65 375.437L127.23 383.622M142.195 393.81L132.418 394.697M141.641 393.557L146.038 402.334M173.267 394.088L163.454 393.801M159.27 402.872L163.862 394.195M175.226 377.168L179.819 368.491M174.285 375.807L179.601 384.06M160.511 349.115L165.066 357.812M164.283 356.386L173.799 358.796M142.868 357.371L149.375 350.02M143.108 356.6L133.504 358.632" stroke="#B0CCCE" stroke-width="3.8178" stroke-linecap="round"/>
<path d="M196.828 2.75635L247.976 97.6208M250.159 5.46241L194.528 96.3064M275.591 52.1661L169.097 49.6027M188.946 19.0237L206.277 20.6059M214.062 4.71145L206.886 20.5671M258.663 20.6587L241.265 21.0751M240.864 22.4742L232.812 7.04492M255.146 51.4114L266.725 38.4188M263.675 66.0144L254.965 50.9468M231.69 96.7504L239.672 81.2849M256.159 82.4997L238.769 81.8111M187.572 81.6868L204.915 80.235M203.894 80.0606L212.24 95.3328M179.645 36.117L188.811 50.9116M196.601 41.3893L201.542 49.8726M201.65 50.4373L196.23 58.6225M211.195 68.8109L201.418 69.6974M210.641 68.5573L215.038 77.3348M242.267 69.0888L232.454 68.8018M228.269 77.8723L232.862 69.1955M244.226 52.1688L248.818 43.4919M243.284 50.8075L248.601 59.0604M229.511 24.1157L234.066 32.8122M233.282 31.3865L242.799 33.7966M211.868 32.3715L218.374 25.0204M212.108 31.6003L202.504 33.6327" stroke="#B0CCCE" stroke-width="3.8178" stroke-linecap="round"/>
</g>
</svg>
