<svg width="83" height="63" viewBox="0 0 83 63" fill="none" xmlns="http://www.w3.org/2000/svg">
<circle cx="1.5" cy="1.5" r="1.5" fill="#1A68E6" fill-opacity="0.3"/>
<circle cx="21.5" cy="1.5" r="1.5" fill="#1A68E6" fill-opacity="0.3"/>
<circle cx="41.5" cy="1.5" r="1.5" fill="#1A68E6" fill-opacity="0.3"/>
<circle cx="61.5" cy="1.5" r="1.5" fill="#1A68E6" fill-opacity="0.3"/>
<circle cx="81.5" cy="1.5" r="1.5" fill="#1A68E6" fill-opacity="0.3"/>
<circle cx="1.5" cy="21.5" r="1.5" fill="#1A68E6" fill-opacity="0.3"/>
<circle cx="21.5" cy="21.5" r="1.5" fill="#1A68E6" fill-opacity="0.3"/>
<circle cx="41.5" cy="21.5" r="1.5" fill="#1A68E6" fill-opacity="0.3"/>
<circle cx="61.5" cy="21.5" r="1.5" fill="#1A68E6" fill-opacity="0.3"/>
<circle cx="81.5" cy="21.5" r="1.5" fill="#1A68E6" fill-opacity="0.3"/>
<circle cx="1.5" cy="41.5" r="1.5" fill="#1A68E6" fill-opacity="0.3"/>
<circle cx="21.5" cy="41.5" r="1.5" fill="#1A68E6" fill-opacity="0.3"/>
<circle cx="41.5" cy="41.5" r="1.5" fill="#1A68E6" fill-opacity="0.3"/>
<circle cx="61.5" cy="41.5" r="1.5" fill="#1A68E6" fill-opacity="0.3"/>
<circle cx="81.5" cy="41.5" r="1.5" fill="#1A68E6" fill-opacity="0.3"/>
<circle cx="1.5" cy="61.5" r="1.5" fill="#1A68E6" fill-opacity="0.3"/>
<circle cx="21.5" cy="61.5" r="1.5" fill="#1A68E6" fill-opacity="0.3"/>
<circle cx="41.5" cy="61.5" r="1.5" fill="#1A68E6" fill-opacity="0.3"/>
<circle cx="61.5" cy="61.5" r="1.5" fill="#1A68E6" fill-opacity="0.3"/>
<circle cx="81.5" cy="61.5" r="1.5" fill="#1A68E6" fill-opacity="0.3"/>
</svg>
