<svg width="128" height="128" viewBox="0 0 43 43" fill="none" xmlns="http://www.w3.org/2000/svg">
<path d="M13.8638 15.5917C13.9666 15.538 14.0715 15.4884 14.1712 15.4286C14.3151 15.3446 14.4651 15.2801 14.6349 15.26C15.1655 15.1942 15.7218 15.8245 15.689 16.4858C15.6642 16.9781 15.7238 17.4828 15.7584 17.9837C15.7974 18.5394 15.8543 19.0972 15.9042 19.6543C15.9176 19.8052 15.9353 19.9567 15.9487 20.1076C15.9561 20.1871 15.9574 20.2643 15.9616 20.3427C16.0229 20.4368 16.0139 20.5383 16.027 20.635C16.0518 20.8143 16.081 20.994 16.0967 21.1723C16.0999 21.208 16.1052 21.2439 16.0856 21.2698C16.0816 21.3061 16.0704 21.3407 16.0744 21.3784C16.1476 22.1117 16.2175 22.8452 16.2995 23.5809C16.3517 24.0531 16.2292 24.4104 16.0043 24.7028C15.7295 25.0602 15.3664 25.2477 14.94 25.3099C14.5984 25.3595 14.2432 25.3238 13.8876 25.2821C13.0934 25.1869 12.2957 25.013 11.4959 24.7819C10.4602 24.4814 9.43015 24.1044 8.40705 23.6292C8.25912 23.5607 8.11261 23.4792 7.96554 23.4029C7.83734 23.3369 7.76693 23.2208 7.7555 23.0629C7.74899 22.983 7.74644 22.9039 7.74815 22.8266C7.77434 21.8448 7.76458 20.854 7.74409 19.8594C7.7027 17.7899 7.65279 15.7168 7.60653 13.6458C7.60534 13.5908 7.59928 13.5342 7.60243 13.4809C7.60861 13.3671 7.66063 13.3345 7.75388 13.3899C7.87071 13.4597 7.98546 13.5353 8.10121 13.6093C8.94606 14.1478 9.81229 14.5386 10.691 14.8449C11.1663 15.0107 11.642 15.1702 12.1173 15.3323C12.1303 15.3365 12.143 15.342 12.1561 15.3474C12.5226 15.4843 12.8891 15.6126 13.2571 15.6637C13.471 15.6947 13.678 15.6706 13.8638 15.5917Z" fill="#767675"/>
<path d="M16.1681 20.4312C16.3234 20.4607 16.4784 20.4891 16.6338 20.5198C16.9447 20.5811 17.2559 20.6435 17.5669 20.706C17.7808 20.7493 17.9948 20.795 18.2087 20.8383C18.5197 20.9008 18.8304 20.961 19.1413 21.0235C19.352 21.0658 19.5628 21.1104 19.7734 21.1527C20.0877 21.2163 20.4017 21.2774 20.7158 21.341C20.933 21.3854 21.1506 21.4345 21.3675 21.4777C21.6721 21.5393 21.9765 21.5973 22.2808 21.6578C22.4978 21.701 22.7154 21.7488 22.9323 21.7921C23.2403 21.8546 23.5478 21.9137 23.8553 21.9753C24.0727 22.0195 24.2897 22.0664 24.5071 22.1106C24.8146 22.1722 25.1222 22.2312 25.4299 22.2927C25.6439 22.336 25.8579 22.3817 26.0719 22.425C26.3828 22.4875 26.6934 22.5477 27.0043 22.6102C27.2184 22.6535 27.4327 22.7003 27.6462 22.7426C27.9571 22.8051 28.268 22.8652 28.5792 22.9288C28.7961 22.9721 29.0137 23.0212 29.2306 23.0644C29.5351 23.126 29.8394 23.184 30.1442 23.2456C30.3612 23.2888 30.5784 23.3356 30.7953 23.3788C31.1034 23.4413 31.411 23.5016 31.7183 23.562C31.8645 23.5918 32.01 23.6194 32.1562 23.6516C32.1835 23.6569 32.212 23.679 32.2398 23.6928C32.2872 23.7893 32.2843 24.0708 32.2356 24.1267C32.2043 24.1626 32.16 24.1474 32.118 24.1387C31.7112 24.0614 31.3038 23.9782 30.8966 23.8973C29.4536 23.6111 28.0104 23.3237 26.5671 23.0351C25.6422 22.8515 24.7169 22.6668 23.7918 22.4821C22.4559 22.2143 21.1206 21.9488 19.7847 21.6836C18.8924 21.5066 17.9998 21.3286 17.1072 21.1506C16.8888 21.1068 16.6708 21.0665 16.4523 21.019C16.3335 20.9933 16.3034 20.9645 16.2587 20.8187C16.2197 20.6913 16.1557 20.5638 16.1681 20.4312Z" fill="#FEE4BD"/>
<path d="M16.1679 20.4311C16.2092 20.5697 16.2489 20.7079 16.292 20.8458C16.3264 20.9554 16.3368 20.9632 16.4241 20.9805C16.7977 21.0563 17.1709 21.1323 17.5443 21.207C18.077 21.3143 18.6095 21.4204 19.1418 21.5255C19.5639 21.6097 19.9861 21.6938 20.4078 21.7769C20.9631 21.8867 21.518 21.993 22.0731 22.1028C22.4724 22.1822 22.8721 22.2675 23.2713 22.3469C23.7553 22.4435 24.2388 22.5353 24.7227 22.632C25.1219 22.7113 25.5214 22.7955 25.9209 22.8761C26.4535 22.9834 26.9856 23.0886 27.518 23.1936C27.9435 23.2787 28.369 23.3639 28.7941 23.448C29.2162 23.5322 29.6384 23.6163 30.0604 23.7005C30.593 23.8067 31.1251 23.9118 31.6577 24.0179C31.8424 24.0543 32.0271 24.0882 32.2198 24.1247C32.2456 23.9875 32.2647 23.8483 32.2396 23.6926C32.3172 23.6993 32.3949 23.706 32.4726 23.7127C32.5132 23.7542 32.5214 23.8086 32.5278 23.8601C32.5484 24.0313 32.5693 24.2037 32.5846 24.3747C32.5905 24.4401 32.601 24.5132 32.5576 24.5569C32.1672 24.5564 31.7676 24.4302 31.3721 24.3579C30.8103 24.2559 30.2474 24.1383 29.6846 24.0257C29.2844 23.9455 28.8842 23.8628 28.4845 23.7836C27.9021 23.6672 27.3201 23.5519 26.7377 23.4367C26.1524 23.3203 25.5672 23.2039 24.9818 23.0863C24.2952 22.9489 23.609 22.8125 22.923 22.6773C22.3343 22.5599 21.7457 22.4425 21.1569 22.324C20.3666 22.1666 19.5765 22.0103 18.7858 21.853C18.1976 21.7367 17.6085 21.6183 17.0201 21.5008C16.7859 21.4541 16.5518 21.4134 16.3175 21.3617C16.2406 21.3448 16.1628 21.3012 16.0854 21.2696C16.0512 21.0007 16.0164 20.7308 15.9821 20.4618C15.9769 20.4222 15.968 20.3816 15.9613 20.3426C15.989 20.3885 16.0256 20.4008 16.0642 20.4073C16.0985 20.4133 16.1332 20.4228 16.1679 20.4311Z" fill="#C09F6F"/>
<path d="M32.6192 23.5915C32.6828 23.7822 32.7474 23.9736 32.8107 24.1656C32.8362 24.2433 32.8589 24.3223 32.8867 24.4126C32.9133 24.4157 32.9415 24.4206 32.9687 24.4199C33.2556 24.4089 33.5404 24.4903 33.824 24.6809C33.9566 24.7697 34.0906 24.8529 34.2238 24.939C34.2397 24.9481 34.255 24.9599 34.2687 24.9737C34.3689 25.0915 34.4857 25.1539 34.6058 25.2087C34.7987 25.2958 34.9915 25.3841 35.1849 25.4697C35.3408 25.5384 35.4956 25.5471 35.6509 25.5767C35.8091 25.6061 35.967 25.632 36.1245 25.6543C36.2084 25.6669 36.2913 25.6701 36.3746 25.6768C36.4645 25.6844 36.5539 25.6896 36.6434 25.6973C36.6544 25.6987 36.6668 25.7142 36.6787 25.7238C36.6173 25.805 36.5305 25.8381 36.4362 25.8424C36.3012 25.8497 36.1639 25.8457 36.0252 25.8311C35.7346 25.798 35.4432 25.7578 35.1514 25.7128C34.8615 25.6695 34.5684 25.5386 34.2983 25.3323C34.1775 25.2407 34.055 25.1525 33.9351 25.0593C33.6481 24.8357 33.3496 24.7233 33.0431 24.6835C32.9364 24.6698 32.83 24.6596 32.723 24.6411C32.6666 24.6312 32.6044 24.6338 32.5575 24.5568C32.5618 24.2796 32.5204 23.9965 32.4725 23.7126C32.4813 23.5791 32.4969 23.5661 32.6192 23.5915Z" fill="#484847"/>
<path d="M36.7429 25.4959C36.7137 25.4074 36.6812 25.3192 36.6554 25.2293C36.5836 24.9768 36.5199 24.722 36.4425 24.4695C36.3343 24.1157 36.217 23.7634 36.1034 23.4107C36.0678 23.3004 36.028 23.1919 35.9966 23.081C35.9673 22.9766 35.9124 22.9154 35.8289 22.889C35.7056 22.8505 35.5824 22.8094 35.461 22.8194C35.4001 22.8239 35.3351 22.8104 35.2719 22.8047C35.4558 22.7217 35.6549 22.6912 35.8681 22.7274C36.0564 22.7597 36.1589 22.8753 36.2305 23.1069C36.2517 23.1742 36.2701 23.2426 36.285 23.3102C36.4319 23.9878 36.5776 24.6646 36.7227 25.3418C36.734 25.3936 36.7363 25.4444 36.7429 25.4959Z" fill="#787877"/>
<path d="M13.8639 15.5915C13.842 15.6109 13.8244 15.6409 13.7984 15.6498C13.6683 15.6957 13.5322 15.7294 13.3865 15.7105C13.197 15.6874 13.0062 15.6512 12.8148 15.6018C12.6238 15.5521 12.4319 15.477 12.2405 15.409C12.2119 15.3993 12.1842 15.3682 12.156 15.3472C12.4455 15.4204 12.7351 15.4996 13.0246 15.5654C13.3125 15.6306 13.5941 15.6443 13.8639 15.5915Z" fill="#545453"/>
<path d="M15.4429 24.4474C15.3999 24.4983 15.3614 24.5559 15.3128 24.5982C15.1508 24.7358 14.9794 24.8579 14.7748 24.9117C14.5994 24.9577 14.4189 24.9837 14.2246 24.9491C14.147 24.9349 14.0709 24.9374 13.9934 24.9257C13.7807 24.8942 13.5683 24.8638 13.355 24.8252C13.103 24.78 12.8506 24.7314 12.5984 24.6777C12.3456 24.623 12.0922 24.5661 11.8393 24.4979C11.3456 24.3637 10.8518 24.2331 10.3583 24.0778C9.7895 23.8998 9.22141 23.6932 8.65706 23.438C8.53477 23.383 8.41288 23.3228 8.29114 23.2638C8.26291 23.2502 8.23561 23.2313 8.21127 23.2161C8.2038 22.6552 8.19623 22.1005 8.18812 21.546C8.18137 21.0626 8.17394 20.5782 8.16621 20.094C8.15962 19.6524 8.15373 19.2118 8.14775 18.77C8.14001 18.1537 8.13257 17.5372 8.12536 16.9207C8.11943 16.4443 8.1135 15.9679 8.10741 15.4916C8.10144 15.0041 8.09532 14.5166 8.08874 14.0282C8.08826 13.9901 8.09181 13.9528 8.09444 13.8985C8.14804 13.9355 8.19291 13.9665 8.23769 13.9975C8.34883 14.15 8.49511 14.2328 8.6272 14.3429C9.13891 14.7692 9.68577 15.0802 10.2263 15.4063C10.7478 15.721 11.2872 15.9069 11.8259 16.0906C12.4652 16.308 13.0987 16.4132 13.7276 16.4623C14.0585 16.4877 14.384 16.4673 14.6926 16.3851C14.7224 16.377 14.7528 16.3711 14.7841 16.3685C14.9817 16.3572 15.051 16.4244 15.1016 16.6738C15.1776 17.0491 15.1839 17.4168 15.2193 17.7876C15.3171 18.8164 15.4178 19.845 15.5171 20.8743C15.5953 21.6844 15.6582 22.4927 15.7274 23.3006C15.7276 23.3128 15.7285 23.3248 15.7301 23.3364C15.8126 23.683 15.696 23.918 15.5527 24.1314C15.4579 24.2717 15.3838 24.4387 15.247 24.5271C15.3129 24.5056 15.3426 24.3926 15.4429 24.4474Z" fill="#575756"/>
<path d="M15.4428 24.4477C15.405 24.4667 15.3669 24.4847 15.3297 24.5047C15.2824 24.5304 15.236 24.5581 15.1786 24.566C15.234 24.5046 15.2947 24.4496 15.3441 24.3811C15.4918 24.1794 15.635 23.9722 15.7228 23.7115C15.7514 23.6274 15.7241 23.527 15.7163 23.4329C15.7039 23.279 15.685 23.1244 15.6711 22.97C15.653 22.7717 15.6377 22.5748 15.6213 22.377C15.6115 22.2554 15.602 22.1324 15.5916 22.0098C15.5787 21.8562 15.5646 21.7019 15.551 21.5474C15.5328 21.3381 15.5159 21.1294 15.4962 20.9196C15.4818 20.7653 15.4636 20.6104 15.4479 20.4555C15.4338 20.3136 15.4201 20.1702 15.4066 20.028C15.3911 19.8656 15.3761 19.7043 15.3608 19.5419C15.3457 19.3831 15.3309 19.2254 15.3156 19.0667C15.302 18.9208 15.2876 18.774 15.2741 18.6281C15.2587 18.4657 15.2438 18.3031 15.2288 18.1418C15.215 17.9984 15.1998 17.8557 15.1874 17.7143C15.1692 17.5124 15.1503 17.3107 15.1362 17.1095C15.1228 16.9179 15.0876 16.7271 15.0479 16.5347C15.0357 16.4758 15.0061 16.4406 14.9643 16.4318C14.8935 16.4171 14.8151 16.3898 14.7538 16.4068C14.4419 16.4978 14.1089 16.4992 13.7766 16.5004C13.6289 16.5009 13.4757 16.4717 13.3246 16.4527C13.2218 16.4398 13.1185 16.4233 13.015 16.4044C12.8408 16.3734 12.6662 16.3388 12.4921 16.3076C12.1148 16.2396 11.7382 16.101 11.3626 15.9618C11.0609 15.852 10.7608 15.7243 10.4632 15.5781C10.2301 15.4617 10.0038 15.3066 9.77606 15.1644C9.51375 15.0004 9.25167 14.8337 8.99213 14.6622C8.88126 14.5886 8.77479 14.4995 8.66815 14.4129C8.5318 14.3022 8.39736 14.1883 8.26239 14.0734C8.24088 14.0556 8.21055 14.0319 8.23757 13.9978C8.49432 14.1397 8.74972 14.2944 9.00888 14.4216C9.3229 14.5766 9.6394 14.7169 9.95609 14.8473C10.2765 14.9797 10.5985 15.0967 10.9201 15.2138C11.4337 15.4011 11.9474 15.5834 12.4608 15.7658C12.734 15.8634 13.0089 15.9491 13.2791 15.9764C13.6075 16.009 13.9188 15.9702 14.1819 15.7821C14.2598 15.727 14.3441 15.6826 14.4255 15.6334C14.4812 15.6003 14.5415 15.5961 14.6102 15.6352C14.6261 15.643 14.6423 15.6495 14.6589 15.6558C14.8913 15.7527 15.0464 15.9539 15.1378 16.2286C15.2449 16.5508 15.2879 16.8727 15.3026 17.1946C15.3149 17.4584 15.3383 17.7247 15.357 17.9893C15.3739 18.2263 15.3904 18.4635 15.4096 18.7008C15.4254 18.8951 15.4451 19.0889 15.4625 19.2838C15.4807 19.4931 15.4972 19.7031 15.5162 19.9133C15.5333 20.107 15.5532 20.302 15.5712 20.4966C15.5971 20.7778 15.6211 21.0587 15.6484 21.3405C15.6693 21.5585 15.6953 21.7779 15.7164 21.9959C15.7373 22.2101 15.7544 22.4236 15.7748 22.6381C15.789 22.7887 15.8066 22.9402 15.821 23.0907C15.8395 23.2814 15.8601 23.4723 15.8727 23.6619C15.8808 23.7879 15.8434 23.8944 15.7909 23.9841C15.7303 24.0872 15.6623 24.1837 15.5927 24.2771C15.5471 24.3391 15.493 24.3912 15.4428 24.4477Z" fill="#464645"/>
<path d="M36.7429 25.4963C36.7349 25.4368 36.7231 25.3766 36.7078 25.3166C36.5105 24.5796 36.2837 23.8494 36.0403 23.1228C35.9847 22.957 35.8997 22.877 35.7681 22.8334C35.5943 22.7762 35.4327 22.7828 35.2719 22.8052C35.1887 22.8354 35.1005 22.8556 35.0233 22.898C34.5944 23.1353 34.1649 23.3716 33.7428 23.622C33.5687 23.7279 33.3616 23.7619 33.1461 23.7217C32.9712 23.6898 32.7951 23.636 32.6195 23.592C32.609 23.6176 32.6183 23.6456 32.6282 23.6721C32.7054 23.879 32.7639 24.0904 32.8271 24.2998C32.8722 24.4491 32.8806 24.4528 33.0029 24.4523C33.1891 24.4535 33.3767 24.4787 33.5657 24.5736C33.8346 24.7077 34.1024 24.8508 34.3441 25.0832C34.3839 25.1213 34.427 25.1518 34.4718 25.1741C34.885 25.3844 35.2978 25.5801 35.723 25.6259C36.0415 25.6592 36.3655 25.7369 36.6791 25.7242C36.7398 25.6742 36.761 25.5982 36.7429 25.4963ZM35.1868 25.1152C35.1479 25.105 35.1083 25.0903 35.0725 25.0578C35.005 25.0306 34.9365 25.0088 34.8703 24.9748C34.7591 24.9174 34.6458 24.8609 34.5391 24.7866C34.3412 24.6499 34.2364 24.5008 34.1262 24.2293C34.1294 24.2168 34.1341 24.2049 34.1403 24.1947C34.4196 23.8773 34.7223 23.5966 35.0918 23.4236C35.2736 23.3377 35.4679 23.2958 35.6912 23.3535C35.7018 23.3834 35.7126 23.4133 35.7237 23.4442C35.7495 23.4761 35.7673 23.5152 35.7743 23.5553C35.8741 24.0363 36.0171 24.5131 36.1012 24.9947C36.1339 25.1804 36.1184 25.2144 35.9714 25.2171C35.714 25.2224 35.4516 25.1831 35.1868 25.1152Z" fill="#585857"/>
<path d="M35.0723 25.0574C35.1888 25.0829 35.3065 25.1178 35.4216 25.1315C35.6157 25.1564 35.8083 25.1683 36.0011 25.1838C36.0323 25.1861 36.0629 25.1826 36.1022 25.1815C36.0929 25.1176 36.0888 25.0663 36.0775 25.0157C35.9913 24.6313 35.9038 24.2475 35.8169 23.8633C35.7856 23.724 35.7545 23.5833 35.7236 23.4437C35.7735 23.4552 35.8004 23.5039 35.8214 23.5527C35.8524 23.6243 35.8847 23.699 35.9028 23.7738C35.9623 24.0206 36.017 24.2682 36.0712 24.5161C36.1026 24.6603 36.1301 24.805 36.158 24.9496C36.1972 25.1534 36.1433 25.2523 35.9955 25.3035C35.9048 25.3358 35.8086 25.3224 35.7137 25.3011C35.5423 25.2638 35.3704 25.2083 35.1986 25.1539C35.1534 25.1391 35.0972 25.1341 35.0723 25.0574Z" fill="#4E4E4D"/>
<path d="M9.69889 19.6338C9.75107 19.6195 9.78957 19.594 9.83093 19.5994C10.0046 19.6233 10.1788 19.6445 10.3532 19.6878C10.6125 19.752 10.8724 19.8393 11.1317 19.9059C11.2737 19.9425 11.4161 19.9591 11.5575 19.9823C11.7386 20.0141 11.919 20.04 12.0996 20.0744C12.397 20.1318 12.6948 20.1939 12.9922 20.2561C13.3415 20.329 13.6914 20.4078 14.0409 20.4794C14.2543 20.5229 14.4672 20.5593 14.68 20.5932C14.8024 20.6124 14.9237 20.6197 15.0453 20.6306C15.0709 20.6318 15.0963 20.6305 15.1203 20.6249C15.1871 20.6117 15.2008 20.6292 15.2063 20.7193C15.2175 20.8922 15.1505 21.008 15.069 21.1079C14.9827 21.2148 14.8734 21.2738 14.731 21.2745C14.5315 21.2743 14.3384 21.3095 14.1388 21.3093C13.9334 21.3104 13.7244 21.2908 13.5142 21.2508C13.398 21.2277 13.2822 21.2143 13.1664 21.1958C12.8763 21.1489 12.5866 21.1067 12.296 21.0526C12.0248 21.0023 11.7527 20.9424 11.4809 20.8801C11.3092 20.8405 11.1366 20.7939 10.9653 20.7406C10.7072 20.6598 10.4547 20.5051 10.2302 20.291C10.0823 20.151 9.94053 20.0019 9.81835 19.8246C9.77967 19.7687 9.74535 19.7085 9.69889 19.6338Z" fill="#454544"/>
<path d="M15.3165 23.5079C15.2931 23.5378 15.2838 23.5542 15.2705 23.5638C15.1294 23.6663 14.9759 23.7349 14.7946 23.7414C14.6793 23.7463 14.5702 23.7805 14.4556 23.79C14.3841 23.7954 14.3102 23.7895 14.2357 23.7728C14.1283 23.7494 14.0271 23.7345 13.924 23.7575C13.844 23.774 13.7452 23.7297 13.6547 23.7125C13.4452 23.6747 13.2353 23.6395 13.0253 23.5957C12.8795 23.5646 12.7332 23.52 12.5871 23.4828C12.5551 23.4746 12.5226 23.469 12.491 23.4681C12.263 23.468 12.029 23.4286 11.7955 23.3506C11.5588 23.2704 11.3213 23.2004 11.0847 23.1139C10.9457 23.0637 10.8074 22.9935 10.6698 22.9278C10.2772 22.7394 9.89827 22.4918 9.52217 22.2381C9.31291 22.0965 9.10919 21.9376 8.90547 21.7812C8.83949 21.7299 8.78188 21.6601 8.7192 21.6011C8.65941 21.5446 8.59869 21.4897 8.53721 21.4376C8.50142 21.4076 8.47921 21.3717 8.47663 21.3234C8.46762 21.1471 8.45839 20.9697 8.45144 20.7938C8.45053 20.7719 8.46081 20.7526 8.46699 20.7277C8.55525 20.7495 8.63608 20.8042 8.71685 20.8528C8.73412 20.8625 8.75455 20.9079 8.75568 20.9333C8.76471 21.1256 8.78401 21.3209 8.73955 21.5107C9.16685 21.7926 9.58965 22.0728 10.0139 22.3498C10.2094 22.4777 10.4053 22.6067 10.6044 22.7182C10.775 22.8139 10.9485 22.8958 11.1238 22.9635C11.4379 23.0826 11.753 23.1927 12.0679 23.2893C12.2352 23.3407 12.4039 23.3581 12.5714 23.3909C12.8593 23.4487 13.1472 23.5077 13.4349 23.5644C13.4692 23.5716 13.5024 23.5645 13.5363 23.5668C13.6093 23.5719 13.682 23.5697 13.7554 23.5869C14.0255 23.65 14.2945 23.7013 14.5532 23.6719C14.6793 23.6574 14.8027 23.6305 14.9255 23.6039C15.0502 23.5764 15.1733 23.5434 15.3165 23.5079Z" fill="#464645"/>
<path d="M13.5525 18.9033C13.4669 18.8914 13.3808 18.8785 13.2947 18.8656C13.1658 18.8456 13.0372 18.8266 12.9083 18.8066C12.7759 18.7856 12.6443 18.7704 12.5116 18.7421C12.3077 18.6994 12.1037 18.653 11.8996 18.6004C11.6354 18.5322 11.3735 18.4235 11.113 18.3056C10.8748 18.1976 10.6357 18.09 10.401 17.9645C10.2082 17.8613 10.0137 17.7589 9.83161 17.6041C9.71556 17.5056 9.58423 17.4409 9.46181 17.3563C9.28366 17.2319 9.10766 17.104 8.93066 16.9767C8.87287 16.9353 8.81547 16.8926 8.7577 16.85C8.73968 16.8369 8.71868 16.8263 8.70411 16.808C8.69068 16.7917 8.6731 16.7599 8.67635 16.7461C8.68091 16.7256 8.70181 16.6992 8.71658 16.7026C8.76433 16.7138 8.81473 16.7287 8.85961 16.7572C8.96546 16.8256 9.06833 16.9015 9.17264 16.9756C9.46621 17.1827 9.76077 17.3882 10.0534 17.5995C10.2474 17.7392 10.4502 17.8318 10.6529 17.9195C10.9658 18.0565 11.2786 18.1935 11.5923 18.3153C11.9483 18.4544 12.3057 18.5361 12.6633 18.6226C12.9062 18.6803 13.1503 18.761 13.3937 18.8322C13.4466 18.8472 13.4998 18.8672 13.5532 18.8857C13.5531 18.8919 13.5531 18.8981 13.5525 18.9033Z" fill="#464645"/>
<path d="M8.60086 15.9113C8.59519 16.0348 8.59176 16.1461 8.58438 16.2555C8.5802 16.3203 8.57778 16.3794 8.60741 16.4516C8.64052 16.5321 8.60944 16.5729 8.5385 16.5472C8.4556 16.5181 8.37041 16.49 8.30338 16.412C8.30597 16.1652 8.29856 15.9228 8.34258 15.685C8.4421 15.7352 8.50782 15.8397 8.60086 15.9113Z" fill="#464645"/>
<path d="M15.0753 20.2481C14.9795 20.2395 14.884 20.2357 14.788 20.2222C14.6366 20.1996 14.4849 20.1722 14.3334 20.1448C14.0585 20.0936 13.7841 20.0423 13.5095 19.9897C13.2381 19.9371 12.9664 19.8808 12.6945 19.8259C12.5264 19.7921 12.3584 19.7571 12.1908 19.7281C12.0452 19.7017 11.901 19.6847 11.7558 19.6619C11.6368 19.6437 11.5171 19.622 11.398 19.6038C11.369 19.6005 11.3401 19.5996 11.3119 19.602C11.272 19.606 11.2287 19.5916 11.1896 19.5631C11.1463 19.5327 11.0944 19.5282 11.0465 19.5147C10.9888 19.498 10.9309 19.4826 10.8721 19.4441C10.9273 19.4533 10.9829 19.4611 11.038 19.4727C11.2423 19.519 11.4465 19.5715 11.65 19.6107C11.7756 19.6347 11.9 19.6357 12.0255 19.6548C12.2479 19.6894 12.4707 19.7264 12.6936 19.7695C13.0262 19.8324 13.3593 19.9025 13.6926 19.97C13.8802 20.0076 14.0677 20.0464 14.255 20.0804C14.449 20.1164 14.642 20.1454 14.8356 20.1791C14.9153 20.1923 14.9956 20.2102 15.0756 20.2257L15.0753 20.2481Z" fill="#6D6D6C"/>
<path d="M13.7613 18.8822C14.1736 18.7979 14.5834 18.7134 14.9543 18.5163C14.9852 18.562 14.9741 18.5904 14.9459 18.6126C14.815 18.7181 14.6762 18.8085 14.5154 18.853C14.448 18.8715 14.3756 18.8748 14.3055 18.8858C14.2632 18.8932 14.2229 18.9121 14.1797 18.9112C14.0408 18.9054 13.9005 18.8916 13.7613 18.8822Z" fill="#464645"/>
<path d="M10.2669 17.1873C10.2448 17.181 10.221 17.1803 10.2003 17.1671C9.87884 16.9648 9.56297 16.7476 9.25944 16.4917C9.21528 16.4543 9.1689 16.424 9.1239 16.3894C9.09212 16.3651 9.05997 16.3397 9.05186 16.2802C9.11952 16.3308 9.18842 16.376 9.2534 16.4302C9.52745 16.6607 9.8099 16.8641 10.0981 17.0551C10.1558 17.0928 10.211 17.1427 10.2669 17.1861L10.2669 17.1873Z" fill="#6D6D6C"/>
<path d="M14.8465 17.9611C14.5373 18.2336 14.1362 18.202 13.7309 18.1561C13.7559 18.1538 13.7808 18.1503 13.8066 18.1501C13.9453 18.1449 14.0846 18.1419 14.2235 18.1366C14.4224 18.1297 14.6076 18.0683 14.7678 17.9586C14.7887 17.9457 14.8105 17.9349 14.8333 17.9262C14.8376 17.9378 14.8421 17.9495 14.8465 17.9611Z" fill="#6D6D6C"/>
<path d="M15.2524 22.7324C15.217 22.8258 15.1363 22.85 15.063 22.871C14.8638 22.9286 14.6558 22.9568 14.4366 22.938C14.5193 22.924 14.6019 22.9101 14.6841 22.895C14.8689 22.8635 15.0593 22.8479 15.2163 22.7384C15.2258 22.7318 15.2408 22.7351 15.253 22.7334L15.2524 22.7324Z" fill="#6D6D6C"/>
<path d="M9.17478 21.0927C9.21587 21.1117 9.25804 21.1254 9.29714 21.149C9.50059 21.2746 9.70335 21.4031 9.9064 21.5314C9.91454 21.5365 9.92129 21.5471 9.93837 21.5655C9.91817 21.5657 9.90642 21.5709 9.89798 21.5659C9.66108 21.4154 9.42456 21.2647 9.18858 21.1138C9.18303 21.1101 9.17925 21.1006 9.17462 21.094L9.17478 21.0927Z" fill="#6D6D6C"/>
<path d="M10.1786 21.7187C10.1016 21.7129 10.0386 21.6491 9.97297 21.5964C10.0453 21.6117 10.1171 21.6543 10.1785 21.7187L10.1786 21.7187Z" fill="#6D6D6C"/>
<path d="M8.9429 16.1846C8.96516 16.2069 8.98734 16.2293 9.00952 16.2517C9.00476 16.2599 8.99994 16.2682 8.99564 16.2775C8.97208 16.2557 8.94906 16.235 8.92596 16.2142C8.93163 16.2043 8.9373 16.1944 8.9429 16.1846Z" fill="#6D6D6C"/>
<path d="M8.78262 16.0674C8.8224 16.0685 8.84676 16.0998 8.88163 16.1537C8.82213 16.1489 8.79785 16.1175 8.78239 16.0675L8.78262 16.0674Z" fill="#6D6D6C"/>
<path d="M9.1747 21.0944C9.14814 21.0826 9.12158 21.0708 9.09548 21.06C9.13799 21.0438 9.13799 21.0438 9.17486 21.0931L9.1747 21.0944Z" fill="#6D6D6C"/>
<path d="M10.3762 17.2554C10.3585 17.2508 10.3404 17.2452 10.3223 17.2395C10.3243 17.2312 10.3263 17.2229 10.3283 17.2146C10.3444 17.2286 10.3605 17.2425 10.3765 17.2565L10.3762 17.2554Z" fill="#6D6D6C"/>
<path d="M8.99832 20.9774C9.01652 20.983 9.03479 20.9886 9.0526 20.9931C9.0509 21.0025 9.04874 21.0108 9.04657 21.0192C9.03054 21.0052 9.01443 20.9913 8.99832 20.9774Z" fill="#6D6D6C"/>
<path d="M10.8174 19.4399L10.7886 19.4401C10.7883 19.4378 10.7875 19.4344 10.7868 19.431L10.8156 19.4308C10.8159 19.4331 10.8166 19.4365 10.8174 19.4399Z" fill="#6D6D6C"/>
<path d="M10.2448 21.7648C10.2535 21.7672 10.2627 21.7705 10.2714 21.7729C10.2628 21.7705 10.2537 21.7671 10.245 21.7647L10.2448 21.7648Z" fill="#6D6D6C"/>
<path d="M8.97458 20.9535C8.96582 20.9512 8.95706 20.9489 8.94838 20.9465C8.95706 20.9489 8.96567 20.9513 8.9748 20.9547L8.97458 20.9535Z" fill="#6D6D6C"/>
<path d="M10.3765 17.2564L10.3855 17.2612C10.3827 17.2599 10.3794 17.2576 10.3767 17.2564L10.3765 17.2564Z" fill="#6D6D6C"/>
<path d="M10.2671 17.186L10.2769 17.1965C10.2752 17.196 10.2728 17.1958 10.2718 17.195C10.2698 17.1922 10.2681 17.1893 10.2671 17.1872L10.2671 17.186Z" fill="#6D6D6C"/>
<path d="M10.2448 21.7646C10.2416 21.7624 10.2388 21.7611 10.2355 21.7589C10.2387 21.7612 10.2419 21.7635 10.2446 21.7647L10.2448 21.7646Z" fill="#6D6D6C"/>
<path d="M10.1782 21.7184C10.1811 21.7196 10.1844 21.7219 10.1873 21.7231C10.1844 21.7218 10.1812 21.7196 10.1784 21.7183L10.1782 21.7184Z" fill="#6D6D6C"/>
<path d="M15.2529 22.7334C15.2534 22.7295 15.2543 22.7266 15.2549 22.7227C15.2543 22.7266 15.2533 22.7295 15.2523 22.7324L15.2529 22.7334Z" fill="#6D6D6C"/>
<path d="M8.97484 20.9548C8.98274 20.9624 8.99065 20.9701 8.99855 20.9777C8.99072 20.97 8.9829 20.9624 8.97462 20.9536L8.97484 20.9548Z" fill="#6D6D6C"/>
<path d="M8.7826 16.0676C8.77925 16.0642 8.77591 16.0607 8.77295 16.0583C8.7747 16.0588 8.77668 16.0579 8.77813 16.0597C8.77964 16.0615 8.78139 16.0645 8.78282 16.0675L8.7826 16.0676Z" fill="#6D6D6C"/>
</svg>
