<svg width="1194" height="387" viewBox="0 0 1194 387" fill="none" xmlns="http://www.w3.org/2000/svg">
<g clip-path="url(#clip0_5909_322966)">
<path d="M813.418 337.875C813.261 336.833 813.979 335.86 815.021 335.703C816.064 335.546 817.036 336.264 817.193 337.306L813.418 337.875ZM827.503 405.727C827.66 406.77 826.942 407.742 825.9 407.899C824.857 408.056 823.885 407.338 823.728 406.296L827.503 405.727ZM788.341 361.123C787.363 360.729 786.89 359.617 787.285 358.639C787.679 357.661 788.791 357.188 789.769 357.582L788.341 361.123ZM853.175 383.151C854.153 383.546 854.626 384.658 854.232 385.636C853.837 386.614 852.725 387.087 851.747 386.692L853.175 383.151ZM795.181 394.635C794.352 395.286 793.152 395.141 792.501 394.312C791.85 393.482 791.995 392.282 792.824 391.631L795.181 394.635ZM846.335 349.64C847.165 348.989 848.365 349.134 849.015 349.963C849.666 350.792 849.522 351.992 848.692 352.643L846.335 349.64ZM824.319 341.545C825.102 340.839 826.309 340.903 827.015 341.687C827.72 342.47 827.656 343.677 826.873 344.382L824.319 341.545ZM818.612 351.817C817.828 352.522 816.621 352.459 815.916 351.675C815.211 350.891 815.274 349.684 816.058 348.979L818.612 351.817ZM806.311 346.848C805.39 346.336 805.058 345.174 805.57 344.252C806.083 343.331 807.245 342.999 808.166 343.511L806.311 346.848ZM817.936 348.942C818.858 349.454 819.189 350.616 818.677 351.538C818.165 352.459 817.003 352.791 816.081 352.279L817.936 348.942ZM791.652 371.989C790.792 372.599 789.601 372.396 788.991 371.536C788.381 370.676 788.583 369.485 789.443 368.875L791.652 371.989ZM798.507 362.445C799.367 361.835 800.558 362.037 801.168 362.897C801.778 363.757 801.576 364.948 800.716 365.558L798.507 362.445ZM802.238 364.26C802.409 365.3 801.705 366.282 800.664 366.453C799.624 366.624 798.642 365.92 798.471 364.879L802.238 364.26ZM796.657 353.853C796.486 352.813 797.191 351.831 798.231 351.66C799.271 351.489 800.253 352.193 800.424 353.234L796.657 353.853ZM804.564 383.067C805.596 383.282 806.258 384.293 806.044 385.325C805.829 386.357 804.818 387.02 803.786 386.805L804.564 383.067ZM792.863 384.532C791.831 384.317 791.169 383.306 791.384 382.274C791.598 381.242 792.609 380.579 793.641 380.794L792.863 384.532ZM807.321 395.49C807.448 396.537 806.701 397.488 805.655 397.614C804.608 397.74 803.657 396.994 803.531 395.948L807.321 395.49ZM802.193 384.857C802.067 383.81 802.813 382.859 803.86 382.733C804.906 382.607 805.857 383.353 805.984 384.399L802.193 384.857ZM834.455 397.629C835.402 398.094 835.793 399.237 835.328 400.184C834.864 401.13 833.72 401.521 832.774 401.057L834.455 397.629ZM822.742 396.135C821.795 395.671 821.404 394.527 821.869 393.581C822.333 392.634 823.477 392.243 824.423 392.708L822.742 396.135ZM816.814 402.827C815.995 403.491 814.793 403.365 814.13 402.546C813.466 401.727 813.592 400.524 814.411 399.861L816.814 402.827ZM823.045 392.865C823.864 392.201 825.067 392.327 825.73 393.146C826.394 393.965 826.268 395.167 825.449 395.831L823.045 392.865ZM849.389 373.111C850.284 372.554 851.461 372.827 852.019 373.722C852.576 374.617 852.302 375.794 851.407 376.352L849.389 373.111ZM841.974 382.227C841.079 382.784 839.902 382.511 839.345 381.616C838.787 380.721 839.061 379.544 839.956 378.986L841.974 382.227ZM839.531 380.401C839.38 379.357 840.103 378.389 841.147 378.238C842.19 378.086 843.158 378.81 843.31 379.853L839.531 380.401ZM844.912 390.911C845.064 391.954 844.34 392.922 843.297 393.074C842.254 393.225 841.285 392.502 841.134 391.458L844.912 390.911ZM835.028 348.391C834.934 347.341 835.708 346.413 836.758 346.319C837.808 346.225 838.736 347 838.831 348.05L835.028 348.391ZM839.83 359.174C839.924 360.224 839.15 361.152 838.1 361.246C837.05 361.341 836.122 360.566 836.027 359.516L839.83 359.174ZM828.384 357.635C828.261 356.588 829.01 355.64 830.057 355.517C831.105 355.394 832.053 356.144 832.176 357.191L828.384 357.635ZM832.91 363.449C833.033 364.496 832.284 365.445 831.236 365.568C830.189 365.69 829.241 364.941 829.118 363.894L832.91 363.449ZM830.525 365.798C829.534 365.439 829.022 364.344 829.381 363.353C829.741 362.362 830.836 361.85 831.827 362.21L830.525 365.798ZM837.748 364.358C838.74 364.717 839.252 365.812 838.892 366.803C838.533 367.794 837.438 368.306 836.447 367.947L837.748 364.358ZM834.356 378.745C833.457 379.296 832.282 379.014 831.73 378.116C831.179 377.217 831.461 376.041 832.36 375.49L834.356 378.745ZM837.704 372.213C838.603 371.662 839.778 371.944 840.329 372.843C840.88 373.741 840.599 374.917 839.7 375.468L837.704 372.213ZM831.666 377.116C831.477 376.079 832.166 375.085 833.203 374.897C834.24 374.709 835.234 375.397 835.422 376.435L831.666 377.116ZM836.548 382.637C836.736 383.674 836.048 384.668 835.01 384.856C833.973 385.044 832.98 384.356 832.791 383.319L836.548 382.637ZM818.75 390.623C817.924 391.278 816.724 391.14 816.068 390.314C815.413 389.488 815.552 388.287 816.378 387.632L818.75 390.623ZM821.289 383.736C822.115 383.081 823.316 383.22 823.971 384.046C824.626 384.872 824.487 386.072 823.661 386.728L821.289 383.736ZM828.928 386.586C829.879 387.04 830.282 388.18 829.827 389.131C829.373 390.083 828.233 390.485 827.282 390.031L828.928 386.586ZM821.595 387.313C820.644 386.858 820.241 385.719 820.696 384.768C821.15 383.816 822.29 383.414 823.241 383.868L821.595 387.313ZM810.877 379.434C811.828 379.888 812.231 381.028 811.776 381.979C811.322 382.931 810.182 383.333 809.231 382.879L810.877 379.434ZM803.544 380.161C802.593 379.706 802.19 378.567 802.645 377.616C803.099 376.664 804.239 376.262 805.19 376.716L803.544 380.161ZM808.109 380.232C808.033 379.181 808.824 378.267 809.875 378.191C810.927 378.115 811.841 378.906 811.916 379.958L808.109 380.232ZM812.37 386.241C812.446 387.293 811.655 388.207 810.603 388.282C809.552 388.358 808.638 387.567 808.562 386.516L812.37 386.241ZM804.911 361.387C804.742 360.346 805.448 359.365 806.489 359.196C807.529 359.026 808.51 359.732 808.68 360.773L804.911 361.387ZM809.693 366.994C809.863 368.034 809.157 369.015 808.116 369.185C807.076 369.354 806.095 368.648 805.925 367.608L809.693 366.994ZM806.177 365.067C806.84 364.247 808.042 364.12 808.862 364.783C809.682 365.445 809.809 366.647 809.146 367.467L806.177 365.067ZM805.203 372.344C804.54 373.163 803.338 373.291 802.518 372.628C801.699 371.965 801.571 370.763 802.234 369.943L805.203 372.344ZM819.395 356.729C820.426 356.947 821.085 357.96 820.867 358.991C820.649 360.023 819.635 360.682 818.604 360.464L819.395 356.729ZM812.447 359.16C811.416 358.942 810.757 357.929 810.975 356.898C811.193 355.866 812.206 355.207 813.238 355.425L812.447 359.16ZM819.377 360.025C818.42 360.465 817.286 360.046 816.845 359.088C816.405 358.131 816.824 356.997 817.782 356.556L819.377 360.025ZM823.478 353.936C824.436 353.495 825.57 353.914 826.01 354.872C826.451 355.83 826.032 356.963 825.074 357.404L823.478 353.936ZM817.193 337.306L827.503 405.727L823.728 406.296L813.418 337.875L817.193 337.306ZM789.769 357.582L853.175 383.151L851.747 386.692L788.341 361.123L789.769 357.582ZM792.824 391.631L846.335 349.64L848.692 352.643L795.181 394.635L792.824 391.631ZM826.873 344.382L818.612 351.817L816.058 348.979L824.319 341.545L826.873 344.382ZM808.166 343.511L817.936 348.942L816.081 352.279L806.311 346.848L808.166 343.511ZM789.443 368.875L798.507 362.445L800.716 365.558L791.652 371.989L789.443 368.875ZM798.471 364.879L796.657 353.853L800.424 353.234L802.238 364.26L798.471 364.879ZM803.786 386.805L792.863 384.532L793.641 380.794L804.564 383.067L803.786 386.805ZM803.531 395.948L802.193 384.857L805.984 384.399L807.321 395.49L803.531 395.948ZM832.774 401.057L822.742 396.135L824.423 392.708L834.455 397.629L832.774 401.057ZM814.411 399.861L823.045 392.865L825.449 395.831L816.814 402.827L814.411 399.861ZM851.407 376.352L841.974 382.227L839.956 378.986L849.389 373.111L851.407 376.352ZM843.31 379.853L844.912 390.911L841.134 391.458L839.531 380.401L843.31 379.853ZM838.831 348.05L839.83 359.174L836.027 359.516L835.028 348.391L838.831 348.05ZM832.176 357.191L832.91 363.449L829.118 363.894L828.384 357.635L832.176 357.191ZM831.827 362.21L837.748 364.358L836.447 367.947L830.525 365.798L831.827 362.21ZM832.36 375.49L837.704 372.213L839.7 375.468L834.356 378.745L832.36 375.49ZM835.422 376.435L836.548 382.637L832.791 383.319L831.666 377.116L835.422 376.435ZM816.378 387.632L821.289 383.736L823.661 386.728L818.75 390.623L816.378 387.632ZM827.282 390.031L821.595 387.313L823.241 383.868L828.928 386.586L827.282 390.031ZM809.231 382.879L803.544 380.161L805.19 376.716L810.877 379.434L809.231 382.879ZM811.916 379.958L812.37 386.241L808.562 386.516L808.109 380.232L811.916 379.958ZM808.68 360.773L809.693 366.994L805.925 367.608L804.911 361.387L808.68 360.773ZM809.146 367.467L805.203 372.344L802.234 369.943L806.177 365.067L809.146 367.467ZM818.604 360.464L812.447 359.16L813.238 355.425L819.395 356.729L818.604 360.464ZM817.782 356.556L823.478 353.936L825.074 357.404L819.377 360.025L817.782 356.556Z" fill="#B0CCCE"/>
<path d="M54.2386 14.5954C54.9598 13.8265 56.1678 13.7878 56.9368 14.509C57.7058 15.2302 57.7445 16.4382 57.0233 17.2072L54.2386 14.5954ZM-0.801424 78.8599C-1.52264 79.6288 -2.73066 79.6675 -3.49963 78.9463C-4.26859 78.2251 -4.30729 77.0171 -3.58608 76.2481L-0.801424 78.8599ZM13.0657 7.72346C12.7698 6.71161 13.3501 5.6514 14.362 5.35543C15.3738 5.05946 16.434 5.63981 16.73 6.65166L13.0657 7.72346ZM40.1768 86.8115C40.4728 87.8233 39.8925 88.8835 38.8806 89.1795C37.8688 89.4755 36.8086 88.8951 36.5126 87.8833L40.1768 86.8115ZM-14.2078 39.3453C-15.2325 39.0972 -15.862 38.0654 -15.6139 37.0408C-15.3658 36.0161 -14.334 35.3866 -13.3094 35.6347L-14.2078 39.3453ZM67.4506 55.1896C68.4752 55.4377 69.1047 56.4695 68.8566 57.4942C68.6085 58.5188 67.5768 59.1483 66.5521 58.9002L67.4506 55.1896ZM58.586 27.9543C59.625 28.1328 60.3226 29.1198 60.1441 30.1588C59.9656 31.1978 58.9786 31.8955 57.9396 31.717L58.586 27.9543ZM44.5592 29.4184C43.5202 29.2399 42.8226 28.2529 43.0011 27.2139C43.1796 26.1748 44.1666 25.4772 45.2056 25.6557L44.5592 29.4184ZM40.3645 14.2107C40.196 13.17 40.903 12.1897 41.9437 12.0212C42.9844 11.8527 43.9647 12.5597 44.1332 13.6004L40.3645 14.2107ZM46.3162 27.0796C46.4847 28.1203 45.7777 29.1005 44.737 29.2691C43.6963 29.4376 42.716 28.7306 42.5475 27.6899L46.3162 27.0796ZM4.86278 18.8324C3.85132 18.5351 3.27239 17.4741 3.56971 16.4627C3.86703 15.4512 4.92801 14.8723 5.93947 15.1696L4.86278 18.8324ZM18.964 18.9982C19.9755 19.2955 20.5544 20.3565 20.2571 21.368C19.9598 22.3794 18.8988 22.9583 17.8873 22.661L18.964 18.9982ZM19.853 23.259C19.1422 24.0376 17.9348 24.0926 17.1562 23.3818C16.3775 22.6711 16.3226 21.4637 17.0334 20.685L19.853 23.259ZM26.2367 10.6035C26.9475 9.8249 28.1549 9.76992 28.9335 10.4807C29.7121 11.1915 29.7671 12.3989 29.0563 13.1775L26.2367 10.6035ZM3.50726 40.1929C3.97781 41.1363 3.59448 42.2826 2.65107 42.7531C1.70765 43.2237 0.561398 42.8404 0.0908463 41.897L3.50726 40.1929ZM-5.99223 29.701C-6.46279 28.7576 -6.07945 27.6113 -5.13604 27.1408C-4.19263 26.6702 -3.04638 27.0536 -2.57582 27.997L-5.99223 29.701ZM-6.24317 51.7494C-6.98677 52.4968 -8.19541 52.4998 -8.94275 51.7562C-9.6901 51.0126 -9.69312 49.804 -8.94953 49.0566L-6.24317 51.7494ZM0.676225 39.3824C1.41982 38.6351 2.62847 38.6321 3.37581 39.3757C4.12314 40.1193 4.12618 41.3279 3.38258 42.0752L0.676225 39.3824ZM12.1202 79.7802C12.3418 80.8109 11.6859 81.8261 10.6553 82.0478C9.62455 82.2694 8.60935 81.6135 8.38773 80.5828L12.1202 79.7802ZM5.51811 67.2368C5.29649 66.2061 5.95238 65.1909 6.98308 64.9693C8.01378 64.7477 9.02898 65.4036 9.2506 66.4343L5.51811 67.2368ZM-5.70475 66.2909C-6.73315 66.0589 -7.37869 65.0371 -7.14662 64.0087C-6.91454 62.9803 -5.89274 62.3347 -4.86434 62.5668L-5.70475 66.2909ZM8.37837 65.5552C9.40677 65.7873 10.0523 66.8091 9.82024 67.8375C9.58817 68.8659 8.56636 69.5114 7.53796 69.2794L8.37837 65.5552ZM47.205 75.8631C48.1968 76.2205 48.7111 77.3143 48.3536 78.3061C47.9962 79.2979 46.9024 79.8122 45.9106 79.4547L47.205 75.8631ZM33.1385 74.8518C32.1466 74.4944 31.6324 73.4006 31.9898 72.4088C32.3473 71.417 33.441 70.9027 34.4329 71.2601L33.1385 74.8518ZM33.2056 71.8162C33.9311 71.0513 35.1394 71.0194 35.9043 71.7449C36.6692 72.4704 36.7011 73.6786 35.9756 74.4435L33.2056 71.8162ZM26.5825 84.3464C25.8569 85.1113 24.6487 85.1433 23.8838 84.4177C23.1189 83.6922 23.087 82.484 23.8125 81.7191L26.5825 84.3464ZM60.4837 43.2961C61.2497 42.5717 62.4579 42.6054 63.1823 43.3714C63.9066 44.1374 63.8729 45.3456 63.1069 46.07L60.4837 43.2961ZM53.1931 55.445C52.4271 56.1694 51.2189 56.1356 50.4946 55.3696C49.7702 54.6037 49.8039 53.3955 50.5699 52.6711L53.1931 55.445ZM46.5989 43.9093C47.3449 43.1644 48.5535 43.1653 49.2985 43.9113C50.0434 44.6574 50.0425 45.866 49.2964 46.6109L46.5989 43.9093ZM43.849 52.0502C43.103 52.7951 41.8944 52.7942 41.1494 52.0481C40.4045 51.3021 40.4054 50.0935 41.1515 49.3485L43.849 52.0502ZM40.4918 51.7063C40.1603 50.7055 40.7028 49.6255 41.7036 49.2939C42.7044 48.9624 43.7844 49.5049 44.1159 50.5057L40.4918 51.7063ZM46.5358 57.8106C46.8673 58.8113 46.3248 59.8914 45.324 60.2229C44.3233 60.5544 43.2432 60.0119 42.9117 59.0111L46.5358 57.8106ZM30.7172 64.9114C29.7279 64.5471 29.2213 63.4497 29.5856 62.4604C29.9499 61.4711 31.0472 60.9645 32.0366 61.3288L30.7172 64.9114ZM39.223 63.9753C40.2123 64.3397 40.7189 65.437 40.3546 66.4263C39.9902 67.4156 38.8929 67.9223 37.9036 67.5579L39.223 63.9753ZM30.415 61.776C31.1129 60.9858 32.3192 60.9109 33.1094 61.6087C33.8997 62.3065 33.9746 63.5128 33.2767 64.3031L30.415 61.776ZM28.1794 70.0754C27.4815 70.8657 26.2752 70.9406 25.485 70.2427C24.6947 69.5449 24.6198 68.3386 25.3177 67.5483L28.1794 70.0754ZM7.46923 58.9154C6.44331 58.6727 5.80843 57.6442 6.05119 56.6183C6.29395 55.5924 7.32243 54.9575 8.34835 55.2002L7.46923 58.9154ZM15.8004 56.9636C16.8263 57.2064 17.4612 58.2348 17.2184 59.2608C16.9757 60.2867 15.9472 60.9216 14.9213 60.6788L15.8004 56.9636ZM18.5316 66.1279C18.7638 67.1562 18.1184 68.1782 17.0901 68.4104C16.0617 68.6426 15.0398 67.9972 14.8076 66.9688L18.5316 66.1279ZM13.1116 59.4581C12.8793 58.4297 13.5248 57.4078 14.5531 57.1756C15.5815 56.9434 16.6034 57.5888 16.8356 58.6171L13.1116 59.4581ZM11.7347 43.4037C11.9669 44.4321 11.3215 45.454 10.2931 45.6862C9.26475 45.9184 8.24285 45.273 8.01064 44.2447L11.7347 43.4037ZM6.31462 36.7339C6.08241 35.7055 6.72781 34.6836 7.75617 34.4514C8.78453 34.2192 9.80644 34.8646 10.0387 35.893L6.31462 36.7339ZM9.57206 41.5716C10.3507 40.8609 11.5581 40.9159 12.2689 41.6945C12.9796 42.4731 12.9246 43.6805 12.146 44.3913L9.57206 41.5716ZM6.46225 49.5798C5.68363 50.2906 4.47624 50.2356 3.76546 49.457C3.05468 48.6784 3.10967 47.471 3.88829 46.7602L6.46225 49.5798ZM25.2556 24.2204C25.9675 23.4429 27.175 23.3897 27.9526 24.1017C28.7301 24.8137 28.7832 26.0211 28.0713 26.7987L25.2556 24.2204ZM22.8712 32.4776C22.1593 33.2552 20.9518 33.3083 20.1743 32.5963C19.3967 31.8844 19.3436 30.6769 20.0555 29.8994L22.8712 32.4776ZM22.3667 28.3562C23.4208 28.3689 24.2651 29.2338 24.2523 30.288C24.2396 31.3422 23.3747 32.1864 22.3205 32.1737L22.3667 28.3562ZM14.66 32.0811C13.6058 32.0683 12.7616 31.2034 12.7743 30.1492C12.7871 29.0951 13.652 28.2508 14.7062 28.2635L14.66 32.0811ZM39.9895 34.4895C40.4568 35.4345 40.0696 36.5795 39.1246 37.0468C38.1796 37.5142 37.0347 37.1269 36.5673 36.1819L39.9895 34.4895ZM33.1593 29.2906C32.6919 28.3456 33.0791 27.2006 34.0241 26.7333C34.9691 26.2659 36.1141 26.6532 36.5814 27.5982L33.1593 29.2906ZM37.3865 36.4024C36.4474 35.9233 36.0745 34.7736 36.5536 33.8345C37.0327 32.8954 38.1824 32.5225 39.1215 33.0016L37.3865 36.4024ZM45.9449 36.4827C46.884 36.9618 47.2569 38.1115 46.7778 39.0506C46.2987 39.9897 45.149 40.3626 44.2099 39.8835L45.9449 36.4827ZM57.0233 17.2072L-0.801424 78.8599L-3.58608 76.2481L54.2386 14.5954L57.0233 17.2072ZM16.73 6.65166L40.1768 86.8115L36.5126 87.8833L13.0657 7.72346L16.73 6.65166ZM-13.3094 35.6347L67.4506 55.1896L66.5521 58.9002L-14.2078 39.3453L-13.3094 35.6347ZM57.9396 31.717L44.5592 29.4184L45.2056 25.6557L58.586 27.9543L57.9396 31.717ZM44.1332 13.6004L46.3162 27.0796L42.5475 27.6899L40.3645 14.2107L44.1332 13.6004ZM5.93947 15.1696L18.964 18.9982L17.8873 22.661L4.86278 18.8324L5.93947 15.1696ZM17.0334 20.685L26.2367 10.6035L29.0563 13.1775L19.853 23.259L17.0334 20.685ZM0.0908463 41.897L-5.99223 29.701L-2.57582 27.997L3.50726 40.1929L0.0908463 41.897ZM-8.94953 49.0566L0.676225 39.3824L3.38258 42.0752L-6.24317 51.7494L-8.94953 49.0566ZM8.38773 80.5828L5.51811 67.2368L9.2506 66.4343L12.1202 79.7802L8.38773 80.5828ZM-4.86434 62.5668L8.37837 65.5552L7.53796 69.2794L-5.70475 66.2909L-4.86434 62.5668ZM45.9106 79.4547L33.1385 74.8518L34.4329 71.2601L47.205 75.8631L45.9106 79.4547ZM35.9756 74.4435L26.5825 84.3464L23.8125 81.7191L33.2056 71.8162L35.9756 74.4435ZM63.1069 46.07L53.1931 55.445L50.5699 52.6711L60.4837 43.2961L63.1069 46.07ZM49.2964 46.6109L43.849 52.0502L41.1515 49.3485L46.5989 43.9093L49.2964 46.6109ZM44.1159 50.5057L46.5358 57.8106L42.9117 59.0111L40.4918 51.7063L44.1159 50.5057ZM32.0366 61.3288L39.223 63.9753L37.9036 67.5579L30.7172 64.9114L32.0366 61.3288ZM33.2767 64.3031L28.1794 70.0754L25.3177 67.5483L30.415 61.776L33.2767 64.3031ZM8.34835 55.2002L15.8004 56.9636L14.9213 60.6788L7.46923 58.9154L8.34835 55.2002ZM14.8076 66.9688L13.1116 59.4581L16.8356 58.6171L18.5316 66.1279L14.8076 66.9688ZM8.01064 44.2447L6.31462 36.7339L10.0387 35.893L11.7347 43.4037L8.01064 44.2447ZM12.146 44.3913L6.46225 49.5798L3.88829 46.7602L9.57206 41.5716L12.146 44.3913ZM28.0713 26.7987L22.8712 32.4776L20.0555 29.8994L25.2556 24.2204L28.0713 26.7987ZM22.3205 32.1737L14.66 32.0811L14.7062 28.2635L22.3667 28.3562L22.3205 32.1737ZM36.5673 36.1819L33.1593 29.2906L36.5814 27.5982L39.9895 34.4895L36.5673 36.1819ZM39.1215 33.0016L45.9449 36.4827L44.2099 39.8835L37.3865 36.4024L39.1215 33.0016Z" fill="#B0CCCE"/>
<path d="M1114.56 282.875C1114.72 281.833 1114 280.86 1112.96 280.703C1111.92 280.546 1110.95 281.264 1110.79 282.306L1114.56 282.875ZM1100.48 350.727C1100.32 351.77 1101.04 352.742 1102.08 352.899C1103.12 353.056 1104.1 352.338 1104.25 351.296L1100.48 350.727ZM1139.64 306.123C1140.62 305.729 1141.09 304.617 1140.7 303.639C1140.3 302.661 1139.19 302.188 1138.21 302.582L1139.64 306.123ZM1074.81 328.151C1073.83 328.546 1073.36 329.658 1073.75 330.636C1074.14 331.614 1075.26 332.087 1076.23 331.692L1074.81 328.151ZM1132.8 339.635C1133.63 340.286 1134.83 340.141 1135.48 339.312C1136.13 338.482 1135.99 337.282 1135.16 336.631L1132.8 339.635ZM1081.65 294.64C1080.82 293.989 1079.62 294.134 1078.97 294.963C1078.32 295.792 1078.46 296.992 1079.29 297.643L1081.65 294.64ZM1103.66 286.545C1102.88 285.839 1101.67 285.903 1100.97 286.687C1100.26 287.47 1100.33 288.677 1101.11 289.382L1103.66 286.545ZM1109.37 296.817C1110.15 297.522 1111.36 297.459 1112.07 296.675C1112.77 295.891 1112.71 294.684 1111.92 293.979L1109.37 296.817ZM1121.67 291.848C1122.59 291.336 1122.92 290.174 1122.41 289.252C1121.9 288.331 1120.74 287.999 1119.82 288.511L1121.67 291.848ZM1110.05 293.942C1109.12 294.454 1108.79 295.616 1109.3 296.538C1109.82 297.459 1110.98 297.791 1111.9 297.279L1110.05 293.942ZM1136.33 316.989C1137.19 317.599 1138.38 317.396 1138.99 316.536C1139.6 315.676 1139.4 314.485 1138.54 313.875L1136.33 316.989ZM1129.47 307.445C1128.61 306.835 1127.42 307.037 1126.81 307.897C1126.2 308.757 1126.41 309.948 1127.27 310.558L1129.47 307.445ZM1125.74 309.26C1125.57 310.3 1126.28 311.282 1127.32 311.453C1128.36 311.624 1129.34 310.92 1129.51 309.879L1125.74 309.26ZM1131.32 298.853C1131.5 297.813 1130.79 296.831 1129.75 296.66C1128.71 296.489 1127.73 297.193 1127.56 298.234L1131.32 298.853ZM1123.42 328.067C1122.39 328.282 1121.72 329.293 1121.94 330.325C1122.15 331.357 1123.16 332.02 1124.2 331.805L1123.42 328.067ZM1135.12 329.532C1136.15 329.317 1136.81 328.306 1136.6 327.274C1136.38 326.242 1135.37 325.579 1134.34 325.794L1135.12 329.532ZM1120.66 340.49C1120.53 341.537 1121.28 342.488 1122.33 342.614C1123.37 342.74 1124.32 341.994 1124.45 340.948L1120.66 340.49ZM1125.79 329.857C1125.91 328.81 1125.17 327.859 1124.12 327.733C1123.08 327.607 1122.12 328.353 1122 329.399L1125.79 329.857ZM1093.53 342.629C1092.58 343.094 1092.19 344.237 1092.65 345.184C1093.12 346.13 1094.26 346.521 1095.21 346.057L1093.53 342.629ZM1105.24 341.135C1106.19 340.671 1106.58 339.527 1106.11 338.581C1105.65 337.634 1104.51 337.243 1103.56 337.708L1105.24 341.135ZM1111.17 347.827C1111.99 348.491 1113.19 348.365 1113.85 347.546C1114.52 346.727 1114.39 345.524 1113.57 344.861L1111.17 347.827ZM1104.94 337.865C1104.12 337.201 1102.92 337.327 1102.25 338.146C1101.59 338.965 1101.71 340.167 1102.53 340.831L1104.94 337.865ZM1078.59 318.111C1077.7 317.554 1076.52 317.827 1075.96 318.722C1075.41 319.617 1075.68 320.794 1076.57 321.352L1078.59 318.111ZM1086.01 327.227C1086.9 327.784 1088.08 327.511 1088.64 326.616C1089.19 325.721 1088.92 324.544 1088.03 323.986L1086.01 327.227ZM1088.45 325.401C1088.6 324.357 1087.88 323.389 1086.83 323.238C1085.79 323.086 1084.82 323.81 1084.67 324.853L1088.45 325.401ZM1083.07 335.911C1082.92 336.954 1083.64 337.922 1084.68 338.074C1085.73 338.225 1086.7 337.502 1086.85 336.458L1083.07 335.911ZM1092.95 293.391C1093.05 292.341 1092.27 291.413 1091.22 291.319C1090.17 291.225 1089.25 292 1089.15 293.05L1092.95 293.391ZM1088.15 304.174C1088.06 305.224 1088.83 306.152 1089.88 306.246C1090.93 306.341 1091.86 305.566 1091.95 304.516L1088.15 304.174ZM1099.6 302.635C1099.72 301.588 1098.97 300.64 1097.92 300.517C1096.88 300.394 1095.93 301.144 1095.81 302.191L1099.6 302.635ZM1095.07 308.449C1094.95 309.496 1095.7 310.445 1096.75 310.568C1097.79 310.69 1098.74 309.941 1098.86 308.894L1095.07 308.449ZM1097.46 310.798C1098.45 310.439 1098.96 309.344 1098.6 308.353C1098.24 307.362 1097.15 306.85 1096.15 307.21L1097.46 310.798ZM1090.23 309.358C1089.24 309.717 1088.73 310.812 1089.09 311.803C1089.45 312.794 1090.54 313.306 1091.53 312.947L1090.23 309.358ZM1093.63 323.745C1094.52 324.296 1095.7 324.014 1096.25 323.116C1096.8 322.217 1096.52 321.041 1095.62 320.49L1093.63 323.745ZM1090.28 317.213C1089.38 316.662 1088.2 316.944 1087.65 317.843C1087.1 318.741 1087.38 319.917 1088.28 320.468L1090.28 317.213ZM1096.32 322.116C1096.5 321.079 1095.82 320.085 1094.78 319.897C1093.74 319.709 1092.75 320.397 1092.56 321.435L1096.32 322.116ZM1091.43 327.637C1091.25 328.674 1091.93 329.668 1092.97 329.856C1094.01 330.044 1095 329.356 1095.19 328.319L1091.43 327.637ZM1109.23 335.623C1110.06 336.278 1111.26 336.14 1111.91 335.314C1112.57 334.488 1112.43 333.287 1111.6 332.632L1109.23 335.623ZM1106.69 328.736C1105.87 328.081 1104.67 328.22 1104.01 329.046C1103.36 329.872 1103.49 331.072 1104.32 331.728L1106.69 328.736ZM1099.05 331.586C1098.1 332.04 1097.7 333.18 1098.15 334.131C1098.61 335.083 1099.75 335.485 1100.7 335.031L1099.05 331.586ZM1106.39 332.313C1107.34 331.858 1107.74 330.719 1107.29 329.768C1106.83 328.816 1105.69 328.414 1104.74 328.868L1106.39 332.313ZM1117.1 324.434C1116.15 324.888 1115.75 326.028 1116.21 326.979C1116.66 327.931 1117.8 328.333 1118.75 327.879L1117.1 324.434ZM1124.44 325.161C1125.39 324.706 1125.79 323.567 1125.34 322.616C1124.88 321.664 1123.74 321.262 1122.79 321.716L1124.44 325.161ZM1119.87 325.232C1119.95 324.181 1119.16 323.267 1118.11 323.191C1117.05 323.115 1116.14 323.906 1116.07 324.958L1119.87 325.232ZM1115.61 331.241C1115.54 332.293 1116.33 333.207 1117.38 333.282C1118.43 333.358 1119.34 332.567 1119.42 331.516L1115.61 331.241ZM1123.07 306.387C1123.24 305.346 1122.53 304.365 1121.49 304.196C1120.45 304.026 1119.47 304.732 1119.3 305.773L1123.07 306.387ZM1118.29 311.994C1118.12 313.034 1118.82 314.015 1119.87 314.185C1120.91 314.354 1121.89 313.648 1122.06 312.608L1118.29 311.994ZM1121.8 310.067C1121.14 309.247 1119.94 309.12 1119.12 309.783C1118.3 310.445 1118.17 311.647 1118.84 312.467L1121.8 310.067ZM1122.78 317.344C1123.44 318.163 1124.64 318.291 1125.46 317.628C1126.28 316.965 1126.41 315.763 1125.75 314.943L1122.78 317.344ZM1108.59 301.729C1107.56 301.947 1106.9 302.96 1107.11 303.991C1107.33 305.023 1108.35 305.682 1109.38 305.464L1108.59 301.729ZM1115.53 304.16C1116.57 303.942 1117.23 302.929 1117.01 301.898C1116.79 300.866 1115.78 300.207 1114.74 300.425L1115.53 304.16ZM1108.6 305.025C1109.56 305.465 1110.7 305.046 1111.14 304.088C1111.58 303.131 1111.16 301.997 1110.2 301.556L1108.6 305.025ZM1104.5 298.936C1103.55 298.495 1102.41 298.914 1101.97 299.872C1101.53 300.83 1101.95 301.963 1102.91 302.404L1104.5 298.936ZM1110.79 282.306L1100.48 350.727L1104.25 351.296L1114.56 282.875L1110.79 282.306ZM1138.21 302.582L1074.81 328.151L1076.23 331.692L1139.64 306.123L1138.21 302.582ZM1135.16 336.631L1081.65 294.64L1079.29 297.643L1132.8 339.635L1135.16 336.631ZM1101.11 289.382L1109.37 296.817L1111.92 293.979L1103.66 286.545L1101.11 289.382ZM1119.82 288.511L1110.05 293.942L1111.9 297.279L1121.67 291.848L1119.82 288.511ZM1138.54 313.875L1129.47 307.445L1127.27 310.558L1136.33 316.989L1138.54 313.875ZM1129.51 309.879L1131.32 298.853L1127.56 298.234L1125.74 309.26L1129.51 309.879ZM1124.2 331.805L1135.12 329.532L1134.34 325.794L1123.42 328.067L1124.2 331.805ZM1124.45 340.948L1125.79 329.857L1122 329.399L1120.66 340.49L1124.45 340.948ZM1095.21 346.057L1105.24 341.135L1103.56 337.708L1093.53 342.629L1095.21 346.057ZM1113.57 344.861L1104.94 337.865L1102.53 340.831L1111.17 347.827L1113.57 344.861ZM1076.57 321.352L1086.01 327.227L1088.03 323.986L1078.59 318.111L1076.57 321.352ZM1084.67 324.853L1083.07 335.911L1086.85 336.458L1088.45 325.401L1084.67 324.853ZM1089.15 293.05L1088.15 304.174L1091.95 304.516L1092.95 293.391L1089.15 293.05ZM1095.81 302.191L1095.07 308.449L1098.86 308.894L1099.6 302.635L1095.81 302.191ZM1096.15 307.21L1090.23 309.358L1091.53 312.947L1097.46 310.798L1096.15 307.21ZM1095.62 320.49L1090.28 317.213L1088.28 320.468L1093.63 323.745L1095.62 320.49ZM1092.56 321.435L1091.43 327.637L1095.19 328.319L1096.32 322.116L1092.56 321.435ZM1111.6 332.632L1106.69 328.736L1104.32 331.728L1109.23 335.623L1111.6 332.632ZM1100.7 335.031L1106.39 332.313L1104.74 328.868L1099.05 331.586L1100.7 335.031ZM1118.75 327.879L1124.44 325.161L1122.79 321.716L1117.1 324.434L1118.75 327.879ZM1116.07 324.958L1115.61 331.241L1119.42 331.516L1119.87 325.232L1116.07 324.958ZM1119.3 305.773L1118.29 311.994L1122.06 312.608L1123.07 306.387L1119.3 305.773ZM1118.84 312.467L1122.78 317.344L1125.75 314.943L1121.8 310.067L1118.84 312.467ZM1109.38 305.464L1115.53 304.16L1114.74 300.425L1108.59 301.729L1109.38 305.464ZM1110.2 301.556L1104.5 298.936L1102.91 302.404L1108.6 305.025L1110.2 301.556Z" fill="#B0CCCE"/>
<path d="M1187.94 55.806C1188.1 54.7635 1187.38 53.7911 1186.34 53.634C1185.29 53.4769 1184.32 54.1947 1184.16 55.2372L1187.94 55.806ZM1168.08 161.972C1167.92 163.015 1168.64 163.987 1169.69 164.144C1170.73 164.302 1171.7 163.584 1171.86 162.541L1168.08 161.972ZM1227.72 91.2404C1228.69 90.8462 1229.17 89.7339 1228.77 88.7561C1228.38 87.7784 1227.27 87.3054 1226.29 87.6997L1227.72 91.2404ZM1127.38 127.587C1126.4 127.981 1125.93 129.094 1126.32 130.071C1126.71 131.049 1127.83 131.522 1128.8 131.128L1127.38 127.587ZM1218.11 143.669C1218.94 144.319 1220.14 144.175 1220.79 143.345C1221.44 142.516 1221.29 141.316 1220.46 140.665L1218.11 143.669ZM1136.99 75.1587C1136.16 74.5079 1134.96 74.6526 1134.31 75.482C1133.66 76.3114 1133.8 77.5113 1134.63 78.1622L1136.99 75.1587ZM1171.28 62.4841C1170.49 61.7789 1169.29 61.8424 1168.58 62.6261C1167.88 63.4097 1167.94 64.6167 1168.72 65.3219L1171.28 62.4841ZM1181.61 76.9195C1182.39 77.6248 1183.6 77.5612 1184.31 76.7776C1185.01 75.9939 1184.95 74.787 1184.16 74.0817L1181.61 76.9195ZM1199.56 69.0288C1200.49 68.5166 1200.82 67.3544 1200.31 66.4329C1199.79 65.5115 1198.63 65.1797 1197.71 65.6919L1199.56 69.0288ZM1182.47 74.1635C1181.55 74.6757 1181.22 75.8379 1181.73 76.7593C1182.24 77.6808 1183.4 78.0126 1184.32 77.5004L1182.47 74.1635ZM1223.57 108.31C1224.43 108.92 1225.62 108.717 1226.23 107.857C1226.84 106.997 1226.64 105.806 1225.78 105.196L1223.57 108.31ZM1211.64 95.1651C1210.78 94.5551 1209.59 94.7577 1208.98 95.6175C1208.37 96.4774 1208.57 97.6689 1209.43 98.2789L1211.64 95.1651ZM1207.49 97.2982C1207.32 98.3385 1208.03 99.3205 1209.07 99.4916C1210.11 99.6627 1211.09 98.9581 1211.26 97.9179L1207.49 97.2982ZM1214.09 80.7172C1214.26 79.6769 1213.56 78.6949 1212.52 78.5238C1211.48 78.3527 1210.49 79.0573 1210.32 80.0976L1214.09 80.7172ZM1203.03 127.511C1202 127.726 1201.33 128.737 1201.55 129.769C1201.76 130.801 1202.77 131.464 1203.81 131.249L1203.03 127.511ZM1220.84 127.702C1221.88 127.488 1222.54 126.477 1222.32 125.445C1222.11 124.412 1221.1 123.75 1220.07 123.965L1220.84 127.702ZM1199.57 145.972C1199.44 147.019 1200.19 147.97 1201.24 148.096C1202.28 148.222 1203.23 147.476 1203.36 146.429L1199.57 145.972ZM1205.45 129.127C1205.57 128.081 1204.83 127.13 1203.78 127.004C1202.73 126.878 1201.78 127.624 1201.66 128.67L1205.45 129.127ZM1156.65 150.141C1155.7 150.605 1155.31 151.749 1155.78 152.695C1156.24 153.642 1157.38 154.033 1158.33 153.568L1156.65 150.141ZM1173.98 145.891C1174.93 145.426 1175.32 144.283 1174.85 143.336C1174.39 142.39 1173.25 141.999 1172.3 142.463L1173.98 145.891ZM1184.37 156.459C1185.19 157.122 1186.39 156.996 1187.06 156.177C1187.72 155.358 1187.59 154.156 1186.78 153.492L1184.37 156.459ZM1173.31 142.578C1172.49 141.915 1171.28 142.041 1170.62 142.86C1169.96 143.679 1170.08 144.881 1170.9 145.545L1173.31 142.578ZM1132.32 111.84C1131.42 111.283 1130.25 111.556 1129.69 112.451C1129.13 113.346 1129.4 114.523 1130.3 115.081L1132.32 111.84ZM1145.02 124.246C1145.91 124.803 1147.09 124.53 1147.64 123.635C1148.2 122.74 1147.93 121.563 1147.03 121.005L1145.02 124.246ZM1147.2 122.151C1147.35 121.108 1146.63 120.139 1145.59 119.988C1144.54 119.837 1143.58 120.56 1143.42 121.603L1147.2 122.151ZM1140.92 138.853C1140.77 139.896 1141.5 140.865 1142.54 141.016C1143.58 141.167 1144.55 140.444 1144.7 139.401L1140.92 138.853ZM1154.22 72.2743C1154.32 71.2243 1153.54 70.2966 1152.49 70.2023C1151.44 70.1079 1150.51 70.8827 1150.42 71.9327L1154.22 72.2743ZM1148.86 89.2869C1148.77 90.3369 1149.54 91.2646 1150.59 91.3589C1151.64 91.4533 1152.57 90.6785 1152.66 89.6285L1148.86 89.2869ZM1164.59 86.6663C1164.71 85.6192 1163.96 84.6708 1162.92 84.548C1161.87 84.4252 1160.92 85.1744 1160.8 86.2215L1164.59 86.6663ZM1159.65 95.9849C1159.53 97.032 1160.28 97.9804 1161.33 98.1032C1162.37 98.226 1163.32 97.4768 1163.44 96.4297L1159.65 95.9849ZM1161.95 98.5203C1162.94 98.1608 1163.45 97.0659 1163.09 96.0748C1162.73 95.0838 1161.64 94.5718 1160.64 94.9313L1161.95 98.5203ZM1151.41 98.2822C1150.42 98.6417 1149.9 99.7366 1150.26 100.728C1150.62 101.719 1151.72 102.231 1152.71 101.871L1151.41 98.2822ZM1156.89 118.81C1157.79 119.361 1158.97 119.08 1159.52 118.181C1160.07 117.282 1159.79 116.107 1158.89 115.556L1156.89 118.81ZM1150.55 110.443C1149.65 109.892 1148.48 110.174 1147.93 111.073C1147.38 111.972 1147.66 113.147 1148.56 113.698L1150.55 110.443ZM1159.48 116.99C1159.67 115.953 1158.98 114.959 1157.94 114.771C1156.9 114.583 1155.91 115.271 1155.72 116.308L1159.48 116.99ZM1153.97 125.984C1153.78 127.021 1154.47 128.015 1155.5 128.203C1156.54 128.391 1157.54 127.703 1157.72 126.666L1153.97 125.984ZM1181.34 137.414C1182.17 138.069 1183.37 137.93 1184.03 137.104C1184.68 136.278 1184.54 135.078 1183.72 134.423L1181.34 137.414ZM1176.05 128.346C1175.23 127.69 1174.03 127.829 1173.37 128.655C1172.72 129.481 1172.86 130.682 1173.68 131.337L1176.05 128.346ZM1165.26 132.918C1164.31 133.372 1163.91 134.512 1164.36 135.463C1164.82 136.414 1165.96 136.817 1166.91 136.362L1165.26 132.918ZM1175.78 132.123C1176.73 131.668 1177.13 130.529 1176.68 129.578C1176.23 128.626 1175.09 128.224 1174.13 128.678L1175.78 132.123ZM1193.42 121.761C1192.47 122.215 1192.07 123.355 1192.52 124.306C1192.98 125.257 1194.12 125.66 1195.07 125.205L1193.42 121.761ZM1203.94 120.966C1204.89 120.511 1205.29 119.372 1204.84 118.421C1204.38 117.469 1203.24 117.067 1202.29 117.521L1203.94 120.966ZM1196.21 121.965C1196.29 120.913 1195.5 120 1194.45 119.924C1193.4 119.848 1192.48 120.639 1192.41 121.69L1196.21 121.965ZM1191.7 131.492C1191.62 132.544 1192.41 133.458 1193.47 133.534C1194.52 133.61 1195.43 132.819 1195.51 131.767L1191.7 131.492ZM1201.21 92.4709C1201.38 91.4303 1200.68 90.4494 1199.64 90.2798C1198.59 90.1103 1197.61 90.8164 1197.44 91.8569L1201.21 92.4709ZM1195.86 101.562C1195.69 102.602 1196.4 103.583 1197.44 103.753C1198.48 103.922 1199.46 103.216 1199.63 102.176L1195.86 101.562ZM1199.46 99.0557C1198.8 98.2359 1197.6 98.1087 1196.78 98.7716C1195.96 99.4345 1195.83 100.636 1196.49 101.456L1199.46 99.0557ZM1202.64 109.063C1203.31 109.883 1204.51 110.01 1205.33 109.348C1206.15 108.685 1206.28 107.483 1205.61 106.663L1202.64 109.063ZM1179.9 86.4221C1178.86 86.6404 1178.2 87.6535 1178.42 88.685C1178.64 89.7164 1179.65 90.3755 1180.69 90.1571L1179.9 86.4221ZM1190.29 88.124C1191.32 87.9057 1191.98 86.8926 1191.76 85.8612C1191.54 84.8298 1190.53 84.1707 1189.5 84.389L1190.29 88.124ZM1180.15 89.5471C1181.11 89.9877 1182.24 89.5685 1182.68 88.6107C1183.12 87.6529 1182.7 86.5193 1181.74 86.0787L1180.15 89.5471ZM1172.86 81.9905C1171.9 81.5499 1170.76 81.9692 1170.32 82.9269C1169.88 83.8847 1170.3 85.0183 1171.26 85.4589L1172.86 81.9905ZM1184.16 55.2372L1168.08 161.972L1171.86 162.541L1187.94 55.806L1184.16 55.2372ZM1226.29 87.6997L1127.38 127.587L1128.8 131.128L1227.72 91.2404L1226.29 87.6997ZM1220.46 140.665L1136.99 75.1587L1134.63 78.1622L1218.11 143.669L1220.46 140.665ZM1168.72 65.3219L1181.61 76.9195L1184.16 74.0817L1171.28 62.4841L1168.72 65.3219ZM1197.71 65.6919L1182.47 74.1635L1184.32 77.5004L1199.56 69.0288L1197.71 65.6919ZM1225.78 105.196L1211.64 95.1651L1209.43 98.2789L1223.57 108.31L1225.78 105.196ZM1211.26 97.9179L1214.09 80.7172L1210.32 80.0976L1207.49 97.2982L1211.26 97.9179ZM1203.81 131.249L1220.84 127.702L1220.07 123.965L1203.03 127.511L1203.81 131.249ZM1203.36 146.429L1205.45 129.127L1201.66 128.67L1199.57 145.972L1203.36 146.429ZM1158.33 153.568L1173.98 145.891L1172.3 142.463L1156.65 150.141L1158.33 153.568ZM1186.78 153.492L1173.31 142.578L1170.9 145.545L1184.37 156.459L1186.78 153.492ZM1130.3 115.081L1145.02 124.246L1147.03 121.005L1132.32 111.84L1130.3 115.081ZM1143.42 121.603L1140.92 138.853L1144.7 139.401L1147.2 122.151L1143.42 121.603ZM1150.42 71.9327L1148.86 89.2869L1152.66 89.6285L1154.22 72.2743L1150.42 71.9327ZM1160.8 86.2215L1159.65 95.9849L1163.44 96.4297L1164.59 86.6663L1160.8 86.2215ZM1160.64 94.9313L1151.41 98.2822L1152.71 101.871L1161.95 98.5203L1160.64 94.9313ZM1158.89 115.556L1150.55 110.443L1148.56 113.698L1156.89 118.81L1158.89 115.556ZM1155.72 116.308L1153.97 125.984L1157.72 126.666L1159.48 116.99L1155.72 116.308ZM1183.72 134.423L1176.05 128.346L1173.68 131.337L1181.34 137.414L1183.72 134.423ZM1166.91 136.362L1175.78 132.123L1174.13 128.678L1165.26 132.918L1166.91 136.362ZM1195.07 125.205L1203.94 120.966L1202.29 117.521L1193.42 121.761L1195.07 125.205ZM1192.41 121.69L1191.7 131.492L1195.51 131.767L1196.21 121.965L1192.41 121.69ZM1197.44 91.8569L1195.86 101.562L1199.63 102.176L1201.21 92.4709L1197.44 91.8569ZM1196.49 101.456L1202.64 109.063L1205.61 106.663L1199.46 99.0557L1196.49 101.456ZM1180.69 90.1571L1190.29 88.124L1189.5 84.389L1179.9 86.4221L1180.69 90.1571ZM1181.74 86.0787L1172.86 81.9905L1171.26 85.4589L1180.15 89.5471L1181.74 86.0787Z" fill="#B0CCCE"/>
<path d="M965.418 149.875C965.261 148.833 965.979 147.86 967.021 147.703C968.064 147.546 969.036 148.264 969.193 149.306L965.418 149.875ZM979.503 217.727C979.66 218.77 978.942 219.742 977.9 219.899C976.857 220.056 975.885 219.338 975.728 218.296L979.503 217.727ZM940.341 173.123C939.363 172.729 938.89 171.617 939.285 170.639C939.679 169.661 940.791 169.188 941.769 169.582L940.341 173.123ZM1005.18 195.151C1006.15 195.546 1006.63 196.658 1006.23 197.636C1005.84 198.614 1004.73 199.087 1003.75 198.692L1005.18 195.151ZM947.181 206.635C946.352 207.286 945.152 207.141 944.501 206.312C943.85 205.482 943.995 204.282 944.824 203.631L947.181 206.635ZM998.335 161.64C999.165 160.989 1000.36 161.134 1001.02 161.963C1001.67 162.792 1001.52 163.992 1000.69 164.643L998.335 161.64ZM976.319 153.545C977.102 152.839 978.309 152.903 979.015 153.687C979.72 154.47 979.656 155.677 978.873 156.382L976.319 153.545ZM970.612 163.817C969.828 164.522 968.621 164.459 967.916 163.675C967.211 162.891 967.274 161.684 968.058 160.979L970.612 163.817ZM958.311 158.848C957.39 158.336 957.058 157.174 957.57 156.252C958.083 155.331 959.245 154.999 960.166 155.511L958.311 158.848ZM969.936 160.942C970.858 161.454 971.189 162.616 970.677 163.538C970.165 164.459 969.003 164.791 968.081 164.279L969.936 160.942ZM943.652 183.989C942.792 184.599 941.601 184.396 940.991 183.536C940.381 182.676 940.583 181.485 941.443 180.875L943.652 183.989ZM950.507 174.445C951.367 173.835 952.558 174.037 953.168 174.897C953.778 175.757 953.576 176.948 952.716 177.558L950.507 174.445ZM954.238 176.26C954.409 177.3 953.705 178.282 952.664 178.453C951.624 178.624 950.642 177.92 950.471 176.879L954.238 176.26ZM948.657 165.853C948.486 164.813 949.191 163.831 950.231 163.66C951.271 163.489 952.253 164.193 952.424 165.234L948.657 165.853ZM956.564 195.067C957.596 195.282 958.258 196.293 958.044 197.325C957.829 198.357 956.818 199.02 955.786 198.805L956.564 195.067ZM944.863 196.532C943.831 196.317 943.169 195.306 943.384 194.274C943.598 193.242 944.609 192.579 945.641 192.794L944.863 196.532ZM959.321 207.49C959.448 208.537 958.701 209.488 957.655 209.614C956.608 209.74 955.657 208.994 955.531 207.948L959.321 207.49ZM954.193 196.857C954.067 195.81 954.813 194.859 955.86 194.733C956.906 194.607 957.857 195.353 957.984 196.399L954.193 196.857ZM986.455 209.629C987.402 210.094 987.793 211.237 987.328 212.184C986.864 213.13 985.72 213.521 984.774 213.057L986.455 209.629ZM974.742 208.135C973.795 207.671 973.404 206.527 973.869 205.581C974.333 204.634 975.477 204.243 976.423 204.708L974.742 208.135ZM968.814 214.827C967.995 215.491 966.793 215.365 966.13 214.546C965.466 213.727 965.592 212.524 966.411 211.861L968.814 214.827ZM975.045 204.865C975.864 204.201 977.067 204.327 977.73 205.146C978.394 205.965 978.268 207.167 977.449 207.831L975.045 204.865ZM1001.39 185.111C1002.28 184.554 1003.46 184.827 1004.02 185.722C1004.58 186.617 1004.3 187.794 1003.41 188.352L1001.39 185.111ZM993.974 194.227C993.079 194.784 991.902 194.511 991.345 193.616C990.787 192.721 991.061 191.544 991.956 190.986L993.974 194.227ZM991.531 192.401C991.38 191.357 992.103 190.389 993.147 190.238C994.19 190.086 995.158 190.81 995.31 191.853L991.531 192.401ZM996.912 202.911C997.064 203.954 996.34 204.922 995.297 205.074C994.254 205.225 993.285 204.502 993.134 203.458L996.912 202.911ZM987.028 160.391C986.934 159.341 987.708 158.413 988.758 158.319C989.808 158.225 990.736 159 990.831 160.05L987.028 160.391ZM991.83 171.174C991.924 172.224 991.15 173.152 990.1 173.246C989.05 173.341 988.122 172.566 988.027 171.516L991.83 171.174ZM980.384 169.635C980.261 168.588 981.01 167.64 982.057 167.517C983.105 167.394 984.053 168.144 984.176 169.191L980.384 169.635ZM984.91 175.449C985.033 176.496 984.284 177.445 983.236 177.568C982.189 177.69 981.241 176.941 981.118 175.894L984.91 175.449ZM982.525 177.798C981.534 177.439 981.022 176.344 981.381 175.353C981.741 174.362 982.836 173.85 983.827 174.21L982.525 177.798ZM989.748 176.358C990.74 176.717 991.252 177.812 990.892 178.803C990.533 179.794 989.438 180.306 988.447 179.947L989.748 176.358ZM986.356 190.745C985.457 191.296 984.282 191.014 983.73 190.116C983.179 189.217 983.461 188.041 984.36 187.49L986.356 190.745ZM989.704 184.213C990.603 183.662 991.778 183.944 992.329 184.843C992.88 185.741 992.599 186.917 991.7 187.468L989.704 184.213ZM983.666 189.116C983.477 188.079 984.166 187.085 985.203 186.897C986.24 186.709 987.234 187.397 987.422 188.435L983.666 189.116ZM988.548 194.637C988.736 195.674 988.048 196.668 987.01 196.856C985.973 197.044 984.98 196.356 984.791 195.319L988.548 194.637ZM970.75 202.623C969.924 203.278 968.724 203.14 968.068 202.314C967.413 201.488 967.552 200.287 968.378 199.632L970.75 202.623ZM973.289 195.736C974.115 195.081 975.316 195.22 975.971 196.046C976.626 196.872 976.487 198.072 975.661 198.728L973.289 195.736ZM980.928 198.586C981.879 199.04 982.282 200.18 981.827 201.131C981.373 202.083 980.233 202.485 979.282 202.031L980.928 198.586ZM973.595 199.313C972.644 198.858 972.241 197.719 972.696 196.768C973.15 195.816 974.29 195.414 975.241 195.868L973.595 199.313ZM962.877 191.434C963.828 191.888 964.231 193.028 963.776 193.979C963.322 194.931 962.182 195.333 961.231 194.879L962.877 191.434ZM955.544 192.161C954.593 191.706 954.19 190.567 954.645 189.616C955.099 188.664 956.239 188.262 957.19 188.716L955.544 192.161ZM960.109 192.232C960.033 191.181 960.824 190.267 961.875 190.191C962.927 190.115 963.841 190.906 963.916 191.958L960.109 192.232ZM964.37 198.241C964.446 199.293 963.655 200.207 962.603 200.282C961.552 200.358 960.638 199.567 960.562 198.516L964.37 198.241ZM956.911 173.387C956.742 172.346 957.448 171.365 958.489 171.196C959.529 171.026 960.51 171.732 960.68 172.773L956.911 173.387ZM961.693 178.994C961.863 180.034 961.157 181.015 960.116 181.185C959.076 181.354 958.095 180.648 957.925 179.608L961.693 178.994ZM958.177 177.067C958.84 176.247 960.042 176.12 960.862 176.783C961.682 177.445 961.809 178.647 961.146 179.467L958.177 177.067ZM957.203 184.344C956.54 185.163 955.338 185.291 954.518 184.628C953.699 183.965 953.571 182.763 954.234 181.943L957.203 184.344ZM971.395 168.729C972.426 168.947 973.085 169.96 972.867 170.991C972.649 172.023 971.635 172.682 970.604 172.464L971.395 168.729ZM964.447 171.16C963.416 170.942 962.757 169.929 962.975 168.898C963.193 167.866 964.206 167.207 965.238 167.425L964.447 171.16ZM971.377 172.025C970.42 172.465 969.286 172.046 968.845 171.088C968.405 170.131 968.824 168.997 969.782 168.556L971.377 172.025ZM975.478 165.936C976.436 165.495 977.57 165.914 978.01 166.872C978.451 167.83 978.032 168.963 977.074 169.404L975.478 165.936ZM969.193 149.306L979.503 217.727L975.728 218.296L965.418 149.875L969.193 149.306ZM941.769 169.582L1005.18 195.151L1003.75 198.692L940.341 173.123L941.769 169.582ZM944.824 203.631L998.335 161.64L1000.69 164.643L947.181 206.635L944.824 203.631ZM978.873 156.382L970.612 163.817L968.058 160.979L976.319 153.545L978.873 156.382ZM960.166 155.511L969.936 160.942L968.081 164.279L958.311 158.848L960.166 155.511ZM941.443 180.875L950.507 174.445L952.716 177.558L943.652 183.989L941.443 180.875ZM950.471 176.879L948.657 165.853L952.424 165.234L954.238 176.26L950.471 176.879ZM955.786 198.805L944.863 196.532L945.641 192.794L956.564 195.067L955.786 198.805ZM955.531 207.948L954.193 196.857L957.984 196.399L959.321 207.49L955.531 207.948ZM984.774 213.057L974.742 208.135L976.423 204.708L986.455 209.629L984.774 213.057ZM966.411 211.861L975.045 204.865L977.449 207.831L968.814 214.827L966.411 211.861ZM1003.41 188.352L993.974 194.227L991.956 190.986L1001.39 185.111L1003.41 188.352ZM995.31 191.853L996.912 202.911L993.134 203.458L991.531 192.401L995.31 191.853ZM990.831 160.05L991.83 171.174L988.027 171.516L987.028 160.391L990.831 160.05ZM984.176 169.191L984.91 175.449L981.118 175.894L980.384 169.635L984.176 169.191ZM983.827 174.21L989.748 176.358L988.447 179.947L982.525 177.798L983.827 174.21ZM984.36 187.49L989.704 184.213L991.7 187.468L986.356 190.745L984.36 187.49ZM987.422 188.435L988.548 194.637L984.791 195.319L983.666 189.116L987.422 188.435ZM968.378 199.632L973.289 195.736L975.661 198.728L970.75 202.623L968.378 199.632ZM979.282 202.031L973.595 199.313L975.241 195.868L980.928 198.586L979.282 202.031ZM961.231 194.879L955.544 192.161L957.19 188.716L962.877 191.434L961.231 194.879ZM963.916 191.958L964.37 198.241L960.562 198.516L960.109 192.232L963.916 191.958ZM960.68 172.773L961.693 178.994L957.925 179.608L956.911 173.387L960.68 172.773ZM961.146 179.467L957.203 184.344L954.234 181.943L958.177 177.067L961.146 179.467ZM970.604 172.464L964.447 171.16L965.238 167.425L971.395 168.729L970.604 172.464ZM969.782 168.556L975.478 165.936L977.074 169.404L971.377 172.025L969.782 168.556Z" fill="#B0CCCE"/>
<path d="M149.713 314.894C149.556 313.852 150.273 312.879 151.316 312.722C152.358 312.565 153.331 313.283 153.488 314.325L149.713 314.894ZM167.71 408.709C167.867 409.752 167.149 410.724 166.106 410.881C165.064 411.038 164.092 410.321 163.934 409.278L167.71 408.709ZM114.674 346.4C113.697 346.006 113.224 344.894 113.618 343.916C114.012 342.938 115.124 342.465 116.102 342.859L114.674 346.4ZM203.569 378.131C204.547 378.525 205.02 379.637 204.626 380.615C204.231 381.593 203.119 382.066 202.141 381.672L203.569 378.131ZM123.392 392.73C122.563 393.381 121.363 393.236 120.712 392.407C120.061 391.578 120.206 390.378 121.035 389.727L123.392 392.73ZM194.852 331.801C195.681 331.15 196.881 331.295 197.532 332.124C198.183 332.953 198.038 334.153 197.209 334.804L194.852 331.801ZM164.518 320.602C165.302 319.897 166.509 319.961 167.214 320.744C167.919 321.528 167.856 322.735 167.072 323.44L164.518 320.602ZM155.677 333.696C154.893 334.401 153.686 334.337 152.981 333.554C152.276 332.77 152.339 331.563 153.123 330.858L155.677 333.696ZM139.545 326.747C138.623 326.235 138.292 325.073 138.804 324.151C139.316 323.23 140.478 322.898 141.4 323.41L139.545 326.747ZM154.877 330.901C155.798 331.413 156.13 332.576 155.618 333.497C155.106 334.419 153.944 334.75 153.022 334.238L154.877 330.901ZM118.552 361.469C117.692 362.079 116.5 361.877 115.89 361.017C115.28 360.157 115.483 358.966 116.343 358.356L118.552 361.469ZM128.846 349.486C129.706 348.876 130.897 349.078 131.507 349.938C132.117 350.798 131.915 351.989 131.055 352.599L128.846 349.486ZM132.859 351.516C133.03 352.556 132.326 353.538 131.285 353.71C130.245 353.881 129.263 353.176 129.092 352.136L132.859 351.516ZM126.59 336.926C126.419 335.885 127.123 334.903 128.164 334.732C129.204 334.561 130.186 335.266 130.357 336.306L126.59 336.926ZM136.634 378.052C137.667 378.267 138.329 379.278 138.114 380.31C137.9 381.342 136.889 382.005 135.857 381.79L136.634 378.052ZM120.789 378.654C119.757 378.439 119.095 377.428 119.31 376.396C119.524 375.364 120.535 374.702 121.567 374.916L120.789 378.654ZM139.867 394.567C139.993 395.614 139.247 396.565 138.2 396.691C137.154 396.817 136.203 396.071 136.077 395.024L139.867 394.567ZM134.231 379.724C134.105 378.678 134.851 377.727 135.898 377.601C136.944 377.474 137.895 378.221 138.022 379.267L134.231 379.724ZM177.698 398.081C178.644 398.546 179.035 399.689 178.571 400.636C178.106 401.582 176.963 401.973 176.016 401.509L177.698 398.081ZM162.177 394.72C161.23 394.255 160.839 393.112 161.304 392.165C161.768 391.219 162.912 390.828 163.858 391.292L162.177 394.72ZM153.226 404.038C152.406 404.702 151.204 404.576 150.541 403.757C149.877 402.938 150.003 401.736 150.822 401.072L153.226 404.038ZM162.733 391.421C163.552 390.757 164.754 390.883 165.418 391.702C166.081 392.521 165.955 393.723 165.136 394.387L162.733 391.421ZM199 364.224C199.895 363.666 201.072 363.94 201.63 364.835C202.187 365.73 201.913 366.907 201.018 367.464L199 364.224ZM188.005 375.569C187.11 376.126 185.933 375.853 185.376 374.958C184.819 374.063 185.092 372.886 185.987 372.328L188.005 375.569ZM185.735 373.561C185.584 372.517 186.307 371.549 187.351 371.398C188.394 371.246 189.363 371.97 189.514 373.013L185.735 373.561ZM191.725 388.266C191.876 389.31 191.153 390.278 190.109 390.429C189.066 390.581 188.098 389.857 187.946 388.814L191.725 388.266ZM179.528 329.444C179.434 328.394 180.208 327.466 181.258 327.372C182.308 327.277 183.236 328.052 183.33 329.102L179.528 329.444ZM184.709 344.448C184.804 345.498 184.029 346.426 182.979 346.52C181.929 346.614 181.001 345.84 180.907 344.79L184.709 344.448ZM170.361 342.176C170.238 341.129 170.987 340.181 172.034 340.058C173.081 339.935 174.03 340.684 174.152 341.731L170.361 342.176ZM175.165 350.365C175.288 351.412 174.539 352.36 173.492 352.483C172.445 352.606 171.496 351.857 171.373 350.81L175.165 350.365ZM172.842 352.84C171.851 352.481 171.339 351.386 171.698 350.395C172.058 349.404 173.152 348.892 174.143 349.251L172.842 352.84ZM182.312 352.214C183.303 352.574 183.815 353.669 183.456 354.66C183.096 355.651 182.002 356.163 181.01 355.803L182.312 352.214ZM177.5 370.763C176.602 371.314 175.426 371.032 174.875 370.134C174.324 369.235 174.606 368.06 175.505 367.508L177.5 370.763ZM182.877 362.988C183.776 362.437 184.951 362.718 185.502 363.617C186.053 364.516 185.771 365.691 184.873 366.242L182.877 362.988ZM174.881 369.004C174.693 367.967 175.381 366.974 176.418 366.785C177.456 366.597 178.449 367.285 178.637 368.323L174.881 369.004ZM180.19 376.879C180.378 377.916 179.69 378.91 178.653 379.098C177.616 379.286 176.622 378.598 176.434 377.561L180.19 376.879ZM155.902 387.198C155.076 387.854 153.875 387.715 153.22 386.889C152.565 386.063 152.703 384.862 153.529 384.207L155.902 387.198ZM160.304 378.834C161.13 378.178 162.331 378.317 162.986 379.143C163.641 379.969 163.503 381.17 162.677 381.825L160.304 378.834ZM170.08 382.85C171.031 383.305 171.433 384.445 170.979 385.396C170.524 386.347 169.385 386.75 168.433 386.295L170.08 382.85ZM160.588 382.546C159.637 382.092 159.234 380.952 159.689 380.001C160.144 379.049 161.283 378.647 162.234 379.101L160.588 382.546ZM145.179 372.984C146.13 373.439 146.533 374.579 146.078 375.53C145.624 376.481 144.484 376.884 143.533 376.429L145.179 372.984ZM135.688 372.68C134.736 372.226 134.334 371.086 134.788 370.135C135.243 369.184 136.383 368.781 137.334 369.235L135.688 372.68ZM142.395 373.38C142.319 372.329 143.11 371.415 144.161 371.339C145.213 371.263 146.127 372.054 146.202 373.106L142.395 373.38ZM146.828 381.773C146.904 382.825 146.113 383.739 145.061 383.815C144.01 383.891 143.096 383.1 143.02 382.048L146.828 381.773ZM137.977 347.319C137.807 346.278 138.513 345.297 139.554 345.128C140.594 344.958 141.575 345.664 141.745 346.705L137.977 347.319ZM143.143 355.287C143.313 356.327 142.607 357.308 141.566 357.478C140.525 357.647 139.544 356.941 139.375 355.901L143.143 355.287ZM139.571 352.967C140.234 352.147 141.436 352.02 142.256 352.683C143.076 353.346 143.203 354.548 142.54 355.368L139.571 352.967ZM137.101 362.095C136.438 362.914 135.236 363.042 134.416 362.379C133.596 361.716 133.469 360.514 134.132 359.694L137.101 362.095ZM157.091 341.718C158.122 341.937 158.781 342.95 158.563 343.981C158.345 345.013 157.332 345.672 156.3 345.453L157.091 341.718ZM147.807 343.656C146.775 343.437 146.116 342.424 146.335 341.393C146.553 340.361 147.566 339.702 148.597 339.921L147.807 343.656ZM156.914 344.899C155.957 345.339 154.823 344.92 154.382 343.962C153.942 343.004 154.361 341.871 155.319 341.43L156.914 344.899ZM163.177 337.815C164.135 337.374 165.268 337.794 165.709 338.751C166.15 339.709 165.73 340.843 164.773 341.283L163.177 337.815ZM153.488 314.325L167.71 408.709L163.934 409.278L149.713 314.894L153.488 314.325ZM116.102 342.859L203.569 378.131L202.141 381.672L114.674 346.4L116.102 342.859ZM121.035 389.727L194.852 331.801L197.209 334.804L123.392 392.73L121.035 389.727ZM167.072 323.44L155.677 333.696L153.123 330.858L164.518 320.602L167.072 323.44ZM141.4 323.41L154.877 330.901L153.022 334.238L139.545 326.747L141.4 323.41ZM116.343 358.356L128.846 349.486L131.055 352.599L118.552 361.469L116.343 358.356ZM129.092 352.136L126.59 336.926L130.357 336.306L132.859 351.516L129.092 352.136ZM135.857 381.79L120.789 378.654L121.567 374.916L136.634 378.052L135.857 381.79ZM136.077 395.024L134.231 379.724L138.022 379.267L139.867 394.567L136.077 395.024ZM176.016 401.509L162.177 394.72L163.858 391.292L177.698 398.081L176.016 401.509ZM150.822 401.072L162.733 391.421L165.136 394.387L153.226 404.038L150.822 401.072ZM201.018 367.464L188.005 375.569L185.987 372.328L199 364.224L201.018 367.464ZM189.514 373.013L191.725 388.266L187.946 388.814L185.735 373.561L189.514 373.013ZM183.33 329.102L184.709 344.448L180.907 344.79L179.528 329.444L183.33 329.102ZM174.152 341.731L175.165 350.365L171.373 350.81L170.361 342.176L174.152 341.731ZM174.143 349.251L182.312 352.214L181.01 355.803L172.842 352.84L174.143 349.251ZM175.505 367.508L182.877 362.988L184.873 366.242L177.5 370.763L175.505 367.508ZM178.637 368.323L180.19 376.879L176.434 377.561L174.881 369.004L178.637 368.323ZM153.529 384.207L160.304 378.834L162.677 381.825L155.902 387.198L153.529 384.207ZM168.433 386.295L160.588 382.546L162.234 379.101L170.08 382.85L168.433 386.295ZM143.533 376.429L135.688 372.68L137.334 369.235L145.179 372.984L143.533 376.429ZM146.202 373.106L146.828 381.773L143.02 382.048L142.395 373.38L146.202 373.106ZM141.745 346.705L143.143 355.287L139.375 355.901L137.977 347.319L141.745 346.705ZM142.54 355.368L137.101 362.095L134.132 359.694L139.571 352.967L142.54 355.368ZM156.3 345.453L147.807 343.656L148.597 339.921L157.091 341.718L156.3 345.453ZM155.319 341.43L163.177 337.815L164.773 341.283L156.914 344.899L155.319 341.43Z" fill="#B0CCCE"/>
<path d="M79.1532 185.916C79.8745 185.147 81.0825 185.108 81.8515 185.829C82.6204 186.55 82.6591 187.759 81.9379 188.527L79.1532 185.916ZM44.7671 228.159C44.0459 228.928 42.8379 228.967 42.0689 228.245C41.2999 227.524 41.2612 226.316 41.9824 225.547L44.7671 228.159ZM52.5295 182.156C52.2335 181.144 52.8138 180.084 53.8257 179.788C54.8376 179.492 55.8978 180.072 56.1937 181.084L52.5295 182.156ZM71.2658 232.613C71.5618 233.624 70.9814 234.685 69.9696 234.981C68.9577 235.277 67.8975 234.696 67.6015 233.684L71.2658 232.613ZM35.4914 202.955C34.4668 202.706 33.8373 201.675 34.0854 200.65C34.3335 199.625 35.3652 198.996 36.3899 199.244L35.4914 202.955ZM88.3039 211.814C89.3286 212.062 89.9581 213.094 89.71 214.119C89.4619 215.143 88.4301 215.773 87.4055 215.525L88.3039 211.814ZM82.5606 194.298C83.5996 194.476 84.2972 195.463 84.1187 196.502C83.9402 197.541 82.9532 198.239 81.9142 198.06L82.5606 194.298ZM73.313 196.583C72.274 196.404 71.5764 195.417 71.7549 194.378C71.9334 193.339 72.9204 192.641 73.9594 192.82L73.313 196.583ZM70.059 186.244C69.8905 185.203 70.5975 184.223 71.6382 184.054C72.6789 183.886 73.6592 184.593 73.8277 185.634L70.059 186.244ZM75.2309 194.298C75.3995 195.339 74.6924 196.319 73.6517 196.488C72.611 196.656 71.6308 195.949 71.4622 194.909L75.2309 194.298ZM47.7186 189.76C46.7071 189.463 46.1282 188.402 46.4255 187.39C46.7228 186.379 47.7838 185.8 48.7952 186.097L47.7186 189.76ZM57.1677 188.558C58.1791 188.856 58.7581 189.917 58.4607 190.928C58.1634 191.939 57.1024 192.518 56.091 192.221L57.1677 188.558ZM58.0504 192.411C57.3396 193.19 56.1322 193.245 55.3536 192.534C54.575 191.823 54.52 190.616 55.2308 189.837L58.0504 192.411ZM61.1469 183.356C61.8577 182.578 63.0651 182.523 63.8437 183.234C64.6223 183.944 64.6773 185.152 63.9665 185.93L61.1469 183.356ZM47.6496 202.532C48.1202 203.476 47.7368 204.622 46.7934 205.093C45.85 205.563 44.7038 205.18 44.2332 204.236L47.6496 202.532ZM40.3229 196.397C39.8523 195.453 40.2357 194.307 41.1791 193.836C42.1225 193.366 43.2687 193.749 43.7393 194.693L40.3229 196.397ZM41.2551 210.746C40.5114 211.494 39.3028 211.497 38.5555 210.753C37.8081 210.01 37.8051 208.801 38.5487 208.054L41.2551 210.746ZM44.7363 201.835C45.4799 201.087 46.6886 201.084 47.4359 201.828C48.1832 202.572 48.1863 203.78 47.4427 204.528L44.7363 201.835ZM53.2426 228.141C53.4643 229.172 52.8084 230.187 51.7777 230.408C50.747 230.63 49.7318 229.974 49.5102 228.943L53.2426 228.141ZM47.6655 220.364C47.4439 219.334 48.0998 218.318 49.1305 218.097C50.1612 217.875 51.1764 218.531 51.398 219.562L47.6655 220.364ZM40.9677 220.278C39.9393 220.046 39.2938 219.024 39.5259 217.996C39.7579 216.967 40.7798 216.322 41.8081 216.554L40.9677 220.278ZM50.3208 218.475C51.3492 218.707 51.9948 219.729 51.7627 220.757C51.5306 221.786 50.5088 222.431 49.4804 222.199L50.3208 218.475ZM75.3604 225.125C76.3522 225.482 76.8665 226.576 76.509 227.568C76.1516 228.56 75.0578 229.074 74.066 228.716L75.3604 225.125ZM65.8558 225.758C64.864 225.4 64.3497 224.306 64.7072 223.315C65.0646 222.323 66.1584 221.808 67.1502 222.166L65.8558 225.758ZM65.6355 222.696C66.361 221.931 67.5692 221.899 68.3341 222.624C69.099 223.35 69.1309 224.558 68.4054 225.323L65.6355 222.696ZM62.3673 231.689C61.6418 232.454 60.4336 232.485 59.6687 231.76C58.9038 231.034 58.8719 229.826 59.5974 229.061L62.3673 231.689ZM83.1966 204.336C83.9626 203.612 85.1708 203.645 85.8951 204.411C86.6195 205.177 86.5857 206.386 85.8197 207.11L83.1966 204.336ZM79.447 213.136C78.681 213.861 77.4728 213.827 76.7484 213.061C76.0241 212.295 76.0578 211.087 76.8238 210.363L79.447 213.136ZM74.2578 204.743C75.0039 203.998 76.2125 203.999 76.9574 204.745C77.7023 205.491 77.7014 206.7 76.9554 207.445L74.2578 204.743ZM73.4537 210.941C72.7077 211.686 71.499 211.685 70.7541 210.939C70.0092 210.193 70.0101 208.985 70.7561 208.24L73.4537 210.941ZM70.1666 210.452C69.8351 209.451 70.3776 208.371 71.3784 208.04C72.3792 207.708 73.4592 208.251 73.7908 209.252L70.1666 210.452ZM75.3463 213.947C75.6778 214.948 75.1353 216.028 74.1345 216.36C73.1337 216.691 72.0537 216.149 71.7222 215.148L75.3463 213.947ZM64.2949 219.366C63.3056 219.002 62.799 217.904 63.1633 216.915C63.5276 215.926 64.625 215.419 65.6143 215.783L64.2949 219.366ZM70.2338 217.485C71.2231 217.849 71.7298 218.946 71.3655 219.936C71.0011 220.925 69.9038 221.432 68.9145 221.067L70.2338 217.485ZM63.8252 216.259C64.5231 215.469 65.7294 215.394 66.5196 216.092C67.3099 216.79 67.3848 217.996 66.687 218.787L63.8252 216.259ZM63.4103 222.497C62.7124 223.287 61.5061 223.362 60.7159 222.664C59.9256 221.967 59.8507 220.76 60.5486 219.97L63.4103 222.497ZM49.4293 215.535C48.4034 215.293 47.7685 214.264 48.0113 213.238C48.254 212.212 49.2825 211.577 50.3084 211.82L49.4293 215.535ZM55.0987 212.954C56.1247 213.197 56.7595 214.225 56.5168 215.251C56.274 216.277 55.2455 216.912 54.2196 216.669L55.0987 212.954ZM57.3625 219.358C57.5947 220.386 56.9493 221.408 55.9209 221.641C54.8926 221.873 53.8707 221.227 53.6385 220.199L57.3625 219.358ZM52.5482 215.371C52.316 214.343 52.9614 213.321 53.9898 213.088C55.0182 212.856 56.0401 213.502 56.2723 214.53L52.5482 215.371ZM52.9933 204.751C53.2255 205.779 52.5801 206.801 51.5517 207.033C50.5234 207.265 49.5015 206.62 49.2693 205.591L52.9933 204.751ZM48.179 200.763C47.9468 199.735 48.5922 198.713 49.6206 198.481C50.6489 198.249 51.6708 198.894 51.9031 199.922L48.179 200.763ZM50.4784 203.219C51.257 202.509 52.4644 202.564 53.1752 203.342C53.8859 204.121 53.8309 205.328 53.0523 206.039L50.4784 203.219ZM49.3987 209.374C48.6201 210.085 47.4127 210.03 46.7019 209.252C45.9911 208.473 46.0461 207.266 46.8247 206.555L49.3987 209.374ZM60.5169 192.109C61.2288 191.331 62.4363 191.278 63.2138 191.99C63.9914 192.702 64.0445 193.91 63.3326 194.687L60.5169 192.109ZM59.9899 198.338C59.2779 199.115 58.0704 199.168 57.2929 198.456C56.5154 197.744 56.4622 196.537 57.1742 195.759L59.9899 198.338ZM59.1709 194.546C60.2251 194.559 61.0693 195.424 61.0566 196.478C61.0438 197.532 60.1789 198.376 59.1247 198.364L59.1709 194.546ZM54.2004 198.304C53.1463 198.291 52.302 197.426 52.3148 196.372C52.3275 195.318 53.1924 194.474 54.2466 194.487L54.2004 198.304ZM71.1021 198.868C71.5695 199.813 71.1823 200.958 70.2372 201.426C69.2922 201.893 68.1473 201.506 67.68 200.561L71.1021 198.868ZM65.4892 196.131C65.0218 195.186 65.4091 194.041 66.3541 193.573C67.2991 193.106 68.444 193.493 68.9114 194.438L65.4892 196.131ZM68.5078 201.007C67.5687 200.528 67.1958 199.379 67.6749 198.44C68.154 197.5 69.3037 197.128 70.2428 197.607L68.5078 201.007ZM74.6291 199.844C75.5682 200.323 75.9411 201.473 75.462 202.412C74.9828 203.351 73.8332 203.724 72.8941 203.245L74.6291 199.844ZM81.9379 188.527L44.7671 228.159L41.9824 225.547L79.1532 185.916L81.9379 188.527ZM56.1937 181.084L71.2658 232.613L67.6015 233.684L52.5295 182.156L56.1937 181.084ZM36.3899 199.244L88.3039 211.814L87.4055 215.525L35.4914 202.955L36.3899 199.244ZM81.9142 198.06L73.313 196.583L73.9594 192.82L82.5606 194.298L81.9142 198.06ZM73.8277 185.634L75.2309 194.298L71.4622 194.909L70.059 186.244L73.8277 185.634ZM48.7952 186.097L57.1677 188.558L56.091 192.221L47.7186 189.76L48.7952 186.097ZM55.2308 189.837L61.1469 183.356L63.9665 185.93L58.0504 192.411L55.2308 189.837ZM44.2332 204.236L40.3229 196.397L43.7393 194.693L47.6496 202.532L44.2332 204.236ZM38.5487 208.054L44.7363 201.835L47.4427 204.528L41.2551 210.746L38.5487 208.054ZM49.5102 228.943L47.6655 220.364L51.398 219.562L53.2426 228.141L49.5102 228.943ZM41.8081 216.554L50.3208 218.475L49.4804 222.199L40.9677 220.278L41.8081 216.554ZM74.066 228.716L65.8558 225.758L67.1502 222.166L75.3604 225.125L74.066 228.716ZM68.4054 225.323L62.3673 231.689L59.5974 229.061L65.6355 222.696L68.4054 225.323ZM85.8197 207.11L79.447 213.136L76.8238 210.363L83.1966 204.336L85.8197 207.11ZM76.9554 207.445L73.4537 210.941L70.7561 208.24L74.2578 204.743L76.9554 207.445ZM73.7908 209.252L75.3463 213.947L71.7222 215.148L70.1666 210.452L73.7908 209.252ZM65.6143 215.783L70.2338 217.485L68.9145 221.067L64.2949 219.366L65.6143 215.783ZM66.687 218.787L63.4103 222.497L60.5486 219.97L63.8252 216.259L66.687 218.787ZM50.3084 211.82L55.0987 212.954L54.2196 216.669L49.4293 215.535L50.3084 211.82ZM53.6385 220.199L52.5482 215.371L56.2723 214.53L57.3625 219.358L53.6385 220.199ZM49.2693 205.591L48.179 200.763L51.9031 199.922L52.9933 204.751L49.2693 205.591ZM53.0523 206.039L49.3987 209.374L46.8247 206.555L50.4784 203.219L53.0523 206.039ZM63.3326 194.687L59.9899 198.338L57.1742 195.759L60.5169 192.109L63.3326 194.687ZM59.1247 198.364L54.2004 198.304L54.2466 194.487L59.1709 194.546L59.1247 198.364ZM67.68 200.561L65.4892 196.131L68.9114 194.438L71.1021 198.868L67.68 200.561ZM70.2428 197.607L74.6291 199.844L72.8941 203.245L68.5078 201.007L70.2428 197.607Z" fill="#B0CCCE"/>
<path d="M306.412 157.094C305.912 156.166 304.754 155.819 303.826 156.32C302.898 156.82 302.551 157.978 303.051 158.906L306.412 157.094ZM354.199 253.77C354.7 254.698 355.858 255.045 356.786 254.545C357.714 254.044 358.06 252.886 357.56 251.958L354.199 253.77ZM359.691 161.703C360.241 160.804 359.959 159.629 359.06 159.078C358.161 158.528 356.985 158.81 356.435 159.709L359.691 161.703ZM300.803 250.553C300.253 251.452 300.535 252.627 301.434 253.178C302.333 253.729 303.509 253.446 304.059 252.547L300.803 250.553ZM383.448 209.318C384.502 209.343 385.377 208.51 385.402 207.456C385.428 206.402 384.594 205.527 383.54 205.501L383.448 209.318ZM277.046 202.938C275.992 202.913 275.117 203.746 275.092 204.8C275.066 205.854 275.9 206.729 276.954 206.755L277.046 202.938ZM297.023 172.366C295.973 172.271 295.044 173.044 294.948 174.094C294.852 175.144 295.626 176.072 296.676 176.168L297.023 172.366ZM314.007 177.751C315.057 177.846 315.986 177.073 316.082 176.023C316.178 174.973 315.404 174.044 314.354 173.949L314.007 177.751ZM323.704 160.742C324.139 159.782 323.712 158.651 322.752 158.216C321.791 157.781 320.66 158.208 320.226 159.168L323.704 160.742ZM313.05 175.024C312.616 175.984 313.042 177.115 314.002 177.55C314.963 177.984 316.094 177.558 316.528 176.598L313.05 175.024ZM366.612 177.811C367.666 177.785 368.5 176.911 368.475 175.857C368.45 174.803 367.575 173.969 366.521 173.994L366.612 177.811ZM349.122 174.41C348.068 174.436 347.234 175.311 347.259 176.364C347.285 177.418 348.16 178.252 349.214 178.227L349.122 174.41ZM347.075 178.601C347.563 179.536 348.716 179.898 349.65 179.41C350.585 178.922 350.947 177.769 350.459 176.835L347.075 178.601ZM342.408 161.405C341.92 160.471 340.767 160.109 339.833 160.596C338.898 161.084 338.536 162.237 339.023 163.172L342.408 161.405ZM361.624 205.385C360.923 206.172 360.992 207.379 361.779 208.08C362.566 208.782 363.773 208.712 364.474 207.925L361.624 205.385ZM376.054 194.933C376.755 194.145 376.686 192.939 375.899 192.237C375.112 191.536 373.905 191.605 373.203 192.392L376.054 194.933ZM369.926 222.213C370.453 223.126 371.621 223.438 372.534 222.911C373.447 222.383 373.759 221.215 373.231 220.303L369.926 222.213ZM364.521 205.235C363.994 204.322 362.826 204.01 361.914 204.538C361.001 205.065 360.689 206.233 361.216 207.146L364.521 205.235ZM337.897 251.119C337.414 252.055 337.781 253.207 338.718 253.69C339.655 254.174 340.807 253.806 341.29 252.869L337.897 251.119ZM349.272 237.404C349.755 236.467 349.388 235.316 348.451 234.832C347.514 234.349 346.363 234.716 345.879 235.653L349.272 237.404ZM363.986 239.651C365.04 239.692 365.928 238.872 365.969 237.819C366.011 236.765 365.191 235.878 364.137 235.836L363.986 239.651ZM346.747 235.147C345.694 235.106 344.806 235.926 344.764 236.979C344.723 238.033 345.543 238.92 346.596 238.962L346.747 235.147ZM295.316 235.028C294.266 235.116 293.485 236.039 293.573 237.09C293.661 238.14 294.584 238.921 295.635 238.833L295.316 235.028ZM312.978 237.381C314.028 237.293 314.809 236.37 314.721 235.319C314.633 234.269 313.71 233.488 312.659 233.576L312.978 237.381ZM313.472 234.389C312.967 233.464 311.807 233.124 310.882 233.629C309.957 234.135 309.617 235.295 310.122 236.22L313.472 234.389ZM318.468 251.492C318.974 252.417 320.133 252.757 321.058 252.252C321.984 251.746 322.324 250.586 321.818 249.661L318.468 251.492ZM289.171 190.355C288.616 189.459 287.439 189.183 286.543 189.738C285.647 190.293 285.37 191.47 285.926 192.366L289.171 190.355ZM295.091 207.161C295.646 208.057 296.823 208.333 297.719 207.778C298.616 207.223 298.892 206.046 298.337 205.15L295.091 207.161ZM306.154 195.672C305.623 194.761 304.455 194.453 303.544 194.983C302.633 195.514 302.324 196.683 302.855 197.594L306.154 195.672ZM307.796 206.077C308.326 206.988 309.495 207.296 310.406 206.766C311.317 206.235 311.625 205.067 311.095 204.156L307.796 206.077ZM311.145 206.735C311.727 205.856 311.486 204.671 310.607 204.089C309.729 203.507 308.544 203.748 307.962 204.627L311.145 206.735ZM302.542 212.812C301.96 213.691 302.2 214.876 303.079 215.458C303.958 216.04 305.143 215.799 305.725 214.92L302.542 212.812ZM319.271 225.956C320.321 225.86 321.094 224.932 320.999 223.882C320.904 222.832 319.976 222.058 318.926 222.153L319.271 225.956ZM309.149 223.04C308.099 223.135 307.325 224.063 307.42 225.113C307.515 226.163 308.444 226.937 309.493 226.842L309.149 223.04ZM320.251 222.946C319.779 222.003 318.632 221.622 317.689 222.094C316.747 222.566 316.365 223.713 316.837 224.656L320.251 222.946ZM321.234 233.433C321.706 234.376 322.853 234.757 323.796 234.285C324.739 233.813 325.12 232.666 324.648 231.724L321.234 233.433ZM350.115 226.241C351.168 226.271 352.048 225.442 352.078 224.388C352.109 223.334 351.28 222.455 350.226 222.424L350.115 226.241ZM340.413 222.137C339.359 222.107 338.48 222.936 338.449 223.99C338.418 225.043 339.248 225.923 340.302 225.954L340.413 222.137ZM334.486 232.223C333.992 233.155 334.348 234.31 335.28 234.803C336.212 235.296 337.367 234.941 337.86 234.009L334.486 232.223ZM342.452 225.332C342.945 224.4 342.59 223.245 341.658 222.752C340.726 222.259 339.571 222.614 339.078 223.546L342.452 225.332ZM350.442 206.52C349.949 207.451 350.305 208.606 351.236 209.1C352.168 209.593 353.323 209.237 353.817 208.305L350.442 206.52ZM358.409 199.629C358.902 198.697 358.546 197.542 357.615 197.048C356.683 196.555 355.528 196.911 355.035 197.843L358.409 199.629ZM352.792 205.017C352.221 204.131 351.04 203.876 350.154 204.446C349.268 205.017 349.012 206.199 349.583 207.085L352.792 205.017ZM354.9 215.338C355.47 216.224 356.652 216.48 357.538 215.909C358.424 215.338 358.68 214.157 358.109 213.27L354.9 215.338ZM339.105 178.474C338.616 177.54 337.462 177.179 336.528 177.668C335.595 178.157 335.234 179.311 335.723 180.245L339.105 178.474ZM340.278 188.942C340.767 189.875 341.921 190.236 342.855 189.747C343.789 189.258 344.149 188.104 343.66 187.17L340.278 188.942ZM341.654 184.78C340.632 184.521 339.594 185.14 339.335 186.162C339.076 187.183 339.695 188.222 340.717 188.481L341.654 184.78ZM350.234 190.891C351.256 191.15 352.294 190.531 352.553 189.509C352.812 188.487 352.193 187.449 351.171 187.19L350.234 190.891ZM318.342 186.35C317.643 187.139 317.716 188.346 318.506 189.045C319.295 189.743 320.502 189.67 321.2 188.88L318.342 186.35ZM327.707 181.529C328.406 180.74 328.332 179.533 327.543 178.835C326.754 178.136 325.547 178.209 324.848 178.999L327.707 181.529ZM320.407 188.711C321.438 188.493 322.097 187.48 321.879 186.449C321.661 185.417 320.648 184.758 319.616 184.976L320.407 188.711ZM310.012 187.009C308.98 187.227 308.321 188.24 308.539 189.272C308.758 190.303 309.771 190.962 310.802 190.744L310.012 187.009ZM303.051 158.906L354.199 253.77L357.56 251.958L306.412 157.094L303.051 158.906ZM356.435 159.709L300.803 250.553L304.059 252.547L359.691 161.703L356.435 159.709ZM383.54 205.501L277.046 202.938L276.954 206.755L383.448 209.318L383.54 205.501ZM296.676 176.168L314.007 177.751L314.354 173.949L297.023 172.366L296.676 176.168ZM320.226 159.168L313.05 175.024L316.528 176.598L323.704 160.742L320.226 159.168ZM366.521 173.994L349.122 174.41L349.214 178.227L366.612 177.811L366.521 173.994ZM350.459 176.835L342.408 161.405L339.023 163.172L347.075 178.601L350.459 176.835ZM364.474 207.925L376.054 194.933L373.203 192.392L361.624 205.385L364.474 207.925ZM373.231 220.303L364.521 205.235L361.216 207.146L369.926 222.213L373.231 220.303ZM341.29 252.869L349.272 237.404L345.879 235.653L337.897 251.119L341.29 252.869ZM364.137 235.836L346.747 235.147L346.596 238.962L363.986 239.651L364.137 235.836ZM295.635 238.833L312.978 237.381L312.659 233.576L295.316 235.028L295.635 238.833ZM310.122 236.22L318.468 251.492L321.818 249.661L313.472 234.389L310.122 236.22ZM285.926 192.366L295.091 207.161L298.337 205.15L289.171 190.355L285.926 192.366ZM302.855 197.594L307.796 206.077L311.095 204.156L306.154 195.672L302.855 197.594ZM307.962 204.627L302.542 212.812L305.725 214.92L311.145 206.735L307.962 204.627ZM318.926 222.153L309.149 223.04L309.493 226.842L319.271 225.956L318.926 222.153ZM316.837 224.656L321.234 233.433L324.648 231.724L320.251 222.946L316.837 224.656ZM350.226 222.424L340.413 222.137L340.302 225.954L350.115 226.241L350.226 222.424ZM337.86 234.009L342.452 225.332L339.078 223.546L334.486 232.223L337.86 234.009ZM353.817 208.305L358.409 199.629L355.035 197.843L350.442 206.52L353.817 208.305ZM349.583 207.085L354.9 215.338L358.109 213.27L352.792 205.017L349.583 207.085ZM335.723 180.245L340.278 188.942L343.66 187.17L339.105 178.474L335.723 180.245ZM340.717 188.481L350.234 190.891L351.171 187.19L341.654 184.78L340.717 188.481ZM321.2 188.88L327.707 181.529L324.848 178.999L318.342 186.35L321.2 188.88ZM319.616 184.976L310.012 187.009L310.802 190.744L320.407 188.711L319.616 184.976Z" fill="#B0CCCE"/>
</g>
<defs>
<clipPath id="clip0_5909_322966">
<rect width="1271.93" height="423.542" fill="white" transform="translate(-22.9999)"/>
</clipPath>
</defs>
</svg>
