<svg width="29" height="18" viewBox="0 0 29 18" fill="none" xmlns="http://www.w3.org/2000/svg">
<g opacity="0.5">
<path d="M6.78797 11.9894L6.39633 12.3946V2.14437C6.39633 1.7862 6.25405 1.4427 6.00078 1.18943C5.74752 0.936168 5.40401 0.793884 5.04584 0.793884C4.68767 0.793884 4.34417 0.936168 4.0909 1.18943C3.83764 1.4427 3.69535 1.7862 3.69535 2.14437V12.3946L3.30371 11.9894C3.04941 11.7351 2.7045 11.5923 2.34486 11.5923C1.98522 11.5923 1.64032 11.7351 1.38601 11.9894C1.13171 12.2437 0.988846 12.5887 0.988846 12.9483C0.988846 13.3079 1.13171 13.6528 1.38601 13.9071L4.08699 16.6081C4.21543 16.7311 4.36688 16.8275 4.53266 16.8917C4.69431 16.9632 4.8691 17.0001 5.04584 17.0001C5.22258 17.0001 5.39737 16.9632 5.55903 16.8917C5.7248 16.8275 5.87625 16.7311 6.00469 16.6081L8.70567 13.9071C8.83159 13.7812 8.93147 13.6317 8.99962 13.4672C9.06776 13.3027 9.10284 13.1264 9.10284 12.9483C9.10284 12.7702 9.06776 12.5939 8.99962 12.4294C8.93147 12.2648 8.83159 12.1154 8.70567 11.9894C8.57975 11.8635 8.43027 11.7636 8.26575 11.6955C8.10123 11.6274 7.9249 11.5923 7.74682 11.5923C7.56875 11.5923 7.39242 11.6274 7.2279 11.6955C7.06338 11.7636 6.91389 11.8635 6.78797 11.9894ZM13.1488 3.49486H26.6537C27.0119 3.49486 27.3554 3.35258 27.6086 3.09931C27.8619 2.84605 28.0042 2.50255 28.0042 2.14437C28.0042 1.7862 27.8619 1.4427 27.6086 1.18943C27.3554 0.936168 27.0119 0.793884 26.6537 0.793884H13.1488C12.7906 0.793884 12.4471 0.936168 12.1938 1.18943C11.9406 1.4427 11.7983 1.7862 11.7983 2.14437C11.7983 2.50255 11.9406 2.84605 12.1938 3.09931C12.4471 3.35258 12.7906 3.49486 13.1488 3.49486Z" fill="#242424"/>
<rect x="11.7983" y="7.09619" width="11.7042" height="2.70098" rx="1.35049" fill="#242424"/>
<rect x="11.7983" y="14.2987" width="8.10294" height="2.70098" rx="1.35049" fill="#242424"/>
</g>
</svg>
