<svg width="34" height="21" viewBox="0 0 34 21" fill="none" xmlns="http://www.w3.org/2000/svg">
<g opacity="0.8">
<path d="M7.86914 14.1256L7.40524 14.6006V2.5833C7.40524 2.16338 7.2367 1.76067 6.9367 1.46374C6.63671 1.16681 6.22982 1 5.80556 1C5.3813 1 4.97442 1.16681 4.67442 1.46374C4.37443 1.76067 4.20589 2.16338 4.20589 2.5833V14.6006L3.74199 14.1256C3.44076 13.8274 3.03221 13.6599 2.60622 13.6599C2.18022 13.6599 1.77167 13.8274 1.47045 14.1256C1.16923 14.4237 1 14.8281 1 15.2497C1 15.6714 1.16923 16.0757 1.47045 16.3739L4.6698 19.5405C4.82193 19.6846 5.00133 19.7976 5.19769 19.873C5.38917 19.9567 5.59621 20 5.80556 20C6.01491 20 6.22196 19.9567 6.41344 19.873C6.6098 19.7976 6.7892 19.6846 6.94133 19.5405L10.1407 16.3739C10.2898 16.2262 10.4081 16.051 10.4889 15.8581C10.5696 15.6652 10.6111 15.4585 10.6111 15.2497C10.6111 15.041 10.5696 14.8342 10.4889 14.6413C10.4081 14.4485 10.2898 14.2732 10.1407 14.1256C9.99152 13.978 9.81446 13.8609 9.61958 13.781C9.42471 13.7011 9.21584 13.6599 9.00491 13.6599C8.79398 13.6599 8.58511 13.7011 8.39024 13.781C8.19536 13.8609 8.01829 13.978 7.86914 14.1256ZM15.4036 4.16661H31.4003C31.8246 4.16661 32.2315 3.99979 32.5315 3.70287C32.8315 3.40594 33 3.00322 33 2.5833C33 2.16338 32.8315 1.76067 32.5315 1.46374C32.2315 1.16681 31.8246 1 31.4003 1H15.4036C14.9793 1 14.5725 1.16681 14.2725 1.46374C13.9725 1.76067 13.8039 2.16338 13.8039 2.5833C13.8039 3.00322 13.9725 3.40594 14.2725 3.70287C14.5725 3.99979 14.9793 4.16661 15.4036 4.16661Z" fill="#242424"/>
<rect x="14" y="9" width="14" height="3" rx="1.5" fill="#242424"/>
<rect x="14" y="17" width="10" height="3" rx="1.5" fill="#242424"/>
</g>
</svg>
