<svg width="315" height="82" viewBox="0 0 315 82" fill="none" xmlns="http://www.w3.org/2000/svg">
<g clip-path="url(#clip0)">
<path d="M92.9036 4.97625C92.8856 4.97261 92.8676 4.96898 92.8497 4.96534C92.6054 4.88974 92.3558 4.83281 92.1029 4.79506C92.0597 4.88743 92.1244 4.91648 92.1784 4.94331C93.1239 5.41266 94.0205 5.9699 94.9434 6.47994C94.9938 6.50784 95.0526 6.51586 95.0986 6.55204C95.2391 6.64501 95.3919 6.71789 95.5526 6.76853C95.6565 6.83585 95.6586 6.93594 95.6412 7.04241C95.5791 7.42129 95.4705 7.78956 95.3836 8.16272C95.2098 8.90933 95.042 9.65735 94.8612 10.4023C94.8194 10.5746 94.7759 10.7465 94.7338 10.9187C94.7151 10.9956 94.6885 11.0753 94.7538 11.1458C94.9657 10.7918 95.1431 10.4194 95.3358 10.0552C95.7028 9.36157 96.0636 8.66464 96.4273 7.96923C96.5308 7.77134 96.6386 7.57558 96.738 7.37566C96.7763 7.29851 96.8238 7.28447 96.9033 7.30208C97.5807 7.45218 98.2584 7.60049 98.9366 7.74702C99.6593 7.90451 100.382 8.06182 101.105 8.21894C101.127 8.22464 101.149 8.22887 101.172 8.23162C101.223 8.23583 101.265 8.21701 101.282 8.16819C101.296 8.1268 101.278 8.08843 101.241 8.06407C101.207 8.04192 101.173 8.02199 101.137 8.00442C100.326 7.61373 99.5143 7.2233 98.703 6.83311C98.233 6.6065 97.7635 6.37876 97.2946 6.14989C97.2766 6.13964 97.2596 6.12791 97.2436 6.1148C97.2224 6.05563 97.2429 6.00649 97.2544 5.95688C97.4115 5.27594 97.5688 4.59504 97.7263 3.9142C97.8766 3.26695 98.0276 2.61986 98.1792 1.97294C98.1935 1.9234 98.2049 1.8731 98.2136 1.82227C98.2213 1.75589 98.2148 1.69262 98.1235 1.69088C98.0043 1.77592 97.9725 1.91692 97.9123 2.03652C97.4814 2.89179 97.073 3.75804 96.6635 4.6237C96.5415 4.88171 96.4165 5.13819 96.2935 5.39571C96.2332 5.52199 96.161 5.63458 96.024 5.68917C95.7624 5.65738 95.5106 5.58064 95.2551 5.52133C94.6937 5.39101 94.1336 5.25499 93.5728 5.12232C93.5231 5.11057 93.4717 5.10629 93.421 5.09855C93.341 5.09293 93.276 5.02317 93.1897 5.04462C93.1784 5.04299 93.1671 5.04135 93.1558 5.03972C93.0685 5.03141 92.9968 4.961 92.9036 4.97625Z" fill="#FEBE00"/>
<path d="M94.7538 11.1458C94.7335 10.9809 94.8055 10.8299 94.8439 10.6785C94.9098 10.4192 94.9635 10.1568 95.0351 9.89863C95.0987 9.66887 95.1372 9.43221 95.1902 9.19937C95.2432 8.96629 95.301 8.73429 95.3556 8.50157C95.4167 8.24137 95.4756 7.98063 95.5376 7.72066C95.5746 7.56562 95.6166 7.41178 95.6552 7.25708C95.6842 7.1404 95.7024 7.02357 95.6841 6.90168C95.6719 6.82024 95.6309 6.77904 95.5527 6.7685C95.6241 6.83093 95.6332 6.90027 95.609 6.99466C95.2669 8.33357 94.9276 9.6732 94.5911 11.0135C94.5831 11.0409 94.577 11.0688 94.5731 11.097C94.5677 11.1526 94.5821 11.2057 94.641 11.22C94.6964 11.2335 94.7408 11.208 94.7538 11.1458Z" fill="#FEBE00"/>
<path d="M95.0985 6.55204C94.7162 6.30704 94.3273 6.07302 93.9319 5.84996C93.6102 5.66849 93.2941 5.47678 92.969 5.30172C92.7089 5.16169 92.4557 5.00732 92.1808 4.89586C92.1553 4.88554 92.1268 4.87841 92.11 4.83021C92.2259 4.8307 92.3306 4.85205 92.4355 4.876C92.5732 4.9074 92.7115 4.9357 92.8496 4.96534C92.6126 4.87609 92.3604 4.84589 92.1181 4.77724C92.0356 4.75384 91.9513 4.73648 91.8687 4.71309C91.7992 4.69341 91.7376 4.70624 91.7123 4.77394C91.6884 4.83785 91.7363 4.8825 91.7898 4.91011C91.8967 4.96522 92.0061 5.01542 92.1136 5.06936C93.066 5.54728 94.0184 6.02523 94.9707 6.50321C95.0124 6.52168 95.0551 6.53798 95.0985 6.55204Z" fill="#FEBE00"/>
<path d="M96.0239 5.68921C96.198 5.69673 96.1947 5.69506 96.2689 5.5463C96.3778 5.32784 96.494 5.11298 96.6035 4.89477C96.6647 4.77286 96.7089 4.64397 96.7727 4.52172C96.9066 4.26491 97.0059 3.99011 97.1393 3.73302C97.3147 3.39501 97.4584 3.04209 97.6404 2.70713C97.7624 2.48275 97.8599 2.24521 97.9698 2.01421C98.021 1.90645 98.0917 1.80797 98.1235 1.69092C98.0475 1.68178 98.0306 1.74129 98.0048 1.79176C97.6194 2.54491 97.2339 3.29796 96.8482 4.05093C96.5955 4.54444 96.3428 5.03799 96.0901 5.53156C96.0643 5.58219 96.0458 5.63657 96.0239 5.68921Z" fill="#FEBE00"/>
<path d="M93.1896 5.04462C93.2705 5.04624 93.3363 5.11321 93.4209 5.09855C93.347 5.06671 93.2732 5.03482 93.1896 5.04462Z" fill="#FEBE00"/>
<path d="M92.9036 4.97632C92.9902 4.98743 93.0639 5.04965 93.1558 5.03979C93.0751 5.00528 92.9945 4.97017 92.9036 4.97632Z" fill="#FEBE00"/>
</g>
<g clip-path="url(#clip1)">
<path d="M190.881 8.32868C190.899 8.32614 190.918 8.3236 190.936 8.32106C191.191 8.31121 191.445 8.28199 191.695 8.23364C191.705 8.13233 191.635 8.12643 191.575 8.11909C190.529 7.99083 189.5 7.76358 188.461 7.58947C188.405 7.57995 188.347 7.5919 188.291 7.5731C188.128 7.53216 187.96 7.51424 187.792 7.51986C187.672 7.49095 187.637 7.39738 187.618 7.29133C187.55 6.91395 187.531 6.53113 187.489 6.1509C187.405 5.39016 187.314 4.63007 187.237 3.86855C187.22 3.69246 187.204 3.51615 187.186 3.34002C187.178 3.26143 187.177 3.17751 187.092 3.13278C187.01 3.53642 186.966 3.94599 186.906 4.35289C186.79 5.12787 186.682 5.90387 186.57 6.6794C186.538 6.9001 186.502 7.12019 186.474 7.34144C186.464 7.42681 186.424 7.45579 186.343 7.46558C185.655 7.54899 184.968 7.63421 184.281 7.72124C183.548 7.81271 182.815 7.90437 182.082 7.9962C182.06 7.99821 182.037 8.00171 182.015 8.00668C181.966 8.01953 181.932 8.05136 181.932 8.10282C181.933 8.14647 181.963 8.1766 182.006 8.18723C182.044 8.197 182.084 8.20422 182.124 8.20882C183.017 8.3076 183.91 8.40612 184.804 8.50435C185.322 8.56179 185.839 8.62047 186.357 8.68041C186.377 8.6841 186.397 8.6895 186.417 8.69655C186.456 8.74523 186.453 8.7983 186.459 8.84882C186.537 9.54218 186.615 10.2356 186.692 10.929C186.765 11.5884 186.838 12.2478 186.91 12.9073C186.913 12.9587 186.919 13.0099 186.927 13.0606C186.942 13.1257 186.969 13.1831 187.056 13.1544C187.14 13.0348 187.123 12.8915 187.14 12.7589C187.262 11.8105 187.359 10.8592 187.458 9.90823C187.487 9.62477 187.519 9.34176 187.55 9.05846C187.565 8.91954 187.595 8.78955 187.706 8.69268C187.963 8.63583 188.226 8.62454 188.486 8.59562C189.058 8.53207 189.63 8.47433 190.203 8.41318C190.253 8.40776 190.303 8.39471 190.353 8.3852C190.431 8.36395 190.515 8.40806 190.589 8.35923C190.6 8.35702 190.611 8.35481 190.623 8.3526C190.708 8.33145 190.799 8.37398 190.881 8.32868Z" fill="#FEBE00"/>
<path d="M187.094 3.13281C187.167 3.28129 187.15 3.4473 187.164 3.60262C187.188 3.86852 187.224 4.13339 187.242 4.40011C187.259 4.63751 187.301 4.87305 187.328 5.10981C187.356 5.34681 187.378 5.58435 187.404 5.82155C187.433 6.08676 187.464 6.35172 187.492 6.61702C187.508 6.77525 187.52 6.934 187.535 7.09239C187.546 7.21186 187.568 7.32788 187.626 7.43654C187.664 7.50915 187.716 7.53436 187.793 7.51833C187.705 7.48326 187.674 7.42098 187.665 7.32413C187.543 5.95028 187.418 4.57669 187.291 3.20336C187.289 3.17494 187.286 3.14667 187.28 3.11879C187.267 3.06463 187.235 3.01953 187.175 3.02554C187.118 3.03121 187.085 3.06999 187.094 3.13281Z" fill="#FEBE00"/>
<path d="M188.293 7.5716C188.734 7.67543 189.178 7.76675 189.624 7.84555C189.987 7.90967 190.348 7.9853 190.712 8.04226C191.003 8.08782 191.293 8.14916 191.589 8.16289C191.616 8.16416 191.645 8.1614 191.677 8.2012C191.568 8.23918 191.462 8.25381 191.355 8.26608C191.215 8.28218 191.076 8.30143 190.936 8.31931C191.189 8.32472 191.436 8.26951 191.687 8.25377C191.772 8.24841 191.858 8.23679 191.943 8.23142C192.015 8.22691 192.069 8.1944 192.07 8.12227C192.071 8.05418 192.011 8.02804 191.952 8.01981C191.833 8.00338 191.713 7.99241 191.594 7.97729C190.539 7.84329 189.484 7.70925 188.429 7.57518C188.384 7.57163 188.338 7.57044 188.293 7.5716Z" fill="#FEBE00"/>
<path d="M187.708 8.69073C187.541 8.7414 187.545 8.74186 187.524 8.9065C187.494 9.14829 187.456 9.38909 187.426 9.63081C187.408 9.76586 187.41 9.90187 187.39 10.0381C187.349 10.3242 187.347 10.6159 187.307 10.9021C187.253 11.2785 187.235 11.6584 187.175 12.0341C187.135 12.2857 187.122 12.5417 187.095 12.7956C187.082 12.914 187.048 13.0302 187.057 13.1509C187.132 13.1343 187.128 13.0727 187.136 13.0166C187.249 12.1798 187.362 11.3431 187.475 10.5063C187.549 9.95793 187.623 9.40952 187.698 8.8611C187.705 8.80487 187.704 8.74755 187.708 8.69073Z" fill="#FEBE00"/>
<path d="M190.59 8.35736C190.513 8.38268 190.429 8.34144 190.354 8.38333C190.434 8.38878 190.514 8.39431 190.59 8.35736Z" fill="#FEBE00"/>
<path d="M190.882 8.32678C190.796 8.34505 190.706 8.31095 190.623 8.3507C190.711 8.35641 190.798 8.36273 190.882 8.32678Z" fill="#FEBE00"/>
</g>
<g clip-path="url(#clip2)">
<path d="M62.8974 68.3999C62.9075 68.3847 62.9175 68.3694 62.9276 68.3541C63.0888 68.1561 63.2347 67.9462 63.3641 67.7262C63.2947 67.6517 63.2436 67.7007 63.1986 67.7408C62.411 68.4411 61.5603 69.0633 60.7434 69.7274C60.6987 69.7637 60.6694 69.8152 60.6187 69.8443C60.4801 69.9396 60.3556 70.0539 60.2487 70.1838C60.1476 70.2549 60.0541 70.2194 59.962 70.1635C59.6344 69.9646 59.3339 69.7266 59.0208 69.5068C58.3943 69.0671 57.7643 68.6324 57.142 68.1869C56.998 68.0839 56.8551 67.9794 56.7113 67.8762C56.6472 67.8301 56.5832 67.7757 56.4936 67.8099C56.7423 68.1382 57.0209 68.4416 57.2862 68.756C57.7915 69.3548 58.3021 69.9491 58.8103 70.5455C58.9549 70.7152 59.096 70.8881 59.244 71.0548C59.3011 71.1191 59.2964 71.1683 59.2504 71.2353C58.8585 71.8066 58.4681 72.3788 58.0792 72.9521C57.6636 73.5625 57.2481 74.1729 56.8328 74.7835C56.8192 74.802 56.8069 74.8213 56.7958 74.8413C56.773 74.8867 56.7746 74.9331 56.8136 74.9667C56.8467 74.9951 56.8889 74.9927 56.9253 74.9674C56.9583 74.9448 56.9898 74.92 57.0195 74.8932C57.6841 74.288 58.3485 73.6826 59.0127 73.077C59.398 72.7263 59.7842 72.3766 60.1712 72.0278C60.1874 72.015 60.2046 72.0036 60.2227 71.9938C60.2855 71.9962 60.3233 72.0335 60.365 72.0626C60.9369 72.4624 61.5086 72.8623 62.0803 73.2623C62.6235 73.6431 63.1664 74.0245 63.7088 74.4065C63.7494 74.4382 63.7916 74.4676 63.8355 74.4945C63.8941 74.5265 63.9551 74.5441 63.9908 74.4602C63.9565 74.318 63.8378 74.236 63.7496 74.1356C63.1185 73.4173 62.4688 72.7156 61.8201 72.0133C61.6267 71.804 61.4359 71.5924 61.2433 71.3824C61.1489 71.2795 61.0716 71.1705 61.0722 71.0233C61.1993 70.793 61.3644 70.5884 61.5147 70.3739C61.845 69.9028 62.18 69.4349 62.5123 68.9651C62.5417 68.9235 62.5649 68.8774 62.591 68.8334C62.626 68.7615 62.7149 68.7273 62.7273 68.6394C62.733 68.6295 62.7387 68.6197 62.7444 68.6098C62.7847 68.5321 62.8767 68.492 62.8974 68.3999Z" fill="#FEBE00"/>
<path d="M56.4947 67.8087C56.6549 67.8515 56.7679 67.9744 56.8937 68.0665C57.1091 68.2242 57.332 68.3719 57.5442 68.5345C57.7331 68.6792 57.9378 68.8031 58.1336 68.9391C58.3296 69.0751 58.5228 69.2152 58.7178 69.3526C58.9358 69.5063 59.1552 69.6581 59.3727 69.8125C59.5024 69.9047 59.6291 70.001 59.758 70.0944C59.8551 70.1648 59.9565 70.2252 60.0762 70.2538C60.1561 70.2728 60.2095 70.2503 60.2485 70.1818C60.164 70.2247 60.0965 70.2072 60.0181 70.1496C58.9064 69.3332 57.793 68.5192 56.6779 67.7075C56.6556 67.6898 56.632 67.6738 56.6073 67.6596C56.5578 67.6338 56.5034 67.6274 56.4681 67.6766C56.4349 67.7229 56.442 67.7735 56.4947 67.8087Z" fill="#FEBE00"/>
<path d="M60.6184 69.8423C60.9878 69.5798 61.3496 69.3072 61.7037 69.0244C61.9917 68.7943 62.2871 68.5733 62.5705 68.3377C62.7972 68.1492 63.0346 67.9725 63.2404 67.7595C63.2594 67.7398 63.2767 67.7161 63.3276 67.7185C63.2839 67.8256 63.225 67.9145 63.1637 68.0028C63.0832 68.1185 63.0054 68.236 62.9265 68.3527C63.0975 68.1666 63.2196 67.9445 63.3736 67.7458C63.426 67.6781 63.4736 67.6066 63.526 67.5389C63.5702 67.4819 63.5813 67.4201 63.5281 67.3714C63.4778 67.3254 63.4186 67.3531 63.3731 67.3923C63.2822 67.4707 63.1949 67.5532 63.1048 67.6326C62.307 68.3358 61.5091 69.039 60.7113 69.7422C60.6786 69.7739 60.6476 69.8073 60.6184 69.8423Z" fill="#FEBE00"/>
<path d="M61.0717 71.021C60.9997 71.1793 61.0025 71.1769 61.1125 71.3011C61.2741 71.4835 61.4296 71.6712 61.5907 71.854C61.6807 71.9561 61.7836 72.0452 61.8729 72.1498C62.0607 72.3696 62.278 72.5641 62.4662 72.7835C62.7136 73.0721 62.9866 73.3368 63.2288 73.6303C63.391 73.8269 63.5744 74.0059 63.7473 74.1938C63.8279 74.2814 63.8927 74.3836 63.9892 74.4567C64.026 74.3898 63.9772 74.3519 63.9401 74.3092C63.3868 73.6714 62.8336 73.0335 62.2805 72.3955C61.918 71.9773 61.5555 71.5592 61.1929 71.1411C61.1556 71.0983 61.1122 71.0609 61.0717 71.021Z" fill="#FEBE00"/>
<path d="M62.7261 68.6378C62.6944 68.7121 62.6078 68.748 62.5898 68.8319C62.6469 68.7753 62.704 68.7188 62.7261 68.6378Z" fill="#FEBE00"/>
<path d="M62.8961 68.3984C62.8535 68.4745 62.7684 68.5195 62.7432 68.6082C62.8053 68.5464 62.8679 68.4849 62.8961 68.3984Z" fill="#FEBE00"/>
</g>
<g clip-path="url(#clip3)">
<path d="M268.418 66.8109C268.431 66.8091 268.444 66.8073 268.457 66.8054C268.639 66.7984 268.821 66.7775 269 66.7429C269.007 66.6705 268.957 66.6662 268.914 66.661C268.166 66.5693 267.43 66.4067 266.687 66.2822C266.646 66.2754 266.605 66.2839 266.565 66.2705C266.449 66.2412 266.329 66.2284 266.208 66.2324C266.122 66.2118 266.097 66.1448 266.084 66.069C266.036 65.7991 266.021 65.5253 265.991 65.2534C265.931 64.7093 265.867 64.1657 265.812 63.6211C265.799 63.4951 265.787 63.369 265.775 63.2431C265.769 63.1869 265.768 63.1268 265.708 63.0949C265.649 63.3835 265.618 63.6764 265.574 63.9675C265.492 64.5217 265.414 65.0767 265.334 65.6313C265.312 65.7892 265.285 65.9466 265.266 66.1048C265.258 66.1659 265.23 66.1866 265.172 66.1936C264.68 66.2533 264.189 66.3142 263.697 66.3764C263.173 66.4419 262.649 66.5074 262.125 66.5731C262.109 66.5745 262.092 66.577 262.076 66.5806C262.041 66.5898 262.017 66.6125 262.018 66.6494C262.018 66.6806 262.039 66.7021 262.07 66.7097C262.098 66.7167 262.126 66.7219 262.154 66.7252C262.793 66.7958 263.432 66.8663 264.071 66.9365C264.442 66.9776 264.812 67.0196 265.182 67.0624C265.196 67.0651 265.211 67.0689 265.225 67.074C265.253 67.1088 265.251 67.1467 265.255 67.1829C265.311 67.6788 265.366 68.1747 265.422 68.6706C265.474 69.1422 265.526 69.6138 265.577 70.0855C265.579 70.1222 265.584 70.1588 265.59 70.1951C265.6 70.2416 265.62 70.2827 265.682 70.2622C265.742 70.1766 265.73 70.0741 265.742 69.9793C265.829 69.301 265.899 68.6207 265.969 67.9406C265.99 67.7378 266.013 67.5354 266.035 67.3328C266.046 67.2335 266.068 67.1405 266.147 67.0712C266.331 67.0306 266.518 67.0225 266.705 67.0018C267.114 66.9563 267.523 66.915 267.932 66.8713C267.969 66.8674 268.004 66.8581 268.04 66.8513C268.095 66.8361 268.156 66.8677 268.209 66.8327C268.217 66.8312 268.225 66.8296 268.233 66.828C268.294 66.8129 268.359 66.8433 268.418 66.8109Z" fill="#FEBE00"/>
<path d="M265.709 63.095C265.761 63.2012 265.749 63.3199 265.759 63.431C265.776 63.6211 265.802 63.8106 265.815 64.0013C265.827 64.1711 265.857 64.3396 265.877 64.5089C265.896 64.6784 265.912 64.8483 265.931 65.0179C265.951 65.2076 265.973 65.3971 265.993 65.5868C266.005 65.7 266.013 65.8135 266.024 65.9268C266.032 66.0122 266.048 66.0952 266.089 66.1729C266.117 66.2249 266.154 66.2429 266.209 66.2314C266.146 66.2063 266.124 66.1618 266.118 66.0925C266.03 65.11 265.941 64.1276 265.849 63.1454C265.848 63.1251 265.846 63.1049 265.842 63.0849C265.832 63.0462 265.81 63.0139 265.767 63.0182C265.726 63.0223 265.703 63.05 265.709 63.095Z" fill="#FEBE00"/>
<path d="M266.566 66.2695C266.882 66.3438 267.199 66.4091 267.518 66.4654C267.778 66.5113 268.036 66.5654 268.296 66.6061C268.505 66.6387 268.712 66.6826 268.923 66.6924C268.943 66.6933 268.964 66.6913 268.987 66.7198C268.908 66.747 268.833 66.7574 268.757 66.7662C268.656 66.7777 268.557 66.7915 268.457 66.8043C268.637 66.8081 268.814 66.7687 268.994 66.7574C269.055 66.7536 269.116 66.7453 269.177 66.7414C269.228 66.7382 269.267 66.7149 269.268 66.6634C269.269 66.6147 269.226 66.596 269.183 66.5901C269.098 66.5783 269.013 66.5705 268.927 66.5597C268.173 66.4638 267.418 66.368 266.664 66.2721C266.631 66.2695 266.599 66.2687 266.566 66.2695Z" fill="#FEBE00"/>
<path d="M266.148 67.0699C266.029 67.1062 266.031 67.1065 266.017 67.2243C265.995 67.3972 265.968 67.5694 265.946 67.7423C265.934 67.8389 265.934 67.9361 265.921 68.0336C265.891 68.2382 265.89 68.4468 265.861 68.6515C265.823 68.9207 265.81 69.1924 265.767 69.4611C265.738 69.641 265.729 69.8241 265.709 70.0057C265.701 70.0904 265.676 70.1734 265.683 70.2598C265.736 70.2479 265.733 70.2038 265.739 70.1637C265.819 69.5653 265.9 68.9669 265.981 68.3684C266.034 67.9762 266.088 67.584 266.141 67.1918C266.146 67.1516 266.145 67.1106 266.148 67.0699Z" fill="#FEBE00"/>
<path d="M268.209 66.8315C268.154 66.8496 268.094 66.8201 268.04 66.85C268.098 66.8539 268.155 66.8579 268.209 66.8315Z" fill="#FEBE00"/>
<path d="M268.418 66.8096C268.357 66.8227 268.292 66.7983 268.233 66.8267C268.296 66.8308 268.358 66.8353 268.418 66.8096Z" fill="#FEBE00"/>
</g>
<g clip-path="url(#clip4)">
<path d="M171.162 75.4714C171.17 75.4702 171.179 75.4691 171.187 75.4679C171.306 75.4633 171.423 75.4498 171.54 75.4273C171.544 75.3803 171.512 75.3776 171.484 75.3742C170.999 75.3147 170.521 75.2093 170.04 75.1286C170.013 75.1241 169.986 75.1297 169.961 75.121C169.885 75.102 169.807 75.0937 169.729 75.0963C169.673 75.0829 169.657 75.0395 169.648 74.9903C169.617 74.8153 169.608 74.6377 169.588 74.4614C169.549 74.1085 169.508 73.756 169.472 73.4028C169.464 73.3211 169.456 73.2394 169.448 73.1577C169.445 73.1212 169.444 73.0823 169.404 73.0615C169.366 73.2488 169.346 73.4387 169.318 73.6274C169.265 73.9869 169.214 74.3468 169.162 74.7065C169.148 74.8088 169.131 74.9109 169.118 75.0135C169.113 75.0531 169.095 75.0666 169.057 75.0711C168.738 75.1098 168.419 75.1493 168.101 75.1897C167.761 75.2321 167.421 75.2746 167.081 75.3172C167.071 75.3181 167.06 75.3198 167.05 75.3221C167.027 75.328 167.011 75.3428 167.011 75.3667C167.012 75.3869 167.026 75.4009 167.045 75.4058C167.063 75.4103 167.082 75.4137 167.1 75.4158C167.515 75.4616 167.929 75.5073 168.343 75.5529C168.583 75.5795 168.824 75.6067 169.064 75.6345C169.073 75.6363 169.082 75.6388 169.091 75.642C169.11 75.6646 169.108 75.6892 169.111 75.7126C169.147 76.0342 169.183 76.3558 169.219 76.6774C169.253 76.9832 169.287 77.2891 169.32 77.595C169.321 77.6188 169.324 77.6425 169.328 77.6661C169.335 77.6963 169.348 77.7229 169.388 77.7096C169.427 77.6541 169.419 77.5876 169.427 77.5261C169.483 77.0863 169.528 76.6451 169.574 76.204C169.588 76.0725 169.603 75.9413 169.617 75.8099C169.624 75.7454 169.638 75.6852 169.689 75.6402C169.809 75.6139 169.93 75.6086 170.051 75.5952C170.316 75.5657 170.582 75.539 170.847 75.5106C170.871 75.5081 170.894 75.502 170.917 75.4976C170.953 75.4878 170.992 75.5082 171.027 75.4856C171.032 75.4845 171.037 75.4835 171.042 75.4825C171.081 75.4727 171.124 75.4924 171.162 75.4714Z" fill="#FEBE00"/>
<path d="M169.405 73.0616C169.439 73.1305 169.431 73.2075 169.437 73.2795C169.449 73.4028 169.466 73.5257 169.474 73.6494C169.482 73.7595 169.501 73.8687 169.514 73.9785C169.527 74.0885 169.537 74.1986 169.549 74.3086C169.562 74.4316 169.577 74.5545 169.59 74.6776C169.597 74.751 169.603 74.8246 169.61 74.8981C169.615 74.9535 169.625 75.0073 169.652 75.0577C169.67 75.0914 169.694 75.103 169.73 75.0956C169.689 75.0793 169.674 75.0505 169.67 75.0055C169.614 74.3683 169.556 73.7313 169.496 73.0943C169.496 73.0811 169.494 73.068 169.491 73.0551C169.485 73.03 169.471 73.0091 169.443 73.0119C169.416 73.0145 169.401 73.0325 169.405 73.0616Z" fill="#FEBE00"/>
<path d="M169.961 75.1203C170.166 75.1685 170.371 75.2108 170.578 75.2474C170.747 75.2771 170.914 75.3122 171.083 75.3386C171.218 75.3597 171.353 75.3882 171.49 75.3945C171.502 75.3951 171.516 75.3938 171.531 75.4123C171.48 75.4299 171.431 75.4367 171.382 75.4424C171.317 75.4499 171.252 75.4588 171.187 75.4671C171.304 75.4696 171.419 75.444 171.535 75.4367C171.575 75.4342 171.614 75.4288 171.654 75.4263C171.687 75.4242 171.712 75.4091 171.713 75.3757C171.714 75.3441 171.686 75.332 171.658 75.3282C171.603 75.3206 171.548 75.3155 171.492 75.3085C171.003 75.2463 170.514 75.1841 170.024 75.122C170.003 75.1203 169.982 75.1198 169.961 75.1203Z" fill="#FEBE00"/>
<path d="M169.69 75.6393C169.613 75.6628 169.614 75.663 169.605 75.7394C169.591 75.8515 169.573 75.9632 169.559 76.0753C169.551 76.1379 169.552 76.201 169.543 76.2642C169.524 76.3969 169.522 76.5322 169.504 76.6649C169.479 76.8395 169.471 77.0157 169.443 77.1899C169.424 77.3066 169.418 77.4254 169.406 77.5431C169.4 77.598 169.384 77.6519 169.388 77.7079C169.423 77.7002 169.421 77.6716 169.425 77.6456C169.477 77.2575 169.529 76.8694 169.582 76.4814C169.616 76.227 169.651 75.9727 169.685 75.7183C169.689 75.6922 169.688 75.6656 169.69 75.6393Z" fill="#FEBE00"/>
<path d="M171.026 75.4847C170.991 75.4965 170.952 75.4774 170.917 75.4968C170.954 75.4993 170.992 75.5019 171.026 75.4847Z" fill="#FEBE00"/>
<path d="M171.162 75.4706C171.122 75.479 171.081 75.4632 171.042 75.4817C171.083 75.4843 171.123 75.4872 171.162 75.4706Z" fill="#FEBE00"/>
</g>
<g clip-path="url(#clip5)">
<path d="M264.196 27.0465C264.204 27.0455 264.212 27.0444 264.219 27.0434C264.326 27.0392 264.433 27.027 264.538 27.0067C264.542 26.9643 264.512 26.9618 264.487 26.9587C264.049 26.905 263.617 26.8097 263.182 26.7367C263.159 26.7328 263.134 26.7378 263.111 26.7299C263.043 26.7127 262.972 26.7052 262.902 26.7076C262.851 26.6955 262.837 26.6562 262.829 26.6118C262.801 26.4536 262.792 26.2932 262.775 26.1338C262.739 25.815 262.702 25.4965 262.669 25.1773C262.662 25.1035 262.655 25.0296 262.648 24.9558C262.644 24.9229 262.644 24.8877 262.608 24.8689C262.574 25.0381 262.556 25.2098 262.53 25.3803C262.482 25.7051 262.436 26.0303 262.39 26.3553C262.376 26.4478 262.361 26.5401 262.35 26.6328C262.345 26.6686 262.328 26.6807 262.294 26.6848C262.006 26.7198 261.718 26.7555 261.43 26.792C261.123 26.8303 260.816 26.8687 260.509 26.9072C260.499 26.9081 260.49 26.9095 260.48 26.9116C260.46 26.917 260.446 26.9303 260.446 26.9519C260.446 26.9702 260.459 26.9828 260.477 26.9873C260.493 26.9914 260.509 26.9944 260.526 26.9963C260.901 27.0377 261.275 27.079 261.649 27.1202C261.866 27.1442 262.083 27.1688 262.3 27.194C262.309 27.1955 262.317 27.1978 262.325 27.2007C262.342 27.2211 262.341 27.2434 262.343 27.2645C262.376 27.5551 262.408 27.8457 262.441 28.1363C262.471 28.4127 262.502 28.6891 262.532 28.9655C262.533 28.987 262.536 29.0084 262.539 29.0297C262.546 29.057 262.557 29.081 262.593 29.069C262.628 29.0189 262.621 28.9588 262.628 28.9033C262.68 28.5058 262.72 28.1071 262.762 27.7085C262.774 27.5897 262.788 27.4711 262.8 27.3524C262.806 27.2942 262.819 27.2397 262.866 27.1991C262.973 27.1753 263.084 27.1705 263.193 27.1584C263.432 27.1318 263.672 27.1076 263.912 27.082C263.933 27.0797 263.954 27.0742 263.975 27.0702C264.008 27.0613 264.043 27.0798 264.074 27.0594C264.079 27.0584 264.083 27.0575 264.088 27.0566C264.124 27.0477 264.162 27.0655 264.196 27.0465Z" fill="#FEBE00"/>
<path d="M262.609 24.869C262.64 24.9312 262.632 25.0008 262.638 25.0659C262.648 25.1773 262.664 25.2883 262.671 25.4001C262.678 25.4996 262.696 25.5983 262.707 25.6976C262.719 25.7969 262.728 25.8964 262.739 25.9959C262.751 26.107 262.764 26.218 262.776 26.3292C262.783 26.3955 262.788 26.4621 262.794 26.5285C262.799 26.5785 262.808 26.6272 262.832 26.6727C262.848 26.7031 262.87 26.7137 262.902 26.707C262.865 26.6923 262.852 26.6662 262.849 26.6256C262.797 26.0498 262.745 25.4741 262.691 24.8986C262.691 24.8866 262.689 24.8748 262.687 24.8631C262.681 24.8404 262.668 24.8215 262.643 24.824C262.619 24.8264 262.605 24.8427 262.609 24.869Z" fill="#FEBE00"/>
<path d="M263.112 26.7293C263.296 26.7728 263.482 26.8111 263.669 26.8441C263.822 26.871 263.973 26.9027 264.125 26.9265C264.248 26.9456 264.369 26.9714 264.493 26.9771C264.504 26.9776 264.517 26.9765 264.53 26.9932C264.484 27.0091 264.44 27.0152 264.395 27.0204C264.336 27.0271 264.278 27.0352 264.219 27.0427C264.325 27.0449 264.429 27.0218 264.534 27.0152C264.57 27.0129 264.606 27.0081 264.641 27.0058C264.672 27.0039 264.694 26.9903 264.695 26.9601C264.695 26.9315 264.67 26.9206 264.645 26.9171C264.595 26.9103 264.545 26.9057 264.495 26.8993C264.053 26.8432 263.611 26.787 263.169 26.7308C263.15 26.7293 263.131 26.7288 263.112 26.7293Z" fill="#FEBE00"/>
<path d="M262.866 27.1983C262.796 27.2195 262.798 27.2197 262.789 27.2887C262.777 27.3901 262.761 27.491 262.748 27.5923C262.741 27.6489 262.741 27.7059 262.733 27.763C262.716 27.8829 262.715 28.0051 262.698 28.1251C262.676 28.2828 262.668 28.4421 262.643 28.5995C262.626 28.705 262.621 28.8123 262.609 28.9187C262.604 28.9683 262.59 29.017 262.594 29.0676C262.625 29.0606 262.623 29.0348 262.627 29.0113C262.674 28.6606 262.721 28.3099 262.769 27.9592C262.8 27.7294 262.831 27.4995 262.862 27.2697C262.865 27.2461 262.865 27.2221 262.866 27.1983Z" fill="#FEBE00"/>
<path d="M264.074 27.0586C264.042 27.0691 264.007 27.052 263.976 27.0694C264.01 27.0716 264.043 27.0739 264.074 27.0586Z" fill="#FEBE00"/>
<path d="M264.196 27.0458C264.161 27.0533 264.124 27.0392 264.089 27.0557C264.126 27.0581 264.162 27.0607 264.196 27.0458Z" fill="#FEBE00"/>
</g>
<g clip-path="url(#clip6)">
<path d="M310.761 74.2333C310.768 74.2322 310.776 74.2311 310.784 74.2301C310.89 74.2259 310.997 74.2137 311.102 74.1934C311.106 74.151 311.077 74.1485 311.052 74.1454C310.613 74.0917 310.182 73.9964 309.747 73.9235C309.723 73.9195 309.699 73.9245 309.675 73.9166C309.607 73.8994 309.537 73.8919 309.466 73.8943C309.416 73.8822 309.401 73.8429 309.393 73.7985C309.365 73.6403 309.356 73.4799 309.339 73.3205C309.304 73.0017 309.266 72.6832 309.234 72.364C309.226 72.2902 309.219 72.2163 309.212 72.1425C309.209 72.1096 309.208 72.0744 309.173 72.0556C309.138 72.2248 309.12 72.3965 309.095 72.567C309.046 72.8918 309.001 73.217 308.954 73.542C308.941 73.6345 308.925 73.7268 308.914 73.8195C308.909 73.8553 308.893 73.8674 308.859 73.8715C308.571 73.9065 308.282 73.9422 307.994 73.9787C307.687 74.017 307.38 74.0554 307.073 74.0939C307.064 74.0948 307.054 74.0962 307.045 74.0983C307.024 74.1037 307.01 74.117 307.01 74.1386C307.01 74.1569 307.023 74.1695 307.041 74.174C307.057 74.1781 307.074 74.1811 307.09 74.183C307.465 74.2244 307.839 74.2657 308.214 74.3069C308.431 74.331 308.648 74.3555 308.865 74.3807C308.873 74.3822 308.881 74.3845 308.89 74.3874C308.906 74.4078 308.905 74.4301 308.907 74.4512C308.94 74.7418 308.973 75.0324 309.005 75.3231C309.036 75.5994 309.066 75.8758 309.096 76.1522C309.098 76.1737 309.1 76.1952 309.104 76.2164C309.11 76.2437 309.121 76.2678 309.158 76.2557C309.193 76.2056 309.186 76.1455 309.193 76.09C309.244 75.6925 309.285 75.2938 309.326 74.8952C309.338 74.7765 309.352 74.6578 309.365 74.5391C309.371 74.4809 309.384 74.4264 309.43 74.3858C309.538 74.362 309.648 74.3573 309.757 74.3451C309.997 74.3185 310.237 74.2943 310.476 74.2687C310.498 74.2664 310.519 74.2609 310.54 74.2569C310.572 74.248 310.607 74.2665 310.638 74.2461C310.643 74.2451 310.648 74.2442 310.652 74.2433C310.688 74.2344 310.726 74.2522 310.761 74.2333Z" fill="#FEBE00"/>
<path d="M309.173 72.0557C309.204 72.1179 309.197 72.1875 309.203 72.2526C309.213 72.364 309.228 72.475 309.236 72.5868C309.242 72.6863 309.26 72.785 309.272 72.8843C309.283 72.9836 309.293 73.0831 309.303 73.1826C309.315 73.2937 309.328 73.4048 309.34 73.5159C309.347 73.5823 309.352 73.6488 309.358 73.7152C309.363 73.7652 309.372 73.8139 309.396 73.8594C309.412 73.8898 309.434 73.9004 309.467 73.8937C309.43 73.879 309.416 73.8529 309.413 73.8123C309.362 73.2365 309.309 72.6608 309.256 72.0853C309.255 72.0734 309.254 72.0615 309.251 72.0498C309.246 72.0271 309.233 72.0082 309.207 72.0107C309.184 72.0131 309.17 72.0294 309.173 72.0557Z" fill="#FEBE00"/>
<path d="M309.676 73.916C309.861 73.9595 310.047 73.9978 310.234 74.0308C310.386 74.0577 310.537 74.0894 310.69 74.1133C310.812 74.1324 310.933 74.1581 311.057 74.1638C311.069 74.1643 311.081 74.1632 311.094 74.1799C311.048 74.1958 311.004 74.2019 310.959 74.2071C310.901 74.2138 310.842 74.2219 310.784 74.2294C310.89 74.2316 310.993 74.2085 311.098 74.2019C311.134 74.1997 311.17 74.1948 311.206 74.1925C311.236 74.1906 311.258 74.177 311.259 74.1468C311.259 74.1183 311.234 74.1073 311.209 74.1038C311.16 74.097 311.109 74.0924 311.06 74.086C310.617 74.0299 310.175 73.9737 309.733 73.9175C309.714 73.916 309.695 73.9155 309.676 73.916Z" fill="#FEBE00"/>
<path d="M309.431 74.385C309.361 74.4062 309.362 74.4064 309.354 74.4754C309.341 74.5768 309.325 74.6777 309.312 74.779C309.305 74.8356 309.306 74.8926 309.297 74.9497C309.28 75.0696 309.279 75.1918 309.262 75.3118C309.24 75.4696 309.233 75.6288 309.207 75.7862C309.19 75.8917 309.185 75.999 309.174 76.1054C309.168 76.155 309.154 76.2037 309.158 76.2543C309.189 76.2473 309.188 76.2215 309.191 76.198C309.238 75.8473 309.286 75.4966 309.333 75.1459C309.364 74.9161 309.395 74.6863 309.426 74.4564C309.429 74.4328 309.429 74.4088 309.431 74.385Z" fill="#FEBE00"/>
<path d="M310.638 74.2453C310.607 74.2558 310.572 74.2387 310.541 74.2561C310.574 74.2583 310.607 74.2606 310.638 74.2453Z" fill="#FEBE00"/>
<path d="M310.761 74.2325C310.725 74.2401 310.688 74.2259 310.654 74.2424C310.69 74.2448 310.726 74.2474 310.761 74.2325Z" fill="#FEBE00"/>
</g>
<g clip-path="url(#clip7)">
<path d="M3.76079 72.2333C3.76838 72.2322 3.77598 72.2311 3.78358 72.2301C3.89049 72.2259 3.99693 72.2137 4.10198 72.1934C4.10617 72.151 4.07661 72.1485 4.05156 72.1454C3.61314 72.0917 3.18179 71.9964 2.74666 71.9235C2.72286 71.9195 2.69854 71.9245 2.67535 71.9166C2.60698 71.8994 2.53654 71.8919 2.46608 71.8943C2.4157 71.8822 2.40097 71.8429 2.39305 71.7985C2.36485 71.6403 2.3565 71.4799 2.33889 71.3205C2.30367 71.0017 2.2659 70.6832 2.23365 70.364C2.22619 70.2902 2.21946 70.2163 2.21211 70.1425C2.20882 70.1096 2.20821 70.0744 2.17264 70.0556C2.13825 70.2248 2.12 70.3965 2.0946 70.567C2.04622 70.8918 2.00074 71.217 1.9539 71.542C1.94057 71.6345 1.92527 71.7268 1.91384 71.8195C1.90943 71.8553 1.89264 71.8674 1.85882 71.8715C1.57061 71.9065 1.28249 71.9422 0.994469 71.9787C0.687366 72.017 0.380273 72.0554 0.0731889 72.0939C0.063629 72.0948 0.0541342 72.0962 0.0447653 72.0983C0.0241866 72.1037 0.0100138 72.117 0.0102661 72.1386C0.0104789 72.1569 0.022946 72.1695 0.0409788 72.174C0.0572386 72.1781 0.073751 72.1811 0.0904084 72.183C0.464842 72.2244 0.839289 72.2657 1.21375 72.3069C1.43077 72.331 1.64772 72.3555 1.86462 72.3807C1.87312 72.3822 1.88148 72.3845 1.8896 72.3874C1.90621 72.4078 1.90495 72.4301 1.90733 72.4512C1.94001 72.7418 1.9726 73.0324 2.00511 73.3231C2.03581 73.5994 2.06621 73.8758 2.09632 74.1522C2.09759 74.1737 2.10005 74.1952 2.10371 74.2164C2.10988 74.2437 2.12126 74.2678 2.15752 74.2557C2.19276 74.2056 2.18568 74.1455 2.19282 74.09C2.24394 73.6925 2.28468 73.2938 2.32589 72.8952C2.33817 72.7765 2.35186 72.6578 2.36457 72.5391C2.3708 72.4809 2.38365 72.4264 2.43015 72.3858C2.53778 72.362 2.64786 72.3573 2.75693 72.3451C2.99661 72.3185 3.23656 72.2943 3.47635 72.2687C3.4976 72.2664 3.5185 72.2609 3.53957 72.2569C3.57192 72.248 3.60729 72.2665 3.63836 72.2461C3.64305 72.2451 3.64773 72.2442 3.65241 72.2433C3.68803 72.2344 3.72611 72.2522 3.76079 72.2333Z" fill="#FEBE00"/>
<path d="M2.17325 70.0557C2.20417 70.1179 2.1968 70.1875 2.20267 70.2526C2.21273 70.364 2.228 70.475 2.23566 70.5868C2.24249 70.6863 2.2602 70.785 2.27166 70.8843C2.28315 70.9836 2.29261 71.0831 2.3034 71.1826C2.31545 71.2937 2.3285 71.4048 2.34015 71.5159C2.3471 71.5823 2.35191 71.6488 2.35822 71.7152C2.36298 71.7652 2.37204 71.8139 2.39621 71.8594C2.41236 71.8898 2.43423 71.9004 2.46657 71.8937C2.4297 71.879 2.4165 71.8529 2.41289 71.8123C2.36174 71.2365 2.30938 70.6608 2.25582 70.0853C2.25521 70.0734 2.2537 70.0615 2.25133 70.0498C2.24574 70.0271 2.23267 70.0082 2.20746 70.0107C2.1837 70.0131 2.16975 70.0294 2.17325 70.0557Z" fill="#FEBE00"/>
<path d="M2.67583 71.916C2.86071 71.9595 3.04666 71.9978 3.2337 72.0308C3.38584 72.0577 3.53719 72.0894 3.68978 72.1133C3.81184 72.1324 3.93319 72.1581 4.05716 72.1638C4.06864 72.1643 4.08089 72.1632 4.09422 72.1799C4.04844 72.1958 4.00416 72.2019 3.95941 72.2071C3.90074 72.2138 3.84223 72.2219 3.78365 72.2294C3.88956 72.2316 3.99323 72.2085 4.09837 72.2019C4.1342 72.1997 4.16986 72.1948 4.20569 72.1925C4.23583 72.1906 4.25836 72.177 4.25893 72.1468C4.25948 72.1183 4.23437 72.1073 4.20941 72.1038C4.15959 72.097 4.10945 72.0924 4.05954 72.086C3.61737 72.0299 3.1752 71.9737 2.73304 71.9175C2.71401 71.916 2.69492 71.9155 2.67583 71.916Z" fill="#FEBE00"/>
<path d="M2.43054 72.385C2.36081 72.4062 2.36237 72.4064 2.35377 72.4754C2.34115 72.5768 2.32518 72.6777 2.31232 72.779C2.30513 72.8356 2.3056 72.8926 2.29744 72.9497C2.28032 73.0696 2.27933 73.1918 2.26243 73.3118C2.2402 73.4696 2.23257 73.6288 2.20733 73.7862C2.19042 73.8917 2.18494 73.999 2.17372 74.1054C2.16848 74.155 2.15428 74.2037 2.15802 74.2543C2.18927 74.2473 2.18766 74.2215 2.19083 74.198C2.23816 73.8473 2.28557 73.4966 2.33307 73.1459C2.36418 72.9161 2.39527 72.6863 2.42633 72.4564C2.42949 72.4328 2.42922 72.4088 2.43054 72.385Z" fill="#FEBE00"/>
<path d="M3.63843 72.2453C3.60663 72.2558 3.57179 72.2387 3.54077 72.2561C3.57398 72.2583 3.60718 72.2606 3.63843 72.2453Z" fill="#FEBE00"/>
<path d="M3.76074 72.2325C3.72543 72.2401 3.68811 72.2259 3.65363 72.2424C3.68987 72.2448 3.72612 72.2474 3.76074 72.2325Z" fill="#FEBE00"/>
</g>
<g clip-path="url(#clip8)">
<path d="M6.76079 13.2333C6.76838 13.2322 6.77598 13.2311 6.78358 13.2301C6.89049 13.2259 6.99693 13.2137 7.10198 13.1934C7.10617 13.151 7.07661 13.1485 7.05156 13.1454C6.61314 13.0917 6.18179 12.9964 5.74666 12.9235C5.72286 12.9195 5.69854 12.9245 5.67535 12.9166C5.60698 12.8994 5.53654 12.8919 5.46608 12.8943C5.4157 12.8822 5.40097 12.8429 5.39305 12.7985C5.36485 12.6403 5.3565 12.4799 5.33889 12.3205C5.30367 12.0017 5.2659 11.6832 5.23365 11.364C5.22619 11.2902 5.21946 11.2163 5.21211 11.1425C5.20882 11.1096 5.20821 11.0744 5.17264 11.0556C5.13825 11.2248 5.12 11.3965 5.0946 11.567C5.04622 11.8918 5.00074 12.217 4.9539 12.542C4.94057 12.6345 4.92527 12.7268 4.91384 12.8195C4.90943 12.8553 4.89264 12.8674 4.85882 12.8715C4.57061 12.9065 4.28249 12.9422 3.99447 12.9787C3.68737 13.017 3.38027 13.0554 3.07319 13.0939C3.06363 13.0948 3.05413 13.0962 3.04477 13.0983C3.02419 13.1037 3.01001 13.117 3.01027 13.1386C3.01048 13.1569 3.02295 13.1695 3.04098 13.174C3.05724 13.1781 3.07375 13.1811 3.09041 13.183C3.46484 13.2244 3.83929 13.2657 4.21375 13.3069C4.43077 13.331 4.64772 13.3555 4.86462 13.3807C4.87312 13.3822 4.88148 13.3845 4.8896 13.3874C4.90621 13.4078 4.90495 13.4301 4.90733 13.4512C4.94001 13.7418 4.9726 14.0324 5.00511 14.3231C5.03581 14.5994 5.06621 14.8758 5.09632 15.1522C5.09759 15.1737 5.10005 15.1952 5.10371 15.2164C5.10988 15.2437 5.12126 15.2678 5.15752 15.2557C5.19276 15.2056 5.18568 15.1455 5.19282 15.09C5.24394 14.6925 5.28468 14.2938 5.32589 13.8952C5.33817 13.7765 5.35186 13.6578 5.36457 13.5391C5.3708 13.4809 5.38365 13.4264 5.43015 13.3858C5.53778 13.362 5.64786 13.3573 5.75693 13.3451C5.99661 13.3185 6.23656 13.2943 6.47635 13.2687C6.4976 13.2664 6.5185 13.2609 6.53957 13.2569C6.57192 13.248 6.60729 13.2665 6.63836 13.2461C6.64305 13.2451 6.64773 13.2442 6.65241 13.2433C6.68803 13.2344 6.72611 13.2522 6.76079 13.2333Z" fill="#FEBE00"/>
<path d="M5.17325 11.0557C5.20417 11.1179 5.1968 11.1875 5.20267 11.2526C5.21273 11.364 5.228 11.475 5.23566 11.5868C5.24249 11.6863 5.2602 11.785 5.27166 11.8843C5.28315 11.9836 5.29261 12.0831 5.3034 12.1826C5.31545 12.2937 5.3285 12.4048 5.34015 12.5159C5.3471 12.5823 5.35191 12.6488 5.35822 12.7152C5.36298 12.7652 5.37204 12.8139 5.39621 12.8594C5.41236 12.8898 5.43423 12.9004 5.46657 12.8937C5.4297 12.879 5.4165 12.8529 5.41289 12.8123C5.36174 12.2365 5.30938 11.6608 5.25582 11.0853C5.25521 11.0734 5.2537 11.0615 5.25133 11.0498C5.24574 11.0271 5.23267 11.0082 5.20746 11.0107C5.1837 11.0131 5.16975 11.0294 5.17325 11.0557Z" fill="#FEBE00"/>
<path d="M5.67583 12.916C5.86071 12.9595 6.04666 12.9978 6.2337 13.0308C6.38584 13.0577 6.53719 13.0894 6.68978 13.1133C6.81184 13.1324 6.93319 13.1581 7.05716 13.1638C7.06864 13.1643 7.08089 13.1632 7.09422 13.1799C7.04844 13.1958 7.00416 13.2019 6.95941 13.2071C6.90074 13.2138 6.84223 13.2219 6.78365 13.2294C6.88956 13.2316 6.99323 13.2085 7.09837 13.2019C7.1342 13.1997 7.16986 13.1948 7.20569 13.1925C7.23583 13.1906 7.25836 13.177 7.25893 13.1468C7.25948 13.1183 7.23437 13.1073 7.20941 13.1038C7.15959 13.097 7.10945 13.0924 7.05954 13.086C6.61737 13.0299 6.1752 12.9737 5.73304 12.9175C5.71401 12.916 5.69492 12.9155 5.67583 12.916Z" fill="#FEBE00"/>
<path d="M5.43054 13.385C5.36081 13.4062 5.36237 13.4064 5.35377 13.4754C5.34115 13.5768 5.32518 13.6777 5.31232 13.779C5.30513 13.8356 5.3056 13.8926 5.29744 13.9497C5.28032 14.0696 5.27933 14.1918 5.26243 14.3118C5.2402 14.4696 5.23257 14.6288 5.20733 14.7862C5.19042 14.8917 5.18494 14.999 5.17372 15.1054C5.16848 15.155 5.15428 15.2037 5.15802 15.2543C5.18927 15.2473 5.18766 15.2215 5.19083 15.198C5.23816 14.8473 5.28557 14.4966 5.33307 14.1459C5.36418 13.9161 5.39527 13.6863 5.42633 13.4564C5.42949 13.4328 5.42922 13.4088 5.43054 13.385Z" fill="#FEBE00"/>
<path d="M6.63843 13.2453C6.60663 13.2558 6.57179 13.2387 6.54077 13.2561C6.57398 13.2583 6.60718 13.2606 6.63843 13.2453Z" fill="#FEBE00"/>
<path d="M6.76074 13.2325C6.72543 13.2401 6.68811 13.2259 6.65363 13.2424C6.68987 13.2448 6.72612 13.2474 6.76074 13.2325Z" fill="#FEBE00"/>
</g>
<g clip-path="url(#clip9)">
<path d="M313.382 34.4376C313.395 34.4358 313.408 34.4339 313.421 34.4321C313.604 34.4251 313.785 34.4042 313.964 34.3697C313.971 34.2973 313.921 34.2931 313.878 34.2878C313.131 34.1962 312.395 34.0338 311.654 33.9094C311.613 33.9026 311.572 33.9111 311.532 33.8977C311.415 33.8685 311.295 33.8557 311.175 33.8597C311.089 33.839 311.064 33.7722 311.051 33.6964C311.003 33.4267 310.988 33.1532 310.958 32.8816C310.898 32.338 310.834 31.7949 310.779 31.2508C310.766 31.125 310.755 30.999 310.742 30.8732C310.737 30.817 310.736 30.7571 310.675 30.7251C310.616 31.0135 310.585 31.3061 310.542 31.5969C310.459 32.1506 310.382 32.7051 310.302 33.2592C310.279 33.4169 310.253 33.5741 310.234 33.7322C310.226 33.7932 310.198 33.8139 310.14 33.8209C309.649 33.8805 309.157 33.9414 308.666 34.0036C308.143 34.0689 307.619 34.1344 307.096 34.2C307.079 34.2015 307.063 34.204 307.047 34.2075C307.012 34.2167 306.988 34.2394 306.988 34.2762C306.989 34.3074 307.01 34.3289 307.041 34.3365C307.069 34.3435 307.097 34.3486 307.125 34.3519C307.763 34.4225 308.402 34.4929 309.04 34.5631C309.41 34.6041 309.78 34.6461 310.15 34.6889C310.164 34.6915 310.179 34.6954 310.192 34.7004C310.221 34.7352 310.219 34.7731 310.223 34.8092C310.278 35.3046 310.334 35.8 310.389 36.2955C310.442 36.7666 310.494 37.2378 310.545 37.709C310.547 37.7457 310.551 37.7823 310.557 37.8185C310.568 37.865 310.587 37.906 310.649 37.8856C310.709 37.8001 310.697 37.6977 310.709 37.6029C310.797 36.9253 310.866 36.2457 310.936 35.5661C310.957 35.3636 310.981 35.1614 311.002 34.959C311.013 34.8597 311.035 34.7669 311.114 34.6976C311.297 34.657 311.485 34.649 311.671 34.6283C312.08 34.5829 312.489 34.5416 312.898 34.4979C312.934 34.4941 312.969 34.4847 313.005 34.478C313.06 34.4628 313.121 34.4943 313.174 34.4594C313.182 34.4578 313.19 34.4562 313.198 34.4547C313.258 34.4395 313.323 34.4699 313.382 34.4376Z" fill="#FEBE00"/>
<path d="M310.675 30.7251C310.728 30.8312 310.715 30.9499 310.725 31.0609C310.742 31.251 310.768 31.4403 310.781 31.6309C310.793 31.8006 310.823 31.969 310.843 32.1382C310.862 32.3076 310.878 32.4774 310.897 32.6469C310.917 32.8365 310.94 33.0258 310.96 33.2155C310.971 33.3286 310.98 33.442 310.99 33.5552C310.999 33.6406 311.014 33.7236 311.055 33.8012C311.083 33.8531 311.12 33.8711 311.175 33.8597C311.112 33.8346 311.09 33.7901 311.084 33.7209C310.996 32.7389 310.907 31.7571 310.816 30.7755C310.815 30.7552 310.812 30.735 310.808 30.7151C310.799 30.6764 310.776 30.6441 310.733 30.6484C310.693 30.6525 310.669 30.6802 310.675 30.7251Z" fill="#FEBE00"/>
<path d="M311.532 33.8977C311.847 33.9719 312.164 34.0372 312.483 34.0935C312.743 34.1393 313.001 34.1934 313.261 34.2341C313.469 34.2667 313.676 34.3105 313.888 34.3203C313.907 34.3212 313.928 34.3193 313.951 34.3477C313.873 34.3749 313.797 34.3853 313.721 34.3941C313.621 34.4056 313.521 34.4193 313.421 34.4321C313.602 34.436 313.779 34.3965 313.958 34.3853C314.019 34.3815 314.08 34.3731 314.141 34.3693C314.193 34.3661 314.231 34.3428 314.232 34.2913C314.233 34.2426 314.19 34.2239 314.147 34.2181C314.062 34.2063 313.977 34.1985 313.892 34.1877C313.138 34.0919 312.384 33.9961 311.63 33.9003C311.597 33.8977 311.565 33.8969 311.532 33.8977Z" fill="#FEBE00"/>
<path d="M311.114 34.6976C310.995 34.7338 310.998 34.7341 310.983 34.8518C310.961 35.0246 310.934 35.1967 310.912 35.3695C310.9 35.466 310.901 35.5632 310.887 35.6606C310.858 35.8651 310.856 36.0736 310.827 36.2782C310.789 36.5472 310.776 36.8187 310.733 37.0872C310.704 37.2671 310.695 37.4501 310.676 37.6315C310.667 37.7162 310.643 37.7992 310.649 37.8855C310.702 37.8736 310.7 37.8296 310.705 37.7895C310.786 37.1914 310.867 36.5933 310.948 35.9953C311.001 35.6033 311.054 35.2113 311.107 34.8193C311.112 34.7791 311.112 34.7382 311.114 34.6976Z" fill="#FEBE00"/>
<path d="M313.174 34.4594C313.119 34.4774 313.059 34.448 313.005 34.4779C313.063 34.4818 313.12 34.4858 313.174 34.4594Z" fill="#FEBE00"/>
<path d="M313.382 34.4375C313.322 34.4506 313.257 34.4262 313.198 34.4546C313.26 34.4587 313.323 34.4632 313.382 34.4375Z" fill="#FEBE00"/>
</g>
<defs>
<clipPath id="clip0">
<rect width="10.1537" height="10.1537" fill="white" transform="matrix(0.941563 0.336838 0.336838 -0.941563 90 9.56036)"/>
</clipPath>
<clipPath id="clip1">
<rect width="10.1378" height="10.1378" fill="white" transform="matrix(-0.999989 -0.0047931 -0.0047931 0.999989 192.094 3.04858)"/>
</clipPath>
<clipPath id="clip2">
<rect width="10.1378" height="10.1378" fill="white" transform="matrix(-0.664485 0.747301 0.747301 0.664485 59.6733 66.937)"/>
</clipPath>
<clipPath id="clip3">
<rect width="7.25039" height="7.25039" fill="white" transform="matrix(-0.999989 -0.0047931 -0.0047931 0.999989 269.285 63.0347)"/>
</clipPath>
<clipPath id="clip4">
<rect width="4.7019" height="4.7019" fill="white" transform="matrix(-0.999989 -0.0047931 -0.0047931 0.999989 171.724 73.0225)"/>
</clipPath>
<clipPath id="clip5">
<rect width="4.24876" height="4.24876" fill="white" transform="matrix(-0.999989 -0.0047931 -0.0047931 0.999989 264.705 24.8337)"/>
</clipPath>
<clipPath id="clip6">
<rect width="4.24876" height="4.24876" fill="white" transform="matrix(-0.999989 -0.0047931 -0.0047931 0.999989 311.269 72.0204)"/>
</clipPath>
<clipPath id="clip7">
<rect width="4.24876" height="4.24876" fill="white" transform="matrix(-0.999989 -0.0047931 -0.0047931 0.999989 4.26904 70.0204)"/>
</clipPath>
<clipPath id="clip8">
<rect width="4.24876" height="4.24876" fill="white" transform="matrix(-0.999989 -0.0047931 -0.0047931 0.999989 7.26904 11.0204)"/>
</clipPath>
<clipPath id="clip9">
<rect width="7.2434" height="7.2434" fill="white" transform="matrix(-0.999989 -0.0047931 -0.0047931 0.999989 314.249 30.6649)"/>
</clipPath>
</defs>
</svg>
